<svg xmlns="http://www.w3.org/2000/svg" xmlns:xlink="http://www.w3.org/1999/xlink" viewBox="0 0 737.61 909.04"><defs><style>.cls-1{isolation:isolate;}.cls-2{fill:#a8c4e5;opacity:0.4;mix-blend-mode:multiply;}.cls-3{fill:url(#linear-gradient);}.cls-4{fill:#d0e1f4;}.cls-5{fill:#e6f0ff;}.cls-6{fill:#2c1f9c;}.cls-7{fill:#7d8aff;}.cls-8{fill:#4a3eb5;}.cls-9{fill:url(#radial-gradient);}.cls-10{fill:url(#radial-gradient-2);}.cls-11{fill:url(#radial-gradient-3);}.cls-12{fill:#ffce43;}.cls-13{fill:#ffc2b0;}.cls-14{fill:#4432db;}.cls-15{fill:#e655be;}.cls-16{fill:#f09a82;}.cls-17{fill:#ff80db;}.cls-18{fill:#fff;}.cls-19{fill:#6271f0;}.cls-20{fill:#2a1c9e;}.cls-21{fill:#8d99fc;}.cls-22{fill:#9ebbde;}.cls-23{fill:#21ded5;}.cls-24{fill:#c6d2f2;}.cls-25{fill:#3b2ad1;}.cls-26{fill:#6f9ed9;}.cls-27{fill:#fbddd3;}.cls-28{fill:#4a70d6;opacity:0.27;}.cls-29,.cls-30{fill:none;stroke:#fff;stroke-linecap:round;stroke-linejoin:round;}.cls-29{stroke-width:5.1px;}.cls-30{stroke-width:7.78px;}</style><linearGradient id="linear-gradient" x1="341.42" y1="358.1" x2="615.96" y2="358.1" gradientUnits="userSpaceOnUse"><stop offset="0.33" stop-color="#d0e1f4"/><stop offset="0.48" stop-color="#cbdef4"/><stop offset="0.65" stop-color="#bcd6f4"/><stop offset="0.84" stop-color="#a3c9f4"/><stop offset="0.87" stop-color="#9fc7f4"/></linearGradient><radialGradient id="radial-gradient" cx="659.6" cy="-64.77" r="110.4" gradientTransform="matrix(0.61, 0.05, -0.03, 0.99, 3.19, 256.61)" gradientUnits="userSpaceOnUse"><stop offset="0" stop-color="#0028a1"/><stop offset="0.23" stop-color="#2041b9"/><stop offset="0.94" stop-color="#7d8aff"/></radialGradient><radialGradient id="radial-gradient-2" cx="824.27" cy="42.84" r="110.39" gradientTransform="matrix(0.43, 0.39, -0.23, 0.73, 168.15, 75.98)" xlink:href="#radial-gradient"/><radialGradient id="radial-gradient-3" cx="569.9" cy="108.22" r="110.4" gradientTransform="matrix(0.08, 0.61, -0.83, 0.06, 425.66, 76.16)" xlink:href="#radial-gradient"/></defs><title>people-ratingAsset 3</title><g class="cls-1"><g id="Layer_2" data-name="Layer 2"><g id="image"><path class="cls-2" d="M597,691l103.68-62.27a13.84,13.84,0,0,0-.21-23.66L393,422.25l-40.41,127.8Z"/><path class="cls-3" d="M582,699.65,365.89,556.35c-13.52-7.8-24.47-28.73-24.47-46.75V38c0-18,10.95-26.3,24.47-18.49l225.6,130.25C605,157.53,616,178.47,616,196.48v469.4c0,11.86-4.43,16.8-11.89,21.11Z"/><path class="cls-4" d="M457,256.61S341.31,527.15,341.31,509.13l-19-476.9,28.36-15c4.16-2,9.41-1.53,15.11,1.76L591.39,149.27c6.6,3.81,12.59,10.75,17,18.95Z"/><path class="cls-5" d="M568.77,698.12,343.71,567.87c-13.51-7.81-23.91-28.74-23.91-46.76V49.49c0-18,10.67-26.3,24.18-18.5L568.91,161.24C582.43,169.05,592.7,190,592.7,208V679.62C592.7,697.64,582.28,705.92,568.77,698.12Z"/><path class="cls-6" d="M564.26,699.79,339.2,569.54c-13.51-7.8-23.91-28.74-23.91-46.76V51.16c0-18,10.66-26.3,24.18-18.5L564.4,162.92c13.51,7.8,23.79,28.73,23.79,46.75V681.29C588.19,699.31,577.77,707.6,564.26,699.79Z"/><path class="cls-7" d="M558,619.2,338.58,492.51a7.37,7.37,0,0,1-3.68-6.39V87.84A7.37,7.37,0,0,1,346,81.45L565.39,208.14a7.38,7.38,0,0,1,3.69,6.39V612.81A7.38,7.38,0,0,1,558,619.2Z"/><path class="cls-8" d="M490.1,150.71l-69.59-40.18c-2.44-1.41-4.44-5.22-4.44-8.48h0c0-3.25,2-4.76,4.44-3.35l69.59,40.17c2.45,1.41,4.44,5.23,4.44,8.49h0C494.54,150.61,492.55,152.12,490.1,150.71Z"/><ellipse class="cls-9" cx="409.57" cy="228.42" rx="67.76" ry="109.16" transform="translate(-18.53 36.98) rotate(-5.05)"/><ellipse class="cls-10" cx="509.53" cy="430.37" rx="53.34" ry="91.66" transform="translate(-119.61 208.96) rotate(-20.8)"/><ellipse class="cls-11" cx="383.09" cy="430.18" rx="91.69" ry="67.64" transform="translate(-94.44 752.32) rotate(-82.32)"/><path class="cls-12" d="M122.44,455.8l2.33,6.79a5.14,5.14,0,0,0,1.69,2.38l5.23,3.89c1.84,1.37,2.58,4.4,1.24,5.12l-3.78,2a1.77,1.77,0,0,0-.64,1.91l.89,6.49c.31,2.29-1.61,2.78-3.26.84l-4.67-5.52a2.92,2.92,0,0,0-2.09-1.21l-4.68.12c-1.65,0-3.57-2.67-3.26-4.6l.89-5.45a4.17,4.17,0,0,0-.64-2.66l-3.78-6.41c-1.34-2.26-.6-4.44,1.24-3.68l5.23,2.15a1.25,1.25,0,0,0,1.69-.44l2.34-4.08C119.23,452,121.61,453.41,122.44,455.8Z"/><ellipse class="cls-2" cx="72.65" cy="669.1" rx="33.13" ry="16.46" transform="translate(-11.85 1.39) rotate(-1.02)"/><path class="cls-6" d="M48.34,658.12l7.2-.91c4.82-2.18,7.08-3.82,9.22-2.58l.61.35c2.15,1.24,1.88,3.42-.6,4.85l-10.59,8.42a7,7,0,0,1-7.8-.76s-1.19-1.07-.34-5.57C46.52,659.35,46.36,659.26,48.34,658.12Z"/><path class="cls-13" d="M56.85,658.43c-.57,5-9.7,5-9.7,1.19l5.06-115,30.43-8.58Z"/><path class="cls-6" d="M78.8,669.1l7.14,1.35c5.26-.61,7.9-1.48,9.57.36l.47.52c1.66,1.83.74,3.83-2.06,4.44l-12.66,4.76a7,7,0,0,1-7.19-3.1s-.8-1.38,1.38-5.41C76.7,669.72,76.56,669.58,78.8,669.1Z"/><path class="cls-13" d="M84.63,672.15c-1.59,4-8.56,3.14-8.44-.16,3.25-39.83-4.24-77.45-13.9-114.06l29.23-3.16C92.66,597.61,92.27,634.31,84.63,672.15Z"/><path class="cls-6" d="M89.71,544.41,99.87,600.2s-25.26,25-54.15,0L49,547.81Z"/><ellipse class="cls-13" cx="71.36" cy="461.15" rx="9.34" ry="16.47" transform="matrix(0.99, -0.13, 0.13, 0.99, -58.55, 12.96)"/><path class="cls-13" d="M88,467.7c-2.17,7.57-10.29,10.31-15.07,5.37S66,458,68.21,450.4s7.81-9.71,12.58-4.77S90.16,460.12,88,467.7Z"/><path class="cls-13" d="M69.62,489.55l-.81-.18a5.11,5.11,0,0,1-3.88-6.09l3.45-15.47a5.13,5.13,0,0,1,6.1-3.87l.81.18a5.13,5.13,0,0,1,3.88,6.1L78,485.56C77.42,488.31,72.36,490.17,69.62,489.55Z"/><path class="cls-14" d="M63.14,468.78s-.94,5.26,8.22,5.76c7.34.41,5.16-12.86,12.43-14,8-1.31,9.45-11.19,6.3-15s-12-5.78-18.35-3S52,447.42,63.14,468.78Z"/><path class="cls-13" d="M83.82,464.61a3.47,3.47,0,1,1-2.38-4.29A3.46,3.46,0,0,1,83.82,464.61Z"/><path class="cls-15" d="M48.84,547.22c2.59-14.19-.2-25.41,0-40.5,0-27.13-1.3-33.75,13-29.62l4,1.07a28.31,28.31,0,0,1,5.61,2.17c18.91,9.74,24,12.74,23.12,24,.09,18.62-8.58,22.41-4,38.71C86.81,556,53.16,556.43,48.84,547.22Z"/><path class="cls-16" d="M78.77,475.56l-.82-1.9a5.22,5.22,0,0,0,4.25,1.1A6.63,6.63,0,0,1,78.77,475.56Z"/><path class="cls-6" d="M70.45,453.9c0,4.23-3,7.67-6.61,7.67s-6.61-3.44-6.61-7.67,3-7.68,6.61-7.68S70.45,449.66,70.45,453.9Z"/><path class="cls-14" d="M63.67,451.5c.31-3.94-5.05-5.66-7.16-2.33a15.47,15.47,0,0,0-1.77,4.72C52.07,465.69,32.19,464,42,484.75c0,0-8.88,13.62,7.61,19.36,8.44,2.94,8.25-18.79,8.25-18.79s3.37-10,6.62-17.83a14.59,14.59,0,0,0,0-11.5A9,9,0,0,1,63.67,451.5Z"/><path class="cls-6" d="M65.83,476.3a2.27,2.27,0,0,0-2.75,2.6c.3,1.77,1.38,3.88,4.61,5,4.47,1.51,9.38.7,11.75.14a.65.65,0,0,0,.18-1.18C77,481.2,70.57,477.45,65.83,476.3Z"/><path class="cls-15" d="M77.61,500.4s18.54,45.08,38.78,23.36,13.12-37,13.12-37L126.8,486s-8.23,27.27-17,24.58S89.15,491,84.93,490.24,77.61,500.4,77.61,500.4Z"/><path class="cls-13" d="M129,489.88h0a3.54,3.54,0,0,1-3.53-3.53v-3.61a3.54,3.54,0,0,1,3.53-3.53h0a3.54,3.54,0,0,1,3.53,3.53v3.61A3.54,3.54,0,0,1,129,489.88Z"/><path class="cls-15" d="M328,242.2l55.14,74.22c1.69,2.27,7.83.76,8.67-2.14l12.77-43.94Z"/><path class="cls-15" d="M371.63,373.49l42.05-21.15a7.52,7.52,0,0,1,10.45,8.73L397.89,412.6l-6.74-5.81-12.32-18.9Z"/><path class="cls-14" d="M544.57,478.61l-36.39,29.87a7.52,7.52,0,0,1-12.11-6.23l14.29-56,7.85,4.18,16.17,15.74Z"/><path class="cls-15" d="M423.89,273.71,229.26,161.35c-15.4-8.89-27.88-32.74-27.88-53.27V24.42c0-20.53,12.48-30,27.88-21.07L423.89,115.71c15.39,8.89,27.87,32.74,27.87,53.27v83.66C451.76,273.17,439.28,282.6,423.89,273.71Z"/><polygon class="cls-15" points="187.81 18.34 210.45 2.22 443.83 274.02 419.03 291.5 187.81 18.34"/><path class="cls-17" d="M399.89,290.6,205.26,178.23c-15.4-8.89-27.88-32.74-27.88-53.27V41.3c0-20.53,12.48-30,27.88-21.07L399.89,132.6c15.39,8.89,27.87,32.73,27.87,53.26v83.66C427.76,290.05,415.28,299.49,399.89,290.6Z"/><ellipse class="cls-18" cx="234.32" cy="110.02" rx="31.29" ry="50.89" transform="translate(-16.23 175.09) rotate(-39.71)"/><path class="cls-6" d="M215.65,118.71a47.59,47.59,0,0,1,2,19.11c9.07,8.85,22.12,15.91,35.47,16.43,0,0-.31-13.89,2.16-15l-.06-1.43-5.91-4.66L246,142s-2.25,4.63-10.16-.4-9.27-6.65-9.78-9.95-2.57-11.54-2.57-11.54Z"/><path class="cls-6" d="M241.87,131.87h-.09a.79.79,0,0,1-.67-.7l-.57-9.67a.5.5,0,0,1,.6-.53.79.79,0,0,1,.68.7l.56,9.67A.49.49,0,0,1,241.87,131.87Z"/><path class="cls-6" d="M230.05,126.1l-.16,0a.79.79,0,0,1-.6-.77l.66-9.07a.52.52,0,0,1,.68-.44.77.77,0,0,1,.59.76l-.66,9.08A.49.49,0,0,1,230.05,126.1Z"/><path class="cls-6" d="M223,103.27a.73.73,0,0,1-.41-.13c-.13-.09-3.29-2.3-4.51-7.9-.5-2.26-.31-3.6.57-4.1a2.62,2.62,0,0,1,2.46.34.68.68,0,0,1,.3.87.58.58,0,0,1-.85.13c-.18-.12-.8-.42-1.12-.24-.16.09-.64.58-.12,3,1.1,5,3.83,6.94,3.85,7a.67.67,0,0,1,.28.87A.52.52,0,0,1,223,103.27Z"/><path class="cls-6" d="M264.67,151.73a.81.81,0,0,1-.74-.6c-1.14-5-4.1-9.21-9-12.88-10.41-7.71-13.46-12.16-13.59-12.34a.56.56,0,0,1,.14-.83.74.74,0,0,1,.89.3h0s3.07,4.43,13.2,11.94c5.26,3.9,8.42,8.41,9.64,13.77a.5.5,0,0,1-.48.64Z"/><path class="cls-6" d="M206.78,126l-.2,0a.77.77,0,0,1-.56-.78c.74-6,4.3-8.35,10.56-6.87,10,2.36,13,1,13,1a.76.76,0,0,1,.89.32.54.54,0,0,1-.15.81c-.13.07-3.31,1.57-13.85-.92-5.63-1.33-8.56.59-9.23,6A.49.49,0,0,1,206.78,126Z"/><path class="cls-6" d="M217.77,137.34h-.13a.79.79,0,0,1-.63-.73l0-7.91a32.35,32.35,0,0,0-2-9.87.51.51,0,0,1,.36-.72.79.79,0,0,1,.83.5,33,33,0,0,1,2.07,10.34l0,7.9A.49.49,0,0,1,217.77,137.34Z"/><path class="cls-6" d="M253.24,154.66h-.13a.77.77,0,0,1-.63-.73l0-7.9a16.86,16.86,0,0,1,2.19-8.36.61.61,0,0,1,.87-.08.66.66,0,0,1,.25.87,16.17,16.17,0,0,0-2,7.81l0,7.91A.48.48,0,0,1,253.24,154.66Z"/><path class="cls-6" d="M242.85,144.69c-2.11,0-4.69-1.26-7.61-2.69-6.45-3.15-9.81-7.29-10.27-12.66a42.09,42.09,0,0,0-2.13-9.1.5.5,0,0,1,.38-.71.77.77,0,0,1,.82.51,44.1,44.1,0,0,1,2.21,9.44c.4,4.81,3.47,8.55,9.38,11.43,3.79,1.86,6.21,2.94,7.93,2.4,1-.32,1.82-1.29,2.39-3,1.59-4.63,2.74-7.5,2.75-7.53a.56.56,0,0,1,.82-.22.72.72,0,0,1,.38.85s-1.16,2.88-2.73,7.49c-.68,2-1.67,3.15-3,3.57A4.26,4.26,0,0,1,242.85,144.69Z"/><path class="cls-6" d="M253.32,136.89a.79.79,0,0,1-.7-.49,65.76,65.76,0,0,1-3.8-19.22,13.74,13.74,0,0,1-1.18,1.93,7.1,7.1,0,0,1-2.92,2c-4.93,2-12.54-1.64-17.34-8.38a35.25,35.25,0,0,1-3.29-5.41,42.22,42.22,0,0,1-3.49-15.08c-.94-5.79.84-8,4.43-10.16,3.14-1.86,1.45-6.72,1.43-6.77a.51.51,0,0,1,.32-.69.76.76,0,0,1,.82.38,43.6,43.6,0,0,0,6.89,8.48q.7.69,1.59,1.5c5.43,5.05,14.5,13.51,14,24.17-.79,15.85,3.68,26.87,3.73,27a.51.51,0,0,1-.34.74ZM228.21,78a5.32,5.32,0,0,1-2.37,5.18c-3.38,2-4.84,3.88-4,9.15a.17.17,0,0,1,0,.07A40.93,40.93,0,0,0,225.24,107a34.59,34.59,0,0,0,3.14,5.16c4.4,6.18,11.28,9.6,15.66,7.78a6.18,6.18,0,0,0,2.53-1.71,22,22,0,0,0,2.14-4c0-1.72,0-3.52.07-5.38.5-10-8.25-18.19-13.48-23.06l-1.62-1.52A48.55,48.55,0,0,1,228.21,78Z"/><path class="cls-6" d="M260.73,143.55a.79.79,0,0,1-.71-.48c-.33-.78-8-19.2-6.29-31a.52.52,0,0,1,.72-.38.76.76,0,0,1,.54.79c-1.7,11.5,6.12,30.16,6.2,30.35a.51.51,0,0,1-.33.74Z"/><path class="cls-6" d="M254.89,108.68l-.15,0a.78.78,0,0,1-.61-.75c.66-14.87-7.14-26.86-15.19-31-8.59-4.44-11.35-1.77-11.37-1.74a.67.67,0,0,1-.9-.06.63.63,0,0,1-.12-.87c.13-.14,3.25-3.34,12.81,1.6,8.49,4.39,16.73,16.92,16,32.38A.49.49,0,0,1,254.89,108.68Z"/><path class="cls-6" d="M219.59,91.44h0a.79.79,0,0,1-.74-.63c-3.41-17.59,3.49-18.1,4.26-18.08a7,7,0,0,1,4.39,2.13.6.6,0,0,1,0,.87.68.68,0,0,1-.9-.13h0A5.45,5.45,0,0,0,223.34,74h0c-.28,0-6.48.21-3.25,16.85A.5.5,0,0,1,219.59,91.44Z"/><path class="cls-6" d="M220,120.22a.78.78,0,0,1-.41-.12.7.7,0,0,1-.29-.88c3-5.25,2.37-16.81,2.36-16.92a.51.51,0,0,1,.6-.54.81.81,0,0,1,.68.7c0,.49.71,12-2.5,17.52A.49.49,0,0,1,220,120.22Z"/><path class="cls-6" d="M249.05,104.58a.8.8,0,0,1-.67-.41A36.28,36.28,0,0,0,241,95.44a.64.64,0,0,1-.16-.88.63.63,0,0,1,.89,0,37.3,37.3,0,0,1,7.8,9.17.53.53,0,0,1-.23.8A.64.64,0,0,1,249.05,104.58Z"/><path class="cls-6" d="M238.44,93.26a.75.75,0,0,1-.44-.15c-.55-.4-1.13-.82-1.75-1.24a20.39,20.39,0,0,1-8.83-15.19.5.5,0,0,1,.61-.51.79.79,0,0,1,.66.71,19.33,19.33,0,0,0,8.15,14c.63.43,1.23.86,1.79,1.27a.67.67,0,0,1,.24.88A.52.52,0,0,1,238.44,93.26Z"/><path class="cls-6" d="M209.47,120.27l-.15,0a.77.77,0,0,1-.61-.75c.13-2.91,2.52-4.6,4.63-6.09a13,13,0,0,0,2.85-2.41c1.91-2.47,2.72-13,2.73-13.06a.5.5,0,0,1,.68-.43.77.77,0,0,1,.59.76c0,.44-.85,10.9-2.92,13.59a14.27,14.27,0,0,1-3.06,2.61c-2,1.42-4.12,2.9-4.23,5.32A.49.49,0,0,1,209.47,120.27Z"/><path class="cls-6" d="M242.4,147.33h-.12a26.64,26.64,0,0,1-13.21-6.47A.61.61,0,0,1,229,140a.66.66,0,0,1,.9.1,25.53,25.53,0,0,0,12.37,6,.8.8,0,0,1,.65.73A.49.49,0,0,1,242.4,147.33Z"/><path class="cls-14" d="M709.74,551.35,515.11,439c-15.4-8.88-27.88-32.73-27.88-53.26V302.06c0-20.53,12.48-30,27.88-21.08L709.74,393.35c15.39,8.89,27.87,32.74,27.87,53.27v83.66C737.61,550.81,725.13,560.24,709.74,551.35Z"/><polygon class="cls-14" points="473.66 295.98 496.3 279.86 729.68 551.66 704.88 569.14 473.66 295.98"/><path class="cls-19" d="M685.74,568.24,491.11,455.87c-15.4-8.89-27.88-32.74-27.88-53.27V318.94c0-20.53,12.48-30,27.88-21.07L685.74,410.24c15.39,8.89,27.87,32.73,27.87,53.26v83.66C713.61,567.69,701.13,577.13,685.74,568.24Z"/><ellipse class="cls-18" cx="520.32" cy="396.47" rx="31.29" ry="50.89" transform="translate(-133.26 423.9) rotate(-39.71)"/><path class="cls-6" d="M505,375.36l-1.27-.74s-.49-3.52-.5-3.66-2.2-15.3,11.13-11.87,21,15.46,21,15.46,5.1,8,1.58,16.8l-1.71-1.21s1.81-10.24-5.3-14l-5.07-.52s-5.72-1-11.78-7S504.71,369.31,505,375.36Z"/><path class="cls-6" d="M526.33,407.54c-4.66,0-10.43-3.46-14.33-9a35.1,35.1,0,0,1-3.29-5.41,37.17,37.17,0,0,1-3.46-13.1c0-.13-.12-1.1-.23-1.95-.21-1.83-.31-2.62-.31-2.81a.51.51,0,0,1,.63-.5.8.8,0,0,1,.65.72c0,.19.17,1.63.3,2.69s.22,1.86.23,2a35.82,35.82,0,0,0,3.34,12.62A33.61,33.61,0,0,0,513,398c4.4,6.18,11.28,9.6,15.66,7.78a6.25,6.25,0,0,0,2.53-1.71c1.81-2.31,2.9-6,3.16-10.79,0-.11.07-.46.26-1.62.11-.65.26-1.55.27-1.68a.51.51,0,0,1,.68-.43.77.77,0,0,1,.6.73c0,.12-.07.52-.29,1.8-.1.62-.23,1.4-.24,1.51-.28,5-1.41,8.85-3.38,11.35a7.07,7.07,0,0,1-2.91,2A7.87,7.87,0,0,1,526.33,407.54Z"/><path class="cls-6" d="M534.85,400.43a3.25,3.25,0,0,1-.57-.06.78.78,0,0,1-.58-.77.51.51,0,0,1,.68-.43c.08,0,2.08.42,3.13-3.21a4,4,0,0,0-.17-3.26,2.94,2.94,0,0,0-1.41-1.2.75.75,0,0,1-.52-.79.51.51,0,0,1,.72-.37,4.59,4.59,0,0,1,2.27,1.87,5.23,5.23,0,0,1,.35,4.3C537.74,400,535.81,400.43,534.85,400.43Z"/><path class="cls-6" d="M506.77,386.87a.75.75,0,0,1-.41-.14c-.14-.09-3.29-2.29-4.52-7.9-.49-2.26-.3-3.6.58-4.1a2.6,2.6,0,0,1,2.46.35.69.69,0,0,1,.3.87.57.57,0,0,1-.84.12h0c-.19-.12-.81-.42-1.13-.24-.16.1-.64.59-.12,3,1.09,5,3.83,6.93,3.86,6.95a.68.68,0,0,1,.26.88A.49.49,0,0,1,506.77,386.87Z"/><path class="cls-6" d="M525.25,420.19A10.15,10.15,0,0,1,521,419c-8.64-4.24-7.82-10.35-7.81-10.41l.67-7.93a.53.53,0,0,1,.71-.44.79.79,0,0,1,.61.79l-.68,8c0,.24-.64,5.19,6.9,8.89,2.24,1.1,3.86,1.36,4.8.77,1.28-.8.95-3,.95-3.05l-.59-8.43a.51.51,0,0,1,.61-.55.82.82,0,0,1,.71.72l.58,8.37c0,.06.44,2.9-1.4,4.06A3.28,3.28,0,0,1,525.25,420.19Z"/><path class="cls-6" d="M514.91,379.14l-4.78-2.33a1.25,1.25,0,0,1-.62-1h0a.41.41,0,0,1,.63-.4l4.78,2.33a1.2,1.2,0,0,1,.62,1h0A.4.4,0,0,1,514.91,379.14Z"/><path class="cls-6" d="M530.87,386.93l-4.78-2.33a1.2,1.2,0,0,1-.62-1h0a.4.4,0,0,1,.63-.4l4.78,2.33a1.25,1.25,0,0,1,.62,1h0A.41.41,0,0,1,530.87,386.93Z"/><path class="cls-6" d="M549.1,438.74a.81.81,0,0,1-.75-.59A31.67,31.67,0,0,0,539.43,423c-6.65-6.48-12.45-13.13-12.51-13.2a.58.58,0,0,1,0-.86.69.69,0,0,1,.9.17c.06.07,5.81,6.67,12.41,13.1a33.18,33.18,0,0,1,9.35,15.89.49.49,0,0,1-.46.65Z"/><path class="cls-6" d="M491.76,411a.84.84,0,0,1-.3-.06.74.74,0,0,1-.43-.84c1-3.24,3.53-7.09,9.73-7.09h.4a102.15,102.15,0,0,0,12.83-.91.79.79,0,0,1,.81.53.5.5,0,0,1-.39.7,103.71,103.71,0,0,1-13,.92H501c-4.47,0-7.42,2.16-8.76,6.41A.49.49,0,0,1,491.76,411Z"/><path class="cls-6" d="M526.15,423.65h0a13.51,13.51,0,0,1-5.56-1.62,21.58,21.58,0,0,1-5.52-3.78.61.61,0,0,1-.09-.88.65.65,0,0,1,.89.09,20.07,20.07,0,0,0,5.1,3.48,12.2,12.2,0,0,0,4.94,1.47.82.82,0,0,1,.75.63A.5.5,0,0,1,526.15,423.65Z"/><path class="cls-6" d="M517.65,388.33a2.49,2.49,0,0,1-1-.26l-4.8-2.35a.72.72,0,0,1-.42-.84.55.55,0,0,1,.8-.25L517,387a.69.69,0,0,0,.61.07.45.45,0,0,0,.2-.43l0-3.21a2.23,2.23,0,0,0-1.18-1.71l-8.32-4.06a.71.71,0,0,0-.6-.07.46.46,0,0,0-.21.43v3.21a2.19,2.19,0,0,0,1.17,1.71l1.05.51a.73.73,0,0,1,.42.84.56.56,0,0,1-.8.25l-1-.51a3.75,3.75,0,0,1-2.07-3.05l0-3.2a1.42,1.42,0,0,1,.73-1.32,2,2,0,0,1,1.73.11l8.32,4.06a3.73,3.73,0,0,1,2.07,3.05v3.2a1.44,1.44,0,0,1-.73,1.32A1.6,1.6,0,0,1,517.65,388.33Z"/><path class="cls-6" d="M534,396.29a2.35,2.35,0,0,1-1.05-.26l-3.32-1.62a.74.74,0,0,1-.42-.84.56.56,0,0,1,.8-.25l3.33,1.62a.67.67,0,0,0,.6.07.44.44,0,0,0,.2-.43l0-3.21a2.2,2.2,0,0,0-1.18-1.7l-8.32-4.07a.71.71,0,0,0-.6-.07.48.48,0,0,0-.21.44v3.2a2.22,2.22,0,0,0,1.17,1.71l2.68,1.3a.75.75,0,0,1,.42.85.55.55,0,0,1-.8.24l-2.68-1.3a3.77,3.77,0,0,1-2.07-3.05l0-3.2a1.39,1.39,0,0,1,.73-1.31,1.94,1.94,0,0,1,1.73.1l8.33,4.07a3.71,3.71,0,0,1,2.06,3v3.2a1.44,1.44,0,0,1-.73,1.32A1.58,1.58,0,0,1,534,396.29Z"/><path class="cls-6" d="M535.64,390.79a.69.69,0,0,1-.24-.05.75.75,0,0,1-.51-.8,15.78,15.78,0,0,0-.95-8c-1.14-3-4.26-5.58-6.67-5.5a11.88,11.88,0,0,1-2.41-.2.77.77,0,0,1-.64-.72.5.5,0,0,1,.63-.5,9.31,9.31,0,0,0,2.13.17c3-.06,6.77,2.9,8.15,6.53a16.6,16.6,0,0,1,1,8.66A.49.49,0,0,1,535.64,390.79Z"/><path class="cls-6" d="M505.47,376.05h0a.79.79,0,0,1-.73-.64c0-.19-.76-4.73,1.16-7.75a3.31,3.31,0,0,1,2.92-1.49h.06a8.1,8.1,0,0,1,5.35,2.66,24.46,24.46,0,0,0,6.61,4.84c.44.22.88.41,1.3.58a.74.74,0,0,1,.48.81.52.52,0,0,1-.75.32c-.46-.18-.94-.39-1.41-.62a26.1,26.1,0,0,1-7.06-5.17,6.7,6.7,0,0,0-4.29-2.18,2.35,2.35,0,0,0-2.09,1c-1.71,2.69-1,7-1,7A.5.5,0,0,1,505.47,376.05Z"/><path class="cls-6" d="M537.31,392.26a.65.65,0,0,1-.26-.06.74.74,0,0,1-.49-.81c1.74-7,.86-12.88-2.68-18.1-4.33-6.38-13-12.28-20.19-13.73-2.5-.5-5.9-.67-7.93,1.4-3.65,3.73-1.37,14.08-1.34,14.18a.5.5,0,0,1-.48.64.8.8,0,0,1-.77-.6c-.1-.45-2.44-11.05,1.59-15.16,1.86-1.9,4.95-2.48,9-1.67,7.66,1.55,16.57,7.61,21.19,14.41,3.78,5.56,4.73,11.82,2.91,19.13A.5.5,0,0,1,537.31,392.26Z"/><path class="cls-6" d="M523.3,386.39a.79.79,0,0,1-.59-.3c-2.1-2.55-3.71-2-3.78-2a.76.76,0,0,1-.87-.38.53.53,0,0,1,.21-.79c.1,0,2.54-1,5.38,2.49a.59.59,0,0,1,0,.86A.56.56,0,0,1,523.3,386.39Z"/><path class="cls-15" d="M401,535.21,206.41,422.84c-15.4-8.88-27.88-32.73-27.88-53.26V285.92c0-20.53,12.48-30,27.88-21.08L401,377.21c15.39,8.89,27.87,32.74,27.87,53.27v83.66C428.91,534.67,416.43,544.1,401,535.21Z"/><polygon class="cls-15" points="164.96 279.84 187.6 263.72 420.98 535.52 396.18 553 164.96 279.84"/><path class="cls-17" d="M377,552.1,182.41,439.73c-15.4-8.89-27.88-32.74-27.88-53.27V302.8c0-20.53,12.48-30,27.88-21.07L377,394.1c15.39,8.89,27.87,32.73,27.87,53.26V531C404.91,551.55,392.43,561,377,552.1Z"/><ellipse class="cls-18" cx="206" cy="375.41" rx="31.54" ry="51.3" transform="translate(-192.33 218.23) rotate(-39.71)"/><path class="cls-12" d="M191,383.23s-11.31-1-14.33,5.55c16.32,25.82,47,36.75,57.61,28.47a23.66,23.66,0,0,0-2.17-5.43C228.53,405.41,222,399,222,399l-7.12-7.34c1.82,9.34-.81,12.89-9.28,8.86-7.22-3.56-10.17-9.55-9.27-17.74Z"/><path class="cls-6" d="M211.47,387c-4.71,0-10.52-3.48-14.46-9a36.22,36.22,0,0,1-3.31-5.46,37.53,37.53,0,0,1-3.49-13.2c0-.13-.08-1.06-.17-2.19-.21-2.56-.36-4.39-.36-4.61a.5.5,0,0,1,.63-.5.78.78,0,0,1,.65.72c0,.22.22,2.82.36,4.54.09,1.14.17,2.08.18,2.21a36.15,36.15,0,0,0,3.36,12.72,34.4,34.4,0,0,0,3.17,5.2c4.43,6.23,11.36,9.68,15.78,7.85a6.28,6.28,0,0,0,2.55-1.73c1.82-2.33,2.93-6.09,3.19-10.88,0-.09.08-1.06.17-2.14.11-1.36.23-2.89.24-3a.51.51,0,0,1,.67-.46.79.79,0,0,1,.61.75c0,.12-.1,1.29-.24,3.08-.09,1.06-.16,2-.17,2.11-.28,5.07-1.42,8.92-3.4,11.44a7,7,0,0,1-2.94,2A7.73,7.73,0,0,1,211.47,387Z"/><path class="cls-6" d="M220.05,379.87a2.34,2.34,0,0,1-.57-.06.78.78,0,0,1-.59-.77.51.51,0,0,1,.69-.43c.08,0,2.09.42,3.16-3.23a4,4,0,0,0-.18-3.29,2.91,2.91,0,0,0-1.42-1.21.76.76,0,0,1-.53-.8.52.52,0,0,1,.73-.37,4.63,4.63,0,0,1,2.28,1.89,5.2,5.2,0,0,1,.36,4.32C223,379.41,221,379.87,220.05,379.87Z"/><path class="cls-6" d="M191.75,366.21a.75.75,0,0,1-.42-.14c-.13-.09-3.31-2.31-4.55-8-.5-2.28-.31-3.63.58-4.14a2.67,2.67,0,0,1,2.48.35.71.71,0,0,1,.31.88.61.61,0,0,1-.86.13h0c-.19-.12-.81-.43-1.13-.24-.17.09-.65.58-.12,3,1.1,5,3.86,7,3.88,7a.68.68,0,0,1,.27.88A.49.49,0,0,1,191.75,366.21Z"/><path class="cls-6" d="M210.37,399.8a10.19,10.19,0,0,1-4.28-1.25c-8.71-4.26-7.89-10.42-7.88-10.49l.68-8a.54.54,0,0,1,.72-.45.81.81,0,0,1,.61.8l-.68,8c0,.25-.65,5.24,7,9,2.26,1.11,3.89,1.37,4.84.78,1.29-.81,1-3.06,1-3.08l-.6-8.49a.52.52,0,0,1,.62-.56.82.82,0,0,1,.71.72l.59,8.44c0,.07.44,2.92-1.41,4.09A3.33,3.33,0,0,1,210.37,399.8Z"/><path class="cls-6" d="M234.24,417.84a.81.81,0,0,1-.74-.58,32,32,0,0,0-8.83-14.64c-6.71-6.53-12.55-13.24-12.61-13.31a.58.58,0,0,1,0-.86.68.68,0,0,1,.91.17c.06.07,5.86,6.73,12.51,13.21a33.76,33.76,0,0,1,9.26,15.35.5.5,0,0,1-.45.66Z"/><path class="cls-6" d="M176.89,389.72a.71.71,0,0,1-.33-.09.73.73,0,0,1-.4-.85c1.6-4.14,4.9-6.32,9.53-6.32h.4a104,104,0,0,0,12.94-.91.78.78,0,0,1,.81.53.51.51,0,0,1-.39.71,108,108,0,0,1-13.11.92h-.4c-4.22,0-7.1,1.92-8.56,5.7A.51.51,0,0,1,176.89,389.72Z"/><path class="cls-6" d="M211.34,402.89a13.79,13.79,0,0,1-5.57-1.65c-3.76-1.84-12.17-7.31-9.65-18.71a.55.55,0,0,1,.78-.35.8.8,0,0,1,.52.85c-2.21,10.05,4.51,15,8.72,17.05,1.32.65,4.74,2.32,6.81,1,1.77-1.11,2.31-4.12,1.59-8.94a.52.52,0,0,1,.57-.62.83.83,0,0,1,.75.68c.79,5.3.1,8.67-2.05,10A4.55,4.55,0,0,1,211.34,402.89Z"/><path class="cls-6" d="M211.27,406.6h0a13.62,13.62,0,0,1-5.6-1.64,21.78,21.78,0,0,1-5.57-3.81.63.63,0,0,1-.09-.88.65.65,0,0,1,.9.08,20,20,0,0,0,5.15,3.51,12.23,12.23,0,0,0,5,1.49.79.79,0,0,1,.75.63A.5.5,0,0,1,211.27,406.6Z"/><path class="cls-6" d="M223.77,370.8h0a.81.81,0,0,1-.72-.52s-1.22-2.55-10.15-8a26.9,26.9,0,0,1-5.05-4,.61.61,0,0,1-.08-.88.68.68,0,0,1,.91.1,25.84,25.84,0,0,0,4.74,3.79c5.47,3.33,8.2,5.65,9.55,7.07a87.07,87.07,0,0,0-.82-8.88.5.5,0,0,1,.55-.59.79.79,0,0,1,.72.66,82.55,82.55,0,0,1,.87,10.77A.49.49,0,0,1,223.77,370.8Z"/><path class="cls-6" d="M222.21,355.75a.8.8,0,0,1-.73-.55c-2.4-7.45-10.38-15.33-16-17.74-1.41-.6-3.33-1.13-4.52-.25-2.93,2.14-1.44,5.88-1.38,6a47.13,47.13,0,0,0,5.77,10.3.58.58,0,0,1-.09.85.74.74,0,0,1-.91-.25,47.92,47.92,0,0,1-6-10.66s-1.9-4.7,1.68-7.33c1.27-.93,3.25-.87,5.72.18,6,2.55,14.43,10.86,17,18.72a.5.5,0,0,1-.41.69Z"/><path class="cls-6" d="M187.76,352.64c-.47,0-.75,0-.77,0a.85.85,0,0,1-.57-.32.67.67,0,0,1-.11-.6,19.21,19.21,0,0,0,1.06-5.7v-.08c-.14-3.22.08-8.95,3.12-11.07a5.29,5.29,0,0,1,4.74-.47,17.48,17.48,0,0,1,4.15,2.06l.61.38a.71.71,0,0,1,.33.87.6.6,0,0,1-.85.16l-.62-.39a15.67,15.67,0,0,0-3.77-1.89,4.14,4.14,0,0,0-3.71.34c-2.77,1.93-2.82,7.78-2.72,10.2v.09a17.78,17.78,0,0,1-.84,5.2c2.7,0,10-.75,10.48-8.18a.51.51,0,0,1,.68-.45.78.78,0,0,1,.6.76C199.07,352,190.42,352.64,187.76,352.64Z"/><path class="cls-6" d="M222.55,371.84a.82.82,0,0,1-.56-.25.61.61,0,0,1,0-.88l1.22-1a.67.67,0,0,1,.91.13.61.61,0,0,1,0,.88l-1.22,1A.53.53,0,0,1,222.55,371.84Z"/><path class="cls-6" d="M192.66,346.32a.73.73,0,0,1-.36-.1.71.71,0,0,1-.35-.87c2.66-5.74,6.14-6,6.28-6a.8.8,0,0,1,.78.59.49.49,0,0,1-.46.65c-.06,0-3,.31-5.41,5.44A.52.52,0,0,1,192.66,346.32Z"/><path class="cls-6" d="M223.77,370.26a.82.82,0,0,1-.75-.59c0-.05-1.49-5.44-6.79-12.36a.57.57,0,0,1,.07-.85.71.71,0,0,1,.91.24c5.5,7.19,7,12.66,7,12.89a.49.49,0,0,1-.45.66Z"/><path class="cls-12" d="M271.58,368l1.85,5.39a4.19,4.19,0,0,0,1.35,1.9l4.15,3.09c1.47,1.09,2.05,3.49,1,4.06l-3,1.63a1.42,1.42,0,0,0-.52,1.52l.71,5.16c.25,1.81-1.28,2.21-2.59.66L270.81,387a2.39,2.39,0,0,0-1.67-1l-3.71.1c-1.31,0-2.84-2.13-2.59-3.66l.71-4.33A3.39,3.39,0,0,0,263,376l-3-5.09c-1.06-1.8-.48-3.53,1-2.93l4.15,1.71a1,1,0,0,0,1.35-.35l1.85-3.24C269,365,270.92,366.06,271.58,368Z"/><path class="cls-12" d="M295.94,382.64l1.86,5.4a4.09,4.09,0,0,0,1.34,1.89L303.3,393c1.46,1.09,2.05,3.5,1,4.07l-3,1.63a1.41,1.41,0,0,0-.51,1.52l.71,5.15c.25,1.82-1.28,2.21-2.6.67l-3.71-4.39a2.35,2.35,0,0,0-1.66-1l-3.72.1c-1.31,0-2.84-2.13-2.59-3.66l.71-4.34a3.36,3.36,0,0,0-.51-2.11l-3-5.1c-1.06-1.79-.47-3.52,1-2.92l4.15,1.71a1,1,0,0,0,1.35-.35l1.86-3.25C293.39,379.65,295.29,380.74,295.94,382.64Z"/><path class="cls-12" d="M320.3,397.33l1.86,5.39a4.09,4.09,0,0,0,1.35,1.9l4.15,3.09c1.47,1.09,2,3.49,1,4.07l-3,1.63a1.4,1.4,0,0,0-.51,1.51l.71,5.16c.25,1.82-1.28,2.21-2.59.66l-3.72-4.38a2.28,2.28,0,0,0-1.66-1l-3.71.09c-1.31,0-2.85-2.12-2.6-3.65l.71-4.34a3.33,3.33,0,0,0-.51-2.11l-3-5.1c-1.06-1.8-.48-3.52,1-2.92l4.16,1.7a1,1,0,0,0,1.34-.34l1.86-3.25C317.76,394.34,319.65,395.43,320.3,397.33Z"/><path class="cls-12" d="M344.67,412l1.86,5.39a4.12,4.12,0,0,0,1.34,1.9L352,422.4c1.46,1.09,2.05,3.49,1,4.07l-3,1.62a1.42,1.42,0,0,0-.51,1.52l.71,5.16c.25,1.82-1.29,2.21-2.6.66L343.9,431a2.35,2.35,0,0,0-1.66-1l-3.72.1c-1.31,0-2.84-2.13-2.59-3.66l.71-4.33a3.33,3.33,0,0,0-.51-2.11l-3-5.1c-1.06-1.8-.48-3.53,1-2.93l4.15,1.71a1,1,0,0,0,1.35-.34l1.86-3.25C342.12,409,344,410.12,344.67,412Z"/><path class="cls-12" d="M369,426.71l1.86,5.39a4,4,0,0,0,1.35,1.89l4.15,3.1c1.46,1.09,2.05,3.49,1,4.06l-3,1.63a1.41,1.41,0,0,0-.51,1.52l.71,5.15c.25,1.82-1.28,2.22-2.59.67l-3.72-4.39a2.35,2.35,0,0,0-1.66-1l-3.72.1c-1.31,0-2.84-2.13-2.59-3.66l.71-4.34a3.36,3.36,0,0,0-.51-2.11l-3-5.09c-1.06-1.8-.47-3.53,1-2.93l4.16,1.71a1,1,0,0,0,1.34-.35l1.86-3.24C366.49,423.71,368.38,424.8,369,426.71Z"/><path class="cls-12" d="M260.92,801.45l-6.14-1.55a4.51,4.51,0,0,0-2.58.1l-5.4,2c-1.9.69-4.49-.22-4.37-1.56l.31-3.78c0-.53-.36-1-1.09-1.4l-5.22-2.47c-1.84-.88-1.28-2.54,1-2.81l6.33-.79a2.57,2.57,0,0,0,1.9-1l2.17-3.51c.77-1.23,3.71-1.34,5-.18l3.6,3.3a3.68,3.68,0,0,0,2.27.8l6.56.31c2.32.11,3.56,1.7,2.11,2.7l-4.11,2.82a1.09,1.09,0,0,0-.49,1.45l1.88,3.7C265.25,800.91,263.08,802,260.92,801.45Z"/><path class="cls-12" d="M267.29,817.53l5.3,3.45a4.58,4.58,0,0,0,2.47.74l5.75-.13c2-.05,4.18,1.66,3.64,2.88L282.93,828a1.58,1.58,0,0,0,.59,1.68l4.14,4c1.46,1.42.38,2.81-1.82,2.35l-6.24-1.3a2.57,2.57,0,0,0-2.11.3l-3.19,2.62c-1.13.92-3.94.08-4.77-1.43l-2.33-4.28a3.76,3.76,0,0,0-1.89-1.5L259.2,828c-2.16-.85-2.83-2.76-1.13-3.24l4.8-1.34a1.1,1.1,0,0,0,.94-1.22l-.59-4.11C263,816.65,265.42,816.32,267.29,817.53Z"/><path class="cls-12" d="M247.14,808.3l6.13,1.55a4.51,4.51,0,0,0,2.58-.09l5.4-2c1.9-.7,4.49.22,4.37,1.55l-.32,3.78c0,.53.37,1,1.1,1.4l5.22,2.47c1.84.88,1.27,2.54-1,2.81l-6.33.79a2.57,2.57,0,0,0-1.9,1l-2.17,3.51c-.77,1.24-3.71,1.34-5,.18l-3.6-3.29a3.75,3.75,0,0,0-2.27-.81l-6.56-.3c-2.31-.11-3.56-1.7-2.11-2.7l4.11-2.82a1.11,1.11,0,0,0,.5-1.46l-1.89-3.69C242.81,808.85,245,807.76,247.14,808.3Z"/><path class="cls-12" d="M235.12,826.24l6.13,1.55a4.5,4.5,0,0,0,2.58-.1l5.4-2c1.9-.69,4.49.22,4.37,1.56l-.31,3.78c0,.53.36,1.05,1.09,1.39l5.22,2.48c1.84.87,1.27,2.53-1,2.81l-6.33.78a2.57,2.57,0,0,0-1.9,1L248.24,843c-.77,1.24-3.71,1.35-5,.19l-3.6-3.3a3.68,3.68,0,0,0-2.27-.8l-6.56-.31c-2.31-.1-3.56-1.7-2.11-2.69l4.11-2.82a1.11,1.11,0,0,0,.5-1.46l-1.89-3.7C230.79,826.79,233,825.69,235.12,826.24Z"/><path class="cls-12" d="M275.16,803l6.13,1.55a4.5,4.5,0,0,0,2.58-.1l5.4-2c1.9-.69,4.49.22,4.38,1.56l-.32,3.78c-.05.52.36,1.05,1.09,1.39l5.22,2.48c1.84.87,1.27,2.53-1,2.81l-6.33.78a2.57,2.57,0,0,0-1.9,1l-2.17,3.51c-.77,1.24-3.71,1.35-5,.19l-3.6-3.3a3.68,3.68,0,0,0-2.27-.8l-6.56-.31c-2.31-.1-3.56-1.7-2.11-2.69l4.11-2.82a1.1,1.1,0,0,0,.5-1.46l-1.89-3.7C270.83,803.52,273,802.42,275.16,803Z"/><path class="cls-12" d="M488,856.1l6.57,1.66a4.9,4.9,0,0,0,2.77-.11l5.78-2.12c2-.74,4.8.24,4.68,1.67l-.34,4c0,.56.39,1.12,1.18,1.49l5.59,2.65c2,.94,1.36,2.72-1,3l-6.78.84a2.75,2.75,0,0,0-2,1L502,874c-.82,1.33-4,1.45-5.32.2l-3.85-3.53a4,4,0,0,0-2.43-.86l-7-.33c-2.48-.11-3.82-1.82-2.26-2.89l4.4-3a1.18,1.18,0,0,0,.53-1.56l-2-4C483.33,856.68,485.65,855.51,488,856.1Z"/><path class="cls-12" d="M77,704.93l5.53,1.39a4,4,0,0,0,2.32-.08l4.86-1.79c1.71-.62,4,.2,3.94,1.4l-.28,3.41c0,.47.32,1,1,1.26l4.7,2.23c1.66.78,1.15,2.28-.86,2.53l-5.7.7a2.37,2.37,0,0,0-1.72.87l-2,3.16c-.69,1.12-3.34,1.21-4.48.17l-3.24-3a3.32,3.32,0,0,0-2-.73l-5.91-.27c-2.09-.1-3.21-1.53-1.9-2.43l3.7-2.54a1,1,0,0,0,.45-1.31l-1.7-3.33C73.1,705.42,75.05,704.44,77,704.93Z"/><path class="cls-12" d="M185.86,563.24l6.13,1.55a4.59,4.59,0,0,0,2.58-.09l5.4-2c1.9-.7,4.49.21,4.37,1.55l-.31,3.78c-.05.53.36,1.05,1.09,1.4l5.22,2.47c1.84.87,1.27,2.53-1,2.81l-6.33.79a2.54,2.54,0,0,0-1.9,1L199,580c-.77,1.23-3.71,1.34-5,.18l-3.6-3.29a3.63,3.63,0,0,0-2.27-.81l-6.56-.3c-2.31-.11-3.56-1.71-2.11-2.7l4.11-2.82a1.11,1.11,0,0,0,.5-1.46l-1.89-3.7C181.53,563.79,183.69,562.69,185.86,563.24Z"/><path class="cls-12" d="M173.43,575.82l6.32.1a4.52,4.52,0,0,0,2.49-.68l4.8-3.16c1.69-1.12,4.42-.82,4.62.51l.55,3.75c.08.52.6.94,1.39,1.11l5.65,1.21c2,.43,1.81,2.18-.3,3l-6,2.21a2.56,2.56,0,0,0-1.63,1.37L190,589.11c-.46,1.38-3.3,2.16-4.8,1.32L181,588.05a3.64,3.64,0,0,0-2.39-.27L172.13,589c-2.28.42-3.86-.84-2.67-2.14l3.35-3.69a1.09,1.09,0,0,0,.15-1.53l-2.68-3.17C169.34,577.34,171.2,575.78,173.43,575.82Z"/><path class="cls-12" d="M231.24,571.23l6,1.87a4.54,4.54,0,0,0,2.58,0l5.49-1.69c1.94-.6,4.48.45,4.29,1.78l-.51,3.76c-.08.52.3,1.07,1,1.45l5.08,2.75c1.79,1,1.13,2.6-1.11,2.75l-6.37.45a2.63,2.63,0,0,0-1.95.86l-2.35,3.39c-.83,1.2-3.77,1.15-5-.08l-3.42-3.48a3.68,3.68,0,0,0-2.22-.92l-6.54-.65c-2.3-.23-3.46-1.89-2-2.81l4.25-2.6a1.09,1.09,0,0,0,.57-1.43l-1.68-3.79C226.88,571.54,229.11,570.57,231.24,571.23Z"/><path class="cls-12" d="M197.55,571.22l5.49,3.16a4.49,4.49,0,0,0,2.51.6l5.73-.44c2-.16,4.26,1.42,3.79,2.68l-1.33,3.55a1.56,1.56,0,0,0,.68,1.64l4.35,3.8c1.53,1.34.54,2.78-1.68,2.44l-6.31-1a2.59,2.59,0,0,0-2.09.41l-3,2.79c-1.07,1-3.93.3-4.84-1.16l-2.57-4.15a3.66,3.66,0,0,0-2-1.39L190,582.12c-2.19-.73-3-2.6-1.3-3.16l4.72-1.61a1.11,1.11,0,0,0,.88-1.27l-.82-4.07C193.24,570.58,195.62,570.11,197.55,571.22Z"/><path class="cls-12" d="M590.44,382.75l1.86,5.4a4.09,4.09,0,0,0,1.34,1.89l4.16,3.09c1.46,1.09,2.05,3.5,1,4.07l-3,1.63a1.41,1.41,0,0,0-.51,1.52l.71,5.15c.25,1.82-1.28,2.21-2.59.67l-3.72-4.39a2.35,2.35,0,0,0-1.66-1l-3.72.1c-1.31,0-2.84-2.13-2.59-3.66l.71-4.34a3.36,3.36,0,0,0-.51-2.11l-3-5.09c-1.06-1.8-.47-3.53,1-2.93L584,384.5a1,1,0,0,0,1.34-.35l1.86-3.24C587.89,379.76,589.79,380.85,590.44,382.75Z"/><path class="cls-12" d="M614.81,397.44l1.85,5.39a4.09,4.09,0,0,0,1.35,1.9l4.15,3.09c1.47,1.09,2.05,3.5,1,4.07l-3,1.63a1.4,1.4,0,0,0-.52,1.51l.71,5.16c.25,1.82-1.28,2.21-2.59.66L614,416.47a2.28,2.28,0,0,0-1.66-1l-3.71.09c-1.31,0-2.84-2.12-2.59-3.65l.71-4.34a3.41,3.41,0,0,0-.52-2.11l-3-5.1c-1.06-1.8-.48-3.52,1-2.92l4.15,1.7a1,1,0,0,0,1.34-.34l1.86-3.25C612.26,394.45,614.15,395.54,614.81,397.44Z"/><path class="cls-12" d="M639.17,412.13l1.86,5.39a4.07,4.07,0,0,0,1.34,1.9l4.16,3.09c1.46,1.09,2.05,3.49,1,4.07l-3,1.62a1.42,1.42,0,0,0-.51,1.52l.71,5.16c.25,1.82-1.29,2.21-2.6.66l-3.71-4.38a2.28,2.28,0,0,0-1.66-1l-3.72.09c-1.31,0-2.84-2.13-2.59-3.65l.71-4.34a3.33,3.33,0,0,0-.51-2.11l-3-5.1c-1.06-1.8-.47-3.53,1-2.92l4.15,1.7a1,1,0,0,0,1.35-.34l1.86-3.25C636.62,409.13,638.51,410.23,639.17,412.13Z"/><path class="cls-12" d="M663.53,426.82l1.86,5.39a4.19,4.19,0,0,0,1.35,1.9l4.15,3.09c1.47,1.09,2.05,3.49,1,4.06l-3,1.63a1.42,1.42,0,0,0-.51,1.52l.71,5.15c.25,1.82-1.28,2.22-2.59.67l-3.72-4.39a2.35,2.35,0,0,0-1.66-1l-3.71.1c-1.31,0-2.85-2.13-2.6-3.66l.71-4.34a3.36,3.36,0,0,0-.51-2.11l-3-5.09c-1.06-1.8-.47-3.53,1-2.93l4.16,1.71a1,1,0,0,0,1.34-.35l1.86-3.24C661,423.82,662.88,424.91,663.53,426.82Z"/><path class="cls-14" d="M687.9,441.5l1.86,5.4a4.09,4.09,0,0,0,1.34,1.89l4.16,3.09c1.46,1.09,2,3.5,1,4.07l-3,1.63a1.4,1.4,0,0,0-.51,1.51l.7,5.16c.26,1.82-1.28,2.21-2.59.67l-3.71-4.39a2.35,2.35,0,0,0-1.66-1l-3.72.1c-1.31,0-2.84-2.13-2.59-3.66l.71-4.34a3.3,3.3,0,0,0-.52-2.11l-3-5.1c-1.06-1.79-.48-3.52,1-2.92l4.15,1.71a1,1,0,0,0,1.35-.35l1.86-3.25C685.35,438.51,687.24,439.6,687.9,441.5Z"/><path class="cls-12" d="M295.94,105.65,297.8,111a4.07,4.07,0,0,0,1.34,1.9L303.3,116c1.46,1.09,2.05,3.49,1,4.07l-3,1.62a1.42,1.42,0,0,0-.51,1.52l.71,5.16c.25,1.82-1.28,2.21-2.6.66l-3.71-4.39a2.3,2.3,0,0,0-1.66-1l-3.72.09c-1.31,0-2.84-2.13-2.59-3.66l.71-4.33a3.33,3.33,0,0,0-.51-2.11l-3-5.1c-1.06-1.8-.47-3.53,1-2.92l4.15,1.7a1,1,0,0,0,1.35-.34l1.86-3.25C293.39,102.65,295.29,103.75,295.94,105.65Z"/><path class="cls-12" d="M320.3,120.34l1.86,5.39a4.19,4.19,0,0,0,1.35,1.9l4.15,3.09c1.47,1.09,2,3.49,1,4.06l-3,1.63a1.42,1.42,0,0,0-.51,1.52l.71,5.15c.25,1.82-1.28,2.22-2.59.67l-3.72-4.39a2.35,2.35,0,0,0-1.66-1l-3.71.1c-1.31,0-2.85-2.13-2.6-3.66l.71-4.34a3.36,3.36,0,0,0-.51-2.11l-3-5.09c-1.06-1.8-.48-3.53,1-2.93l4.16,1.71a1,1,0,0,0,1.34-.35l1.86-3.24C317.76,117.34,319.65,118.43,320.3,120.34Z"/><path class="cls-12" d="M344.67,135l1.86,5.39a4.07,4.07,0,0,0,1.34,1.9L352,145.4c1.46,1.09,2.05,3.5,1,4.07l-3,1.63a1.4,1.4,0,0,0-.51,1.51l.71,5.16c.25,1.82-1.29,2.21-2.6.67l-3.71-4.39a2.35,2.35,0,0,0-1.66-1l-3.72.1c-1.31,0-2.84-2.13-2.59-3.66l.71-4.34a3.33,3.33,0,0,0-.51-2.11l-3-5.1c-1.06-1.79-.48-3.52,1-2.92l4.15,1.71a1,1,0,0,0,1.35-.35l1.86-3.25C342.12,132,344,133.12,344.67,135Z"/><path class="cls-12" d="M369,149.71l1.86,5.39a4,4,0,0,0,1.35,1.9l4.15,3.09c1.46,1.09,2.05,3.49,1,4.07l-3,1.62a1.42,1.42,0,0,0-.51,1.52l.71,5.16c.25,1.82-1.28,2.21-2.59.66l-3.72-4.38a2.28,2.28,0,0,0-1.66-1l-3.72.09c-1.31,0-2.84-2.12-2.59-3.65l.71-4.34a3.33,3.33,0,0,0-.51-2.11l-3-5.1c-1.06-1.8-.47-3.52,1-2.92l4.16,1.7a1,1,0,0,0,1.34-.34l1.86-3.25C366.49,146.72,368.38,147.81,369,149.71Z"/><path class="cls-15" d="M393.4,164.4l1.86,5.39a4.17,4.17,0,0,0,1.34,1.9l4.15,3.09c1.47,1.09,2.05,3.49,1,4.06l-3,1.63a1.42,1.42,0,0,0-.52,1.52l.71,5.16c.25,1.81-1.28,2.21-2.59.66l-3.71-4.39a2.37,2.37,0,0,0-1.67-1l-3.71.1c-1.31,0-2.84-2.13-2.59-3.66l.71-4.33a3.35,3.35,0,0,0-.52-2.11l-3-5.1c-1.06-1.8-.48-3.53,1-2.93l4.15,1.71a1,1,0,0,0,1.35-.35l1.85-3.24C390.85,161.4,392.74,162.5,393.4,164.4Z"/><path class="cls-14" d="M670.89,437.2l-4.15-3.09a4.19,4.19,0,0,1-1.35-1.9l-1.86-5.39a3.85,3.85,0,0,0-1.6-2.07v20.38a3.18,3.18,0,0,1,.83.71l3.72,4.39c1.31,1.55,2.84,1.15,2.59-.67l-.71-5.15a1.42,1.42,0,0,1,.51-1.52l3-1.63C672.94,440.69,672.36,438.29,670.89,437.2Z"/><path class="cls-14" d="M184.88,334.89c1.79-13.14-6.06-27.94-17.54-33-5.28-2.35-10.4-2.24-14.57-.15h0l0,0a14.73,14.73,0,0,0-1.63.95l-9.85,6.17,5-1a22.13,22.13,0,0,0-2.89,8.51c-1.78,13.14,6.07,27.93,17.55,33a19.16,19.16,0,0,0,6.88,1.71l1,2.55,6.87-4.21c.37-.2.74-.42,1.1-.64l.13-.08h0C181,346.07,184,341.26,184.88,334.89Z"/><ellipse class="cls-7" cx="155.12" cy="331.19" rx="19.78" ry="26.51" transform="translate(-120.77 91.12) rotate(-23.87)"/><path class="cls-18" d="M137.84,320.43l9.68,24.43c1.49,3.75,5.82,5.36,9,2.38L169,335.57c5.07-4.75-2.56-12.35-7.61-7.61l-12.44,11.66,9,2.38-9.68-24.43c-2.52-6.37-12.94-3.59-10.38,2.86Z"/><path class="cls-18" d="M366.17,494.43l-94.93-54.81c-2.11-1.21-3.82-4.48-3.82-7.29h0c0-2.81,1.71-4.1,3.82-2.89l94.93,54.81c2.11,1.22,3.82,4.49,3.82,7.3h0C370,494.36,368.28,495.65,366.17,494.43Z"/><path class="cls-18" d="M311.63,443.66l-40.39-23.32c-2.11-1.22-3.82-4.48-3.82-7.29h0c0-2.81,1.71-4.11,3.82-2.89l40.39,23.32c2.11,1.22,3.82,4.48,3.82,7.3h0C315.45,443.59,313.74,444.88,311.63,443.66Z"/><path class="cls-18" d="M365.65,474.85l-37.24-21.5c-2.11-1.22-3.82-4.48-3.82-7.29h0c0-2.82,1.71-4.11,3.82-2.89l37.24,21.5c2.1,1.21,3.81,4.48,3.81,7.29h0C369.46,474.77,367.75,476.06,365.65,474.85Z"/><path class="cls-18" d="M678.8,509.36l-94.94-54.81c-2.11-1.22-3.81-4.49-3.81-7.3h0c0-2.81,1.7-4.1,3.81-2.88l94.94,54.81c2.11,1.21,3.81,4.48,3.81,7.29h0C682.61,509.28,680.91,510.57,678.8,509.36Z"/><path class="cls-18" d="M624.26,458.58l-40.4-23.32c-2.11-1.22-3.81-4.48-3.81-7.29h0c0-2.81,1.7-4.1,3.81-2.89l40.4,23.32c2.11,1.22,3.81,4.49,3.81,7.3h0C628.07,458.51,626.37,459.8,624.26,458.58Z"/><path class="cls-18" d="M678.27,489.77,641,468.27c-2.11-1.22-3.82-4.48-3.82-7.29h0c0-2.81,1.71-4.1,3.82-2.89l37.23,21.5c2.11,1.22,3.82,4.48,3.82,7.29h0C682.09,489.69,680.38,491,678.27,489.77Z"/><path class="cls-18" d="M382.36,230.91,287.43,176.1c-2.11-1.22-3.82-4.49-3.82-7.3h0c0-2.81,1.71-4.1,3.82-2.88l94.93,54.81c2.11,1.22,3.82,4.48,3.82,7.29h0C386.18,230.83,384.47,232.12,382.36,230.91Z"/><path class="cls-18" d="M327.82,180.14l-40.39-23.33c-2.11-1.21-3.82-4.48-3.82-7.29h0c0-2.81,1.71-4.1,3.82-2.89L327.82,170c2.11,1.21,3.82,4.48,3.82,7.29h0C331.64,180.06,329.93,181.35,327.82,180.14Z"/><path class="cls-18" d="M381.84,211.32l-37.24-21.5c-2.1-1.21-3.81-4.48-3.81-7.29h0c0-2.81,1.71-4.1,3.81-2.89l37.24,21.5c2.11,1.22,3.82,4.48,3.82,7.3h0C385.66,211.25,384,212.54,381.84,211.32Z"/><path class="cls-13" d="M368.52,727.38s-5.11,15.92,10,26.15c0,0,6.65,1.41,6.27-6.73s-.84-19.64-.84-19.64Z"/><ellipse class="cls-2" cx="334.05" cy="623.11" rx="39.95" ry="61.07" transform="translate(-192.39 151.19) rotate(-19.93)"/><polygon class="cls-20" points="414.98 716.02 407.04 733.1 369.85 680.14 377.78 663.07 414.98 716.02"/><path class="cls-14" d="M403.24,690.27c7.92-1.34,12.07,3.68,9.27,11.21S401,716.2,393.11,717.54s-12.07-3.68-9.27-11.21S395.32,691.61,403.24,690.27Z"/><polygon class="cls-14" points="429.77 777.74 384.64 715.47 412.55 693.53 458 756.16 429.77 777.74"/><ellipse class="cls-14" cx="443.77" cy="766.79" rx="17.81" ry="10.28" transform="translate(-387.04 459.15) rotate(-39.62)"/><polygon class="cls-14" points="459.55 818.4 414.42 756.13 442.33 734.19 487.79 796.82 459.55 818.4"/><ellipse class="cls-14" cx="473.55" cy="807.45" rx="17.81" ry="10.28" transform="translate(-406.13 487.48) rotate(-39.62)"/><path class="cls-18" d="M333.14,592l-12.69,36.79c-.65,1.89-2.75,1.91-4.69,0h0c-1.94-1.87-3-4.92-2.33-6.81l12.7-36.79c.65-1.89,2.75-1.9,4.69,0h0C332.75,587,333.8,590.07,333.14,592Z"/><path class="cls-18" d="M345.85,607.85l-12.69,36.79c-.66,1.88-2.75,1.9-4.69,0h0c-1.94-1.88-3-4.93-2.33-6.82l12.7-36.79c.65-1.89,2.75-1.9,4.68,0h0C345.46,602.91,346.5,606,345.85,607.85Z"/><path class="cls-20" d="M346.9,564.2C318.82,551.75,295.16,568,294,600.46s20.75,68.9,48.83,81.35,51.74-3.78,52.86-36.26S375,576.65,346.9,564.2Zm41.17,77.95c-.94,27.59-21,41.38-44.89,30.8s-42.42-41.51-41.48-69.1,21-41.37,44.9-30.8S389,614.57,388.07,642.15Z"/><path class="cls-19" d="M396.81,626.8c-.1-.7-.2-1.4-.31-2.1,0-.13-.05-.25-.07-.38l-.18-1c-.07-.41-.14-.81-.22-1.22,0-.22-.1-.45-.14-.67s-.15-.73-.23-1.09-.11-.55-.18-.83-.16-.67-.24-1-.17-.72-.26-1.08c-.05-.18-.09-.36-.13-.54l-.39-1.42c-.09-.3-.17-.61-.26-.91a2,2,0,0,0-.07-.26c-.24-.85-.5-1.69-.77-2.53v0l-.08-.23c-.24-.74-.49-1.49-.75-2.22,0-.12-.09-.24-.13-.35-.1-.28-.2-.56-.31-.84s-.28-.8-.43-1.19l-.3-.76c-.12-.3-.25-.61-.37-.92s-.17-.45-.27-.67c-.18-.45-.38-.89-.57-1.33l-.3-.71c0-.09-.07-.17-.11-.25-.34-.78-.69-1.55-1.06-2.32a.93.93,0,0,0-.05-.1c-.1-.22-.21-.44-.32-.66-.28-.59-.57-1.18-.87-1.76l-.14-.28-.76-1.43-.6-1.15-.12-.2c-.68-1.23-1.39-2.44-2.12-3.64l-.17-.31-.58-.89q-.45-.74-.93-1.47c-.28-.43-.56-.85-.85-1.27s-.64-.95-1-1.42c-.11-.16-.21-.32-.32-.47-.27-.37-.54-.73-.8-1.1l-.55-.75c-.58-.78-1.17-1.55-1.77-2.3l0,0h0v0c-.69-.87-1.39-1.71-2.1-2.55l-.09-.11c-.52-.6-1-1.2-1.59-1.79l-.31-.36,0,0c-.64-.69-1.28-1.37-1.93-2l-.1-.1-.6-.6c-.42-.41-.83-.83-1.25-1.23-.07-.08-.16-.15-.24-.23l-.85-.8c-.32-.29-.63-.59-1-.88-.11-.11-.24-.21-.36-.31l-.94-.82-.81-.71-.47-.38-1-.83c-.24-.19-.47-.39-.71-.57l-.57-.43-1-.77-.63-.47c-.23-.17-.46-.32-.69-.48s-.68-.48-1-.71l-.52-.36-.88-.56c-.32-.2-.63-.41-1-.6l-.38-.25c-.39-.24-.79-.46-1.18-.68s-.54-.32-.82-.47l-.2-.13c-.72-.39-1.44-.77-2.16-1.13h0l-.16-.08c-.65-.33-1.31-.64-2-.94l-.5-.23-1.61-.69-.62-.23-.83-.32-.64-.25-1-.34-.73-.25-.31-.1c-.68-.21-1.36-.41-2-.59h0c-.69-.18-1.37-.35-2.06-.49l-.26-.05-.74-.14c-.35-.07-.7-.15-1-.2l-.52-.07-.9-.13-.7-.1-.72-.06L333,554l-.48,0-.84,0-1,0h-.37c-.29,0-.57,0-.86,0l-1.11,0h-.33l-.74.08c-.44,0-.88.08-1.32.13l-.37,0c-.48.07-.95.14-1.43.23l-.18,0-1.07.22-.68.17-.5.12c-.62.16-1.22.34-1.82.54l-.06,0-.48.17c-.5.18-1,.36-1.48.56l-.7.31c-.31.14-.62.26-.93.41l-.23.12c-.47.23-.93.48-1.38.74-.23.12-.45.23-.67.36-.67.4-1.33.81-2,1.26l-10.47,7.29c.64-.44,1.3-.86,2-1.25l.67-.37c.46-.26.92-.51,1.39-.74l1.15-.53.71-.31c.48-.2,1-.38,1.48-.55l.48-.18c.61-.21,1.24-.39,1.87-.56l.51-.12q.87-.23,1.74-.39l.19,0c.59-.11,1.19-.19,1.8-.27l1.31-.13c.36,0,.71-.07,1.07-.09l1.12,0,1.22,0,1,0,1.33.07.9.07,1.42.16.91.13,1.56.27.74.14c.77.16,1.55.34,2.33.54h0c.77.2,1.56.43,2.34.68l.74.25c.55.19,1.11.38,1.67.59l.83.32c.74.29,1.48.59,2.23.92s1.66.77,2.48,1.18l.15.07c.8.4,1.59.83,2.38,1.27l.81.47c.52.3,1.05.61,1.57.93l1,.61,1.4.91,1,.71c.45.31.89.63,1.33,1l1,.78c.43.32.85.66,1.28,1l1,.82c.43.36.86.72,1.28,1.09s.64.54.95.82l1.31,1.19.86.81c.5.47,1,1,1.48,1.45.2.21.41.4.61.61q1,1.05,2,2.16l.31.35c.57.62,1.13,1.26,1.68,1.91.71.82,1.4,1.66,2.08,2.52l0,0h0c.61.76,1.2,1.53,1.78,2.31.19.25.37.51.55.76.38.51.75,1,1.12,1.56s.65.94,1,1.42.58.85.86,1.28l.93,1.46.75,1.2c.73,1.2,1.43,2.41,2.11,3.64.25.45.49.9.73,1.35s.51,1,.75,1.44c.35.67.68,1.35,1,2l.33.67c.42.88.82,1.77,1.21,2.66.11.24.21.47.31.71l.84,2,.36.92c.25.64.5,1.29.74,1.94l.31.84c.3.86.6,1.72.88,2.59l.07.21c.3.94.59,1.88.86,2.82.09.31.17.61.25.92.18.65.36,1.3.52,2l.27,1.09c.14.6.28,1.21.41,1.82.08.37.16.73.23,1.09.13.63.25,1.26.36,1.9.06.33.13.66.18,1,.14.83.27,1.66.38,2.49,0,.12,0,.24.05.36.13.95.23,1.89.32,2.84,0,.27.05.54.07.81.06.68.11,1.36.15,2,0,.33,0,.66.05,1,0,.64,0,1.28,0,1.92,0,.31,0,.63,0,.94,0,.91,0,1.82,0,2.73s-.09,1.9-.16,2.82c0,.27-.05.52-.08.78,0,.64-.12,1.27-.19,1.9,0,.36-.09.71-.14,1.07-.08.53-.15,1.06-.24,1.57s-.13.76-.2,1.14-.19,1-.29,1.43-.19.84-.29,1.25-.21.85-.32,1.26-.27,1-.41,1.45-.23.75-.35,1.12c-.19.57-.39,1.14-.6,1.69-.13.35-.25.71-.39,1l-.21.52q-.36.87-.75,1.71l-.15.33c-.33.7-.68,1.39-1.05,2.06h0c-.36.67-.74,1.31-1.14,1.94l-.24.38c-.31.46-.61.92-.93,1.37l-.39.54c-.3.4-.61.8-.93,1.19-.12.15-.23.3-.36.45-.43.52-.87,1-1.33,1.51l-.2.2c-.39.42-.8.82-1.22,1.21l-.46.42c-.35.32-.71.63-1.08.94l-.46.37c-.51.41-1,.81-1.56,1.18l10.46-7.3c.54-.37,1.06-.76,1.57-1.17l.45-.38c.37-.3.73-.61,1.09-.93l.46-.42c.41-.39.82-.8,1.22-1.21l.2-.2c.45-.49.9-1,1.33-1.51L388,668c.31-.39.62-.79.92-1.2a6.55,6.55,0,0,0,.39-.53q.48-.67.93-1.38c.08-.12.17-.24.25-.37l.07-.11c.37-.6.73-1.21,1.07-1.83v0c.34-.62.67-1.26,1-1.91l.06-.14c.06-.11.1-.22.16-.33.26-.56.51-1.13.75-1.72l.21-.51c.05-.13.11-.25.16-.38s.15-.45.23-.67c.21-.56.41-1.12.6-1.7.05-.15.11-.29.15-.45s.13-.44.19-.66c.15-.48.28-1,.42-1.45.05-.2.11-.39.16-.59s.1-.45.16-.67c.1-.42.19-.83.28-1.26.05-.21.11-.42.15-.64s.09-.52.14-.78.14-.76.2-1.14c0-.19.08-.38.11-.58s.09-.66.13-1l.15-1.08c0-.14,0-.28.05-.43.06-.48.1-1,.14-1.46,0-.26.05-.52.07-.78a1.23,1.23,0,0,0,0-.19c.06-.82.11-1.64.14-2.48v-.15c0-.76,0-1.53,0-2.3v-.44c0-.31,0-.62,0-.93s0-.72,0-1.09,0-.56,0-.84,0-.65-.05-1l0-.64c0-.47-.08-.93-.11-1.4,0-.26-.05-.53-.07-.8,0-.09,0-.18,0-.27-.09-.84-.18-1.68-.29-2.52a.09.09,0,0,1,0-.05C396.84,627.05,396.82,626.92,396.81,626.8Z"/><path class="cls-21" d="M339,563.54c-13.67-6.06-26.93-5.8-37.34.72-11.23,7-17.74,20.28-18.32,37.31-1.14,33.17,21.3,70.51,50,83.25,8.37,3.71,16.59,5,24.09,4a33.05,33.05,0,0,0,13.25-4.76c11.23-7,17.74-20.28,18.33-37.31C390.15,613.62,367.71,576.28,339,563.54Zm38.36,79.72c-.45,13.19-5.36,23.38-13.83,28.68-7.77,4.87-17.8,5-28.25.36-23.13-10.25-41.21-40.4-40.29-67.2.45-13.19,5.36-23.38,13.83-28.68a24.35,24.35,0,0,1,9.78-3.5c5.71-.77,12,.27,18.47,3.14C360.21,586.31,378.28,616.46,377.36,643.26Z"/><path class="cls-22" d="M391.14,707.89l-10.07,28.53c-1.43,2.21-22-8.2-20.26-11.6.31-.6,11.27-35.06,23.06-40.62C393.44,679.68,396.43,694.89,391.14,707.89Z"/><path class="cls-13" d="M410.19,690l-.81,0a5,5,0,0,1-4.67-5.29l1-15.44a5,5,0,0,1,5.29-4.66l.81,0a5,5,0,0,1,4.66,5.29l1.25,15C417.52,687.62,412.92,690.18,410.19,690Z"/><ellipse class="cls-13" cx="415.52" cy="661.15" rx="8.82" ry="15.55" transform="translate(-25.88 16.99) rotate(-2.27)"/><path class="cls-23" d="M407.81,652.48s2.58,13.56-8,17.44c0,0-12.75-6.15-4.76-20,7-12.2,20.38-4.32,20.38-4.32Z"/><path class="cls-23" d="M423.38,654.72s-4-4.57-11.47-3.54l3.5-5.56S421.14,644.18,423.38,654.72Z"/><path class="cls-15" d="M402.75,660.94c2.26-3.57,7.82-3.75,16-1.27,7.34-.1,7.73-8.53,7.73-8.53.83-4.54-2.27-6.33-6.81-7.16l-11.82-2.15c-6.7-1.25-12.65,4.62-13.48,9.15l-.25.76C393.26,656.28,398.21,660.11,402.75,660.94Z"/><ellipse class="cls-2" cx="413.31" cy="892.86" rx="32.56" ry="16.18" transform="translate(-15.76 7.47) rotate(-1.02)"/><path class="cls-6" d="M443.69,891.54l-13,10.85c-3.28,2.19-5.45.69-8.2.1a2.66,2.66,0,0,1-2.09-2.64v-2.73c-.12-3.92,3.49-6.23,6-7.43l13.26-7.31C442.21,881.18,450.42,885.42,443.69,891.54Z"/><path class="cls-6" d="M397.53,874.57l3.64,16.52c1.21,8.65-12.62,10.08-13.35.71l-.26-17.92C387.65,871.11,395.2,865.78,397.53,874.57Z"/><path class="cls-24" d="M431.4,893.69c0,4-9.74,4.1-9.77.09l-.11-13,9.77-.08Z"/><path class="cls-24" d="M399.28,885.71c0,4-9.76,4-9.76,0V872.66h9.76Z"/><path class="cls-25" d="M400.58,882c-3.82,2.75-10.15,2.68-12.26-.51C385.81,833.73,378,801.8,378.46,761l30.33-9C403.39,801,402.81,844.06,400.58,882Z"/><path class="cls-25" d="M432.49,886.46c-3.09,4.32-10.07,4.35-12.13,1.23L399.92,758.92h35.24Z"/><path class="cls-22" d="M377.24,757.63c2.53-13.86,3.38-29.55,1.09-48.68,0-26.49,3.66-26.53,21.41-27.61l4.14-.26A29.42,29.42,0,0,1,418.59,684c15.68,7.63,23.28,9.41,20.1,28.22l-3.53,46.73C435.16,783,376,785.9,377.24,757.63Z"/><polygon class="cls-26" points="425.4 720.26 434.08 756.31 435.13 759.82 436.4 742.44 425.4 720.26"/><path class="cls-15" d="M399,674.17c3.22,6.71,11.22,8,14.88,2.62s8.65-16,5.43-22.7-22.13-6.34-25.79-1S395.76,667.46,399,674.17Z"/><path class="cls-13" d="M439.4,742s3.38,16.36,21.53,17.86c0,0,6.49-2,2.16-8.93s-10.39-16.7-10.39-16.7Z"/><path class="cls-22" d="M423.84,714.38l10.07,28.53c1.42,2.21,22-8.21,20.25-11.61-.31-.6-11.27-35.06-23.05-40.62C421.54,686.16,418.55,701.38,423.84,714.38Z"/><path class="cls-13" d="M148.49,688.72c14.51,16.21,38-19.3,38-19.3l-6.8-4.83s-15,22.95-21.77,13.83C150.35,668.14,123,660.28,148.49,688.72Z"/><path class="cls-12" d="M224.94,661.33l2.48,7.2a5.47,5.47,0,0,0,1.8,2.53l5.54,4.13c2,1.45,2.74,4.66,1.33,5.43l-4,2.17a1.88,1.88,0,0,0-.68,2l.94,6.88c.34,2.43-1.71,2.95-3.46.89l-5-5.86a3.09,3.09,0,0,0-2.22-1.28l-5,.13c-1.75,0-3.79-2.84-3.46-4.88l.95-5.79a4.49,4.49,0,0,0-.68-2.82l-4-6.81c-1.41-2.4-.63-4.7,1.32-3.9l5.55,2.28a1.34,1.34,0,0,0,1.8-.46l2.48-4.34C221.54,657.33,224.07,658.79,224.94,661.33Z"/><ellipse class="cls-2" cx="152.66" cy="866.63" rx="34.27" ry="17.02" transform="translate(-15.34 2.84) rotate(-1.02)"/><path class="cls-6" d="M127,852.55l8-1c5.37-2.43,7.88-4.26,10.27-2.88l.68.39c2.39,1.39,2.09,3.82-.67,5.41l-11.8,9.38a7.81,7.81,0,0,1-8.69-.84s-1.32-1.2-.38-6.21C125,853.93,124.79,853.83,127,852.55Z"/><path class="cls-6" d="M162.28,871.49l7.95,1.5c5.86-.67,8.81-1.65,10.66.4l.53.58c1.85,2,.82,4.27-2.3,4.95L165,884.23a7.81,7.81,0,0,1-8-3.46s-.89-1.54,1.55-6C159.93,872.19,159.79,872,162.28,871.49Z"/><path class="cls-24" d="M167.82,873.45c0,4-9.77,4-9.77,0V860.4h9.77Z"/><path class="cls-25" d="M169.05,865.2c-3.21,4.56-10.2,4.59-12.18,1.3l-17-135.85h35.26Z"/><path class="cls-24" d="M134.56,854.15c-.22,3.63-10,3.63-9.77,0l.72-11.83h9.77Z"/><path class="cls-25" d="M136.47,848.9c-3.9,4-11.58,2.3-13.06-.6l5.18-117.77,24.56,3.64Z"/><ellipse class="cls-27" cx="152.66" cy="633.11" rx="10.4" ry="18.35" transform="translate(-79.94 24.81) rotate(-7.37)"/><path class="cls-13" d="M171.18,640.4c-2.42,8.44-11.47,11.5-16.79,6s-7.66-16.82-5.24-25.26,8.69-10.81,14-5.3S173.6,632,171.18,640.4Z"/><path class="cls-13" d="M150.71,664.76l-.9-.2a5.72,5.72,0,0,1-4.32-6.8l3.84-17.23a5.72,5.72,0,0,1,6.8-4.31l.9.2a5.71,5.71,0,0,1,4.32,6.79l-1.26,17.1C159.41,663.37,153.77,665.44,150.71,664.76Z"/><path class="cls-14" d="M140.44,641.67s.92,8,12.22,6.36c8.1-1.14,5.74-14.32,13.84-15.64,8.91-1.46,10.53-12.47,7-16.69s-13.32-6.44-20.43-3.3S135,615.35,140.44,641.67Z"/><circle class="cls-13" cx="162.82" cy="635.9" r="3.87"/><path class="cls-17" d="M127.56,729c2.88-15.81-.22-28.31,0-45.12,0-30.22-1.45-37.6,14.53-33l4.5,1.2a30.15,30.15,0,0,1,6.25,2.41c21.07,10.85,26.69,14.2,25.77,26.79.09,20.74-3,44-3.4,54.19C170.9,749.81,132.38,739.26,127.56,729Z"/><path class="cls-16" d="M160.91,649.16l-.91-2.11a5.79,5.79,0,0,0,4.73,1.23A7.41,7.41,0,0,1,160.91,649.16Z"/><path class="cls-13" d="M221.93,696l1.4-3.92a5.85,5.85,0,0,1,7.45-3.52h0A5.83,5.83,0,0,1,234.3,696L232.9,700a5.84,5.84,0,0,1-7.44,3.52h0A5.85,5.85,0,0,1,221.93,696Z"/><path class="cls-13" d="M161.67,672s5,22,30.47,50.46c14.51,16.21,38-19.3,38-19.3l-6.8-4.84s-15,23-21.77,13.84C194,701.84,183,662.55,161.67,672Z"/><path class="cls-13" d="M178.28,662.35l1.4-3.93a5.84,5.84,0,0,1,7.44-3.52h0a5.84,5.84,0,0,1,3.53,7.44l-1.4,3.93a5.85,5.85,0,0,1-7.45,3.52h0A5.83,5.83,0,0,1,178.28,662.35Z"/><path class="cls-17" d="M166.51,687.34l13,27.75c1.78,1.95,20.4-11.69,18.11-14.76-.41-.54-16.85-32.77-29.39-36.34C158,661.09,159.16,675.37,166.51,687.34Z"/><path class="cls-12" d="M190.05,638.74l2.48,7.2a5.4,5.4,0,0,0,1.79,2.53l5.55,4.13c1.95,1.46,2.73,4.67,1.32,5.43l-4,2.17a1.89,1.89,0,0,0-.69,2l.95,6.88c.33,2.43-1.71,3-3.46.89l-5-5.86a3.12,3.12,0,0,0-2.22-1.28l-5,.13c-1.75,0-3.8-2.84-3.46-4.88l1-5.79a4.51,4.51,0,0,0-.69-2.82l-4-6.81c-1.42-2.4-.64-4.7,1.32-3.9l5.54,2.28a1.34,1.34,0,0,0,1.8-.46l2.48-4.34C186.64,634.74,189.17,636.2,190.05,638.74Z"/><path class="cls-28" d="M601.56,753c-10-6-26.51-6.3-36.76-.61s-10.4,15.19-.35,21.22,26.33,6.31,36.77.73C612.69,768.23,611.61,759.05,601.56,753Z"/><path class="cls-15" d="M593.27,751.69c-9.55-5.72-25.18-6-34.91-.58s-9.88,14.43-.34,20.16,25,6,34.92.69C603.84,766.14,602.82,757.42,593.27,751.69Z"/><path class="cls-17" d="M592.93,745.76c-9.54-5.73-25.17-6-34.9-.58s-9.89,14.42-.34,20.15,25,6,34.92.69C603.5,760.2,602.48,751.48,592.93,745.76Z"/><polyline class="cls-29" points="569.32 749.69 566.49 759.41 589.43 754.22"/><path class="cls-28" d="M50.93,760c-10-6-26.5-6.31-36.75-.62s-10.41,15.2-.36,21.23,26.33,6.3,36.77.73C62.06,775.2,61,766,50.93,760Z"/><path class="cls-15" d="M42.64,758.66c-9.55-5.73-25.18-6-34.91-.58s-9.88,14.43-.33,20.15,25,6,34.91.7C53.21,773.1,52.19,764.38,42.64,758.66Z"/><path class="cls-17" d="M42.31,752.72c-9.55-5.72-25.18-6-34.91-.58s-9.88,14.43-.34,20.16,25,6,34.92.69C52.88,767.17,51.85,758.45,42.31,752.72Z"/><polyline class="cls-29" points="18.7 756.65 15.87 766.38 38.8 761.19"/><path class="cls-28" d="M537.7,722.46c-10.35-6.21-27.3-6.49-37.85-.63s-10.72,15.65-.37,21.86,27.12,6.49,37.87.75C549.17,738.13,548.06,728.67,537.7,722.46Z"/><path class="cls-14" d="M529.16,721.09c-9.83-5.9-25.93-6.16-35.95-.6s-10.18,14.86-.35,20.76,25.76,6.17,36,.72C540.05,736,539,727,529.16,721.09Z"/><path class="cls-19" d="M528.82,715c-9.83-5.9-25.93-6.17-36-.6s-10.17,14.86-.34,20.76,25.75,6.17,36,.71C539.71,729.86,538.65,720.87,528.82,715Z"/><line class="cls-30" x1="507.53" y1="715.38" x2="513.05" y2="732.98"/><line class="cls-30" x1="520.39" y1="721.73" x2="501.26" y2="725.07"/><path class="cls-28" d="M310.77,720.05c-10.36-6.21-27.31-6.49-37.86-.63s-10.72,15.65-.36,21.86,27.11,6.49,37.86.75C322.23,735.72,321.12,726.26,310.77,720.05Z"/><path class="cls-14" d="M302.23,718.68c-9.84-5.9-25.93-6.16-36-.6s-10.18,14.86-.34,20.76,25.75,6.17,36,.72C313.11,733.56,312.06,724.58,302.23,718.68Z"/><path class="cls-19" d="M301.88,712.57c-9.83-5.9-25.93-6.17-35.95-.6s-10.18,14.86-.35,20.76,25.76,6.17,36,.71C312.77,727.45,311.71,718.46,301.88,712.57Z"/><line class="cls-30" x1="280.59" y1="712.97" x2="286.11" y2="730.57"/><line class="cls-30" x1="293.45" y1="719.32" x2="274.32" y2="722.67"/></g></g></g></svg>