
<svg width="570px" height="379px" viewBox="0 0 570 379" version="1.1" xmlns="http://www.w3.org/2000/svg" xmlns:xlink="http://www.w3.org/1999/xlink">
    <defs>
        <polygon id="path-1" points="0.0486935698 0.36642732 193.608248 0.36642732 193.608248 244.918176 0.0486935698 244.918176"></polygon>
        <polygon id="path-3" points="0.0494530474 0.363324561 190.945977 0.363324561 190.945977 96.8859825 0.0494530474 96.8859825"></polygon>
    </defs>
    <g id="Welcome" stroke="none" stroke-width="1" fill="none" fill-rule="evenodd">
        <g id="Home" transform="translate(-135.000000, -1213.000000)">
            <g id="Group-579" transform="translate(135.000000, 1213.000000)">
                <g id="Group-15" transform="translate(0.000000, 120.000000)" fill="#32CAF0">
                    <path d="M492.452734,96.3137095 C567.282133,133.520171 567.282133,193.843954 492.452734,231.050845 C417.623767,268.256877 296.301665,268.256877 221.473131,231.050845 C146.643732,193.844384 146.643732,133.520171 221.473131,96.3137095 C296.301665,59.1068179 417.623767,59.1068179 492.452734,96.3137095" id="Fill-4"></path>
                    <path d="M230.733257,96.3502678 C283.490367,122.581926 283.490367,165.112567 230.733257,191.344226 C177.97658,217.575884 92.4408896,217.575884 39.6842122,191.344226 C-13.0728978,165.112567 -13.0728978,122.581926 39.6842122,96.3502678 C92.4408896,70.1186092 177.97658,70.1186092 230.733257,96.3502678" id="Fill-6"></path>
                    <path d="M258.87429,14.9198277 C297.526644,34.1387434 297.526644,65.2984613 258.87429,84.5169469 C220.221504,103.735862 157.553645,103.735862 118.901292,84.5169469 C80.248938,65.2984613 80.248938,34.1387434 118.901292,14.9198277 C157.553645,-4.29908787 220.221504,-4.29908787 258.87429,14.9198277" id="Fill-8"></path>
                </g>
                <path d="M539.276176,256 L513.079609,255.376005 L506,248.479223 L525.298563,250.151596 L518.774906,243.401109 L541.5925,242 L552.355185,245.82202 L555.877215,247.308006 C556.495273,247.299903 554.578994,254.50719 554.578994,254.50719 L539.276176,256 Z" id="Fill-16" fill="#3E95DD"></path>
                <polygon id="Fill-18" fill="#3E95DD" points="547.692103 198 570 208.252807 492.951046 248.346498 465 251"></polygon>
                <polygon id="Fill-20" fill="#3E95DD" points="467 256 452.77374 254.964479 319 187.705659 346.302034 174"></polygon>
                <polygon id="Fill-22" fill="#F89F26" points="329 186 329.027497 189.408923 464 256 463.972073 252.591077"></polygon>
                <polygon id="Fill-24" fill="#FFAD29" points="464 252.56234 464.028128 256 558 210.435098 557.974509 207"></polygon>
                <polygon id="Fill-26" fill="#FFE44A" points="329 184.081863 465.25729 252 558 205.918137 421.742276 138"></polygon>
                <polygon id="Fill-28" fill="#DBC8D2" points="338 173 338.033821 186.603863 466 250 465.966613 236.398712"></polygon>
                <polygon id="Fill-30" fill="#F9E4F0" points="550 194 550 207.68062 465.033228 250 465 236.335764"></polygon>
                <polygon id="Fill-32" fill="#F89F26" points="329 166 329.027497 169.40852 464 236 463.972073 232.59148"></polygon>
                <polygon id="Fill-34" fill="#FFAD29" points="464 232.562737 464.028128 236 558 190.435128 557.974509 187"></polygon>
                <polygon id="Fill-36" fill="#FFE44A" points="329 164.081863 465.25729 232 558 185.918137 421.742276 118"></polygon>
                <polygon id="Fill-38" fill="#FFAD29" points="474 218 459.622693 216.964067 346 158.939268 366.759795 148"></polygon>
                <g id="Group-46" transform="translate(355.000000, 116.000000)">
                    <polygon id="Fill-40" fill="#D84021" points="0.277457701 40.320605 0.299791757 43.3513151 117.817731 102.63171 117.795397 99.5992689"></polygon>
                    <polygon id="Fill-42" fill="#E8563D" points="117.795483 99.5991391 117.817817 102.632013 197.801227 62.4100803 197.779322 59.3772063"></polygon>
                    <polygon id="Fill-44" fill="#FF815A" points="0.277457701 40.320605 117.795397 99.5992689 197.779236 59.3769034 80.2638742 0.0965084034"></polygon>
                </g>
                <polygon id="Fill-47" fill="#FFFFFF" points="362 147 362.027381 159.012697 472 215 471.972619 202.986868"></polygon>
                <polygon id="Fill-49" fill="#F9E4F0" points="549 163 549 174.971492 474.028418 212 474 200.042801"></polygon>
                <g id="Group-57" transform="translate(355.000000, 100.000000)">
                    <polygon id="Fill-51" fill="#D84021" points="0.277457701 40.5556008 0.299791757 43.5858782 117.817731 102.866706 117.795397 99.8342647"></polygon>
                    <polygon id="Fill-53" fill="#E8563D" points="117.795483 99.8340916 117.817817 102.866966 197.801227 62.6450328 197.779322 59.6121588"></polygon>
                    <polygon id="Fill-55" fill="#FF815A" points="0.277457701 40.5556008 117.795397 99.8342647 197.779236 59.6118992 80.2638742 0.333668067"></polygon>
                </g>
                <polygon id="Fill-58" fill="#E8563D" points="463 178.743552 480.333175 180 526 157.035338 499.917079 153 463 174.155464"></polygon>
                <path d="M464.685494,175.473529 L498.172659,158.445141 C501.849659,156.575578 504.858153,151.986691 504.858153,148.248426 L504.858153,52.196039 C504.858153,51.0501086 507,50.4883358 507,50.4883358 L502.822572,48.3587649 C501.616804,47.7819254 499.975384,47.8813656 498.172659,48.7978517 L464.685494,65.82624 C461.008493,67.6958027 458,72.2846901 458,76.0233849 L458,172.075342 C458,173.944904 458.752335,175.261734 459.964031,175.877317 L464.136378,178 C464.136378,178 463.464484,176.094277 464.685494,175.473529" id="Fill-60" fill="#067791"></path>
                <path d="M466.990703,177.197231 L502.008855,160.072138 C505.853962,158.191958 509,153.577443 509,149.817516 L509,53.2196425 C509,49.4601483 505.853962,47.9224096 502.008855,49.8025896 L466.990703,66.9276829 C463.145595,68.8078629 460,73.4223779 460,77.182305 L460,173.779745 C460,177.539672 463.145595,179.077844 466.990703,177.197231" id="Fill-62" fill="#3DBFC9"></path>
                <path d="M466.810048,168.434117 L500.18952,151.704766 C502.835349,150.378337 505,147.977618 505,145.326058 L505,56.9756074 C505,54.3244798 502.835349,53.2402421 500.18952,54.5658059 L466.810048,71.295589 C464.16422,72.6211528 462,75.8755958 462,78.527156 L462,166.024315 C462,168.675875 464.16422,169.759681 466.810048,168.434117" id="Fill-64" fill="#B8F4F4"></path>
                <path d="M475.545721,64.8690096 L489.453834,58.0628294 C489.754047,57.9157299 490,58.0358466 490,58.3300456 C490,58.6233742 489.754047,58.9841596 489.453834,59.1308239 L475.545721,65.9374393 C475.245508,66.0841036 475,65.9639868 475,65.6702231 C475,65.3764593 475.245508,65.0156739 475.545721,64.8690096" id="Fill-66" fill="#002B6A"></path>
                <path d="M482.648723,163.78748 L491.35081,160.134378 C492.258424,159.753447 493,160.227555 493,160.989026 L493,162.85688 C493,163.617959 492.258424,164.849232 491.35081,165.230163 L482.648723,168.883265 C481.742042,169.263804 481,168.656194 481,167.894332 L481,166.026477 C481,165.265007 481.742042,164.168411 482.648723,163.78748" id="Fill-68" fill="#2094AF"></path>
                <path d="M482.236784,163.543275 L488.763216,160.150925 C489.443174,159.797352 490,160.086528 490,160.793673 L490,162.528324 C490,163.235064 489.443174,164.102997 488.763216,164.45657 L482.236784,167.849325 C481.556436,168.202493 481,167.913317 481,167.206577 L481,165.471926 C481,164.764781 481.556436,163.896848 482.236784,163.543275" id="Fill-70" fill="#3DBCC9"></path>
                <path d="M474,65.7235851 C474,65.4766827 474.223973,65.176288 474.500106,65.0529321 C474.77624,64.9293857 475,65.0295173 475,65.2762292 C475,65.523322 474.77624,65.8235263 474.500106,65.9470726 C474.223973,66.070619 474,65.9704874 474,65.7235851" id="Fill-72" fill="#002B6A"></path>
                <path d="M473,68.7235564 C473,68.4766832 473.22389,68.1764094 473.5,68.052833 C473.77611,67.9295362 474,68.0293479 474,68.2762211 C474,68.5233739 473.77611,68.8236477 473.5,68.9472241 C473.22389,69.0705209 473,68.9704297 473,68.7235564" id="Fill-74" fill="#002B6A"></path>
                <path d="M493.146569,56.3419299 C493.341994,56.0799658 493.658289,55.9385455 493.853714,56.0257547 C494.048762,56.1129638 494.048762,56.396141 493.853714,56.6577684 C493.658289,56.9197326 493.341994,57.0614895 493.146569,56.9742804 C492.951144,56.8870712 492.951144,56.603894 493.146569,56.3419299" id="Fill-76" fill="#002B6A"></path>
                <path d="M459.360549,107.797359 L459.5,107.999855 C459.555232,108.009155 459.835678,107.568652 459.898285,107.491289 C459.961063,107.413926 460,107.248632 460,107.014006 L460,95.3799808 C460,94.9107305 459.844082,94.3349476 459.653859,94.1003225 C459.548199,93.9701161 459.453173,93.9709616 459.389537,94.0779168 C459.389537,94.0779168 459,94.4469759 459,94.6558134 L459.307547,106.160478 C459.307547,106.629729 459.170326,107.562733 459.360549,107.797359" id="Fill-78" fill="#067791"></path>
                <path d="M459.426836,122.43652 L459.466183,123 L459.879782,122.503732 C459.953581,122.433561 460,122.262361 460,122.013381 L460,110.38024 C460,109.910603 459.835358,109.334864 459.63427,109.100257 C459.533454,108.982742 459.442067,108.972174 459.375703,109.049531 L459,109.532272 L459.268178,121.159918 C459.268178,121.629132 459.426836,122.43652 459.426836,122.43652" id="Fill-80" fill="#067791"></path>
                <path d="M459.499876,107.896457 L459.499876,107.896457 C459.774833,108.139044 460,107.940604 460,107.45543 L460,95.4266238 C460,94.9414503 459.774833,94.3461293 459.499876,94.1035425 C459.225167,93.8609558 459,94.0593961 459,94.5445696 L459,106.573376 C459,107.05855 459.225167,107.653871 459.499876,107.896457" id="Fill-82" fill="#33B3C4"></path>
                <path d="M459.499876,122.896459 L459.499876,122.896459 C459.774833,123.139042 460,122.940605 460,122.45544 L460,110.426844 C460,109.941679 459.774833,109.346369 459.499876,109.103349 C459.225167,108.861204 459,109.059203 459,109.544368 L459,121.573401 C459,122.058566 459.225167,122.653877 459.499876,122.896459" id="Fill-84" fill="#33B3C4"></path>
                <path d="M505,141 L505,145.341055 C505,147.990897 502.835371,150.390493 500.189569,151.71563 L466.810431,168.434571 C464.165061,169.759276 462,168.675741 462,166.025899 L462,162.537582 L505,141 Z" id="Fill-86" fill="#1D99B3"></path>
                <polygon id="Fill-88" fill="#7DD2DB" points="477 162 492 154.494755 492 150 477 157.504808"></polygon>
                <path d="M470.937745,162.961842 C471.152298,162.851504 471.349666,162.825306 471.507757,162.868634 L473.138747,161.027667 C473.130892,160.980308 473.125,160.930934 473.125,160.877025 C473.125,160.823619 473.130892,160.768199 473.138747,160.712778 L471.507757,160.545509 C471.349666,160.751573 471.152298,160.927911 470.937745,161.038248 C470.419776,161.303762 470,161.088126 470,160.557097 C470,160.026069 470.419776,159.379664 470.937745,159.113646 C471.455715,158.848132 471.875,159.063768 471.875,159.594797 C471.875,159.648706 471.869599,159.703622 471.861744,159.759546 L473.492734,159.926312 C473.650334,159.720248 473.848193,159.544414 474.062745,159.434077 C474.580715,159.168563 475,159.383695 475,159.914724 C475,160.446256 474.580715,161.092661 474.062745,161.358175 C473.848193,161.468512 473.650334,161.494711 473.492734,161.451382 L471.861744,163.292349 C471.869599,163.339708 471.875,163.389587 471.875,163.442992 C471.875,163.974524 471.455715,164.620425 470.937745,164.885939 C470.419776,165.151957 470,164.936825 470,164.405293 C470,163.874264 470.419776,163.22786 470.937745,162.961842" id="Fill-90" fill="#7DD2DB"></path>
                <path d="M466,165.447195 C466,165.941088 466.447779,166.141146 467.000146,165.8942 C467.552221,165.647253 468,165.046819 468,164.552665 C468,164.059033 467.552221,163.858714 467.000146,164.105921 C466.447779,164.352868 466,164.953302 466,165.447195" id="Fill-92" fill="#7DD2DB"></path>
                <polygon id="Fill-94" fill="#7DD2DB" points="503.145349 147 506 147.644482 500 149"></polygon>
                <polygon id="Fill-96" fill="#7DD2DB" points="503.145349 150 506 148 500 149.401541"></polygon>
                <polygon id="Fill-98" fill="#7DD2DB" points="494 154 499 151.999855 499 148 494 150.00058"></polygon>
                <polygon id="Fill-100" fill="#FFFFFF" points="503 138.882797 467 157 467 78.1172033 503 60"></polygon>
                <path d="M467.609091,73.1539203 L500.290961,56.5613572 C502.881038,55.246203 505,56.3220043 505,58.9518839 L505,146.579508 C505,149.209387 502.881038,151.590477 500.290961,152.905631 L500.105473,153 L465,75.2875072 C465.748714,74.3982982 466.645734,73.6433499 467.609091,73.1539203" id="Fill-102" fill="#FFFFFF"></path>
                <polygon id="Fill-104" fill="#B8F4F4" points="474 84 497 72.605507 497 69 474 80.394493"></polygon>
                <polygon id="Fill-106" fill="#B8F4F4" points="468 95 500 78.4220466 500 75 468 91.5783901"></polygon>
                <polygon id="Fill-108" fill="#B8F4F4" points="468 99 500 82.4220466 500 79 468 95.5779534"></polygon>
                <polygon id="Fill-110" fill="#B8F4F4" points="468 103 500 86.4216099 500 83 468 99.5779534"></polygon>
                <polygon id="Fill-112" fill="#B8F4F4" points="468 109 500 92.4220466 500 89 468 105.57839"></polygon>
                <polygon id="Fill-114" fill="#B8F4F4" points="468 114 500 97.4220466 500 94 468 110.577953"></polygon>
                <polygon id="Fill-116" fill="#B8F4F4" points="468 117 500 100.422047 500 97 468 113.577953"></polygon>
                <polygon id="Fill-118" fill="#B8F4F4" points="468 122 500 105.421972 500 102 468 118.578028"></polygon>
                <polygon id="Fill-120" fill="#B8F4F4" points="468 127 500 110.422047 500 107 468 123.577953"></polygon>
                <polygon id="Fill-122" fill="#B8F4F4" points="468 133 500 116.422047 500 113 468 129.57839"></polygon>
                <polygon id="Fill-124" fill="#B8F4F4" points="468 136 500 119.422047 500 116 468 132.577953"></polygon>
                <polygon id="Fill-126" fill="#B8F4F4" points="468 141 500 124.422047 500 121 468 137.577953"></polygon>
                <polygon id="Fill-128" fill="#B8F4F4" points="468 144 500 127.422047 500 124 468 140.57839"></polygon>
                <polygon id="Fill-130" fill="#B8F4F4" points="468 150 500 133.422047 500 130 468 146.57839"></polygon>
                <polygon id="Fill-132" fill="#002B6A" points="528 240.135883 528 242.741409 524.078739 245 513.661526 240.135883 513 233 521.382177 234.585361"></polygon>
                <path d="M504.334822,250.790649 C504.005318,250.790649 496.858541,251.877934 496.858541,251.877934 L494,255.257833 L495.09934,256.524097 L511.78638,258 L513.632965,256.407205 L515,255.257833 L513.2408,250 L504.334822,250.790649 Z" id="Fill-134" fill="#002B6A"></path>
                <path d="M518.550349,180 C518.550349,180.511027 519.25523,182.638496 519.25523,182.638496 L520.462817,192.64281 L522.476764,212.538986 L526,230.681086 L526,241.543769 L522.275369,243 L516.939582,238.968229 L511,204.811932 L518.550349,180 Z" id="Fill-136" fill="#002B6A"></path>
                <path d="M497,190.804007 C497,190.804007 497.592675,217.769091 497.830389,218.096694 C498.067183,218.424298 504.233947,252.70417 504.233947,252.70417 C504.233947,252.70417 508.85948,256.306541 509.214901,255.978937 C509.570782,255.651757 516.805189,253.140552 516.805189,253.140552 L512.180116,226.612273 C512.180116,226.612273 513.822042,202.409812 514.078147,202.157548 C515.855253,200.409482 523,194.320456 523,194.320456 L521.786143,186 L497,190.804007 Z" id="Fill-138" fill="#003D75"></path>
                <path d="M470.838992,137 C470.838992,136.658892 467,129.374267 467,129.374267 L468.919715,123 L470.048521,123.683099 L470.27437,126.642312 L471.629025,127.325411 L473.397737,127.473681 L474,135.064994 L470.838992,137 Z" id="Fill-140" fill="#F9A873"></path>
                <polygon id="Fill-142" fill="#FFFFFF" points="469.345749 135.464884 469 137.290332 472.14119 141 476 134.953179 474.368139 133"></polygon>
                <polygon id="Fill-144" fill="#F9A873" points="534 179.780357 533.951469 183.789094 532.877395 190.101701 530.636867 191 528.140485 190.101701 528 185.420404 530.753938 179"></polygon>
                <polygon id="Fill-146" fill="#FFFFFF" points="533.615077 180 534 180.900289 532.937612 181.527697 527.010265 182 527 181.316474"></polygon>
                <polygon id="Fill-148" fill="#3E3F78" points="532.375065 182.199749 526.854414 183 523.370629 169.007763 515 149.016684 522.441419 147 530.388508 164.999566 534 180.044193"></polygon>
                <polygon id="Fill-150" fill="#3E3F78" points="499.957104 155.45715 510.638 148.190184 518.667294 145 522.996652 146.359217 525 155.45715 519.243147 174.878006 521.833647 184.140141 505.138523 194 497 191.32544 497.239381 187.655686 498.229964 172.487974 497.078678 161.432665"></polygon>
                <path d="M504,151 L504,144.918241 C504,144.918241 511.870935,142.71645 512.258129,143.030701 C512.644822,143.345359 516,146.805782 516,146.805782 L510.709855,150.580456 L504,151 Z" id="Fill-152" fill="#F9A873"></path>
                <path d="M508,149 C507.889696,148.548346 502.569902,144.839266 502.569902,144.839266 L502,134 L505.418127,137.950662 L508,149 Z" id="Fill-154" fill="#F9A873"></path>
                <polygon id="Fill-156" fill="#11487F" points="499 133.26529 499 130.656407 511.532576 128 517 135.415046 515.361188 146.074976 507.765591 149 503.265933 144.683545 502.375314 138.130963"></polygon>
                <path d="M515.52033,148.552071 C515.535698,148.571756 510.342364,151.979858 510.342364,151.979858 L505.416864,151.874571 C505.416864,151.874571 504.876806,154 505.02609,154 L511.020729,154 L517,149.877317 L516.80154,148.552071 L515.101456,148 L515.52033,148.552071 Z" id="Fill-158" fill="#FFFFFF"></path>
                <path d="M505.564124,158.83885 L486.199866,150.850965 L475.036978,134 L469.741042,137.158416 L469,138.924074 L480.390766,157.854205 L501.008347,170 L506.133817,170 C506.133817,170 510.690034,164.419213 505.564124,158.83885" id="Fill-160" fill="#4D5083"></path>
                <path d="M483,201 L483.071233,209.731829 L484.05913,211.667325 L483.501886,214.954764 L486.181868,220 L490.149331,213.697027 C490.149331,213.697027 498.172995,214.794478 497.997151,214.592222 C497.820494,214.390412 495.927737,209.097826 495.927737,209.097826 L483,201 Z" id="Fill-162" fill="#D84021"></path>
                <polygon id="Fill-164" fill="#29A9EF" points="482 200.937655 488.666667 220 493.699513 212.355924 502 213.962349 495.333757 194"></polygon>
                <path d="M412.046117,249.564336 L248.929954,167.571799 C244.273608,165.231883 226.529292,170.678383 221.911329,173.018299 L123.451404,222.765283 C118.828265,225.105634 118.853709,228.921177 123.503155,231.257623 L286.617594,313.249292 C291.270059,315.586171 298.846056,315.582266 303.468332,313.245387 L410.450876,259.26026 C418.468486,254.656789 416.698582,251.89731 412.046117,249.564336" id="Fill-166" fill="#CC9ACA"></path>
                <path d="M398.556837,252.676805 L300.254241,302.703347 C295.639532,305.052779 288.075939,305.056705 283.431091,302.707273 L112.528854,216.295294 C110.193944,215.111198 109.021537,213.553636 109.030149,212 C109.017232,214.846369 109.008621,217.689247 109.00001,220.531689 C108.996135,222.086197 110.165097,223.647686 112.502159,224.831782 L283.409563,311.239398 C288.0458,313.58883 295.612407,313.584904 300.228407,311.239398 L398.527128,261.20893 C400.822427,260.047085 401.965986,258.507847 401.974597,256.972536 C401.978903,254.129657 401.991819,251.283289 402,248.439974 C401.991819,249.975722 400.84783,251.511033 398.556837,252.676805" id="Fill-168" fill="#168CA8"></path>
                <path d="M398.499807,243.879847 L227.57893,157.75908 C222.930177,155.41364 215.365405,155.41364 210.754546,157.75908 L112.446094,207.614237 C107.830067,209.959242 107.855473,213.783083 112.497766,216.125044 L283.416921,302.245811 C288.061798,304.587337 295.62657,304.583424 300.241305,302.241897 L398.554062,252.383696 C403.17052,250.041735 403.144684,246.218329 398.499807,243.879847" id="Fill-170" fill="#3DBFC9"></path>
                <polygon id="Fill-172" fill="#168CA8" points="187.972424 211.92324 187.891725 213.296108 211.239092 224.926126 268.799662 253.593722 269.945841 253.01845 269.965261 254.181106 290.805792 264.546389 291.910112 263.988851 291.831571 265.067162 318.909201 279 329.644709 273.559999 329.632194 270.65336 331.969865 272.373987 355.079452 260.660489 355.104482 256.979611 358.760518 258.803614 369.012266 253.595452 369.048516 250.753261 371.236442 252.482538 382 246.847032 381.999137 243.082241 368.790453 236.497319 366.274123 237.778922 366.274123 235.250751 353.056808 228.665396 350.539614 229.936619 350.539183 227.412341 337.329636 220.830446 334.807695 222.242675 334.801222 219.576093 321.59297 212.995496 319.075345 214.521914 319.075345 211.745035 305.866229 205.163141 303.135853 206.927021 303.34731 203.899704 290.124385 197.327325 287.501463 199.18074 287.608486 196.064754 274.389445 189.485454 271.883903 191.13082 271.883472 188.235859 258.654505 181.647043 256.101925 182.941623 256.140764 180.393555 242.912661 173.811228 240.644899 176.335938 240.442937 172.650735 221.219399 163 210.503742 168.432215 210.504174 170.836681 208.111265 169.645477 197.396903 175.07726 197.396903 177.491674 194.989321 176.29009 184.281432 181.72317 184.281432 184.139746 181.874282 182.938595 171.178044 188.372107 171.178476 190.856592 168.697101 189.620838 158 195.04743 158.12299 198.466624 186.566886 212.636491"></polygon>
                <polygon id="Fill-174" fill="#70E2E5" points="318 223.574259 306.810048 229 293 222.425741 304.193559 217"></polygon>
                <polygon id="Fill-176" fill="#70E2E5" points="331 270.575258 319.998931 276 292 262.43166 302.995304 257"></polygon>
                <polygon id="Fill-178" fill="#70E2E5" points="366 236.577147 354.80879 242 341 235.418965 352.19121 230"></polygon>
                <polygon id="Fill-180" fill="#70E2E5" points="338 246.580102 326.810987 252 313 245.427676 324.187661 240"></polygon>
                <polygon id="Fill-182" fill="#70E2E5" points="324 239.573496 312.815588 245 299 238.41916 310.197038 233"></polygon>
                <polygon id="Fill-184" fill="#70E2E5" points="346 238.575922 334.805499 244 321 237.431852 332.185932 232"></polygon>
                <polygon id="Fill-186" fill="#70E2E5" points="382 243.578945 370.806798 249 357 242.420623 368.189596 237"></polygon>
                <polygon id="Fill-188" fill="#70E2E5" points="308 231.57184 296.814021 237 283 230.42125 294.198607 225"></polygon>
                <polygon id="Fill-190" fill="#70E2E5" points="305 243.574887 293.803413 249 280 242.419062 291.186216 237"></polygon>
                <polygon id="Fill-192" fill="#70E2E5" points="318 250.575585 306.810877 256 293 249.423551 304.193633 244"></polygon>
                <polygon id="Fill-194" fill="#70E2E5" points="290 237.577579 278.809086 243 265 236.422853 276.190914 231"></polygon>
                <polygon id="Fill-196" fill="#70E2E5" points="369 250.781435 358.01211 256 337 246.209429 347.989662 241"></polygon>
                <polygon id="Fill-198" fill="#70E2E5" points="354 257.52803 341.428718 263.68652 334.216031 267.218962 330.575596 269 308 258.130036 318.856619 252.816132 325.790012 256.158489 338.361294 250"></polygon>
                <polygon id="Fill-200" fill="#70E2E5" points="301 254.822274 290.074159 260 269 250.186399 279.932005 245"></polygon>
                <polygon id="Fill-202" fill="#70E2E5" points="239 173.607897 228.98795 179 211 169.401996 221.020526 164"></polygon>
                <polygon id="Fill-204" fill="#70E2E5" points="257 194.574454 245.802807 200 232 193.425978 243.189527 188"></polygon>
                <polygon id="Fill-206" fill="#70E2E5" points="319 211.57748 307.81338 217 294 210.425113 305.197442 205"></polygon>
                <polygon id="Fill-208" fill="#70E2E5" points="301 216.56934 289.815884 222 276 215.417264 287.189978 210"></polygon>
                <polygon id="Fill-210" fill="#70E2E5" points="279 244.625562 268.245229 250 210 221.374438 220.732256 216"></polygon>
                <polygon id="Fill-212" fill="#70E2E5" points="257 181.574319 245.803009 187 232 180.423089 243.176699 175"></polygon>
                <polygon id="Fill-214" fill="#70E2E5" points="213 199.733207 202.351384 205 170 189.273511 180.636171 184"></polygon>
                <polygon id="Fill-216" fill="#70E2E5" points="305 204.569431 293.808056 210 280 203.423651 291.188789 198"></polygon>
                <polygon id="Fill-218" fill="#70E2E5" points="250 204.569668 238.805836 210 225 203.426873 236.194164 198"></polygon>
                <polygon id="Fill-220" fill="#70E2E5" points="197 204.677437 186.20962 210 158 196.322987 168.779074 191"></polygon>
                <polygon id="Fill-222" fill="#70E2E5" points="287 208.573034 275.800815 214 262 207.424373 273.196029 202"></polygon>
                <polygon id="Fill-224" fill="#70E2E5" points="230 207.574165 218.803009 213 205 206.426267 216.188874 201"></polygon>
                <polygon id="Fill-226" fill="#70E2E5" points="263 210.577384 251.805856 216 238 209.422616 249.198654 204"></polygon>
                <polygon id="Fill-228" fill="#70E2E5" points="244 214.57289 232.804826 220 219 213.420192 230.192469 208"></polygon>
                <polygon id="Fill-230" fill="#70E2E5" points="334 218.577285 322.824214 224 309 217.424877 320.199683 212"></polygon>
                <polygon id="Fill-232" fill="#70E2E5" points="219 215.816613 208.068134 221 187 211.183799 197.920859 206"></polygon>
                <polygon id="Fill-234" fill="#70E2E5" points="279 218.575822 267.802356 224 254 217.423746 265.197193 212"></polygon>
                <polygon id="Fill-236" fill="#70E2E5" points="260 221.572324 248.820427 227 235 220.423787 246.191743 215"></polygon>
                <polygon id="Fill-238" fill="#70E2E5" points="351 229.576059 339.80074 235 326 228.427831 337.19475 223"></polygon>
                <polygon id="Fill-240" fill="#70E2E5" points="294 225.569236 282.805836 231 269 224.426873 280.194164 219"></polygon>
                <polygon id="Fill-242" fill="#70E2E5" points="332 231.575585 320.820383 237 307 230.42744 318.194952 225"></polygon>
                <polygon id="Fill-244" fill="#70E2E5" points="274 229.574691 262.80074 235 249 228.425741 260.198809 223"></polygon>
                <polygon id="Fill-246" fill="#70E2E5" points="273 188.582499 261.803675 194 248 187.42744 259.178741 182"></polygon>
                <polygon id="Fill-248" fill="#70E2E5" points="241 186.725027 230.357804 192 198 176.271615 208.653352 171"></polygon>
                <polygon id="Fill-250" fill="#70E2E5" points="219 188.412673 208.577577 194 185 181.587327 195.419064 176"></polygon>
                <polygon id="Fill-252" fill="#70E2E5" points="287 195.574887 275.802807 201 262 194.425978 273.185919 189"></polygon>
                <polygon id="Fill-254" fill="#70E2E5" points="234 195.574454 222.805788 201 209 194.429004 220.189703 189"></polygon>
                <polygon id="Fill-256" fill="#70E2E5" points="271 201.571892 259.826957 207 246 200.427244 257.201003 195"></polygon>
                <g id="Group-266" transform="translate(307.000000, 258.000000)" fill="#00234C">
                    <path d="M0.121589706,45.4213606 C0.121589706,46.5506541 1.04823676,47.0085807 2.19083971,46.4437183 C3.33387892,45.878856 4.26008971,44.5050761 4.26008971,43.3757826 C4.26008971,42.2460578 3.33387892,41.7881312 2.19083971,42.3534248 C1.04823676,42.917856 0.121589706,44.2916358 0.121589706,45.4213606" id="Fill-258"></path>
                    <polygon id="Fill-260" points="27.3534083 33.7404376 37.707075 28.6226119 37.707075 24.6845294 27.3534083 29.802355"></polygon>
                    <polygon id="Fill-262" points="75.6299314 9.83321927 88.794951 3.35239358 88.794951 0.038246789 75.6299314 6.51907248"></polygon>
                    <polygon id="Fill-264" points="11.9564083 41.3048505 22.310075 36.1870248 22.310075 32.2493734 11.9564083 37.3671991"></polygon>
                </g>
                <g id="Group-269" transform="translate(222.000000, 0.000000)">
                    <mask id="mask-2" fill="white">
                        <use xlink:href="#path-1"></use>
                    </mask>
                    <g id="Clip-268"></g>
                    <path d="M185.204702,86.3379571 L14.4610439,1.35642469 C12.1300328,0.195356392 10.0037756,0.0889465849 8.46984213,0.86084676 C5.6609286,2.2677732 2.85674678,3.67469965 0.0486935698,5.07819352 C1.58262705,4.30629335 183.917678,244.157861 182.400521,244.918176 C183.798095,244.220076 185.204702,243.515111 186.607008,242.817011 C188.012756,242.111617 189.415062,241.410085 190.812636,240.704262 C192.329793,239.944376 193.276135,238.331495 193.284308,236.046258 L193.608215,98.8840166 C193.621119,94.2916611 189.845217,88.6485088 185.204702,86.3379571" id="Fill-267" fill="#168CA8" mask="url(#mask-2)"></path>
                </g>
                <path d="M377,92.1909894 L395.909578,82 L412.269587,90.8167638 C414.518956,93.6298251 416.008046,97.1687195 415.999967,100.264966 L415.999117,100.791011 L404.477163,107 L377,92.1909894 Z" id="Fill-270" fill="#47C7D1"></path>
                <g id="Group-274" transform="translate(223.000000, 0.000000)">
                    <mask id="mask-4" fill="white">
                        <use xlink:href="#path-3"></use>
                    </mask>
                    <g id="Clip-273"></g>
                    <path d="M0.0494530474,5.03506579 C2.8627149,3.64345614 5.67425214,2.24844298 8.48966975,0.853429825 C10.0271551,0.0884912281 12.1583357,0.194 14.4951754,1.34523684 L185.633762,85.6067544 C187.657586,86.6039825 189.491704,88.2423465 190.945977,90.1321447 C185.034893,93.379943 178.825453,96.8859825 178.825453,96.8859825 L4.28034018,9.88719298 C1.68869007,6.71214474 0.181816479,4.96912281 0.0494530474,5.03506579" id="Fill-272" fill="#47C7D1" mask="url(#mask-4)"></path>
                </g>
                <path d="M400.593548,91.7483054 L229.786428,6.00193966 C225.139781,3.66625192 221.33657,5.55688183 221.32409,10.1905919 L221.000056,148.580632 C220.983273,153.221702 224.764537,158.922598 229.403009,161.257853 L400.213141,247.004652 C404.856346,249.332547 408.66343,247.434557 408.680643,242.797816 L408.999944,104.407343 C409.016727,99.7662733 405.235463,94.0762003 400.593548,91.7483054" id="Fill-275" fill="#33B3C4"></path>
                <path d="M399.786487,96.895936 L230.54269,12.6104758 C227.661633,11.1799499 225.316626,12.352505 225.307519,15.1984075 L225.000027,148.334271 C224.990919,151.180173 227.318144,154.67057 230.200068,156.101529 L399.447769,240.387422 C402.316249,241.814052 404.687711,240.664005 404.695951,237.818535 L404.999974,104.678343 C405.009081,101.840232 402.659304,98.3225664 399.786487,96.895936" id="Fill-277" fill="#01366C"></path>
                <path d="M396.931453,96.6715235 L232.388889,14.5945873 C229.587819,13.2014705 227.307849,14.3429804 227.299214,17.1145405 L227.000025,146.762014 C226.99139,149.533574 229.25366,152.932641 232.055593,154.32619 L396.602042,236.403126 C399.391023,237.79279 401.696466,236.67329 401.705101,233.902162 L401.999973,104.250372 C402.009039,101.486149 399.724751,98.0611877 396.931453,96.6715235" id="Fill-279" fill="#9FEDEB"></path>
                <polygon id="Fill-281" fill="#FFFFFF" points="338 184 394 211.353922 394 217 338 189.645652"></polygon>
                <polygon id="Fill-283" fill="#FFFFFF" points="338 175 394 202.353922 394 208 338 180.646078"></polygon>
                <polygon id="Fill-285" fill="#FFFFFF" points="338 168 394 195.353922 394 201 338 173.646078"></polygon>
                <polygon id="Fill-287" fill="#FFFFFF" points="338 161 394 188.353995 394 194 338 166.646005"></polygon>
                <polygon id="Fill-289" fill="#FFFFFF" points="338 154 394 181.353922 394 187 338 159.646078"></polygon>
                <polygon id="Fill-291" fill="#FFFFFF" points="338 145 394 172.353568 394 178 338 150.646432"></polygon>
                <polygon id="Fill-293" fill="#FFFFFF" points="338 137 394 164.353568 394 170 338 142.646005"></polygon>
                <polygon id="Fill-295" fill="#FFFFFF" points="338 129 394 156.353922 394 162 338 134.646078"></polygon>
                <polygon id="Fill-297" fill="#FFFFFF" points="338 122 394 149.353568 394 155 338 127.646005"></polygon>
                <polygon id="Fill-299" fill="#FFFFFF" points="338 114 394 141.353922 394 147 338 119.646078"></polygon>
                <polygon id="Fill-301" fill="#FFFFFF" points="338 107 394 134.353568 394 140 338 112.646432"></polygon>
                <polygon id="Fill-303" fill="#FFFFFF" points="338 97 394 124.353922 394 130 338 102.646078"></polygon>
                <polygon id="Fill-305" fill="#FFFFFF" points="338 90 394 117.353568 394 123 338 95.6460051"></polygon>
                <path d="M396.922399,96.3507347 L232.100924,14.5922801 C229.294659,13.204569 227.011677,14.3416495 227.002595,17.1024552 L227,22.8880242 L401.997376,110 L401.99997,103.900176 C402.009485,101.146678 399.719583,97.7350066 396.922399,96.3507347" id="Fill-307" fill="#006E98"></path>
                <path d="M251.905411,126.673902 L251.905411,126.228333 C253.887195,113.879371 257.228568,113.594399 277.101198,114.160417 L303.066742,127.850888 C322.946707,144.721008 328.039454,151.831796 329.798163,167.856599 L332,189 L250,147.52273 L251.905411,126.673902 Z" id="Fill-309" fill="#003768"></path>
                <polygon id="Fill-311" fill="#F19D7E" points="280 115.436169 281.858438 110 292.733217 115.726469 302.888968 117.339115 305 126.63735 292.948423 130"></polygon>
                <path d="M302.669176,125.225624 C301.430795,126.143362 294.918103,127.878189 291.156443,125.670266 C287.397855,123.466165 281.159433,117.199555 279.922368,114 C278.891554,114.583089 275,115.624409 275,115.624409 L291.562362,161 L307,132.519115 L302.669176,125.225624 Z" id="Fill-313" fill="#FFFFFF"></path>
                <polygon id="Fill-315" fill="#006E98" points="286.015564 125.17036 291.70428 123 298 131.133973 297.983463 132.324983 294.394942 135 289.038911 132.380633 286 126.463633"></polygon>
                <polygon id="Fill-317" fill="#006E98" points="286.015564 125.17036 291.70428 123 298 131.133973 297.983463 132.324983 294.394942 135 289.038911 132.380633 286 126.463633"></polygon>
                <polygon id="Fill-319" fill="#006E98" points="295 153.313913 291.241578 161 287 148.119772 288.797681 135 293.190271 137.32823"></polygon>
                <polygon id="Fill-321" fill="#006E98" points="286.015564 125.17036 291.70428 123 298 131.133973 297.983463 132.324983 294.394942 135 289.038911 132.380633 286 126.463633"></polygon>
                <polygon id="Fill-323" fill="#006E98" points="295 153.313913 291.241578 161 287 148.119772 288.797681 135 293.190271 137.32823"></polygon>
                <path d="M275,92.6005184 C275,90.7242807 275.539223,90.2415467 276.461315,90.3943546 C276.240429,86.4543422 275.690811,82.1236278 277.089326,80.0181782 C279.753389,75.994816 287.106742,76.385518 292.126495,78.9016388 C296.942252,81.3157429 303.080729,87.2231568 305.775111,93.5568701 C307.432192,97.4638899 306.59239,101.095248 306.3793,105.131199 C307.401008,105.913905 308,106.947529 308,108.931861 C308,111.878622 306.680312,115.872465 304.61524,115.50043 C304.35061,116.086917 304.055228,116.632163 303.738191,117.143983 C303.716969,117.176541 303.68925,117.199549 303.672358,117.225162 C302.959458,118.306538 300.449582,120.576517 299.997848,120.826132 C300.003045,120.839589 300.005644,120.853481 300.006943,120.859993 C297.509194,122.333373 294.54715,122.433219 291.365952,120.838721 C286.505585,118.402477 283.067552,114.648265 280.116336,107.351689 C279.890252,106.803838 278.874608,103.390405 278.588755,102.902027 C278.418975,102.382828 277.955114,102.13929 277.955114,102.13929 C276.13475,100.099392 275,95.3328276 275,92.6005184" id="Fill-325" fill="#FFBD91"></path>
                <path d="M281.877847,83.5156274 C281.565864,85.667025 286.290495,87.7236509 289.443212,88.6835177 C292.595039,89.6433844 294.447827,91.0596942 297.393444,93.1669459 C300.367948,95.3017382 303.278456,99.4271402 303.695322,101.017603 C303.952642,101.97504 303.73132,105.917784 303.73132,105.917784 L306.372065,106 C306.372065,106 307.583999,100.636086 306.640495,96.4272529 C305.729434,92.3731321 304.37173,86.9363172 296.91747,82.0725873 C290.154728,77.6592252 284.459039,77.7491368 284.244384,79.1800268 C283.721746,79.0419193 283.29688,78.4639743 282.667137,78.1768242 C281.092556,77.4595567 276.730128,79.1561313 276.730128,79.1561313 L275.578191,80.9090019 L275,90.2897757 L275.574635,92.6084412 L277.776293,94.7606488 C277.776293,94.7606488 276.799457,86.4632689 280.37304,85.7933872 C281.501423,85.5848086 281.877847,83.5156274 281.877847,83.5156274" id="Fill-327" fill="#003768"></path>
                <polygon id="Fill-329" fill="#3DBFC9" points="245 46.2357841 233 40 233 140.764216 245 147"></polygon>
                <polygon id="Fill-331" fill="#168CA8" points="235 133.104541 241.895681 137 242 113.895459 235.104713 110"></polygon>
                <path d="M244,56.6832944 C244,59.6462418 242.209333,60.8471806 240,59.3649588 C237.791039,57.8832357 236,54.2799206 236,51.3169733 C236,48.3535271 237.791039,47.1530871 240,48.6348102 C242.209333,50.1165332 244,53.720347 244,56.6832944" id="Fill-333" fill="#006E98"></path>
                <path d="M244,68.6832944 C244,71.6462418 242.209333,72.8471806 240,71.3649588 C237.791039,69.8832357 236,66.2799206 236,63.3169733 C236,60.3535271 237.791039,59.1530871 240,60.6348102 C242.209333,62.1165332 244,65.720347 244,68.6832944" id="Fill-335" fill="#006E98"></path>
                <path d="M244,81.6832944 C244,84.6462418 242.209333,85.8471806 240,84.3649588 C237.791039,82.8832357 236,79.2799206 236,76.3169733 C236,73.3535271 237.791039,72.1530871 240,73.6348102 C242.209333,75.1165332 244,78.7198483 244,81.6832944" id="Fill-337" fill="#006E98"></path>
                <path d="M244,92.6831408 C244,95.6460664 242.209333,96.8469963 240,95.3652842 C237.791039,93.883572 236,90.2797848 236,87.3168592 C236,84.3539336 237.791039,83.1530037 240,84.6347158 C242.209333,86.116428 244,89.7202152 244,92.6831408" id="Fill-339" fill="#006E98"></path>
                <path d="M244,104.683166 C244,107.646069 242.209333,108.84699 240,107.365289 C237.791039,105.883089 236,102.279828 236,99.3169241 C236,96.3535219 237.791039,95.1530997 240,96.6348007 C242.209333,98.1165018 244,101.720262 244,104.683166" id="Fill-341" fill="#006E98"></path>
                <path d="M238.000494,67.5605576 L237.222734,67 L235,67.415956 C235.080441,67.4767456 235.189011,67.5295161 235.309919,67.561075 L240.691068,68.9719109 C240.810495,69.0034697 240.919559,69.0073499 241,68.9889837 L238.777759,67.407937 L238.000494,67.5605576 Z" id="Fill-343" fill="#FFFFFF"></path>
                <path d="M241,65.4766583 C240.919072,65.419983 240.810511,65.3707841 240.690106,65.3413612 L235.3094,64.0260129 C235.189489,63.9968311 235.080928,63.9929724 235,64.0105779 L237.999753,66 L241,65.4766583 Z" id="Fill-345" fill="#FFFFFF"></path>
                <polygon id="Fill-347" fill="#FFFFFF" points="237 64 237 66 238 65.5932786"></polygon>
                <polygon id="Fill-349" fill="#FFFFFF" points="239 67.4301018 240 69 240 67"></polygon>
                <path d="M240.997294,82.4097134 C241.0095,82.5026812 240.980511,82.5651155 240.908293,82.597472 L240.06355,82.9702548 C240.025407,82.9912181 239.975566,83.001244 239.914029,82.9998769 C239.853,82.9989654 239.792479,82.9889395 239.733484,82.9702548 C239.733484,82.9702548 239.716193,82.9634189 239.694833,82.9561273 C239.673473,82.94838 239.646518,82.9369869 239.612444,82.9219479 C239.532089,82.8859457 239.401893,82.8153084 239.221858,82.7095802 C239.041822,82.6047636 238.822117,82.4452599 238.561218,82.2315251 C238.300828,82.0182459 238.005345,81.7407096 237.67528,81.3993718 C237.344706,81.0575783 236.993281,80.6342101 236.621003,80.1297229 C236.324504,79.7350653 236.078862,79.3745871 235.883569,79.0482883 C235.688785,78.7219894 235.532652,78.4307814 235.413646,78.1746641 C235.295148,77.9185468 235.206147,77.6943303 235.147152,77.5029259 C235.088157,77.3110659 235.04798,77.1506508 235.02662,77.0216807 C235.00526,76.8931663 234.996614,76.7951855 235.001191,76.7286497 C235.00526,76.6625697 235.007802,76.625656 235.007802,76.6179086 C235.01594,76.5686904 235.034757,76.5231179 235.064763,76.4811912 C235.09426,76.4392646 235.130369,76.4110096 235.172581,76.3959707 L236.017324,76.0177192 C236.076319,75.9908315 236.144468,75.9944773 236.220246,76.0291124 C236.275681,76.0537215 236.324504,76.089268 236.366716,76.1371191 C236.409436,76.1845145 236.445036,76.2355556 236.474534,76.2906983 L237.15399,77.7503844 C237.192642,77.8283133 237.202814,77.8998621 237.186031,77.9641193 C237.169248,78.0283765 237.133139,78.0730375 237.078213,78.0981023 L236.766965,78.2370984 C236.758319,78.2411999 236.75069,78.2503144 236.744587,78.2644419 C236.737976,78.2785693 236.734924,78.2913296 236.734924,78.3027227 C236.751707,78.3897661 236.790359,78.4982286 236.849354,78.6271987 C236.900211,78.7411299 236.978532,78.8874175 237.084824,79.0656058 C237.190608,79.2437942 237.341146,79.4620863 237.535422,79.7200264 C237.725629,79.9797895 237.894985,80.1917015 238.043489,80.3548509 C238.191484,80.5180003 238.316085,80.6442361 238.415257,80.7349253 C238.514429,80.824703 238.591224,80.8862259 238.644116,80.9194938 L238.722945,80.9696235 C238.731591,80.9732693 238.745323,80.9764593 238.745323,80.9764593 C238.745323,80.9764593 238.797197,80.981928 238.805334,80.9778265 L239.16744,80.8101198 C239.244235,80.7836878 239.333236,80.793258 239.434442,80.8388305 C239.50666,80.8711869 239.564129,80.9081006 239.606341,80.9495716 L239.612444,80.9523059 L240.838619,82.1508618 C240.927111,82.2397281 240.980511,82.3258601 240.997294,82.4097134" id="Fill-351" fill="#FFFFFF"></path>
                <path d="M239.874732,91.9619241 C239.617238,91.8515837 239.380086,91.8254866 239.190578,91.8689818 L237.233405,90.0279921 C237.243576,89.9803764 237.25,89.9309293 237.25,89.8773616 C237.25,89.823336 237.243576,89.7683947 237.233405,89.7129957 L239.190578,89.5458827 C239.380086,89.7519124 239.617238,89.9277244 239.874732,90.0380647 C240.495717,90.3036141 241,90.0884275 241,89.5573288 C241,89.0257722 240.495717,88.3792969 239.874732,88.1137475 C239.253747,87.8481981 238.749465,88.0633847 238.749465,88.5949413 C238.749465,88.648509 238.755889,88.7034502 238.76606,88.7593072 L236.808887,88.9264201 C236.619379,88.7203905 236.383298,88.5445785 236.124732,88.4337803 C235.503747,88.1682309 235,88.3838753 235,88.914974 C235,89.4460728 235.503747,90.0925481 236.124732,90.3585553 C236.383298,90.4684378 236.619379,90.4945349 236.808887,90.4510397 L238.76606,92.2924872 C238.755889,92.3396451 238.749465,92.3895501 238.749465,92.4431178 C238.749465,92.9742165 239.253747,93.6206919 239.874732,93.8862412 C240.495717,94.1517906 241,93.9366041 241,93.4055053 C241,92.8739488 240.495717,92.2279313 239.874732,91.9619241" id="Fill-353" fill="#FFFFFF"></path>
                <path d="M241,104.618095 C241,105.852749 239.880427,106.352838 238.499728,105.735511 C237.119029,105.118184 236,103.616946 236,102.382292 C236,101.147638 237.119029,100.647063 238.499728,101.26439 C239.880427,101.882203 241,103.383441 241,104.618095" id="Fill-355" fill="#FFFFFF"></path>
                <polygon id="Fill-357" fill="#FFFFFF" points="235 52.4685675 241 56 241 54.5314325 235 51"></polygon>
                <polygon id="Fill-359" fill="#FFFFFF" points="235 52.4685675 241 56 241 54.5314325 235 51"></polygon>
                <polygon id="Fill-361" fill="#FFFFFF" points="235 55.4685675 241 59 241 57.5314325 235 54"></polygon>
                <path d="M322.025461,58.8872382 L295.974958,46.0358741 C295.43871,45.7711827 295,45.1224618 295,44.593492 C295,44.0645223 295.43871,43.8485572 295.974958,44.1128357 L322.025461,56.9641997 C322.56129,57.2284782 323,57.877612 323,58.4065818 C323,58.9351387 322.56129,59.1515166 322.025461,58.8872382" id="Fill-365" fill="#168CA8"></path>
                <path d="M329,60.6178612 C329,61.8522547 328.552283,62.3531442 328,61.7353988 C327.447717,61.1182021 327,59.6166309 327,58.3822374 C327,57.1472953 327.447717,56.6469545 328,57.2646998 C328.552283,57.8818966 329,59.3834677 329,60.6178612" id="Fill-367" fill="#168CA8"></path>
                <path d="M191,242.404047 L204.380715,242.985606 L221.999459,235.535873 L228.920054,240.339259 C228.920054,240.339259 231.733689,242.89208 235.752548,242.985606 C239.770972,243.078706 241.10466,242.689725 241.10466,242.689725 L231.731085,237.422113 L230.653892,232.093709 L238.672513,228.59458 C238.672513,228.59458 245.273683,234.998952 249.833308,233.92936 C254.392932,232.859768 244.66391,226.192674 244.66391,226.192674 L264,216.59058 L222.452991,190 L191,242.404047 Z" id="Fill-369" fill="#168CA8"></path>
                <path d="M250,180.150335 C250,179.288311 249.296877,178.223125 248.432438,177.788215 L199.569753,153.185861 C198.706192,152.750951 198.001753,153.106157 198.001753,153.971213 L198,181.933729 C198,182.798786 198.706192,183.862239 199.569753,184.297149 L249.504219,209 C249.526137,208.995235 249.542356,208.983972 249.566027,208.973143 L249.626959,208.938922 L249.608986,208.92636 C249.841753,208.769549 250,208.502278 250,208.112851 L250,180.150335 Z" id="Fill-371" fill="#F9F2F7"></path>
                <path d="M244,183.203182 C244,182.333063 243.292103,181.267655 242.430791,180.83151 L193.569648,156.187395 C192.709651,155.750383 192.001753,156.104506 192.001753,156.971153 L192,184.983779 C192,185.853031 192.706582,186.918872 193.567894,187.354149 L242.426846,212 L244,211.215374 L244,183.203182 Z" id="Fill-373" fill="#EFE8ED"></path>
                <path d="M142.999625,181.375986 L146.435915,183 L198,158.568336 L197.425355,155 L142,181.274033 C142.273171,181.18051 142.6171,181.191749 142.999625,181.375986" id="Fill-375" fill="#F9F2F7"></path>
                <path d="M199.00171,215.927066 L199,225 L238.994652,205.074986 L238.994652,198.761887 C239.062628,197.093335 238.482054,195.844958 237.281146,195 L199.00171,215.927066 Z" id="Fill-377" fill="#E53C3C"></path>
                <path d="M197.245489,202.963049 C198.101023,203.399959 198.806043,204.464708 198.806043,205.328479 L198.806043,216 L239,195.380043 C238.732564,194.875412 238.236084,194.426706 237.566839,194.02038 L210.804024,180.428117 C209.68149,179.857076 208.294138,179.857513 207.171604,180.428117 L180,194.24801 L197.245489,202.963049 Z" id="Fill-379" fill="#FF5252"></path>
                <path d="M209,152.108741 L201.140014,148.118188 C200.859437,147.95206 200.463982,147.95206 200.024968,148.175878 L154.531,171.42822 C153.689697,171.857205 153,172.915569 153,173.774839 L153,180.398722 L179.491207,194 L200.024968,183.505714 C200.867978,183.075429 201.558103,182.018366 201.558103,181.160397 L209,152.108741 Z" id="Fill-381" fill="#FF5252"></path>
                <path d="M209,153.933604 C209,153.102273 208.305726,152.763039 207.455013,153.175564 L161.541108,175.628208 C160.696429,176.043664 160,177.064296 160,177.892696 L160,184.384199 L179.663351,194 L207.174028,180.342715 C208.02431,179.927258 208.722032,178.907883 208.722032,178.078227 L209,153.933604 Z" id="Fill-383" fill="#E53C3C"></path>
                <polygon id="Fill-385" fill="#B33939" points="155 181.484256 162 186 162 178.403022 155 174"></polygon>
                <polygon id="Fill-387" fill="#F9F2F7" points="244 206.161828 239.559484 204 199 225.408535 199 230"></polygon>
                <path d="M198,205.736999 C198,204.881702 197.29773,203.828365 196.445532,203.39596 L148.002805,179.030828 C147.148869,178.601451 143,182.784965 143,183.641558 L146.447033,207.500344 C146.447033,208.359965 147.145392,209.412005 148.001067,209.841383 L190.398448,238 L197.50676,234.310292 C197.524577,234.302509 197.546306,234.293428 197.562385,234.282186 L197.62844,234.251052 L197.608884,234.238945 C197.842685,234.084144 197.998262,233.817351 197.998262,233.435105 L198,205.736999 Z" id="Fill-389" fill="#F9F2F7"></path>
                <path d="M192,209.53495 C192,208.689707 191.29164,207.648193 190.4303,207.224931 L141.5697,183.182219 C140.710113,182.75725 140.003507,183.101577 140.003507,183.945114 L140,215.461893 C140,216.310123 140.710113,217.349504 141.5697,217.773619 L190.4303,241.817185 C191.29164,242.243433 191.998247,241.898253 191.998247,241.052583 L192,209.53495 Z" id="Fill-391" fill="#EFE8ED"></path>
                <path d="M249.609705,214.021221 C249.891736,213.792551 250.015098,213.519706 249.998533,213.207882 L249.998533,181 L243.932033,184.044175 L243.903699,207.857514 L198.672377,230.544825 L198.625299,206.433954 L191.401033,210.232135 L191,243 L249.609705,214.021221 Z" id="Fill-393" fill="#DBC8D2"></path>
                <polygon id="Fill-395" fill="#99B204" points="205.4685 143.4905 205.5035 143.4965 205.5315 143.5095"></polygon>
                <path d="M198,127.640643 C198,127.640643 201.903199,130.451967 205.886621,132.828155 C209.154249,134.776885 205.615393,136.738413 205.18181,139.147023 C204.9378,140.519837 205.286386,141.617064 204.206249,142.498429 C201.93376,144.325577 202.028785,146 202.028785,146 C202.028785,146 204.493712,145.866473 207.460507,143.028272 C209.61314,140.968625 210.089699,137.421407 209.987033,134.667674 C209.904901,132.466821 210.255396,131.727515 209.134193,130.137986 C207.034564,127.151327 202.798538,126.245645 198,127.640643" id="Fill-397" fill="#FFDE9C"></path>
                <path d="M217.981782,174.891353 C215.882327,168.124919 208.847587,157.278839 208.847587,157.278839 C208.847587,157.278839 205.962613,153.011742 203.919615,153.000026 C200.914416,152.982236 206.236773,161.984188 206.236773,161.984188 L213.865728,176 C213.865728,176 218.318897,175.980474 217.981782,174.891353" id="Fill-399" fill="#F9A873"></path>
                <path d="M189,153.205213 C191.539637,151.558918 194.405992,149.870286 197.653166,150.007878 C199.272706,150.080523 200.919082,150.260451 201.836623,150.2999 C202.878547,151.622903 203.566915,153.519366 203.937936,156.391003 C204.412893,159.935687 202.05259,161.938472 200.580436,161.993797 C193.485896,162.258879 192.111715,153.943208 189,153.205213" id="Fill-401" fill="#FAB585"></path>
                <path d="M191,153.928793 C191,153.928793 196.582496,144.824685 196.539495,142.5269 C196.512336,140.721736 203.62659,144.040989 202.955315,145.199459 C200.9777,148.611158 201.327143,151.999953 201.327143,151.999953 L199.56363,153.100125 L199.407467,153.807199 L197.929121,154 L197.189043,153.248369 L191,153.928793 Z" id="Fill-403" fill="#F9A873"></path>
                <path d="M197.8784,130.729685 C201.974125,128.698947 204.852247,131.3065 206.010768,133.672319 C206.823468,135.329669 206.787109,139.585326 206.787109,139.585326 C207.641952,142.933051 205.681061,147.138512 205.157578,147.675257 C204.249436,148.606086 200.577207,147.313317 197.950291,146.582392 C194.731306,145.675781 194.215673,142.673705 194,142.322332 L194.642475,137.400477 C194.642475,137.400477 195.700183,131.800975 197.8784,130.729685" id="Fill-405" fill="#FAB585"></path>
                <path d="M211.310267,183.069779 C208.060313,184.829082 206.471557,185.917808 205.755068,190.865555 C205.755068,190.865555 203.379473,192.808947 207.05572,194.196656 C211.078696,195.715919 216.068995,201.149727 216.777528,204.790063 C217.100807,206.458817 216.904411,206.866715 217.753645,210.185857 C218.140993,211.701703 220.42865,216.748114 220.42865,216.748114 C220.42865,216.748114 225.516519,227.847229 227.235088,230.994242 C228.266481,232.882536 227.363646,234.979263 227.363646,234.979263 C227.363646,234.979263 227.340195,235.414924 227.850239,236.224315 C228.426864,237.127244 229.044946,238.229639 233.80158,241.462075 C236.195181,243.081284 239,240.52882 239,240.52882 C239,240.52882 235.750464,237.606899 233.741698,235.786518 C231.969947,234.174571 231.367359,232.101335 231.367359,232.101335 C229.561689,221.082945 227.63458,211.439452 226.093982,202.088962 C224.9311,195.055166 213.410741,181.928944 211.310267,183.069779" id="Fill-407" fill="#F9A873"></path>
                <path d="M230.972847,239.876472 C231.942635,240.782413 236.268091,242.423004 236.995329,239.864872 L238.075775,240.695801 C238.075775,240.695801 239.10477,241.518224 238.991254,242.00812 C238.767488,242.941127 237.054537,243.064471 235.765026,242.976313 C233.888334,242.844849 231.493062,240.877144 231.493062,240.877144 L228.492641,238.465168 L228.405667,240.368688 C228.405667,240.368688 227.947927,240.378741 227.897702,240.305663 C227.782961,240.153319 227.370546,238.213067 227.370546,238.213067 C227.370546,238.213067 226.768257,236.993933 227.099414,236.011047 C227.156989,235.828931 228.873615,237.93158 230.972847,239.876472" id="Fill-409" fill="#002B6A"></path>
                <path d="M253.313291,222.35573 C255.297039,225.07075 258.864667,224.454722 259.16973,222.638746 C259.497124,220.691124 254.58621,219.906296 256.032728,220.127387 C256.094667,220.136102 259.414117,220.647548 260.63563,221.417698 C261.718096,222.106659 261.99577,222.984602 261.999984,223.667141 C262.005461,224.82122 260.63563,225.768426 258.742895,225.96062 C256.2788,226.205104 253.266942,225.231294 253.266942,225.231294 L249.764202,223.748789 C249.764202,223.748789 247.390699,222.5282 247.027489,220.85442 C247.008528,220.764974 246.422421,215.703267 251.792193,222.694248 C252.02731,223.000657 253.054578,222.001617 253.313291,222.35573" id="Fill-411" fill="#002B6A"></path>
                <path d="M223.490227,187.75592 C220.279447,188.037725 208.178827,185.920404 204.452327,186.002319 L194,192.529685 C195.177665,198.938631 206.510395,198.098114 212.119409,197.733949 C214.543911,197.576352 217.933748,196.735389 220.488713,196.929937 C221.25135,196.992263 224.064175,198.444916 224.755013,200.295568 C226.187912,204.148682 231.863909,209.893851 235.694604,212.652689 C240.379873,216.026334 245.964809,219.781951 245.964809,219.781951 C245.964809,219.781951 246.494977,222.399665 247.487456,222.901393 C250.483716,224.42216 258.206836,226.472702 258.9721,223.426272 C259.185743,222.580412 258.194578,221.471445 255.23159,220.701713 C253.722515,220.306385 251.291008,219.296695 250.52268,218.949447 C248.224262,217.908595 246.216102,214.831001 246.216102,214.831001 L232.141032,193.692075 C232.141032,193.692075 229.300188,187.259534 223.490227,187.75592" id="Fill-413" fill="#FAB585"></path>
                <path d="M191.496925,179.336709 C192.241207,175.029819 189.372067,170.579409 187.803484,165.572318 C185.641196,158.67164 186.522288,155.087131 186,153.766752 C187.672267,152.920856 189.141899,152.019728 190.722959,151.294737 C191.114029,151.11599 192.701973,158.8817 197.773841,156.828501 C200.834858,155.58858 200.199853,149.98871 200.328059,150.000017 C200.672665,150.024807 202.177576,150.140492 203.014355,150.319239 C203.853284,150.812424 204.146695,153.879393 205.56255,156.938098 C206.799003,159.6093 209.151878,159.224842 209.151878,163.432573 C209.151878,166.239901 205.665373,173.120139 207.435729,176.479366 C208.642497,178.769154 208.638195,180.579674 216.207922,183.784943 C222.603578,186.485285 227,189.623578 227,189.623578 C227,189.623578 221.272907,187.491226 217.035236,201.277797 C213.202833,212.678029 205.556097,215.881124 202.467545,214.803857 C203.533631,213.839667 201.284439,203.860278 198.20148,200.310997 C190.180451,191.081823 190.063001,187.609521 191.496925,179.336709" id="Fill-415" fill="#AFD860"></path>
                <path d="M189.065192,155.000035 C189.065192,155.000035 185.740257,154.925497 185.134005,161.62306 C184.827336,165.04529 182,181.981211 182,181.981211 C182.221242,183.169903 182.602708,184.022083 183.123534,184.594416 L194.05535,188.831338 C194.05535,188.831338 195.850091,189.273338 196.190615,188.726287 C196.81655,187.72939 197,186.696313 197,186.696313 L187.017321,180.429416 L189.255728,168.824957 C189.255728,168.824957 191.569325,164.172624 191.900008,160.783522 C192.32399,156.281574 189.065192,155.000035 189.065192,155.000035" id="Fill-417" fill="#FAB585"></path>
                <polygon id="Fill-419" fill="#FFFFFF" points="214.871466 193.3871 208.476995 200 196 191.128889 216.431195 180 230 187.741573"></polygon>
                <polygon id="Fill-421" fill="#C0FFFC" points="207 199 216.977969 180.620726 239 169 229.796211 186.902234"></polygon>
                <path d="M209.000239,199.655785 C208.947859,199.614807 217.532023,181 217.532023,181 L218,181.337314 L209.444129,200 L209.000239,199.655785 Z" id="Fill-423" fill="#86E2DE"></path>
                <polygon id="Fill-425" fill="#FFFFFF" points="239 168.42646 238.300725 168 218 179.671664 218.502002 180"></polygon>
                <path d="M207,198.691031 C207,198.691031 206.696763,199.372254 205.480327,198.711651 L194,191.587869 L194,191 L207,198.691031 Z" id="Fill-427" fill="#86E2DE"></path>
                <path d="M217.161272,172.022197 C217.161272,172.022197 215.379522,172.447352 212.611818,176.02132 C209.716474,179.746072 207,180.997676 207,180.997676 L208.40404,184 C208.40404,184 216.175318,181.807903 218.113362,178.624256 C219.949815,175.612389 218.584849,171.668618 217.161272,172.022197" id="Fill-429" fill="#F9A873"></path>
                <path d="M195.663663,185 C195.663663,185 202.156327,185.536677 202.876463,187.604846 C203.68849,189.945122 204.108109,190.870126 203.975992,191.231877 C203.761055,191.819722 202.806264,192.405585 201.64955,191.621394 C200.482187,190.834823 200.478638,190.174786 199.159045,189.689675 C197.83472,189.2121 197.105119,189.46239 196.131791,188.499704 C193.895267,186.300638 195.663663,185 195.663663,185" id="Fill-431" fill="#FAB585"></path>
                <path d="M200.591063,134.467018 C200.591063,143.078445 200.418495,147.691509 196.867979,150.66422 C191.018805,155.582697 195.738902,161 195.738902,161 C195.738902,161 180.184564,158.949988 186.515156,146.102847 C190.762274,137.488835 187.477572,132.42519 195.422035,128.702518 C199.621896,126.726167 206.83727,129.266389 204.568569,132.03061 C204.568569,132.03061 200.591063,130.607792 200.591063,134.467018" id="Fill-433" fill="#FFEFAB"></path>
                <path d="M210.283775,180.661043 C210.283775,180.661043 210.050603,178.911814 207.051725,181.104311 C203.891518,183.41251 202.91976,187.769749 205.407762,188.960788 C206.038795,189.264118 209.575438,187.765841 210.173701,185.911072 C210.436701,185.089815 212,181.413895 212,181.413895 L210.283775,180.661043 Z" id="Fill-435" fill="#F9A873"></path>
                <path d="M416,70.7591402 C416,62.6514399 409.732352,52.7920468 402.000205,48.7371228 C394.267238,44.6821988 388,47.9682337 388,56.0755044 C388,60.0921987 389.545201,64.5358627 392.036693,68.4932796 L392.111249,67.6556628 L392.111249,67.538826 C392.331231,66.1174549 393.294319,64.8541571 393.294319,64.8541571 C393.294319,64.8541571 395.664145,64.2910209 398.484177,64.3739235 L399.115039,64.7188498 L399.411216,63.7094142 C399.018771,63.0522073 398.661146,62.3219773 398.356366,61.533329 C398.287545,61.3602215 398.210941,61.1974232 398.124504,61.0432158 C398.072888,60.8791288 398.021682,60.7163305 397.978259,60.551814 C397.428099,59.9074935 397.085632,58.401072 397.085632,57.538112 C397.085632,57.0024669 397.223684,56.8362322 397.455136,56.8426754 C397.418267,56.7288454 397.365832,56.5278174 397.328554,56.1764479 C397.050811,53.921326 397.437111,52.8766676 397.838159,52.4054545 C398.240026,51.934671 399.096195,51.7035747 399.559919,51.9466983 C399.7459,52.0437759 399.895422,52.3667953 400.049451,52.4140454 C400.113356,51.9290868 401.508215,52.3882726 403.499115,53.8826668 C405.692382,55.5304092 406.374859,56.8817641 406.642361,58.255026 C406.920104,59.6806926 406.562889,61.497247 406.562889,61.497247 C406.872175,61.7446661 407.052421,62.0711219 407.052421,62.6982605 C407.052421,63.6290889 406.65465,64.8910981 406.030343,64.7734022 C405.950462,64.9589666 405.860748,65.1312149 405.765709,65.2927246 C405.759155,65.3030337 405.750143,65.3107656 405.746046,65.3180679 C405.53057,65.6604169 405.289696,65.9482134 405.029978,66.177162 C404.948867,66.2454599 404.86284,66.2987238 404.778452,66.3558535 L405.134848,67.9490435 L405.061521,67.9726686 C407.885649,70.4575981 410.505362,73.8750743 410.505362,73.8750743 C410.505362,73.8750743 411.62043,76.6185912 411.813785,78.4557639 L411.868678,79 C414.41957,77.6782838 416,74.8278097 416,70.7591402" id="Fill-437" fill="#FFFFFF"></path>
                <path d="M410.625134,74.0394151 C410.625134,74.0394151 407.983227,70.6198937 405.135173,68.1334769 L405.209122,68.1098377 L404.85012,66.5156943 C404.93481,66.4585303 405.021978,66.4052346 405.103363,66.3373256 C405.365694,66.1078102 405.608196,65.8198414 405.825498,65.4777173 C405.830042,65.4699809 405.838718,65.4622444 405.845328,65.4523589 C405.941172,65.2903228 406.031645,65.1179713 406.112204,64.9327257 C406.7418,65.0500623 407.14294,63.7872978 407.14294,62.8559123 C407.14294,62.2283983 406.961167,61.9017472 406.649261,61.6546098 C406.649261,61.6546098 407.009502,59.8365384 406.729406,58.4100186 C406.459638,57.0359349 405.771379,55.6837712 403.559531,54.0354724 C401.551764,52.5397541 400.145088,52.0802936 400.081054,52.5655424 C399.925721,52.5182639 399.774519,52.1950512 399.586962,52.0979155 C399.119309,51.8546464 398.2563,52.085881 397.850616,52.5573761 C397.44617,53.0284414 397.056598,54.073725 397.336693,56.3301966 C397.374287,56.6817763 397.427167,56.8829246 397.464761,56.9968227 C397.230934,56.9903757 397.091713,57.1567098 397.091713,57.6926756 C397.091713,58.556152 397.437082,60.063475 397.991903,60.7081812 C398.035694,60.8727961 398.087334,61.0356919 398.139387,61.1998771 C398.226555,61.3541767 398.303809,61.5170725 398.373213,61.6902836 C398.680575,62.4794039 399.041229,63.2100709 399.436999,63.8676712 L399.138313,64.8781406 L398.502107,64.5325781 C395.658184,64.4496259 393.268281,65.0135289 393.268281,65.0135289 C393.268281,65.0135289 392.297034,66.277153 392.075188,67.6998046 L392.075188,67.8162815 L392,68.6543995 C394.560109,72.688111 398.112947,76.2172325 402.047922,78.2643895 C405.932496,80.2857582 409.447327,80.4795999 412,79.1674079 L411.944642,78.6228461 C411.749649,76.784574 410.625134,74.0394151 410.625134,74.0394151" id="Fill-439" fill="#006E98"></path>
                <path d="M397.716263,56.312528 C397.570988,61.2803543 398.624136,59.6706985 395.56401,66.1046362 C392.503494,72.538148 402.895927,69.4738813 402.895927,69.4738813 L410,74 C410,74 405.814283,68.9099268 407.564596,60.9860245 C408.115707,58.4925276 407.221466,53.5076634 403.290468,52.1016105 C398.716053,49.3908803 397.841675,52.0211064 397.716263,56.312528" id="Fill-441" fill="#006E98"></path>
                <path d="M401.954089,68.5222643 C401.954089,68.5222643 404.607854,66.2669573 404.917083,66.0203702 L406,67.9823458 L402.14185,75 L398,63.4369952 C398,63.4369952 398.97339,63.1565292 399.230738,63 C399.540378,63.8606962 401.954089,68.5222643 401.954089,68.5222643" id="Fill-443" fill="#FFFFFF"></path>
                <path d="M345,32.0240718 C345,23.4845211 337.836747,13.1001088 329.000665,8.82969106 C320.164583,4.55884509 313,8.01945938 313,16.5590101 C313,20.5908977 314.635606,25.020621 317.252309,29.0375202 C317.667968,28.0243023 318.292787,27.266316 318.292787,27.266316 C318.292787,27.266316 320.729135,26.7554247 323.709207,26.7699849 L323.692812,26.6890474 C323.692812,26.6890474 324.799759,26.3935612 325.092227,26.227832 C325.127235,26.3173343 325.169776,26.4338158 325.204783,26.5335959 L325.511875,25.8351351 C325.063867,25.1426697 323.895324,22.9535024 323.848351,22.7800649 C322.863266,21.9754004 322.626189,20.4701338 322.626189,19.5605502 C322.626189,18.996557 322.783502,18.8218348 323.047166,18.8286866 C323.005511,18.7083509 322.945688,18.4968 322.903591,18.1263716 C322.584535,15.7513479 323.025896,14.6511971 323.485425,14.154866 C323.945398,13.6593913 324.923393,13.4157223 325.453824,13.6718103 C325.664756,13.7737316 325.837135,14.1141831 326.013059,14.1634308 C326.084403,13.653396 327.678797,14.1368799 329.955174,15.7110932 C332.461537,17.4458969 333.240123,18.8697977 333.545885,20.3159671 C333.863612,21.8173795 333.455929,23.7307596 333.455929,23.7307596 C333.808663,23.99113 334.01605,24.3354357 334.01605,24.9953548 C334.01605,25.9760264 333.501129,27.4457489 332.53687,27.0577627 C332.445585,27.2526123 331.449864,28.4229946 331.168474,28.4384112 L331.429479,29.5715365 C331.469805,29.5205758 331.522094,29.440923 331.558431,29.4143721 L332.742927,31.4065485 C335.56037,33.8886325 337.960381,36.7672675 337.960381,36.7672675 C337.960381,36.7672675 338.971612,39.115312 339.333652,41 C342.772368,39.8261918 345,36.7351494 345,32.0240718" id="Fill-445" fill="#FFFFFF"></path>
                <path d="M326,39 L323.964998,27.0003469 C321.212363,26.9842745 318.961621,27.5321137 318.961621,27.5321137 C318.961621,27.5321137 318.383993,28.3449178 318,29.4318712 C320.089039,33.1546981 322.850271,36.5400045 326,39" id="Fill-447" fill="#006E98"></path>
                <path d="M327.91573,31.4306601 C330.306112,32.7086323 330.906509,31.5022156 331.274871,31.0318635 L330.999883,29.8254468 C331.296347,29.8090392 332.345407,28.5634265 332.441583,28.3560523 C333.457495,28.7689777 334,27.2052392 334,26.1610758 C334,25.458738 333.781504,25.0923009 333.410341,24.8151943 C333.410341,24.8151943 333.839396,22.7788249 333.505116,21.1809039 C333.182508,19.6417769 332.362215,18.1268056 329.721589,16.2800356 C327.32327,14.6046341 325.643933,14.0900725 325.568766,14.6333475 C325.382951,14.5804784 325.201805,14.2181432 324.979107,14.1096706 C324.420729,13.8371216 323.390344,14.0964533 322.905731,14.6237763 C322.421118,15.1520109 321.956114,16.3233335 322.292262,18.8505645 C322.337081,19.2448034 322.400109,19.4699526 322.443528,19.5980233 C322.166206,19.590731 322,19.7766841 322,20.37693 C322,21.3449802 322.249776,22.9470031 323.287632,23.8033903 C323.33712,23.9879762 324.568261,26.3178598 325.040735,27.054836 L324.716726,27.7981928 C325.056608,28.7694334 325.513209,30.1458514 327.91573,31.4306601" id="Fill-449" fill="#006E98"></path>
                <path d="M332.974884,32 L333.017014,32.0690919 L331,39.9844998 C334.046384,41.1338677 336.795827,41.2854118 339,40.5513585 C338.66903,38.8710139 337.744582,36.7784084 337.744582,36.7784084 C337.744582,36.7784084 335.550537,34.2120847 332.974884,32" id="Fill-451" fill="#006E98"></path>
                <path d="M332.23583,31.5705073 C332.494939,31.7085125 332.747976,31.8536113 333,32 L332.098178,31 C332.070513,31.0133276 332.030702,31.0533104 332,31.0788908 L332.159582,31.5356836 L332.23583,31.5705073 Z" id="Fill-453" fill="#FFFFFF"></path>
                <path d="M325.82796,28 L326,27.3411371 C325.976846,27.2298137 325.94871,27.0998567 325.925557,27 C325.732122,27.1844243 325,27.5140946 325,27.5140946 L325.010844,27.6048734 C325.128077,27.605829 325.231536,27.5891065 325.350528,27.5943622 L325.82796,28 Z" id="Fill-455" fill="#FFFFFF"></path>
                <path d="M329.662177,40.381843 C330.139678,40.647139 330.59102,40.7932252 331.055637,41 L333,32.0111469 L332.959004,31.9326852 C332.66735,31.6379118 332.374524,31.3448724 332.075061,31.0665717 L331.986823,30.9963463 L331.801757,30.0756131 C331.493704,30.522975 330.991606,31.6704236 328.992582,30.454917 C326.983797,29.2329081 326.601562,27.9237676 326.317716,27 L326.088531,27.597783 L325.452513,27.2301833 C325.293997,27.2249814 325.156174,27.2405871 325,27.2397201 L326.940459,38.5672529 C327.82245,39.2478325 328.729429,39.8646891 329.662177,40.381843" id="Fill-457" fill="#FFFFFF"></path>
                <path d="M332,17.1837735 C332,18.8779125 330.432855,19.49777 328.500216,18.5673618 C326.567145,17.6377828 325,15.5103655 325,13.8162265 C325,12.1220875 326.567145,11.50223 328.500216,12.4326382 C330.432855,13.3622172 332,15.4896345 332,17.1837735" id="Fill-459" fill="#006E98"></path>
                <path d="M380,52.8787566 C380,61.027249 373.732034,64.329385 366,60.2540596 C358.267966,56.1791658 352,46.2697357 352,38.1212434 C352,29.972751 358.267966,26.670615 366,30.7459404 C373.732034,34.8208342 380,44.7302643 380,52.8787566" id="Fill-461" fill="#FFFFFF"></path>
                <path d="M344,21.788702 C344,23.7642125 342.209112,24.5646923 340.000219,23.5767409 C337.790888,22.5887896 336,20.1865658 336,18.2110554 C336,16.2359371 337.790888,15.4354573 340.000219,16.4230165 C342.209112,17.4109678 344,19.8131916 344,21.788702" id="Fill-463" fill="#90ED48"></path>
                <path d="M381,41.7886633 C381,43.7642083 379.209453,44.5647021 377,43.5767335 C374.790986,42.5887649 373,40.1864991 373,38.2109541 C373,36.2358013 374.790986,35.4353075 377,36.4232761 C379.209453,37.4112447 381,39.8131183 381,41.7886633" id="Fill-465" fill="#90ED48"></path>
                <path d="M417,61.788702 C417,63.7642125 415.209112,64.5646923 413.000219,63.5767409 C410.790888,62.5887896 409,60.1865658 409,58.2110554 C409,56.2359371 410.790888,55.4354573 413.000219,56.4230165 C415.209112,57.4109678 417,59.8131916 417,61.788702" id="Fill-467" fill="#90ED48"></path>
                <path d="M373.950765,60.0372564 C373.497632,55.9126397 372.186636,54.0798518 367.072414,49.7404816 L367.146684,49.7176983 L366.783677,48.1528249 C366.869631,48.0962886 366.957253,48.0439714 367.040285,47.9773093 C367.304821,47.752008 367.549747,47.4689047 367.769637,47.1339062 C367.774644,47.1254679 367.782572,47.1182954 367.789247,47.1085914 C367.887301,46.9495304 367.977844,46.7803435 368.060042,46.5984992 C368.694678,46.7136813 369.101079,45.4741024 369.101079,44.559818 C369.101079,43.9438257 368.916654,43.6231722 368.602466,43.3801506 C368.602466,43.3801506 368.965473,41.5963045 368.682578,40.195555 C368.409697,38.8467007 367.716229,37.5193639 365.480608,35.9013295 C363.453195,34.433074 362.032045,33.9820495 361.968623,34.4583887 C361.81132,34.4119783 361.683642,34.2200081 361.495045,34.1246559 C361.023554,33.8858534 360.124382,33.9879563 359.714643,34.4499505 C359.305739,34.9127885 358.913108,35.9388797 359.196837,38.1539204 C359.233555,38.4990448 359.286963,38.6964998 359.324933,38.8087286 C359.08877,38.8023999 358.948574,38.9652581 358.948574,39.4909611 C358.948574,40.3390052 359.298229,41.8182305 359.858594,42.4515212 C359.901571,42.6135356 359.955396,42.7734404 360.0063,42.9341891 C360.09434,43.0860776 360.1732,43.2455605 360.242463,43.4155912 C360.553314,44.1902226 360.917572,44.9070519 361.318549,45.553 L361.015209,46.5449163 L360.372645,46.2061206 C355.605574,46.0702647 354.537834,46.1584444 354,48.7346422 C356.616569,53.172318 360.468195,57.1404051 364.827196,59.3436322 C368.340851,61.1207277 371.514447,61.3920174 374,60.5186585 L373.950765,60.0372564 Z" id="Fill-469" fill="#006E98"></path>
                <path d="M364.038911,49.1399064 C364.979361,49.7338384 366.607854,49.2672694 366.917083,49.0202623 L368,50.9821677 L364.14185,58 L360,46.4369796 C360,46.4369796 360.97339,46.1569524 361.230738,46 C361.540378,46.8610942 363.099696,48.546832 364.038911,49.1399064" id="Fill-471" fill="#FFFFFF"></path>
                <polygon id="Fill-473" fill="#006E98" points="365.475278 49 366 50.3555489 365.998631 50.5540018 365.699681 51 365.505705 50.8101755 365.487905 50.7929188 365.253309 50.5632252 365 49.5772092 365.001369 49.3614996"></polygon>
                <polygon id="Fill-475" fill="#006E98" points="365.773507 52.6457696 366 56.880288 365.530055 59 365 55.4478211 365.207085 52"></polygon>
                <path d="M237.799298,251.125502 C226.122495,256.817453 226.058946,266.04123 237.657737,271.731036 C249.26091,277.422988 268.133215,277.422988 279.804758,271.731036 L314.203621,254.869348 C325.879547,249.181259 325.938713,239.957482 314.340361,234.267676 C302.744638,228.577441 283.874086,228.577441 272.194216,234.267676 L237.799298,251.125502 Z" id="Fill-477" fill="#168CA8"></path>
                <path d="M250,235.021968 L250.026891,265.810869 C250.02884,266.367817 250.416232,266.928641 251.189067,267.354212 C252.737465,268.215263 255.262528,268.215263 256.821449,267.354212 C257.608314,266.919595 258.001941,266.355325 257.999993,265.790624 L257.971153,235 C257.971153,235.568147 257.577525,236.13414 256.792998,236.563157 C255.231739,237.428515 252.707456,237.428515 251.158278,236.563157 C250.385443,236.14017 250,235.577192 250,235.021968" id="Fill-479" fill="#FFFFFF"></path>
                <path d="M251.179297,231.732092 C249.612395,232.706258 249.606528,234.290562 251.164043,235.26277 C252.719212,236.245743 255.252228,236.245743 256.81913,235.26277 C258.386033,234.290562 258.39542,232.708215 256.83634,231.732092 C255.279998,230.755969 252.747374,230.755969 251.179297,231.732092" id="Fill-481" fill="#36BAC1"></path>
                <path d="M286,220.020055 L286.029617,251.786291 C286.032734,252.350454 286.418139,252.914182 287.18583,253.348422 C288.73914,254.216902 291.265898,254.216902 292.823883,253.350166 C293.61028,252.909386 294.003868,252.337811 293.999971,251.761004 L293.969965,220 C293.969965,220.573319 293.581833,221.146202 292.794267,221.58393 C291.233943,222.451974 288.709133,222.451974 287.158942,221.582186 C286.387353,221.148382 286,220.584219 286,220.020055" id="Fill-483" fill="#FFFFFF"></path>
                <path d="M287.177398,218.734376 C285.612373,219.709138 285.607287,221.292453 287.163707,222.267215 C288.719735,223.243935 291.254051,223.243935 292.82025,222.269173 C294.38723,221.292453 294.393489,219.709138 292.837461,218.734376 C291.278303,217.755208 288.747116,217.755208 287.177398,218.734376" id="Fill-485" fill="#36BAC1"></path>
                <path d="M228.654451,249.378561 C240.256823,255.121797 259.126673,255.121797 270.79697,249.378561 L305.196539,232.461498 C311.070908,229.576672 314.007436,225.786821 313.995165,222 L313.999986,223.458002 C314.007436,227.243956 311.076167,231.03554 305.202236,233.920799 L270.803543,250.839594 C259.130179,256.58283 240.256823,256.281877 228.660148,250.542971 C222.899278,247.691488 220.018405,244.256719 220.003068,240.522294 L220,239.059529 C220.011394,242.797851 222.896211,246.528811 228.654451,249.378561" id="Fill-487" fill="#DBC8D2"></path>
                <path d="M228.799671,227.125931 C217.122444,232.817453 217.058895,242.04123 228.657672,247.731036 C240.260833,253.422988 259.133115,253.422988 270.804645,247.731036 L305.203467,230.869348 C316.879818,225.181259 316.938546,215.957911 305.340207,210.267676 C293.744498,204.577441 274.874407,204.577441 263.19455,210.267676 L228.799671,227.125931 Z" id="Fill-489" fill="#FFFFFF"></path>
                <polygon id="Fill-491" fill="#002B6A" points="269 227.774048 277.489859 218 301 221.227701 294.687541 231"></polygon>
                <polygon id="Fill-493" fill="#0C2066" points="268 226 268.037713 227.036482 294 231 293.926819 229.889709"></polygon>
                <polygon id="Fill-495" fill="#FFFFFF" points="294.068111 233 300 221.630688 299.793997 221 294 231.951674"></polygon>
                <path d="M278.179106,227.581311 C278.179106,227.581311 277.342684,225.907431 279.284879,225.407688 C281.231187,224.904373 281.768241,225.0175 281.534256,223.7608 C281.297804,222.506084 280.423138,221.610993 283.913168,222.169879 C287.405666,222.73075 289.784989,224.57174 292.066442,223.56511 C294.34666,222.561656 292.033544,226.466317 289.581846,225.659346 C287.132615,224.848405 288.745423,226.511965 287.570154,227.906798 C286.39982,229.301632 278.916014,229.535031 278.179106,227.581311" id="Fill-497" fill="#168CA8"></path>
                <path d="M294,223.499684 C294,223.774739 292.88169,224 291.499753,224 C290.117816,224 289,223.774739 289,223.499684 C289,223.223206 290.117816,223 291.499753,223 C292.88169,223 294,223.223206 294,223.499684" id="Fill-499" fill="#36BAC1"></path>
                <polygon id="Fill-501" fill="#002B6A" points="268 236.913893 257.089798 230 236 237.641419 244.868919 245"></polygon>
                <polygon id="Fill-503" fill="#0C2066" points="268.775119 236 269 236.773994 246.206141 245 246 244.162114"></polygon>
                <polygon id="Fill-505" fill="#FFFFFF" points="246 246 238 238.531721 238.034092 238 245.812881 245.17843"></polygon>
                <polygon id="Fill-507" fill="#29A3B7" points="250 232.665941 255.151128 231 264 237.053942 258.019236 239"></polygon>
                <polygon id="Fill-509" fill="#36BAC1" points="299 212.913493 288.090486 206 267 213.643021 275.863628 221"></polygon>
                <polygon id="Fill-511" fill="#168CA8" points="299.778093 213 300 213.776155 277.209556 222 277 221.163985"></polygon>
                <polygon id="Fill-513" fill="#FFFFFF" points="275 223 267 215.526535 267.03332 215 274.809764 222.179843"></polygon>
                <path d="M275,215.696182 L287.536373,209 L293,212.747154 C293,212.747154 289.432884,216.100108 286.203714,213.853087 C282.970902,211.603074 286.035196,218.783218 282.079122,216.571354 C278.122138,214.362481 275,215.696182 275,215.696182" id="Fill-515" fill="#86E2DE"></path>
                <path d="M275.774332,215 C275.923501,214.750406 280.465387,212.919711 279.960905,213.002738 C279.455906,213.086022 275,214.000088 275,214.000088 L275.774332,215 Z" id="Fill-517" fill="#86E2DE"></path>
                <path d="M257.758613,217.0231 C255.414842,218.388648 255.413587,220.604645 257.756102,221.972428 C260.098616,223.340659 263.897617,223.342894 266.241387,221.9769 C268.585158,220.611352 268.586413,218.395355 266.243898,217.027572 C263.901802,215.659341 260.102802,215.657106 257.758613,217.0231" id="Fill-519" fill="#00638E"></path>
                <path d="M259.903936,215.024923 C257.365355,216.391902 257.365355,218.608098 259.903936,219.975077 C262.442516,221.341641 266.5578,221.341641 269.096381,219.975077 C271.63454,218.608098 271.63454,216.391902 269.096381,215.024923 C266.5578,213.658359 262.442516,213.658359 259.903936,215.024923" id="Fill-521" fill="#9FEDEB"></path>
                <path d="M259.903936,215.024923 C257.365355,216.391902 257.365355,218.608098 259.903936,219.975077 C262.442516,221.341641 266.5578,221.341641 269.096381,219.975077 C271.63454,218.608098 271.63454,216.391902 269.096381,215.024923 C266.5578,213.658359 262.442516,213.658359 259.903936,215.024923" id="Fill-523" fill="#FFFFFF"></path>
                <path d="M261.171558,214.878953 C259.609481,216.050341 259.609481,217.949934 261.171558,219.121871 C262.733636,220.29271 265.266064,220.29271 266.828142,219.121871 C268.390619,217.949934 268.390619,216.050341 266.828142,214.878953 C265.266064,213.707016 262.733636,213.707016 261.171558,214.878953" id="Fill-525" fill="#D9FFFB"></path>
                <path d="M261.025293,215.732024 C259.658236,216.708631 259.658236,218.291369 261.025293,219.267976 C262.392349,220.244008 264.608091,220.244008 265.974707,219.267976 C267.341764,218.291369 267.341764,216.708631 265.974707,215.732024 C264.608091,214.755992 262.392349,214.755992 261.025293,215.732024" id="Fill-527" fill="#9FEDEB"></path>
                <path d="M261.731788,216 C261.831492,216 261.927625,215.903666 261.973769,215.737952 C262.037492,215.508347 261.981185,215.233321 261.847422,215.123511 C261.842478,215.119018 261.324457,214.687761 260.957777,214.048363 C260.601809,213.428432 260.476287,212.863905 260.562257,212.271925 C260.605105,211.975935 260.686407,211.941993 260.713049,211.931012 C260.851481,211.87411 261.113513,212.053801 261.387905,212.58838 C261.485687,212.779051 261.655156,212.79702 261.766396,212.62881 C261.877361,212.460101 261.887798,212.169102 261.790017,211.978431 C261.406857,211.232716 260.956953,210.880822 260.586153,211.036055 C260.313684,211.149859 260.120593,211.509738 260.042039,212.048809 C259.909924,212.957244 260.089556,213.847709 260.575991,214.695748 C261.009964,215.451445 261.591708,215.934613 261.616153,215.954578 C261.653508,215.985525 261.692785,216 261.731788,216" id="Fill-529" fill="#D9FFFB"></path>
                <path d="M261.171345,211.878891 C259.609552,213.050235 259.609552,214.949765 261.171345,216.121109 C262.733511,217.292964 265.266209,217.292964 266.828375,216.121109 C268.390542,214.949765 268.390542,213.050235 266.828375,211.878891 C265.266209,210.707036 262.733511,210.707036 261.171345,211.878891" id="Fill-531" fill="#9FEDEB"></path>
                <path d="M261.531616,212.148571 C262.894832,211.126141 265.105261,211.126141 266.468477,212.148571 C267.831694,213.171002 267.831694,214.828486 266.468477,215.850917 C265.105261,216.873348 262.894832,216.873348 261.531616,215.850917 C260.168399,214.828486 260.168399,213.171002 261.531616,212.148571 M261.171345,211.878891 C259.609552,213.050235 259.609552,214.949765 261.171345,216.121109 C262.733884,217.292964 265.266209,217.292964 266.828375,216.121109 C268.390542,214.949765 268.390542,213.050235 266.828375,211.878891 C265.266209,210.707036 262.733884,210.707036 261.171345,211.878891" id="Fill-533" fill="#FCDEA9"></path>
                <path d="M261.531616,212.148571 C262.894832,211.126141 265.105261,211.126141 266.468477,212.148571 C267.831694,213.171002 267.831694,214.828486 266.468477,215.850917 C265.105261,216.873348 262.894832,216.873348 261.531616,215.850917 C260.168399,214.828486 260.168399,213.171002 261.531616,212.148571 M261.171345,211.878891 C259.609552,213.050235 259.609552,214.949765 261.171345,216.121109 C262.733884,217.292964 265.266209,217.292964 266.828375,216.121109 C268.390542,214.949765 268.390542,213.050235 266.828375,211.878891 C265.266209,210.707036 262.733884,210.707036 261.171345,211.878891" id="Fill-535" fill="#FFFFFF"></path>
                <path d="M261.320414,211.895635 C260.60284,212.445842 260.177283,213.244476 260.177283,214.040417 C260.177283,214.836357 260.645434,215.540147 261.363008,216.090354 C262.060246,216.624394 263.018803,216.915933 263.999616,216.915933 C264.981197,216.915933 265.905219,216.622238 266.602456,216.087121 C267.320031,215.536914 267.808519,214.740974 267.808519,213.945572 C267.808519,213.149632 267.382962,212.42698 266.665388,211.876774 C265.967767,211.342195 264.981197,211.083528 263.999616,211.083528 C263.018803,211.083528 262.017268,211.361056 261.320414,211.895635 M261.146585,216.095743 C260.407137,215.528831 260,214.784085 260,214 C260,213.215376 260.407137,212.470631 261.146585,211.904257 C261.906754,211.321178 262.920184,211 263.999616,211 C265.079432,211 266.093246,211.321178 266.853031,211.904257 C267.592863,212.470631 268,213.215376 268,214 C268,214.784085 267.592863,215.528831 266.853031,216.095743 C266.093246,216.678822 265.079432,217 263.999616,217 C262.920184,217 261.906754,216.678822 261.146585,216.095743" id="Fill-537" fill="#F3F5F6"></path>
                <path d="M261.166093,213.694971 C262.748432,214.786195 265.313836,214.786195 266.896174,213.694971 C267.479221,213.292791 267.846785,212.798642 268,212.280192 C267.813953,214.08905 266.202179,217.284573 265.42969,217.641961 C264.531157,218.05796 263.332987,218.157552 262.47823,217.692472 C261.571018,217.199277 260.047927,213.77312 260,212 C260.089816,212.618519 260.478513,213.221313 261.166093,213.694971" id="Fill-539" fill="#D9FFFB"></path>
                <path d="M266.104107,213.450772 C266.393561,213.57044 266.82617,213.859614 267,214.003456 C266.795494,214.194746 266.415585,214.447214 266.143828,214.559721 C264.704422,215.155975 262.1831,215.137472 260.932468,214.559721 C260.337435,214.285169 260.155346,214.086716 260,213.908258 C260.166751,213.780532 260.592674,213.558503 260.853025,213.450772 C262.303444,212.849743 264.654082,212.849743 266.104107,213.450772" id="Fill-541" fill="#893E29"></path>
                <path d="M259,213.449315 C259.839919,213.192755 261.934787,212.906166 262.701651,213.029579 C262.920819,213.076932 263.202286,213.253636 262.74916,213.382659 C262.523717,213.44684 262.154404,213.547485 262.411668,213.668918 C262.688205,213.79926 263.303578,213.819389 263.754015,213.830444 C263.913573,213.834238 264.846269,213.817574 265,213.886375 C263.303578,214.085189 261.223949,214.011933 259.938074,213.753558 C259.737731,213.7133 259.566072,213.669578 259.415926,213.623875 C259.088295,213.507722 259,213.449315 259,213.449315" id="Fill-543" fill="#E9ECEE"></path>
                <path d="M260.221828,211.015069 C260.221828,211.015069 260.427786,210.886249 260.823934,211.381894 C261.220082,211.87754 260.823934,211.996149 260.823934,211.996149 C260.823934,211.996149 260.526823,212.061345 260.150383,211.655245 C259.774437,211.249931 260.221828,211.015069 260.221828,211.015069" id="Fill-545" fill="#FFFFFF"></path>
                <path d="M263.323406,210.843487 C263.323406,210.843487 263.734293,208.785358 260.911117,207.088259 C258.224107,205.472304 259.975633,200.784127 259.975633,200.784127 C259.975633,200.784127 262.365466,203.05141 262.535554,203.690155 C262.816964,204.749811 261.473459,205.520904 263.667882,207.892765 C264.920132,209.245758 264.096447,210.732835 264.096447,210.732835 C264.096447,210.732835 264.890032,209.874956 265.193897,209.144652 C265.522607,208.35273 265.55844,206.539338 264.619133,204.667798 C263.298084,202.033845 260.22742,200.949888 258.498828,196.403171 C256.901147,192.19709 259.471102,189.816551 261.562803,188.978198 C266.583746,186.966934 262.633976,177 262.633976,177 C262.633976,177 267.497253,182.297415 268.60617,184.710499 C269.698365,187.088434 272.135976,191.612152 265.882372,195.330063 C262.349221,197.430717 264.6521,199.666323 266.621012,203.779978 C268.589925,207.892765 264.898154,210.888182 264.898154,210.888182 C264.426112,210.988854 263.956936,211.09777 263.323406,210.843487" id="Fill-547" fill="#EEF8FF"></path>
                <path d="M162.721611,286.14991 C159.701975,289.041315 153.750761,290 147.386249,290 C141.021738,290 135.444881,288.129898 132.329664,285.324544 C132.114608,284.754101 132,284.163457 132,283.557866 C132,278.83191 138.888877,275 147.386249,275 C155.884064,275 164,278.137844 164,282.863799 C164,283.469391 164,284.926203 162.721611,286.14991" id="Fill-549" fill="#CC9ACA"></path>
                <path d="M147.490392,250 L129,256.372967 L129,280.248931 C129,285.082041 135.268001,289 142.999791,289 C150.731999,289 157,285.082041 157,280.248931 L157,256.372967 L147.490392,250 Z" id="Fill-551" fill="#FFFFFF"></path>
                <path d="M157,256.000221 C157,260.97069 150.731999,265 142.999791,265 C135.268001,265 129,260.97069 129,256.000221 C129,251.02931 135.268001,247 142.999791,247 C150.731999,247 157,251.02931 157,256.000221" id="Fill-553" fill="#85E1DD"></path>
                <path d="M130.278868,260.947362 C132.911135,263.379028 137.623294,265 143,265 C148.3776,265 153.089312,263.379028 155.721579,260.947362 C155.903022,260.453076 156,259.941631 156,259.416374 C156,255.320627 150.179518,252 143,252 C135.820482,252 130,255.320627 130,259.416374 C130,259.941631 130.096978,260.453076 130.278868,260.947362" id="Fill-555" fill="#33B2C3"></path>
                <path d="M142.999791,247 C135.268001,247 129,251.02931 129,256.000221 C129,260.97069 135.268001,265 142.999791,265 C150.731581,265 157,260.97069 157,256.000221 C157,251.02931 150.731581,247 142.999791,247 M156.019395,256.000221 C156.019395,260.317623 150.05663,263.965167 142.999791,263.965167 C135.942533,263.965167 129.980605,260.317623 129.980605,256.000221 C129.980605,251.682819 135.942533,248.035275 142.999791,248.035275 C148.030102,248.43825 156.672992,251.7354 156.019395,256.000221" id="Fill-557" fill="#BFF5FA"></path>
                <path d="M137.71568,212 L135.032439,221.308232 L135.000004,230.913442 C135.000004,230.913442 134.986525,238.260746 136.443142,241.769 C137.899337,245.277253 141.032032,248.628564 145.822691,250.250026 C148.195907,251.052953 151.178643,251.365106 153.423383,250.404801 C154.417488,249.979493 151.508888,248.842302 152.139892,248.168138 C157.539652,242.399375 154.325238,236.432916 150.443174,230.894366 C145.946955,224.47962 137.71568,212 137.71568,212" id="Fill-559" fill="#006859"></path>
                <path d="M129.247933,241.836863 C128.653594,233.906581 129.314496,224.053819 129.314496,224.053819 L131.812096,210.580787 L134.646373,222.22017 L137.961619,236.06899 L141.55471,216.211932 L145.000074,198.152817 L147.104311,215.764297 C148.037905,218.885985 148.227286,222.179238 148.411084,225.43635 C148.678623,230.187901 149.2137,239.691437 149.2137,239.691437 L151.569157,228.383426 L156.528713,194 L158.730431,218.386533 L161,221.254794 C161,221.254794 159.707398,242.672043 157.669724,249.853799 C155.3585,258.001803 147.837787,263.542811 139.222872,261.615977 C131.386095,259.862885 129.742644,248.437739 129.247933,241.836863" id="Fill-561" fill="#009580"></path>
                <path d="M152.503607,252.698816 L153,237.816248 L152.007214,229.06781 L149.600448,209 L140.121247,249.397184 L140,256.955087 C140,256.955087 145.233881,262.836505 147.796113,261.898683 C149.810835,261.161348 152.503607,252.698816 152.503607,252.698816" id="Fill-563" fill="#00AF9C"></path>
                <path d="M139,251.261955 L140.229861,243.917831 L140.785795,239.461396 L140.625379,229 L145.932386,249.579892 L146,253.430144 C146,253.430144 143.070076,256.426095 141.635164,255.948394 C140.507386,255.572636 139,251.261955 139,251.261955" id="Fill-565" fill="#00AF9C"></path>
                <polygon id="Fill-567" fill="#3E95DD" points="348 308.999347 440.198812 356 533 309.000218 440.802046 262"></polygon>
                <path d="M485,265 L484.999565,298.196833 C484.999565,298.196833 477.654231,327 431.125808,327 C384.596949,327 382,299.537407 382,299.537407 L382,265.979516 L485,265 Z" id="Fill-569" fill="#001D56"></path>
                <polygon id="Fill-571" fill="#01366C" points="340 258 340.017481 260.686183 434 307 433.982082 304.314675"></polygon>
                <polygon id="Fill-573" fill="#0A5B89" points="434 304.314223 434.017802 307 528 260.686206 527.982632 258"></polygon>
                <polygon id="Fill-575" fill="#1E7B9B" points="341 257.999347 433.198383 305 526 258.000218 433.801617 211"></polygon>
                <path d="M387.431929,322.994991 L387.431929,285.934804 C387.431929,283.572339 388.898533,281.344323 391.260196,280.119341 L428.925169,260.576823 C427.445193,259.424828 427.719534,257.878448 429.758976,256.871999 C432.113307,255.709334 435.915261,255.709334 438.254063,256.871999 C440.592433,258.034238 440.580787,259.918235 438.226025,261.080047 C436.273717,262.04424 433.336196,262.196189 431.053039,261.561504 L392.343326,281.646087 C390.602381,282.549671 389.520977,284.193366 389.520977,285.934804 L389.520977,323.052186 C392.1311,324.183266 394.207638,329.157889 394.767967,335.538465 C394.932313,337.40667 393.186623,339 390.996207,339 L385.782862,339 C383.592447,339 381.846757,337.40667 382.010671,335.538465 C382.583509,329.017464 384.741574,323.977538 387.431929,322.994991" id="Fill-577" fill="#FDFDFD"></path>
            </g>
        </g>
    </g>
</svg>