<svg xmlns="http://www.w3.org/2000/svg" viewBox="0 0 182.95 183.3"><defs><style>.cls-1{isolation:isolate;}.cls-2{fill:#f7f7f7;}.cls-3{fill:#ee6a6b;}.cls-4{fill:#343043;}.cls-5{fill:#ffa180;}.cls-6{fill:#84d5ff;}.cls-7{fill:#595668;}.cls-8{fill:#dcdeec;}.cls-9{fill:#3d2f77;}.cls-10{fill:#2b235e;}.cls-11{fill:#dcdee2;}.cls-12{fill:#fff;}.cls-13{fill:#e49239;}.cls-14{fill:#ffd069;}.cls-15{fill:#ffb051;}.cls-16{fill:#b5bad0;}.cls-17{fill:#514e66;}.cls-18{fill:#312b40;}.cls-19{fill:#514d60;}.cls-20{fill:#eee7ec;}.cls-21{fill:#6b78dc;}.cls-22{fill:#ff4060;}.cls-23{fill:#ca5d3e;}.cls-24{fill:#b24d36;}.cls-25{fill:#6b2c2a;}.cls-26{fill:#85d6ff;}.cls-27{fill:#65a8ea;}.cls-28{fill:#33408c;}.cls-29{fill:#343042;}.cls-30{fill:#ffd169;}.cls-31{fill:#ffb151;}.cls-32{fill:#ffdf97;}.cls-33{fill:#c9bdc3;}.cls-34{fill:#aa9ba3;}.cls-35{fill:#e5dce1;}.cls-36,.cls-42{fill:#1f2d68;}.cls-37{fill:#6b78dd;}.cls-38{fill:#a5d18b;}.cls-39{fill:#4f703a;}.cls-40{fill:#739e57;}.cls-41{fill:#99a8ff;}.cls-42{opacity:0.62;mix-blend-mode:multiply;}.cls-43{fill:#cc2752;}.cls-44{fill:#b7163d;}.cls-45{fill:#e58033;}.cls-46{fill:#ff6c77;}.cls-47{fill:#8ab515;}.cls-48{fill:#638700;}.cls-49{fill:#934714;}.cls-50{fill:#ea244f;}.cls-51{fill:#5b2f11;}.cls-52{fill:#a82d37;}.cls-53{fill:#8e232f;}.cls-54{fill:#51271f;}.cls-55{fill:#331713;}.cls-56{fill:#d86d48;}.cls-57{fill:#6a2e29;}.cls-58{fill:#e2884b;}.cls-59{fill:#63332a;}.cls-60{fill:#e3dfe2;}</style></defs><title>female-male-booksAsset 1</title><g class="cls-1"><g id="Layer_2" data-name="Layer 2"><g id="Layer_3" data-name="Layer 3"><g id="female-male-books"><path class="cls-2" d="M181.7,93.6A13.2,13.2,0,0,0,169,80.41a70.32,70.32,0,0,0-12.41-32.79,7.11,7.11,0,0,0-3-13.46A22.71,22.71,0,1,0,114,11.76a8.16,8.16,0,0,0-14.12,5.58c0,.05,0,.11,0,.16l-1.32,0a70.65,70.65,0,0,0-28.12,5.81,6,6,0,0,0-10.72-2.16A21,21,0,1,0,37.3,52.85a70.23,70.23,0,0,0-7.54,18.86l-.44,0a14.81,14.81,0,0,0-.44,29.62A64.86,64.86,0,0,0,39,126.89a18.2,18.2,0,1,0,26.81,22.63l.27.09a68.9,68.9,0,0,0,30.2,7.86,14.8,14.8,0,0,0,24.48-3.71l.08,0a12,12,0,0,0,18.27-9,64.62,64.62,0,0,0,24.55-28.13,8.25,8.25,0,0,0,2.06.27,8.11,8.11,0,0,0,8.11-8.1,8.26,8.26,0,0,0-.53-2.87A13.21,13.21,0,0,0,181.7,93.6Z"/><circle class="cls-2" cx="160.69" cy="30.72" r="3.55"/><path class="cls-2" d="M71.25,18.05a3.34,3.34,0,1,0-3.33-3.34A3.33,3.33,0,0,0,71.25,18.05Z"/><circle class="cls-2" cx="60.58" cy="11.08" r="1.97"/><path class="cls-2" d="M33.7,55.78a3.64,3.64,0,1,0-3.63,3.64A3.62,3.62,0,0,0,33.7,55.78Z"/><path class="cls-2" d="M152.85,141.57a4.55,4.55,0,1,0,4.56,4.55A4.55,4.55,0,0,0,152.85,141.57Z"/><path class="cls-3" d="M23.1,164l-.35,3.09s2,2.86,2.27,2.86h2.51l1.22-2.16-.46-2.22-.7-2.62Z"/><path class="cls-4" d="M21.93,166.47s-2.56,4.8-5.71,4.92l-.35,4.31a17.91,17.91,0,0,0,6.88-1.46l5.54-1.57a2.09,2.09,0,0,0,1.86-2.57s-.87-3.79-1.86-4.55a2.89,2.89,0,0,0-.88,2.51s.41,2.16-1.51,1.52a1.76,1.76,0,0,1-.82-2.1Z"/><path class="cls-5" d="M16.41,169l-.08,1.71-.81,3.15-1.79,1.48-3-2.25-.7-2.14,0-.55a28.84,28.84,0,0,0,2.14-3.57Z"/><path class="cls-4" d="M51.17,134.12l-3-5-16.79.07L25,129s-7.38-1.09-6.29,5.91c0,0,2.64,10.42,2.56,14.46l.84-1.29L22.86,164s3,.86,5.14-.47c0,0-1.48-10.8,1.24-17.49l.23-6.14,1.4-3.66,5.31-1.31Z"/><path class="cls-6" d="M52.37,102.59s-2.45.24-3.38,5.45l1.24-1.21Z"/><path class="cls-7" d="M59.1,132s2.95,8-5.29,9.57c0,0-9.64,2.95-24.1-2.18,0,0,1.78,10-7.55,19.21a36,36,0,0,0-5.59,10.61s-5,.47-5-2.57c0,0,8.28-13.06,10.85-26.59,0,0,.35-6.53,4.31-7,0,0,20.37-2.76,22.36-2.76l-3.58.08Z"/><polygon class="cls-8" points="27.68 106.63 29.28 106.22 30.97 108.73 45.99 107.3 46.1 108.81 30.68 109.4 27.68 106.63"/><path class="cls-9" d="M61.59,101.39s4.12,1.48,4.82,3.73c0,0-2.61,11.27-5.64,16.17,0,0-3.27,5.83-1.28,10.85a16.18,16.18,0,0,1-11.43-1.28l-2.45-2.57,1.59-11.58-.78-6.46a18.76,18.76,0,0,0,3.66-3.81l1.55-2.72a2.47,2.47,0,0,1,2.65-1.79Z"/><path class="cls-6" d="M59.49,132.14a15.17,15.17,0,0,1-12.25-1.81l.23-1.63a15.38,15.38,0,0,0,11.61,2Z"/><path class="cls-10" d="M46.83,124.79l.64,2.16a16.78,16.78,0,0,0,3.33.55l2.56.38s.15,1.11,2.66,1.2l2.82.06a16.67,16.67,0,0,1,.09-1.9l-8.77-2.51Z"/><path class="cls-10" d="M60.77,115.29s-6.36,5.25-9.51.46c0,0-4,.29-4.43-2.33l-.52,8.11s3.15,2.74,5.48,2.33C51.79,123.86,57.56,124.38,60.77,115.29Z"/><path class="cls-11" d="M61.12,101.82a26.91,26.91,0,0,1-9.21,10.38s-.43-3.54,1.86-10Z"/><path class="cls-5" d="M60.05,96.41v4.28s-2.9,4-5.19,3.26l.13-2.78V98.24Z"/><path class="cls-3" d="M55,99.14v2s3.8-1.72,5-3.67V95.66Z"/><path class="cls-5" d="M55,81.74s-6.59,2.16-4.88,8c0,0,.36,1.08.84,2.11a1.78,1.78,0,0,1,.22,1.3,3.93,3.93,0,0,0,.5,3.68l1.47,1.82a1.5,1.5,0,0,0,1.81.59s4.55-.78,5.58-3.77c0,0,.7.26,1.66-1.18,0,0,1.3-1.52,1-2.7,0,0,1.85-5.73-1.74-8.16A7.23,7.23,0,0,0,55,81.74Z"/><path class="cls-4" d="M53.89,105.63l.42.2L52,109.51a15.89,15.89,0,0,0-.08,2.69,19.43,19.43,0,0,0,2.52-1.83l.35-4.39.47.15.12-2.49Z"/><path class="cls-6" d="M61.61,101.35l-.55.2A24.22,24.22,0,0,1,52,112s-.27-3.65,1.79-9.78l.39-.29a1.26,1.26,0,0,0-1,.1s-2.93,6.7-1.64,11.24c0,0,5.75-1,11.18-11.4Z"/><path class="cls-12" d="M55.29,103.22s3.93-2,4.84-4.06l1.75,2.13s-3.59,4.35-6.74,6.21l.06-3.41-2.13,3,.7-4.82,1.22-1S54.88,103,55.29,103.22Z"/><polygon class="cls-13" points="46.7 108.16 30.95 108.96 27.5 106.45 27 106.6 28.38 124.79 32.09 131.02 47.49 130.22 46.72 108.61 46.7 108.16"/><rect class="cls-14" x="31.44" y="109.01" width="15.86" height="22.08" transform="translate(-6.15 2.2) rotate(-2.96)"/><polygon class="cls-15" points="30.88 109.43 27 106.6 28.31 125.26 32.02 131.48 30.88 109.43"/><path class="cls-5" d="M51.57,123.1l-2.45-2.45a1.92,1.92,0,0,0-1.19-.85l-3-.08-1.78.8s-.34.24.08.69a2.41,2.41,0,0,0,.62.37,1.28,1.28,0,0,0,.82,1.3,1.11,1.11,0,0,0,.93,1.15s0,.74,1.24,1l1.64.43s1.69.59,2.09.36l1.24-.45Z"/><path class="cls-3" d="M44.89,119.72l-1.78.8s-.65.44.7,1.06a1.17,1.17,0,0,0,.82,1.3s-.13.83.93,1.15c0,0,0,.84,1.24,1l1.64.43s1.61.65,2.09.36l1.24-.45-.1-1.18-1.22.29s-3.21.12-4.14-1.08c0,0-.7-.23-.56-.78,0,0-.81-.67-.55-1.23C45.2,121.35,44.34,120.52,44.89,119.72Z"/><path class="cls-6" d="M68.27,109.83c0,3.72-1.6,6.74-3.57,6.74s-3.58-3-3.58-6.74,1.6-6.73,3.58-6.73S68.27,106.11,68.27,109.83Z"/><path class="cls-11" d="M65.08,103.8s2.57-.08,3.27,6.22c0,0,1.77,9.82,1.69,15,0,0-1.92,2.39-10.2,2.62,0,0-6.26.8-6.15-1.59l0-3.44s-.12-2.22,4.37-1.11l7.07,1.17s-1.08-.39-.07-1L62.44,112S60.89,106.13,65.08,103.8Z"/><rect class="cls-8" x="51.32" y="122.38" width="3.3" height="3.89"/><path class="cls-16" d="M51.32,126.27l2.36,0s0,2.1,6.16,1.28c0,0,7.93-.15,10.2-2.62,0,0-14.11,2.91-16-.94H51.32Z"/><path class="cls-15" d="M32.87,130.77h0a.17.17,0,0,1-.17-.16l-.93-20.33a.15.15,0,0,1,.16-.17h0a.16.16,0,0,1,.17.15L33,130.59A.17.17,0,0,1,32.87,130.77Z"/><path class="cls-3" d="M27.72,115.85l-.18-1.59s-.75-.23-1.06.26a1.4,1.4,0,0,0-.13,1.11s-1,.17-.52,1.61c0,0-.59.27-.17,1.23,0,0-.39.27,0,.79,0,0,.57.93,1,.69,0,0,.82.23,1.15-.22a.83.83,0,0,0-.23-.8,1.14,1.14,0,0,0,.62-.08s.48-.43-.37-1.15a.45.45,0,0,0,.5-.41A1.71,1.71,0,0,0,27.72,115.85Z"/><path class="cls-7" d="M10.11,170.43a4.37,4.37,0,0,0,3.19,2.26s.47,3.58,2.33-.39l.7-1.56s1.09,4-.93,6A4.81,4.81,0,0,1,12.6,178a5.83,5.83,0,0,0-4,2.48s-6,4.51-8.48.24c0,0-.93-2.65,3.5-4.75,0,0,3.19-1.16,4.36-3.11A3.32,3.32,0,0,1,10.11,170.43Z"/><path class="cls-4" d="M51.79,85.76a14.66,14.66,0,0,0,8.71,7.7s1.55.66,1,1.55a1.11,1.11,0,0,1-1,.44l-.52,1v1.67s2.29.89,3.34-.73S64.72,92.51,65,91c0,0,2-11.34-10-9.59C54.94,81.41,50.27,82.47,51.79,85.76Z"/><path class="cls-4" d="M52.14,85.9s-2.57,1.8-1.28,5.54c0,0-4.09-5.49,1.16-8.4l1.23,1.57Z"/><path class="cls-4" d="M63.67,98.73a2.23,2.23,0,0,1-3.81-2,2.23,2.23,0,0,1,3.81,2Z"/><path class="cls-4" d="M63.26,100.82a2.24,2.24,0,0,1-3.81-2,2.24,2.24,0,0,1,3.81,2Z"/><path class="cls-4" d="M62.93,102.73a2.24,2.24,0,0,1-3.82-2,2.24,2.24,0,0,1,3.82,2Z"/><path class="cls-4" d="M62.63,104.77a2.23,2.23,0,0,1-3.81-2,2.23,2.23,0,0,1,3.81,2Z"/><path class="cls-4" d="M62.34,106.84A2.07,2.07,0,0,1,58.81,105a2.07,2.07,0,0,1,3.53,1.82Z"/><path class="cls-4" d="M62,108.31a1.69,1.69,0,1,1-.88-1.82A1.46,1.46,0,0,1,62,108.31Z"/><path class="cls-4" d="M61.72,109.54a1.37,1.37,0,1,1-.72-1.47A1.18,1.18,0,0,1,61.72,109.54Z"/><path class="cls-4" d="M59.81,109.45s-2.71,1.31-.27,4.81c0,0,1.38,2.13-.69,2.5,0,0,5.69.88,2.44-7.37Z"/><path class="cls-17" d="M63.19,98.64c-.29.39-1.06.21-1.31,0s.31-.19.6-.58.19-1,.44-.83A1.28,1.28,0,0,1,63.19,98.64Z"/><path class="cls-17" d="M62.59,100.63c-.29.39-1.05.22-1.31,0s.31-.19.6-.58.2-1,.45-.83A1.26,1.26,0,0,1,62.59,100.63Z"/><path class="cls-17" d="M62.28,102.73c-.29.39-1.06.21-1.31,0s.31-.19.6-.58.19-1,.44-.83A1.28,1.28,0,0,1,62.28,102.73Z"/><path class="cls-17" d="M62.1,104.53c-.27.36-1,.2-1.21,0s.29-.17.55-.53.18-.94.41-.77A1.16,1.16,0,0,1,62.1,104.53Z"/><path class="cls-17" d="M61.79,106.48c-.23.31-.82.17-1,0s.24-.15.47-.45.15-.8.34-.65A1,1,0,0,1,61.79,106.48Z"/><path class="cls-17" d="M61.62,108.12c-.19.27-.71.15-.88,0s.21-.13.4-.39.14-.69.31-.56A.84.84,0,0,1,61.62,108.12Z"/><path class="cls-17" d="M61.32,109.5c-.19.26-.71.14-.88,0s.21-.13.4-.39.13-.69.3-.57A.85.85,0,0,1,61.32,109.5Z"/><path class="cls-17" d="M61.77,113.17a2.62,2.62,0,0,1-.7,2.12,6,6,0,0,0,0-2.12c-.53-2.11-.35-2.12,0-2.12S61.77,112,61.77,113.17Z"/><path class="cls-17" d="M53.25,84.61A17,17,0,0,0,62.83,93l-3.5-5.29,3.34,3S59.84,83.54,53.25,84.61Z"/><rect class="cls-18" x="35.58" y="159.46" width="37.21" height="5.84" rx="1.14" ry="1.14"/><rect class="cls-19" x="40.39" y="159.32" width="1.03" height="6.12" rx="0.23" ry="0.23"/><rect class="cls-19" x="42.42" y="159.32" width="1.03" height="6.12" rx="0.23" ry="0.23"/><rect class="cls-19" x="64.92" y="159.32" width="1.03" height="6.12" rx="0.23" ry="0.23"/><rect class="cls-19" x="66.95" y="159.32" width="1.03" height="6.12" rx="0.23" ry="0.23"/><rect class="cls-19" x="45.39" y="160.32" width="17.59" height="4.12"/><path class="cls-20" d="M67.58,165.67H31.74v.24a2.55,2.55,0,0,1,1.2,2.16v.53a2.55,2.55,0,0,1-1.2,2.16V171H67.61a4.08,4.08,0,0,1,.41-.49l.27-.25v-3.65A4.08,4.08,0,0,1,67.58,165.67Z"/><path class="cls-21" d="M66.78,166.15H31.61a.31.31,0,0,1-.31-.31v-.26a.31.31,0,0,1,.31-.31H66.78a2.11,2.11,0,0,1,2.1,2.1v1.93a2.11,2.11,0,0,1-2.1,2.1H31.61a.31.31,0,0,1-.31-.31v-.26a.31.31,0,0,1,.31-.31H66.78A1.22,1.22,0,0,0,68,169.3v-1.93A1.22,1.22,0,0,0,66.78,166.15Z"/><path class="cls-20" d="M39.3,171.77H75.15V172a2.58,2.58,0,0,0-1.2,2.17v.52a2.58,2.58,0,0,0,1.2,2.17v.24H39.28a5.21,5.21,0,0,0-.41-.5l-.28-.24v-3.66A3.88,3.88,0,0,0,39.3,171.77Z"/><path class="cls-22" d="M40.11,172.26H75.28a.3.3,0,0,0,.3-.31v-.26a.3.3,0,0,0-.3-.31H40.11a2.1,2.1,0,0,0-2.1,2.1v1.92a2.1,2.1,0,0,0,2.1,2.1H75.28a.29.29,0,0,0,.3-.3v-.27a.29.29,0,0,0-.3-.3H40.11a1.23,1.23,0,0,1-1.23-1.23v-1.92A1.22,1.22,0,0,1,40.11,172.26Z"/><rect class="cls-9" x="33.87" y="141.56" width="37.21" height="5.84" rx="1.14" ry="1.14"/><rect class="cls-21" x="38.68" y="141.41" width="1.03" height="6.12" rx="0.23" ry="0.23"/><rect class="cls-21" x="40.72" y="141.41" width="1.03" height="6.12" rx="0.23" ry="0.23"/><rect class="cls-21" x="63.21" y="141.41" width="1.03" height="6.12" rx="0.23" ry="0.23"/><rect class="cls-21" x="65.25" y="141.41" width="1.03" height="6.12" rx="0.23" ry="0.23"/><rect class="cls-21" x="43.68" y="142.41" width="17.59" height="4.12"/><path class="cls-20" d="M65.88,147.76H30V148a2.59,2.59,0,0,1,1.19,2.17v.52A2.59,2.59,0,0,1,30,152.86v.24H65.91a2.88,2.88,0,0,1,.41-.5,2.16,2.16,0,0,1,.27-.25V148.7A4.08,4.08,0,0,1,65.88,147.76Z"/><path class="cls-15" d="M65.07,148.24H29.9a.3.3,0,0,1-.3-.3v-.27a.3.3,0,0,1,.3-.3H65.07a2.1,2.1,0,0,1,2.1,2.1v1.92a2.1,2.1,0,0,1-2.1,2.1H29.9a.31.31,0,0,1-.3-.31v-.26a.31.31,0,0,1,.3-.31H65.07a1.23,1.23,0,0,0,1.23-1.22v-1.92A1.23,1.23,0,0,0,65.07,148.24Z"/><path class="cls-20" d="M37.6,153.87H73.44v.24a2.54,2.54,0,0,0-1.19,2.16v.53A2.54,2.54,0,0,0,73.44,159v.24H37.57a3.32,3.32,0,0,0-.41-.49l-.27-.25V154.8A3.82,3.82,0,0,0,37.6,153.87Z"/><path class="cls-22" d="M38.4,154.35H73.57a.31.31,0,0,0,.31-.31v-.26a.31.31,0,0,0-.31-.31H38.4a2.11,2.11,0,0,0-2.1,2.1v1.93a2.11,2.11,0,0,0,2.1,2.1H73.57a.31.31,0,0,0,.31-.31V159a.31.31,0,0,0-.31-.31H38.4a1.22,1.22,0,0,1-1.22-1.22v-1.93A1.22,1.22,0,0,1,38.4,154.35Z"/><path class="cls-4" d="M97.85,165.23s-3.5,4.27-.7,6.74a5.22,5.22,0,0,0,3.72,1.29,4.1,4.1,0,0,1,1.94,1s7.3,4.75,9.85,1.21c0,0,.91-1.65-3.32-3.63,0,0-3.78-2.28-4.76-3.76,0,0,.35-1.9-.6-2.59Z"/><path class="cls-4" d="M86.31,169.39s-2.16,4.09,1.13,5.9c0,0,7.27,6,13.29,4.66,0,0,3.06-.8-.23-4.88a41.75,41.75,0,0,0-4.6-3.44s-2.55-1.28-3.15-3.41Z"/><path class="cls-23" d="M90,99s-3.16,5.31-1.3,13.51c0,0-1.68,14.06-1.55,23.63,0,0-4.6,6.45-3.36,13.16,0,0,1.87,17.39,1.62,20.62,0,0,6.83,2,8.07-1.37,0,0-1.37-20.24,1.86-29.06A30,30,0,0,0,98.54,128l2.61-14,3.54,19.44s-1.86.83-.37,2c0,0-1.49-.28-.93,1,0,0-3.54,4.65-3.54,9.68,0,0-1,14.63-2.89,19.85,0,0,5.31,3.44,8,.93,0,0,4.75-24.22,7.73-30.28a20.54,20.54,0,0,0,1.49-10.15s-.49-15.06-2.11-20.15c0,0-.37-7.83-2.61-9.81Z"/><path class="cls-24" d="M97,165.93s1.58-6.43,2.89-19.85c0,0-.56-4.65,3.54-9.68,0,0-.81-1.12.93-1,0,0-1.74-1.08.37-2L101.15,114l1.24-5.09,2.86-1-1.49,3.73,1.49-.75s3.73,20.62,2.24,24.47l-8.08,31.8A11.46,11.46,0,0,1,97,165.93Z"/><path class="cls-25" d="M89.6,98.27l-.43,2.36s14.5,4,22.23.28l-.06-1.59Z"/><path class="cls-5" d="M126.07,80.55s1.16-1,2.05-.84a1.13,1.13,0,0,1,1.1,1.35s1.62.38.81,1.77c0,0,1.33.41.53,2,0,0,.93.87-.56,1.68,0,0-1.87.9-2.89.49l-1.65-2.54Z"/><path class="cls-3" d="M126,81.48s-.28,1.21.65,1.35c0,0-.75,1.82,1.54,1.35,0,0-1.65.67-1.06,1.51,0,0,.28.4,2.17-.22l-1.89.62s-.56.44.5,1a1.57,1.57,0,0,1-.78-.1l-1.61.28Z"/><path class="cls-26" d="M93.58,64.92A66.51,66.51,0,0,0,85,68.46s-3.48,3.79,1.24,10.87c0,0,4.72,9.06,3.85,12.42,0,0-2.18,5.34-.13,7.2,0,0,13.91,3.17,21.37.37l.24-26.45s.28-4.57-5.21-4.94l-5.87-2Z"/><path class="cls-5" d="M95.5,58.89a44.51,44.51,0,0,0-2.08,6.38s-.33.94,1.35,2c0,0,5.5,2.33,6.57,1.21l.14-3.17Z"/><path class="cls-3" d="M101.66,65.46l-.32,3a1.67,1.67,0,0,1-1.35.3s-.84-3.28-2.66-4.72c0,0-2.84-1.91-1.72-4.75Z"/><path class="cls-5" d="M104.23,47.44a6.39,6.39,0,0,1,3,6.42s.14,2.8-.88,4.34a3.44,3.44,0,0,0-.65,2.42c.16,1.78-.66,2.28-1.21,3.4l-.66,1a1.49,1.49,0,0,1-2.29.62s-6.65-3.23-6.06-6.74c0,0-1.24.28-1.65-1.64,0,0-2.71-4.32,1.53-8.74C95.38,48.51,98.59,45.67,104.23,47.44Z"/><path class="cls-25" d="M109.72,53.3c.36.17-2.65,5.27-8.1.38,0,0-3.57-3-4.47,2.51,0,0-.28,4.26-1.59,1.4l-1.71-.34s.33,1.74,1.65,1.64l-.87,2.29a15.29,15.29,0,0,1-2.23-9.09A6.65,6.65,0,0,1,99.29,46s4.84-.56,7.08,3.17C106.37,49.21,107.86,52.47,109.72,53.3Z"/><polygon class="cls-8" points="122.76 73.05 107.02 71.28 106.83 72.96 122.76 73.52 126.77 72.49 126.77 71.61 122.76 73.05"/><path class="cls-27" d="M89.18,95.18S88.67,97.92,90,99c0,0-.09-1.72,2.24-2.84l12.57-4.57.56-5.07-5.91.23-5.87.42-2.34-7.3a2.89,2.89,0,0,1-1.37-3.6s-1.3,1.3-2.3,5.78l2.61,8.19Z"/><polygon class="cls-9" points="122.76 73.05 105.81 72.03 103.48 98.86 120.34 99.42 122.76 73.05"/><polygon class="cls-10" points="122.76 73.05 126.95 72.31 124.91 95.5 120.34 99.42 122.76 73.05"/><path class="cls-10" d="M119.31,98.8h0a.34.34,0,0,0,.36-.3L121.8,74a.33.33,0,0,0-.3-.35h0a.34.34,0,0,0-.35.3L119,98.44A.33.33,0,0,0,119.31,98.8Z"/><path class="cls-5" d="M97.8,85.78l2.52-1.06s3.36-2.58,4.48-2.69L108,81.8s.33,0,.63.61a12,12,0,0,1,.46,1.76s.29,1.3-.29,1.55c0,0,.12,1.22-.51,1.47a1.11,1.11,0,0,1-.71,1.3l-4.75.59s-1.59.42-2-.25l-1.64.84Z"/><path class="cls-3" d="M108,81.8s.39,0,.63.61a8.75,8.75,0,0,1,.46,1.76s.34,1.33-.29,1.55c0,0,.21,1.15-.51,1.47a1,1,0,0,1-.71,1.3l-4.75.59s-1.44.51-2-.25l-1.64.84-.44-1.23,1.91-.62a2.51,2.51,0,0,0,2.41.56s3.86-.45,4.19-1.2a3.16,3.16,0,0,0,.54-1.57s.61-.81.44-1.37C108.18,84.24,108.8,82.62,108,81.8Z"/><path class="cls-26" d="M87.83,68s-7.26-.93-8.76,11.46L77.3,94.11s-.46,3.72,2,4.28c0,0,2,.65,6.34-1.3l13.88-6.8s-1-4.1-2-5L85.87,88.52l2.24-8.67Z"/><path class="cls-24" d="M91.65,168.07a.37.37,0,0,1-.37-.33c-2.59-21.49,2.08-29.88,2.28-30.23,1.8-3.41,2.37-10.57,2.38-10.64l3-18.17a.38.38,0,0,1,.43-.31.39.39,0,0,1,.31.43l-3,18.14c0,.26-.59,7.35-2.46,10.91-.06.1-4.76,8.59-2.2,29.78a.38.38,0,0,1-.33.42Z"/><path class="cls-24" d="M104.51,166.14h-.06a.37.37,0,0,1-.31-.42,176.94,176.94,0,0,1,6.72-28.23,33.67,33.67,0,0,0,1.47-7.09c.73-6.22-2.2-22.65-2.23-22.81a.37.37,0,1,1,.73-.14c.13.68,3,16.71,2.24,23a33.85,33.85,0,0,1-1.51,7.26,176.79,176.79,0,0,0-6.69,28.08A.36.36,0,0,1,104.51,166.14Z"/><path class="cls-28" d="M100.5,68.67S93.3,67.26,94,63l-4.07,3,11,8.19-.06-5.15,3.23,3.6L103,66.78l-1.39-.5S101.49,68.58,100.5,68.67Z"/><path class="cls-29" d="M67.21,75.54H61.89a3,3,0,0,1-3-3h0a3,3,0,0,1,3-3h5.32a3,3,0,0,1,3,3h0A3,3,0,0,1,67.21,75.54Z"/><path class="cls-30" d="M77.06,49.39a12.51,12.51,0,1,0-19.72,10.2v8.13H71.77V59.59A12.48,12.48,0,0,0,77.06,49.39Z"/><path class="cls-31" d="M55.15,49.39A12.5,12.5,0,0,1,66.1,37a13.16,13.16,0,0,0-1.55-.1,12.49,12.49,0,0,0-7.21,22.7v8.13h3.1V59.59A12.48,12.48,0,0,1,55.15,49.39Z"/><path class="cls-32" d="M74.7,48.59a6.32,6.32,0,1,1-6.32-6.32A6.32,6.32,0,0,1,74.7,48.59Z"/><rect class="cls-31" x="57.35" y="59.59" width="14.42" height="2.08"/><path class="cls-33" d="M72.32,66H56.78a.68.68,0,0,0-.68.68v1.7a.68.68,0,0,0,.68.69H57a.8.8,0,0,0,0,.15v1.52a.62.62,0,0,0,.61.61h.48a.47.47,0,0,0,0,.17v1.31a.53.53,0,0,0,.53.52h12a.53.53,0,0,0,.52-.52V71.53a.47.47,0,0,0,0-.17h.48a.61.61,0,0,0,.61-.61V69.23a.8.8,0,0,0,0-.15h.25a.68.68,0,0,0,.68-.69v-1.7A.68.68,0,0,0,72.32,66Z"/><path class="cls-34" d="M61.46,72.84V71.53a.47.47,0,0,1,0-.17H61a.61.61,0,0,1-.61-.61V69.23a.4.4,0,0,1,0-.15h-.26a.69.69,0,0,1-.68-.69v-1.7a.69.69,0,0,1,.68-.68h-3.4a.68.68,0,0,0-.68.68v1.7a.68.68,0,0,0,.68.69H57a.8.8,0,0,0,0,.15v1.52a.62.62,0,0,0,.61.61h.48a.47.47,0,0,0,0,.17v1.31a.53.53,0,0,0,.53.52H62A.52.52,0,0,1,61.46,72.84Z"/><rect class="cls-35" x="62.84" y="66.51" width="9.47" height="1.87" rx="0.68" ry="0.68"/><rect class="cls-35" x="63.97" y="69.3" width="7.2" height="1.42" rx="0.52" ry="0.52"/><rect class="cls-35" x="64.98" y="71.56" width="5.19" height="1.03" rx="0.37" ry="0.37"/><path class="cls-31" d="M64.55,34.64h0a.46.46,0,0,1-.46-.45v-8.4a.47.47,0,0,1,.46-.46h0a.47.47,0,0,1,.46.46v8.4A.46.46,0,0,1,64.55,34.64Z"/><path class="cls-31" d="M54.38,38.86h0a.46.46,0,0,1-.65,0l-5.94-5.94a.46.46,0,0,1,0-.65h0a.48.48,0,0,1,.65,0l5.94,5.94A.48.48,0,0,1,54.38,38.86Z"/><path class="cls-31" d="M81.31,65.8h0a.48.48,0,0,1-.65,0l-5.93-5.94a.46.46,0,0,1,0-.65h0a.46.46,0,0,1,.65,0l5.93,5.94A.46.46,0,0,1,81.31,65.8Z"/><path class="cls-31" d="M50.16,49h0a.46.46,0,0,1-.46.46H41.31a.45.45,0,0,1-.46-.46h0a.45.45,0,0,1,.46-.45H49.7A.46.46,0,0,1,50.16,49Z"/><path class="cls-31" d="M88.25,49h0a.45.45,0,0,1-.45.46H79.4a.46.46,0,0,1-.46-.46h0a.46.46,0,0,1,.46-.45h8.4A.45.45,0,0,1,88.25,49Z"/><path class="cls-31" d="M54.38,59.21h0a.48.48,0,0,1,0,.65L48.44,65.8a.48.48,0,0,1-.65,0h0a.46.46,0,0,1,0-.65l5.94-5.94A.46.46,0,0,1,54.38,59.21Z"/><path class="cls-31" d="M81.31,32.27h0a.46.46,0,0,1,0,.65l-5.93,5.94a.46.46,0,0,1-.65,0h0a.46.46,0,0,1,0-.65l5.93-5.94A.48.48,0,0,1,81.31,32.27Z"/><path class="cls-31" d="M47,41.38a.29.29,0,0,0-.38.16.29.29,0,0,0,.15.38l4.11,1.71a.29.29,0,0,0,.23-.53Z"/><path class="cls-31" d="M78.27,54.44a.29.29,0,0,0-.38.15.29.29,0,0,0,.16.38l4.11,1.72a.3.3,0,0,0,.38-.16.29.29,0,0,0-.16-.38Z"/><path class="cls-31" d="M50.81,54.38l-4.12,1.69a.29.29,0,0,0-.15.38.29.29,0,0,0,.38.16L51,54.92a.29.29,0,0,0,.16-.38A.29.29,0,0,0,50.81,54.38Z"/><path class="cls-31" d="M82.19,41.46l-4.12,1.69a.29.29,0,1,0,.22.54L82.41,42a.29.29,0,0,0-.22-.54Z"/><path class="cls-31" d="M71.67,31.21,70,35.31a.29.29,0,0,0,.16.38.28.28,0,0,0,.38-.15l1.71-4.11a.29.29,0,0,0-.15-.38A.29.29,0,0,0,71.67,31.21Z"/><path class="cls-31" d="M57.13,31a.29.29,0,0,0-.15.38l1.69,4.11a.29.29,0,1,0,.54-.22l-1.7-4.11A.29.29,0,0,0,57.13,31Z"/><rect class="cls-9" x="127.99" y="126.69" width="26.55" height="51.46"/><rect class="cls-36" x="127.9" y="126.71" width="2.23" height="51.45"/><rect class="cls-37" x="119.69" y="126.66" width="9.52" height="51.52" rx="0.92" ry="0.92"/><rect class="cls-38" x="119.7" y="134.73" width="9.51" height="1.34"/><rect class="cls-39" x="129.21" y="134.73" width="0.92" height="1.34"/><rect class="cls-40" x="130.13" y="134.73" width="24.41" height="1.34"/><rect class="cls-41" x="124.36" y="138.98" width="2.27" height="35.45" rx="1.05" ry="1.05"/><path class="cls-42" d="M154.54,178.13V134h-8.9a.71.71,0,0,0-.21,0h-8.08a1,1,0,0,0-.89.6.91.91,0,0,0-.08.37v43.17Z"/><rect class="cls-43" x="145.8" y="135.08" width="26.55" height="43.07"/><rect class="cls-44" x="145.71" y="135.1" width="2.23" height="43.06"/><rect class="cls-22" x="137.51" y="135.04" width="9.52" height="43.14" rx="0.92" ry="0.92"/><rect class="cls-31" x="147.83" y="135.08" width="24.53" height="7.05"/><rect class="cls-45" x="146.02" y="135.08" width="1.92" height="7.05"/><path class="cls-30" d="M147,142.13V136a.92.92,0,0,0-.92-.91h-7.68a.92.92,0,0,0-.92.91v6.18Z"/><rect class="cls-30" x="137.51" y="143.11" width="9.51" height="1.34"/><rect class="cls-45" x="147.03" y="143.11" width="0.92" height="1.34"/><rect class="cls-31" x="147.94" y="143.11" width="24.41" height="1.34"/><rect class="cls-46" x="142.05" y="148.59" width="2.62" height="24.36" rx="1.05" ry="1.05"/><rect class="cls-31" x="136.74" y="147.67" width="11.26" height="2.23" rx="1.05" ry="1.05"/><rect class="cls-31" x="118.72" y="130.3" width="12.01" height="2.23" rx="1.08" ry="1.08"/><rect class="cls-31" x="118.72" y="172.21" width="12.01" height="2.23" rx="1.08" ry="1.08"/><rect class="cls-31" x="136.74" y="172.3" width="11.26" height="2.23" rx="1.05" ry="1.05"/><path class="cls-47" d="M160.61,94.44c-1.16,1-1.32,2-.79,2.61s1.54.61,2.71-.39A6.33,6.33,0,0,0,164,93.42,6.28,6.28,0,0,0,160.61,94.44Z"/><path class="cls-48" d="M164,93.42h0a6.33,6.33,0,0,1-1.51,3.24c-1.17,1-2.18,1-2.71.39h0Z"/><path class="cls-49" d="M160.22,99.94h-.05a.32.32,0,0,1-.26-.35c.28-2-1.75-3.68-1.77-3.69a.31.31,0,0,1,.39-.48c.1.08,2.31,1.93,2,4.26A.3.3,0,0,1,160.22,99.94Z"/><path class="cls-22" d="M153.21,100a4.69,4.69,0,0,1,3.28-2.24,4,4,0,0,1,1.58.12,6.89,6.89,0,0,1,1.51.63l.36.2a.73.73,0,0,0,.32.12.86.86,0,0,0,.54-.22,6,6,0,0,1,1-.51,4.73,4.73,0,0,1,1.48-.37,3.85,3.85,0,0,1,1,.06,4.92,4.92,0,0,1,3.47,3.11,9.15,9.15,0,0,1,.08,4.62,11.74,11.74,0,0,1-2.53,5.25,3.13,3.13,0,0,1-2.31,1.31c-1,0-1.64-.74-2.67-.75s-1.58.6-2.28.73a3.1,3.1,0,0,1-2.76-1.37,12,12,0,0,1-2.46-5.14,9.17,9.17,0,0,1,.1-4.74A5.87,5.87,0,0,1,153.21,100Z"/><path class="cls-50" d="M153.75,101.35a5,5,0,0,1,.32-.71,4.13,4.13,0,0,1,2.88-2,3.61,3.61,0,0,1,1.39.11,5.74,5.74,0,0,1,1.33.55l.31.18a.73.73,0,0,0,.28.1h0v11h0c-.85,0-1.39.53-2,.64a2.72,2.72,0,0,1-2.43-1.21,10.62,10.62,0,0,1-2.16-4.51A8.07,8.07,0,0,1,153.75,101.35Z"/><path class="cls-46" d="M166.68,103.7a.35.35,0,0,1-.35-.34c-.13-3.06-2.19-3.92-2.28-4a.36.36,0,0,1-.2-.46.35.35,0,0,1,.45-.2,4.91,4.91,0,0,1,2.73,4.58.35.35,0,0,1-.33.37Z"/><path class="cls-46" d="M166.24,107h-.11a.36.36,0,0,1-.22-.45,7.62,7.62,0,0,0,.42-2.21.35.35,0,0,1,.7,0,8.59,8.59,0,0,1-.46,2.44A.34.34,0,0,1,166.24,107Z"/><path class="cls-47" d="M149.65,94.44c-1.17,1-1.32,2-.79,2.61s1.53.61,2.7-.39a6.29,6.29,0,0,0,1.52-3.24A6.26,6.26,0,0,0,149.65,94.44Z"/><path class="cls-48" d="M153.08,93.42h0a6.29,6.29,0,0,1-1.52,3.24c-1.17,1-2.18,1-2.7.39h0Z"/><path class="cls-49" d="M149.25,99.94h0a.31.31,0,0,1-.26-.35c.27-2-1.75-3.68-1.77-3.69a.31.31,0,0,1-.05-.43.3.3,0,0,1,.43,0c.1.08,2.32,1.93,2,4.26A.3.3,0,0,1,149.25,99.94Z"/><path class="cls-22" d="M142.25,100a4.69,4.69,0,0,1,3.28-2.24,4,4,0,0,1,1.58.12,6.89,6.89,0,0,1,1.51.63l.35.2a.78.78,0,0,0,.32.12.91.91,0,0,0,.55-.22,5.5,5.5,0,0,1,1-.51,4.73,4.73,0,0,1,1.48-.37,4,4,0,0,1,1,.06,4.9,4.9,0,0,1,3.46,3.11,9.26,9.26,0,0,1,.09,4.62,11.87,11.87,0,0,1-2.54,5.25,3.13,3.13,0,0,1-2.31,1.31c-1,0-1.64-.74-2.66-.75s-1.59.6-2.29.73a3.11,3.11,0,0,1-2.76-1.37,12,12,0,0,1-2.46-5.14,9.17,9.17,0,0,1,.1-4.74A4.92,4.92,0,0,1,142.25,100Z"/><path class="cls-30" d="M142.63,100.33a4.43,4.43,0,0,1,3.1-2.11,3.8,3.8,0,0,1,1.5.11,6.76,6.76,0,0,1,1.42.59l.34.2a.77.77,0,0,0,.3.11.88.88,0,0,0,.52-.21,6.12,6.12,0,0,1,.91-.49,4.42,4.42,0,0,1,1.4-.34,3.48,3.48,0,0,1,.91,0,4.63,4.63,0,0,1,3.28,2.94,8.77,8.77,0,0,1,.08,4.38,11.05,11.05,0,0,1-2.4,5,3,3,0,0,1-2.18,1.24c-1,0-1.55-.7-2.52-.71s-1.5.57-2.16.7a2.94,2.94,0,0,1-2.61-1.31,11.21,11.21,0,0,1-2.33-4.86,8.72,8.72,0,0,1,.09-4.48A5.89,5.89,0,0,1,142.63,100.33Z"/><path class="cls-31" d="M142.28,101.1a5.89,5.89,0,0,1,.35-.77,4.43,4.43,0,0,1,3.1-2.11,3.8,3.8,0,0,1,1.5.11,6.76,6.76,0,0,1,1.42.59l.34.2a.77.77,0,0,0,.3.11h0v11.82h0c-.91,0-1.5.57-2.16.7a2.94,2.94,0,0,1-2.61-1.31,11.21,11.21,0,0,1-2.33-4.86A8.72,8.72,0,0,1,142.28,101.1Z"/><path class="cls-45" d="M151.53,102.88a1.86,1.86,0,0,0-2.22.93,1.89,1.89,0,0,0-2.27-.93c-.8.4-1,1.64-.45,2.76s1.67,1.69,2.48,1.29a1.64,1.64,0,0,0,.22-.14l.21.14c.79.39,1.89-.19,2.45-1.31S152.32,103.27,151.53,102.88Z"/><path class="cls-51" d="M148.84,105c.1.45,0,.72-.22.76s-.42-.14-.52-.59a2,2,0,0,1,.16-1A2,2,0,0,1,148.84,105Z"/><path class="cls-51" d="M149.7,105c-.1.45,0,.72.23.76s.42-.14.52-.59a2,2,0,0,0-.16-1A2,2,0,0,0,149.7,105Z"/><rect class="cls-18" x="132.03" y="112.05" width="47.37" height="7.43" rx="1.45" ry="1.45"/><rect class="cls-19" x="138.15" y="111.87" width="1.31" height="7.79" rx="0.3" ry="0.3"/><rect class="cls-19" x="140.74" y="111.87" width="1.31" height="7.79" rx="0.3" ry="0.3"/><rect class="cls-19" x="169.37" y="111.87" width="1.31" height="7.79" rx="0.3" ry="0.3"/><rect class="cls-19" x="171.96" y="111.87" width="1.31" height="7.79" rx="0.3" ry="0.3"/><rect class="cls-19" x="144.52" y="113.14" width="22.39" height="5.25"/><path class="cls-11" d="M172.77,120H127.14v.31a3.25,3.25,0,0,1,1.52,2.75v.67a3.25,3.25,0,0,1-1.52,2.76v.3H172.8a4.65,4.65,0,0,1,.53-.63,3.39,3.39,0,0,1,.34-.31v-4.65A5.1,5.1,0,0,1,172.77,120Z"/><path class="cls-37" d="M171.74,120.57H127a.39.39,0,0,1-.38-.39v-.34a.39.39,0,0,1,.38-.39h44.77a2.68,2.68,0,0,1,2.68,2.67v2.45a2.67,2.67,0,0,1-2.68,2.67H127a.38.38,0,0,1-.38-.38v-.34a.39.39,0,0,1,.38-.39h44.77a1.56,1.56,0,0,0,1.56-1.56v-2.45A1.55,1.55,0,0,0,171.74,120.57Z"/><path class="cls-11" d="M136.77,127.73h45.62v.3a3.27,3.27,0,0,0-1.52,2.76v.67a3.27,3.27,0,0,0,1.52,2.75v.31H136.73a4.06,4.06,0,0,0-.52-.63c-.11-.11-.22-.22-.34-.32v-4.65A5.25,5.25,0,0,0,136.77,127.73Z"/><path class="cls-22" d="M137.79,128.34h44.77A.39.39,0,0,0,183,128v-.34a.38.38,0,0,0-.39-.38H137.79a2.67,2.67,0,0,0-2.67,2.67v2.45a2.68,2.68,0,0,0,2.67,2.67h44.77a.39.39,0,0,0,.39-.39v-.34a.39.39,0,0,0-.39-.39H137.79a1.55,1.55,0,0,1-1.56-1.55V129.9A1.56,1.56,0,0,1,137.79,128.34Z"/><rect class="cls-52" x="55.11" y="164.48" width="7.89" height="16.04" rx="2.07" ry="2.07"/><rect class="cls-53" x="57.61" y="164.48" width="4.92" height="16.04"/><path class="cls-54" d="M57.64,171.68h0a.15.15,0,0,1-.15-.15v-6.95a.15.15,0,0,1,.15-.15h0a.15.15,0,0,1,.15.15v6.95A.15.15,0,0,1,57.64,171.68Z"/><path class="cls-54" d="M57.9,171.79v-.16a.21.21,0,0,0-.22-.21H57.6a.21.21,0,0,0-.22.21v.16a.36.36,0,0,0-.23.34v.78a.37.37,0,0,0,.37.37h.24a.37.37,0,0,0,.37-.37v-.78A.36.36,0,0,0,57.9,171.79Zm.08,1.12a.22.22,0,0,1-.22.22h-.24a.22.22,0,0,1-.22-.22v-.78a.2.2,0,0,1,.09-.17.21.21,0,0,0,.21.21h.08a.21.21,0,0,0,.21-.21.2.2,0,0,1,.09.17Z"/><rect class="cls-52" x="79.35" y="164.48" width="7.89" height="16.04" rx="2.07" ry="2.07" transform="translate(166.59 345) rotate(180)"/><rect class="cls-53" x="79.83" y="164.48" width="4.92" height="16.04" transform="translate(164.57 345) rotate(180)"/><path class="cls-54" d="M84.72,171.68h0a.15.15,0,0,0,.15-.15v-6.95a.15.15,0,0,0-.15-.15h0a.15.15,0,0,0-.15.15v6.95A.15.15,0,0,0,84.72,171.68Z"/><path class="cls-54" d="M84.22,172.13v.78a.38.38,0,0,0,.38.37h.24a.38.38,0,0,0,.37-.37v-.78a.36.36,0,0,0-.24-.34v-.16a.21.21,0,0,0-.21-.21h-.08a.21.21,0,0,0-.22.21v.16A.36.36,0,0,0,84.22,172.13Zm.15,0a.22.22,0,0,1,.09-.17.22.22,0,0,0,.22.21h.08A.22.22,0,0,0,85,172a.22.22,0,0,1,.09.17v.78a.22.22,0,0,1-.22.22H84.6a.22.22,0,0,1-.23-.22Z"/><path class="cls-54" d="M73.93,157.92h-5.5a2.19,2.19,0,0,1-2.19-2.19v-4a2.2,2.2,0,0,1,2.19-2.19h5.5a2.2,2.2,0,0,1,2.19,2.19v4A2.19,2.19,0,0,1,73.93,157.92Zm-5.5-6.83a.64.64,0,0,0-.64.63v4a.64.64,0,0,0,.64.64h5.5a.64.64,0,0,0,.64-.64v-4a.64.64,0,0,0-.64-.63Z"/><rect class="cls-55" x="66.24" y="152.85" width="1.55" height="1.29"/><rect class="cls-55" x="74.57" y="152.85" width="1.55" height="1.29"/><rect class="cls-52" x="59.45" y="154.38" width="23.46" height="28.92" rx="3.54" ry="3.54"/><path class="cls-53" d="M83,157a3.71,3.71,0,0,0-3.32-2H62.73a3.9,3.9,0,0,0-3.34,2v11.84a3.79,3.79,0,0,0,3.34,1.88h16.9A3.77,3.77,0,0,0,83,168.62Z"/><rect class="cls-23" x="59.1" y="153.69" width="24.15" height="15.7" rx="3.62" ry="3.62"/><rect class="cls-56" x="60.19" y="155.03" width="13.33" height="11.77" rx="3.62" ry="3.62"/><path class="cls-57" d="M77.13,161.84H65.35a.41.41,0,0,1-.41-.42h0a.41.41,0,0,1,.41-.42H77.13a.41.41,0,0,1,.41.42h0A.41.41,0,0,1,77.13,161.84Z"/><path class="cls-58" d="M77.13,161.94H65.35a.52.52,0,0,1,0-1H77.13a.52.52,0,0,1,0,1Zm-11.78-.83a.31.31,0,0,0,0,.62H77.13a.31.31,0,1,0,0-.62Z"/><path class="cls-58" d="M77.87,161.72v-.19a.28.28,0,0,0-.27-.28h-.11a.28.28,0,0,0-.27.28v.19a.48.48,0,0,0-.3.44v1a.47.47,0,0,0,.47.47h.31a.47.47,0,0,0,.47-.47v-1A.48.48,0,0,0,77.87,161.72Zm.11,1.42a.28.28,0,0,1-.28.28h-.31a.28.28,0,0,1-.28-.28v-1a.3.3,0,0,1,.11-.22.28.28,0,0,0,.27.26h.11a.28.28,0,0,0,.27-.26.3.3,0,0,1,.11.22Z"/><path class="cls-54" d="M62.59,172.11h0a1.24,1.24,0,0,1-1.23-1.23V154.19A1.24,1.24,0,0,1,62.59,153h0a1.23,1.23,0,0,1,1.23,1.23v16.69A1.23,1.23,0,0,1,62.59,172.11Z"/><path class="cls-55" d="M63.17,158.69a.58.58,0,1,1-1.15,0,.58.58,0,0,1,1.15,0Z"/><path class="cls-55" d="M63.17,156.17a.58.58,0,0,1-1.15,0,.58.58,0,1,1,1.15,0Z"/><circle class="cls-55" cx="62.59" cy="161.22" r="0.58"/><rect class="cls-55" x="61.37" y="168.54" width="2.46" height="0.92"/><rect class="cls-55" x="61.4" y="165.53" width="2.46" height="0.92"/><path class="cls-30" d="M63.61,165.25h-2a.71.71,0,0,0-.71.72v2.19a.71.71,0,0,0,.71.72h2a.71.71,0,0,0,.71-.72V166A.71.71,0,0,0,63.61,165.25Zm.2,2.91a.2.2,0,0,1-.2.2h-2a.19.19,0,0,1-.19-.2V166a.19.19,0,0,1,.19-.2h.75v1.16a.23.23,0,0,0,.23.24.24.24,0,0,0,.24-.24v-1.16h.79a.2.2,0,0,1,.2.2Z"/><path class="cls-54" d="M79.74,172.11h0a1.23,1.23,0,0,1-1.23-1.23V154.19A1.23,1.23,0,0,1,79.74,153h0A1.24,1.24,0,0,1,81,154.19v16.69A1.24,1.24,0,0,1,79.74,172.11Z"/><path class="cls-55" d="M80.31,158.69a.58.58,0,1,1-1.15,0,.58.58,0,0,1,1.15,0Z"/><path class="cls-55" d="M80.31,156.17a.58.58,0,0,1-1.15,0,.58.58,0,1,1,1.15,0Z"/><circle class="cls-55" cx="79.74" cy="161.22" r="0.58"/><rect class="cls-55" x="78.51" y="168.54" width="2.46" height="0.92"/><rect class="cls-55" x="78.54" y="165.53" width="2.46" height="0.92"/><path class="cls-30" d="M80.76,165.25h-2a.71.71,0,0,0-.7.72v2.19a.71.71,0,0,0,.7.72h2a.71.71,0,0,0,.7-.72V166A.71.71,0,0,0,80.76,165.25Zm.19,2.91a.2.2,0,0,1-.19.2h-2a.2.2,0,0,1-.19-.2V166a.2.2,0,0,1,.19-.2h.75v1.16a.24.24,0,0,0,.24.24.23.23,0,0,0,.23-.24v-1.16h.8a.2.2,0,0,1,.19.2Z"/><path class="cls-54" d="M79.48,173.21H62.87A1.85,1.85,0,0,0,61,175.05v1.14H81.32v-1.14A1.84,1.84,0,0,0,79.48,173.21Z"/><rect class="cls-23" x="61.47" y="173.66" width="19.41" height="7.89" rx="1.55" ry="1.55"/><path class="cls-54" d="M81.41,176.48v-.2a.28.28,0,0,0-.28-.27H81a.28.28,0,0,0-.27.27v.2a.48.48,0,0,0-.3.44v1a.47.47,0,0,0,.47.47h.31a.47.47,0,0,0,.46-.47v-1A.47.47,0,0,0,81.41,176.48Zm.11,1.42a.28.28,0,0,1-.28.28h-.31a.28.28,0,0,1-.28-.28v-1a.27.27,0,0,1,.11-.22A.27.27,0,0,0,81,177h.1a.27.27,0,0,0,.27-.26.27.27,0,0,1,.12.22Z"/><rect class="cls-56" x="62.49" y="174.63" width="9.38" height="4.98" rx="1.55" ry="1.55"/><path class="cls-59" d="M73.67,150.37h-5a.29.29,0,0,1-.29-.29h0a.29.29,0,0,1,.29-.29h5a.29.29,0,0,1,.29.29h0A.29.29,0,0,1,73.67,150.37Z"/><rect class="cls-11" x="133.44" y="32.44" width="34.15" height="46.34"/><rect class="cls-16" x="138" y="37.63" width="25.01" height="4.92"/><rect class="cls-60" x="138" y="41.97" width="25.01" height="1.25"/><rect class="cls-16" x="138" y="46.3" width="25.01" height="1.25"/><rect class="cls-16" x="138" y="50.64" width="25.01" height="1.25"/><rect class="cls-16" x="138" y="54.98" width="25.01" height="1.25"/><rect class="cls-16" x="138" y="59.32" width="25.01" height="1.25"/><rect class="cls-16" x="138" y="63.66" width="11.2" height="1.25"/><rect class="cls-16" x="138" y="68" width="11.2" height="1.25"/><rect class="cls-16" x="138" y="72.33" width="11.2" height="1.25"/><polygon class="cls-50" points="155.64 89.42 153.66 85.36 149.07 85.68 156.41 72.78 162.99 76.52 155.64 89.42"/><polygon class="cls-50" points="166.84 89.42 168.82 85.36 173.41 85.68 166.06 72.78 159.49 76.52 166.84 89.42"/><path class="cls-22" d="M171.86,73c0-.75-1.18-1.39-2.78-1.57,1.4-.78,2.25-1.83,1.95-2.52s-1.57-.83-3.07-.41c.95-1.24,1.31-2.48.79-3s-1.82-.15-3.08.85c.44-1.55.3-2.88-.4-3.17s-1.7.53-2.47,1.89c-.19-1.55-.82-2.68-1.56-2.68s-1.39,1.18-1.58,2.77c-.78-1.4-1.82-2.24-2.52-2s-.82,1.57-.41,3.08c-1.23-1-2.47-1.32-3-.79s-.15,1.81.85,3.07c-1.55-.43-2.88-.29-3.17.41s.53,1.69,1.89,2.46c-1.55.2-2.68.82-2.68,1.56s1.18,1.4,2.77,1.58c-1.4.78-2.24,1.82-1.95,2.52s1.58.83,3.08.41c-1,1.24-1.31,2.48-.79,3s1.82.15,3.08-.85c-.44,1.55-.3,2.88.4,3.17s1.69-.53,2.46-1.89c.2,1.55.83,2.68,1.57,2.68s1.39-1.18,1.57-2.77c.79,1.4,1.83,2.24,2.53,2s.82-1.57.4-3.08c1.24,1,2.48,1.32,3,.79s.15-1.81-.85-3.07c1.54.43,2.88.29,3.16-.41s-.53-1.69-1.88-2.46C170.72,74.32,171.86,73.7,171.86,73ZM160.54,76.5a1,1,0,0,0-.51-.6,1,1,0,0,0-.81.08,1,1,0,0,0-.23-.77.94.94,0,0,0-.75-.24,1,1,0,0,0,.06-.79,1,1,0,0,0-.63-.51,1,1,0,0,0,.39-.72,1,1,0,0,0-.37-.69,1,1,0,0,0,.6-.51,1,1,0,0,0-.08-.81.87.87,0,0,0,1-1,.85.85,0,0,0,1.29-.56,1,1,0,0,0,.72.38,1,1,0,0,0,.7-.36.86.86,0,0,0,1.31.52.86.86,0,0,0,1,1,1,1,0,0,0-.07.79,1,1,0,0,0,.63.51,1,1,0,0,0-.38.71,1,1,0,0,0,.36.7,1,1,0,0,0-.6.51,1,1,0,0,0,.08.81.94.94,0,0,0-.77.24,1,1,0,0,0-.24.75,1,1,0,0,0-.78-.07,1,1,0,0,0-.52.63.86.86,0,0,0-1.41,0Z"/><path class="cls-50" d="M168.37,73a7.13,7.13,0,1,1-7.13-7.12A7.13,7.13,0,0,1,168.37,73Z"/><path class="cls-30" d="M167.88,73a6.65,6.65,0,1,1-6.64-6.64A6.64,6.64,0,0,1,167.88,73Z"/><path class="cls-31" d="M166.89,73a5.65,5.65,0,1,1-5.65-5.64A5.65,5.65,0,0,1,166.89,73Z"/><polygon class="cls-30" points="162.16 75.89 162.16 68.93 159.24 68.93 159.24 70.07 160.8 70.07 160.8 75.89 159.74 75.89 159.74 76.98 163.23 76.98 163.23 75.89 162.16 75.89"/></g></g></g></g></svg>