
<svg width="490px" height="465px" viewBox="0 0 490 465" version="1.1" xmlns="http://www.w3.org/2000/svg" xmlns:xlink="http://www.w3.org/1999/xlink">
    <defs>
        <polygon id="path-1" points="0 0.508235368 142.730858 0.508235368 142.730858 116.217433 0 116.217433"></polygon>
        <path d="M21.2321814,12.084073 C-6.42353586,28.1164015 -6.28294937,54.1929416 21.5471435,70.3264453 L21.5471435,70.3264453 C49.3778397,86.4599489 94.3588819,86.5417372 122.015203,70.5088029 L122.015203,70.5088029 C149.671523,54.4758686 149.530333,28.3999343 121.699637,12.2658248 L121.699637,12.2658248 C107.726667,4.16575182 89.4335274,0.112080292 71.1771941,0.112080292 L71.1771941,0.112080292 C53.0717046,0.112686131 35.0030211,4.10032117 21.2321814,12.084073" id="path-3"></path>
        <polygon id="path-5" points="2.22417582 17.4085545 0.197032967 121.636416 54.5793407 96.1770693 52.8199451 0.151594059"></polygon>
        <path d="M43.7295385,29.9436735 C79.6162,30.6471429 78.5503077,6.03857143 78.5503077,6.03857143 L78.5503077,6.03857143 L0.425384615,0.198979592 C0.425384615,0.198979592 7.84409231,29.2408163 43.7295385,29.9436735" id="path-7"></path>
        <path d="M0.111166667,10.7609344 C0.276104167,19.8071311 6.84339583,30.7142459 14.779125,35.1208852 L14.779125,35.1208852 C22.7148542,39.5287377 29.0138958,35.768082 28.8489583,26.7212787 L28.8489583,26.7212787 C28.6840208,17.6744754 22.1167292,6.76796721 14.1816042,2.36011475 L14.1816042,2.36011475 C11.9274583,1.10878689 9.805625,0.51557377 7.92666667,0.516180328 L7.92666667,0.516180328 C3.18939583,0.516180328 -0.00664583333,4.28411475 0.111166667,10.7609344" id="path-9"></path>
        <polygon id="path-11" points="0.513818543 0.449481481 90.6363616 0.449481481 90.6363616 81.7937397 0.513818543 81.7937397"></polygon>
        <path d="M0.050962963,21.628973 C16.4764444,15.576 15.8423704,0.980486486 15.8423704,0.980486486 L15.8423704,0.980486486 L5.648,0.221189189 C4.08533333,7.30459459 2.23466667,14.4444865 0.050962963,21.628973" id="path-13"></path>
        <path d="M0.25492053,44.1723642 C-0.334470199,69.1099801 19.4016821,89.804947 44.3374901,90.3967483 L44.3374901,90.3967483 C69.2720927,90.987947 89.9640464,71.2511921 90.5522318,46.3141788 L90.5522318,46.3141788 C91.1410199,21.3765629 71.4048675,0.681596026 46.4702649,0.090397351 L46.4702649,0.090397351 C46.104457,0.0813576159 45.7422649,0.0771390728 45.3788675,0.0771390728 L45.3788675,0.0771390728 C20.9348212,0.0783443709 0.835271523,19.6005563 0.25492053,44.1723642" id="path-15"></path>
        <path d="M13.846,5.47743396 C9.16817391,13.3681509 6.54165217,17.2522264 0.826608696,24.4286792 L0.826608696,24.4286792 C-2.09756522,28.0996226 5.49347826,33.9803774 8.414,30.3130566 L8.414,30.3130566 C14.5283478,22.6342642 22.9837391,14.1554717 27.4436522,5.4170566 L27.4436522,5.4170566 L27.7212174,3.63954717 C28.7127826,1.69720755 26.6073043,0.583245283 23.6892174,0.583245283 L23.6892174,0.583245283 C20.320087,0.583849057 15.8668696,2.0685283 13.846,5.47743396" id="path-17"></path>
        <path d="M10.7615789,2.93432143 C9.92328947,4.73267857 6.99502632,10.3044286 5.97334211,12.24425 L5.97334211,12.24425 C4.90565789,13.2454286 0.107131579,18.1766429 0.521736842,25.5734643 L0.521736842,25.5734643 C0.7705,30.0098571 2.95368421,33.3363929 4.93773684,35.4765714 L4.93773684,35.4765714 C5.01884211,41.0319286 5.1175,46.01475 5.21918421,47.0396071 L5.21918421,47.0396071 C5.21918421,47.0396071 15.9238684,55.4594643 30.1856842,47.4870714 L30.1856842,47.4870714 L36.5355,30.3996429 L39.7488421,25.5916786 C40.5447632,25.1326786 43.3041579,25.9401786 43.3041579,25.9401786 L43.3041579,25.9401786 C43.9796316,21.2651786 48.6867632,20.0539286 42.2407105,12.2903929 L42.2407105,12.2903929 C41.2650263,11.1155714 25.8622895,3.08428571 17.5405263,1.326 L17.5405263,1.326 C15.5964211,0.915571429 14.3568421,0.40375 13.3987105,0.40375 L13.3987105,0.40375 C12.3691579,0.40375 11.6652368,0.9945 10.7615789,2.93432143" id="path-19"></path>
        <path d="M2.2542,13.5275556 C10.236,19.7272778 10.8996,22.2273333 15.8778,31.2742222 L15.8778,31.2742222 C18.2628,35.6094444 25.6248,29.5588333 23.247,25.2370556 L23.247,25.2370556 C17.9712,15.6487222 12.2166,6.33905556 3.1962,0.602555556 L3.1962,0.602555556 C3.111,0.571388889 3.0252,0.556111111 2.9388,0.556111111 L2.9388,0.556111111 C0.7398,0.556722222 -1.9896,10.2318333 2.2542,13.5275556" id="path-21"></path>
        <path d="M22.5042857,2.93809917 C16.4176531,7.15158678 8.24555102,16.1124876 2.6122551,21.2840248 L2.6122551,21.2840248 C0.637561224,22.7476446 -0.095122449,25.074595 1.10113265,26.0772893 L1.10113265,26.0772893 L4.55082653,30.3360248 C5.53817347,31.1637603 8.32441837,29.2102562 9.84276531,27.8588512 L9.84276531,27.8588512 L18.0708571,20.6101322 C19.9702959,39.214876 16.7030204,45.2672397 17.3472041,52.7934793 L17.3472041,52.7934793 C17.6512347,56.3511736 19.0949286,59.6904711 22.3543776,61.1323719 L22.3543776,61.1323719 C29.8558061,64.451157 43.1723469,70.2682314 47.2529796,71.5623223 L47.2529796,71.5623223 C54.4810816,74.6940826 57.8904388,70.9747025 57.8904388,70.9747025 L57.8904388,70.9747025 C59.3552041,70.0407851 57.4912857,63.3042727 57.4912857,63.3042727 L57.4912857,63.3042727 C54.9079286,45.0796116 55.5569286,37.7084215 55.2342347,22.7874628 L55.2342347,22.7874628 C55.2842041,22.3253306 52.4130714,9.68185124 52.4130714,9.68185124 L52.4130714,9.68185124 C49.1331531,7.92381818 42.4444796,5.11180992 38.7949082,3.0967686 L38.7949082,3.0967686 C35.8912653,1.49318182 32.5523469,0.444033058 29.441602,0.444636364 L29.441602,0.444636364 C26.8389796,0.444636364 24.395898,1.17946281 22.5042857,2.93809917" id="path-23"></path>
        <path d="M3.84388889,0.941283019 C1.35177778,2.2514717 -1.67872222,7.33464151 1.56077778,12.4486038 L1.56077778,12.4486038 L13.4554444,31.8732075 L21.747,26.0365283 L8.03916667,2.74898113 C6.8805,0.886943396 5.85627778,0.408754717 5.11011111,0.408754717 L5.11011111,0.408754717 C4.32238889,0.408754717 3.84388889,0.941283019 3.84388889,0.941283019" id="path-25"></path>
        <path d="M27.8430175,1.30375 C25.5721754,2.055 22.7567368,2.80625 19.2016491,1.796875 L19.2016491,1.796875 C16.8812982,1.13875 14.7810526,1.655 13.087614,2.17 L13.087614,2.17 C11.8039649,2.56125 10.7541404,2.951875 10.0198596,2.830625 L10.0198596,2.830625 C7.13224561,2.35375 8.45884211,2.329375 6.15459649,1.534375 L6.15459649,1.534375 C3.13992982,0.495 0.896526316,2.281875 0.896526316,2.281875 L0.896526316,2.281875 L0.363859649,4.3325 L29.9927719,14.7175 L33.5317544,1.07875 C32.9698596,0.529375 32.3477193,0.3225 31.6504211,0.3225 L31.6504211,0.3225 C30.5773333,0.3225 29.3264912,0.813125 27.8430175,1.30375" id="path-27"></path>
    </defs>
    <g id="Welcome" stroke="none" stroke-width="1" fill="none" fill-rule="evenodd">
        <g id="Home" transform="translate(-815.000000, -1678.000000)">
            <g id="Group-399" transform="translate(815.000000, 1678.000000)">
                <g id="Group-38" transform="translate(0.000000, 41.000000)">
                    <path d="M251.512984,240.22715 C164.739258,240.22715 94.1433662,281.311601 94.1433662,331.81115 C94.1433662,382.310699 164.739258,423.39515 251.512984,423.39515 C338.28671,423.39515 408.881997,382.310699 408.881997,331.81115 C408.881997,281.311601 338.28671,240.22715 251.512984,240.22715 M251.512984,424 C209.345086,424 169.695596,414.427641 139.869226,397.04606 C109.992634,379.634237 93.5382707,356.467264 93.5382707,331.81115 C93.5382707,307.155036 109.992634,283.988063 139.869226,266.57624 C169.695596,249.194659 209.344481,239.6223 251.512984,239.6223 C293.680882,239.6223 333.330373,249.194659 363.156137,266.57624 C393.033334,283.988063 409.487092,307.155036 409.487092,331.81115 C409.487092,356.467264 393.033334,379.634237 363.156137,397.04606 C333.330373,414.427641 293.680882,424 251.512984,424" id="Fill-1" fill="#8667BF"></path>
                    <path d="M246.868392,292.160375 C188.238264,292.160375 140.539188,315.467069 140.539188,344.114589 C140.539188,372.762715 188.238264,396.069408 246.868392,396.069408 C305.499124,396.069408 353.198201,372.762715 353.198201,344.114589 C353.198201,315.467069 305.499124,292.160375 246.868392,292.160375 M246.868392,396.623451 C187.932691,396.623451 139.98492,373.068769 139.98492,344.114589 C139.98492,315.161015 187.932691,291.606333 246.868392,291.606333 C305.804092,291.606333 353.752468,315.161015 353.752468,344.114589 C353.752468,373.068769 305.804092,396.623451 246.868392,396.623451" id="Fill-3" fill="#8667BF"></path>
                    <path d="M469.585484,226.580822 C467.850675,222.208359 465.735261,218.082676 463.297936,214.219498 L459.030803,192.017866 L459.028987,192.018471 C462.561535,171.846111 460.648223,150.274128 452.358414,129.380183 C441.810389,102.792782 422.686949,81.716776 399.423446,68.2116805 C374.674433,22.1977004 332.352236,-16.5683595 261.448955,7.7103281 C237.337108,15.9665335 215.014529,25.413689 195.652076,34.5402739 C180.974274,25.1765877 162.438382,22.2890328 145.242777,28.3018488 C117.533637,37.9909444 103.292713,67.2959372 111.919561,95.1916291 C112.360675,96.6172611 112.859274,98.0398688 113.420803,99.4552183 C113.788701,100.381849 114.178382,101.293963 114.588637,102.19277 C123.688064,128.020479 120.383032,145.29984 100.488096,165.493974 C99.5151019,166.385524 98.5802293,167.31034 97.6828726,168.266003 C97.6774268,168.270842 97.672586,168.27568 97.6677452,168.280519 L97.6671401,168.280519 L97.6677452,168.281729 C83.8782229,182.978984 79.1330637,204.948959 87.3054841,225.547738 C98.8561529,254.660388 150.853828,273.47002 179.979497,263.286157 C179.979497,263.286157 192.859561,277.253358 245.935516,241.754094 C246.808669,241.169809 238.265325,220.839583 239.163892,220.277073 C259.779497,257.586653 298.390038,281.242345 339.355611,283.968405 C357.20351,314.582899 395.025006,329.572297 428.806885,317.759572 C466.129783,304.708719 484.386726,263.886168 469.585484,226.580822" id="Fill-5" fill="#32CAF0"></path>
                    <path d="M74.7990669,218.723092 L74.1376975,218.503531 C71.9048949,217.760775 70.6856274,215.326858 71.4286847,213.094355 L75.616551,200.509842 C76.3590032,198.27734 78.7939076,197.059171 81.0267102,197.801323 L81.6880796,198.020883 C83.9208822,198.763639 85.1401497,201.196952 84.3976975,203.429454 L82.1515828,216.114373 C81.4091306,218.34627 77.0318694,219.465848 74.7990669,218.723092" id="Fill-7" fill="#F09A82"></path>
                    <path d="M84.730258,201.211952 C84.2921688,207.795142 80.0595255,210.536323 75.2756401,207.334851 C70.4917548,204.133379 69.3438885,195.919513 69.7813726,189.335718 C70.2194618,182.752528 72.0777102,180.293207 76.8615955,183.49468 C81.6454809,186.696152 85.1683471,194.628157 84.730258,201.211952" id="Fill-9" fill="#F09A82"></path>
                    <path d="M92.4644076,199.206027 C91.3219873,205.703933 84.7996624,208.70157 80.3879108,205.005331 C75.9755541,201.309091 73.3252357,193.043813 74.4676561,186.545907 C75.6100764,180.047396 80.1131975,177.776184 84.524949,181.473028 C88.9373057,185.169268 93.606828,192.707516 92.4644076,199.206027" id="Fill-11" fill="#FFC2B0"></path>
                    <path d="M87.8555764,205.828653 C85.4878376,207.037144 82.6584108,206.907101 80.3874873,205.005452 C75.9757357,201.308607 73.3248121,193.043934 74.4678376,186.546028 C75.610258,180.047517 74.0715,179.318673 78.2194299,183.309474 C79.3116274,184.360099 76.4731242,201.219089 87.8555764,205.828653" id="Fill-13" fill="#F09A82"></path>
                    <path d="M70.6783662,201.809726 C70.6783662,201.809726 72.7356911,207.019905 78.0526656,206.539049 C84.1798631,205.985007 81.3885573,195.738844 87.3045764,193.984173 C95.3033344,191.611346 93.4275382,183.851118 90.4680159,180.970821 C87.5084936,178.091129 83.0997675,178.855055 77.6641943,179.826445 C71.9139713,180.854085 64.5318057,182.564601 70.6783662,201.809726" id="Fill-15" fill="#4A148C"></path>
                    <path d="M88.4214013,196.806102 C88.1436624,198.385971 86.6369745,199.441435 85.056465,199.163808 C83.4759554,198.886182 82.4200637,197.380105 82.6978025,195.800236 C82.9755414,194.220972 84.4816242,193.164299 86.0627389,193.441925 C87.6432484,193.719551 88.6991401,195.226233 88.4214013,196.806102" id="Fill-17" fill="#FFC2B0"></path>
                    <path d="M86.6161592,198.620653 L86.6161592,198.620653 C86.0830701,198.613395 85.652242,198.171854 85.6595032,197.638981 L84.8559363,191.292892 C84.8625924,190.760019 86.1786752,191.269303 86.7117643,191.275352 C87.2448535,191.28261 88.8096306,191.027968 88.8029745,191.560841 L87.5982293,197.664385 C87.5909682,198.197258 87.1492484,198.627306 86.6161592,198.620653" id="Fill-19" fill="#4A148C"></path>
                    <path d="M79.5825287,206.128719 C77.8755541,207.172086 75.734121,207.322693 73.9533248,206.410579 C72.9633885,205.903715 71.9607452,205.088981 71.1886433,203.784924 C68.8965414,199.913883 64.5803949,186.912023 71.3266051,182.143384 C71.3266051,182.143384 72.5252994,180.395971 76.7125605,179.971971 C76.7125605,179.971971 78.5405541,179.618739 80.8411274,179.229215 C82.1717325,179.003606 83.5265414,178.932839 84.8734841,179.017518 L86.8642484,179.142722 C73.6066051,183.921643 73.5122102,206.239407 79.5825287,206.128719" id="Fill-21" fill="#813FD1"></path>
                    <path d="M85.2706688,196.185284 C85.2706688,196.185284 84.5645223,196.410288 84.6782803,196.954049 C84.7914331,197.498414 85.0673567,197.558899 85.0673567,197.558899 C85.0673567,197.558899 84.6903822,198.098425 84.1996497,197.641158 C83.7089172,197.183892 83.3700637,196.389723 83.9969427,195.522368 C84.505828,194.817718 85.2706688,196.185284 85.2706688,196.185284" id="Fill-23" fill="#F09A82"></path>
                    <g id="Group-27" transform="translate(0.000000, 283.674750)">
                        <mask id="mask-2" fill="white">
                            <use xlink:href="#path-1"></use>
                        </mask>
                        <g id="Clip-26"></g>
                        <path d="M10.3880382,15.6504993 C8.75004459,17.9561883 -30.1636497,94.8126904 54.0529427,111.864023 C138.269535,128.916565 147.955299,91.9584023 140.840586,68.5736833 C133.726478,45.1889643 71.1178471,37.8061626 60.9601083,15.2283138 C50.8023694,-7.34953495 22.4506178,-1.32885592 10.3880382,15.6504993" id="Fill-25" fill="#32CAF0" mask="url(#mask-2)"></path>
                    </g>
                    <path d="M348.640863,380.230498 C348.990003,382.099485 378.369207,414.033157 429.999589,395.5072 C486.830162,375.11528 448.281341,357.71253 433.840736,349.192609 C419.399525,340.67148 400.676054,346.917163 371.664748,357.764547 C355.858443,363.675143 346.067392,366.461688 348.640863,380.230498" id="Fill-28" fill="#32CAF0"></path>
                    <path d="M357.019984,350.445133 C313.411959,375.612346 242.485685,375.484722 198.602946,350.159039 C154.720207,324.833356 154.497532,283.900722 198.106162,258.732905 C241.714188,233.565692 312.640462,233.693316 356.523806,259.018999 C400.405939,284.344682 400.628615,325.277921 357.019984,350.445133" id="Fill-30" fill="#A58CE2"></path>
                    <path d="M328.632532,361.045375 C285.024506,386.212588 214.098232,386.084359 170.214889,360.759281 C126.332755,335.433598 126.11008,294.500359 169.71871,269.333147 C213.326736,244.16533 284.25301,244.293558 328.136354,269.619241 C372.018487,294.944924 372.241162,335.877558 328.632532,361.045375" id="Fill-32" fill="#9581E7"></path>
                    <path d="M139.53485,261.340172 C139.53485,261.340172 148.118736,255.833011 161.85501,233.001125 C185.972303,192.917097 209.237016,180.389439 269.678799,170.954985 C335.637239,160.660435 391.966188,147.881764 411.462366,97.6519783 C411.462366,97.6519783 429.209213,115.205941 433.653035,137.088212 C433.653035,137.088212 448.270328,186.391973 374.502525,212.281981 C340.804755,224.108013 280.241347,209.583744 247.204341,219.080498 C176.934596,239.280075 187.540105,270.90104 187.540105,270.90104 L139.53485,261.340172 Z" id="Fill-34" fill="#5147D1"></path>
                    <path d="M328.632532,351.840946 C285.024506,377.008763 214.098232,376.880535 170.214889,351.554852 C126.332755,326.229169 126.11008,285.296535 169.71871,260.128718 C213.326736,234.961505 284.25301,235.089734 328.136354,260.414812 C372.018487,285.740495 372.241162,326.673734 328.632532,351.840946" id="Fill-36" fill="#C2A9F2"></path>
                </g>
                <g id="Group-41" transform="translate(180.000000, 302.000000)">
                    <mask id="mask-4" fill="white">
                        <use xlink:href="#path-3"></use>
                    </mask>
                    <g id="Clip-40"></g>
                    <path d="M21.2321814,12.084073 C-6.42353586,28.1164015 -6.28294937,54.1929416 21.5471435,70.3264453 L21.5471435,70.3264453 C49.3778397,86.4599489 94.3588819,86.5417372 122.015203,70.5088029 L122.015203,70.5088029 C149.671523,54.4758686 149.530333,28.3999343 121.699637,12.2658248 L121.699637,12.2658248 C107.726667,4.16575182 89.4335274,0.112080292 71.1771941,0.112080292 L71.1771941,0.112080292 C53.0717046,0.112686131 35.0030211,4.10032117 21.2321814,12.084073" id="Fill-39" mask="url(#mask-4)"></path>
                </g>
                <g id="Group-66" transform="translate(152.000000, 121.000000)">
                    <path d="M97.9909855,148.252469 C98.1351369,156.115614 91.8560707,162.606767 83.966506,162.751028 C76.07573,162.894686 69.5628719,156.637127 69.4181148,148.773983 C69.2739634,140.910839 75.5530297,134.419686 83.4432,134.276028 C91.3333703,134.131767 97.8468341,140.389929 97.9909855,148.252469" id="Fill-42" fill="#FFFFFF"></path>
                    <path d="M106.443891,166.371201 C106.617115,175.782588 99.1018599,183.550967 89.6581249,183.722994 C80.2149956,183.895624 72.419311,176.406111 72.2466927,166.995327 C72.0740744,157.58394 79.58933,149.814958 89.0324593,149.642931 C98.4755886,149.470904 106.271273,156.960417 106.443891,166.371201" id="Fill-44" fill="#FFFFFF"></path>
                    <path d="M101.838556,150.282569 C102.039642,161.228317 93.2984934,170.264263 82.3151243,170.464659 C71.3317552,170.665056 62.2641464,161.953849 62.0630612,151.008101 C61.861976,140.06175 70.60373,131.026407 81.5864934,130.826011 C92.5704681,130.625614 101.637471,139.336218 101.838556,150.282569" id="Fill-46" fill="#FFFFFF"></path>
                    <path d="M86.1785035,174.956074 C87.5903394,188.886641 77.4040429,201.320272 63.4262006,202.727272 C49.4477527,204.134876 36.9719924,193.982867 35.5595508,180.052299 C34.1471091,166.122335 44.3340114,153.689308 58.3118536,152.281705 C72.2896959,150.874705 84.7660618,161.02611 86.1785035,174.956074" id="Fill-48" fill="#FFFFFF"></path>
                    <path d="M152.629219,204.690614 C152.830304,215.636965 144.089156,224.672307 133.106392,224.873307 C122.122418,225.073704 113.055415,216.362496 112.854329,205.416145 C112.653244,194.470397 121.394392,185.435055 132.377762,185.234659 C143.361131,185.034262 152.428134,193.744866 152.629219,204.690614" id="Fill-50" fill="#FFFFFF"></path>
                    <path d="M47.4559192,187.205545 C48.5600707,198.097572 40.5954019,207.819815 29.6653325,208.920788 C18.7358688,210.021158 8.98020946,202.082563 7.87545237,191.19114 C6.77190662,180.298509 14.7365754,170.576266 25.6666448,169.475896 C36.5961085,168.375527 46.3517678,176.312914 47.4559192,187.205545" id="Fill-52" fill="#FFFFFF"></path>
                    <path d="M190.009136,216.344147 C193.32583,232.629976 182.76583,248.51139 166.424025,251.81612 C150.082221,255.12085 134.146221,244.597624 130.830132,228.311192 C127.514044,212.025363 138.074044,196.143949 154.415849,192.839823 C170.757653,189.535093 186.693047,200.058922 190.009136,216.344147" id="Fill-54" fill="#FFFFFF"></path>
                    <path d="M142.048141,246.957594 C139.504898,260.727603 126.242362,269.835377 112.425025,267.300846 C98.6076871,264.766918 89.4686082,251.549206 92.0118511,237.779801 C94.555094,224.009792 107.81763,214.902017 121.634968,217.436549 C135.4517,219.97108 144.591384,233.188188 142.048141,246.957594" id="Fill-56" fill="#FFFFFF"></path>
                    <path d="M181.256964,200.14415 C184.87892,215.233637 176.327349,230.811439 161.268977,235.713907 C152.528434,238.559898 143.428119,237.207223 136.150289,232.778583 C135.606996,242.932403 128.928182,252.185042 118.648005,255.532024 C109.643387,258.463727 100.18451,256.110277 93.6377338,250.189529 C97.5819104,262.274277 110.077658,269.752925 122.873822,267.165277 C133.472585,265.02188 141.177418,256.598592 142.892699,246.575754 C149.609065,251.810808 158.492548,254.199871 167.503828,252.376988 C183.845633,249.072862 194.405633,233.191448 191.089544,216.905619 C189.708598,210.122322 186.133885,204.345232 181.256964,200.14415" id="Fill-58" fill="#D9E9FF"></path>
                    <path d="M56.937388,192.196502 C53.5092492,191.952646 50.2900694,191.038186 47.3955331,189.597385 C45.6899432,197.545033 38.330347,203.231583 29.9635079,202.635826 C22.9903344,202.13906 14.9239117,196.812862 12.9100315,190.56315 C12.0057539,192.411385 12.5635836,195.386547 12.4073186,197.563141 C11.7531861,206.687817 19.9243912,214.292619 29.080429,214.945114 C37.4478738,215.541475 44.8068644,209.854925 46.5124543,201.907277 C49.4075962,203.348078 52.626776,204.261934 56.0549148,204.506394 C70.0684921,205.50415 82.2402019,194.992394 83.2419937,181.026817 C83.3940189,178.903943 83.275306,176.823322 82.9221956,174.817547 C79.3759495,185.61179 68.8201893,193.042754 56.937388,192.196502" id="Fill-60" fill="#D9E9FF"></path>
                    <path d="M33.453123,203.492823 C34.375571,212.594561 27.7197729,220.718462 18.5867508,221.638354 C9.45372871,222.557642 1.30190536,215.924642 0.379457413,206.822904 C-0.543596215,197.720561 6.11220189,189.597264 15.245224,188.677372 C24.3788517,187.758084 32.5300694,194.391084 33.453123,203.492823" id="Fill-62" fill="#FFFFFF"></path>
                    <polygon id="Fill-64" fill="#9875D9" points="11.2690069 46.7094423 32.7705842 33.887091 35.3828744 0.519883784 14.5433035 5.70242432"></polygon>
                </g>
                <g id="Group-69" transform="translate(221.000000, 210.000000)">
                    <mask id="mask-6" fill="white">
                        <use xlink:href="#path-5"></use>
                    </mask>
                    <g id="Clip-68"></g>
                    <polygon id="Fill-67" mask="url(#mask-6)" points="2.22417582 17.4085545 0.197032967 121.636416 54.5793407 96.1770693 52.8199451 0.151594059"></polygon>
                </g>
                <g id="Group-74" transform="translate(167.000000, 83.000000)">
                    <path d="M69.5005,156.979717 C69.5005,156.979717 66.4127671,176.614582 85.0186925,188.409269 C85.0186925,188.409269 104.140345,173.476458 93.1359658,146.864292 C82.131587,120.251522 69.5005,156.979717 69.5005,156.979717" id="Fill-70" fill="#FFE18C"></path>
                    <path d="M32.6206783,53.3417176 C21.651846,48.1197623 12.7513429,52.5180882 7.55250435,56.6410658 C5.16365342,58.5352927 1.46379627,54.5367048 1.0438646,49.7169029 C-4.43151429,-13.0854422 39.0497901,1.85340767 39.0497901,1.85340767 L32.6206783,53.3417176 Z" id="Fill-72" fill="#9875D9"></path>
                </g>
                <g id="Group-77" transform="translate(207.000000, 212.000000)">
                    <mask id="mask-8" fill="white">
                        <use xlink:href="#path-7"></use>
                    </mask>
                    <g id="Clip-76"></g>
                    <path d="M43.7295385,29.9436735 C79.6162,30.6471429 78.5503077,6.03857143 78.5503077,6.03857143 L78.5503077,6.03857143 L0.425384615,0.198979592 C0.425384615,0.198979592 7.84409231,29.2408163 43.7295385,29.9436735" id="Fill-75" mask="url(#mask-8)"></path>
                </g>
                <g id="Group-86" transform="translate(159.000000, 0.000000)">
                    <path d="M32.3452984,147.802548 C21.3645048,142.578319 12.4538063,146.979069 7.2490127,151.103715 C4.85682222,152.998985 1.15272698,148.998194 0.732314286,144.175735 C-4.74873333,81.3387771 38.7823778,96.2864646 38.7823778,96.2864646 L32.3452984,147.802548 Z" id="Fill-78" fill="#C2A9F2"></path>
                    <path d="M150.50274,116.744635 C146.700327,80.4408646 120.841025,39.1931979 105.735724,15.9478854 C101.017692,8.68761458 94.6149937,2.47013542 87.4613429,0.48665625 C80.3855016,2.73173958 74.213819,9.17880208 69.7648032,16.6076354 C55.5184222,40.3912604 31.183946,82.5590729 28.7109302,118.977635 C26.5756921,150.428135 31.9741048,181.798885 41.5066762,206.470635 L41.9089937,207.494698 C44.307819,213.369615 49.765946,218.091177 57.8273746,222.557781 C67.384073,227.853302 79.3727714,230.785323 91.6817556,231.40701 C103.959978,230.334615 115.83347,226.964573 125.190517,221.32226 C133.08366,216.56324 138.472422,211.505156 140.655311,205.546865 L140.912867,204.647865 C149.537057,179.643219 153.785216,148.095448 150.50274,116.744635" id="Fill-80" fill="#F4EEFF"></path>
                    <path d="M89.0931714,140.685887 C89.3700286,155.8257 78.8036159,162.119304 65.4921556,154.743637 C52.1812984,147.367367 41.1661238,129.115492 40.8892667,113.975679 C40.6124095,98.8358667 51.1788222,92.5422625 64.4902825,99.9179292 C77.8011397,107.293596 88.8163143,125.546075 89.0931714,140.685887" id="Fill-82" fill="#CABFE0"></path>
                    <path d="M82.0936317,144.958735 C82.3704889,160.098548 71.803473,166.392152 58.4926159,159.016485 C45.1811556,151.640819 34.165981,133.38834 33.8891238,118.248527 C33.6122667,103.108715 44.1792825,96.8151104 57.4901397,104.190777 C70.8009968,111.567048 81.8167746,129.818923 82.0936317,144.958735" id="Fill-84" fill="#FFFFFF"></path>
                </g>
                <g id="Group-89" transform="translate(201.000000, 112.000000)">
                    <mask id="mask-10" fill="white">
                        <use xlink:href="#path-9"></use>
                    </mask>
                    <g id="Clip-88"></g>
                    <path d="M0.111166667,10.7609344 C0.276104167,19.8071311 6.84339583,30.7142459 14.779125,35.1208852 L14.779125,35.1208852 C22.7148542,39.5287377 29.0138958,35.768082 28.8489583,26.7212787 L28.8489583,26.7212787 C28.6840208,17.6744754 22.1167292,6.76796721 14.1816042,2.36011475 L14.1816042,2.36011475 C11.9274583,1.10878689 9.805625,0.51557377 7.92666667,0.516180328 L7.92666667,0.516180328 C3.18939583,0.516180328 -0.00664583333,4.28411475 0.111166667,10.7609344" id="Fill-87" mask="url(#mask-10)"></path>
                </g>
                <g id="Group-92" transform="translate(204.000000, 0.000000)">
                    <mask id="mask-12" fill="white">
                        <use xlink:href="#path-11"></use>
                    </mask>
                    <g id="Clip-91"></g>
                    <path d="M90.6363616,69.17684 C81.1331894,48.4253733 69.0808119,29.2823215 60.4990901,15.9934622 C55.7851695,8.69424741 49.3880503,2.44402519 42.2406331,0.449299259 C27.2907192,2.60802519 9.27030861,40.2514919 0.513818543,61.4378622 C10.4593351,81.4914178 65.061143,91.3192696 90.6363616,69.17684" id="Fill-90" fill="#FF0099" mask="url(#mask-12)"></path>
                </g>
                <g id="Group-95" transform="translate(271.000000, 217.000000)">
                    <mask id="mask-14" fill="white">
                        <use xlink:href="#path-13"></use>
                    </mask>
                    <g id="Clip-94"></g>
                    <path d="M0.050962963,21.628973 C16.4764444,15.576 15.8423704,0.980486486 15.8423704,0.980486486 L15.8423704,0.980486486 L5.648,0.221189189 C4.08533333,7.30459459 2.23466667,14.4444865 0.050962963,21.628973" id="Fill-93" mask="url(#mask-14)"></path>
                </g>
                <g id="Group-124" transform="translate(159.000000, 0.000000)">
                    <path d="M114.053857,226.800397 C117.971084,225.362637 121.669983,223.643366 125.035037,221.620232 C132.948719,216.861124 138.351917,211.803591 140.541258,205.846552 L140.799504,204.947045 C149.446797,179.94512 153.706336,148.40078 150.415066,117.053378 C148.524492,99.0547946 141.197456,79.8407599 132.44251,62.2088656 C123.541204,44.2797536 106.035546,44.5497868 113.305126,74.2437647 C123.919803,117.603714 128.466013,170.625654 114.053857,226.800397" id="Fill-96" fill="#CEC0EB"></path>
                    <path d="M114.557043,79.2045208 C122.579587,77.2345476 129.965893,73.8678931 135.829336,68.8369404 C126.711516,48.8714041 107.370923,5.92888833 87.2616413,0.483522397 C87.2041862,0.501645426 87.1491503,0.525205363 87.0923,0.543932492 C96.4320784,20.1705681 107.223354,47.207106 114.557043,79.2045208" id="Fill-98" fill="#C40076"></path>
                    <path d="M139.312687,130.094105 L125.990968,137.632681 L138.88631,171.182031 L138.820992,177.477367 C139.962232,178.148523 141.062346,178.884318 142.140082,179.647902 L156.310926,216.516183 L169.671351,208.859203 C170.56886,208.596419 171.30731,207.916806 171.675627,206.775055 C185.921465,162.547012 139.312687,130.094105 139.312687,130.094105" id="Fill-100" fill="#9875D9"></path>
                    <path d="M154.384004,143.87546 L130.599411,159.004564 C151.06189,175.122582 161.897315,186.979875 151.725345,233.203867 L170.087992,222.116198 L170.807692,221.675809 C171.887243,220.626485 171.834626,219.87438 172.202944,218.732629 C186.448782,174.505191 154.384004,143.87546 154.384004,143.87546" id="Fill-102" fill="#9875D9"></path>
                    <path d="M125.49879,185.015943 C137.456101,192.050094 145.97155,204.606332 150.731856,213.173088 C152.919383,217.10941 157.260568,217.70747 158.353425,214.313631 C172.599263,170.085588 125.990484,137.632681 125.990484,137.632681 L125.49879,185.015943 Z" id="Fill-104" fill="#C2A9F2"></path>
                    <path d="M147.906759,208.392414 L149.387286,231.424367 C149.523968,233.549594 152.514657,233.887287 153.123681,231.846634 L158.353304,214.313208 L147.906759,208.392414 Z" id="Fill-106" fill="#C2A9F2"></path>
                    <path d="M0.217966467,142.152262 L1.69849341,165.184215 C1.83517605,167.309442 4.82586467,167.647135 5.43428383,165.607086 L10.6639066,148.073056 L0.217966467,142.152262 Z" id="Fill-108" fill="#C2A9F2"></path>
                    <path d="M145.807108,319.090409 C146.063539,333.100718 134.901527,344.666231 120.874623,344.922974 C106.848928,345.179717 95.2696108,334.029221 95.0137844,320.019516 C94.7567485,306.009207 105.91876,294.443694 119.94506,294.186952 C133.971964,293.930813 145.550072,305.080704 145.807108,319.090409" id="Fill-110" fill="#FFFFFF"></path>
                    <path d="M88.7672066,365.911736 C88.9347335,375.065678 81.6415659,382.622376 72.4765719,382.789712 C63.3121826,382.957653 55.7468593,375.672195 55.5793323,366.518253 C55.4118054,357.364312 62.7049731,349.807613 71.8693623,349.639673 C81.0337515,349.472337 88.5996796,356.757794 88.7672066,365.911736" id="Fill-112" fill="#FFFFFF"></path>
                    <path d="M65.4007054,365.170202 C65.5682323,374.324144 58.2750647,381.880843 49.1100707,382.048179 C39.9456814,382.216119 32.3803581,374.931265 32.2128311,365.777324 C32.0453042,356.623382 39.3384719,349.066683 48.5034659,348.898139 C57.6678551,348.730803 65.2331784,356.016261 65.4007054,365.170202" id="Fill-114" fill="#FFFFFF"></path>
                    <path d="M137.448723,294.180669 C137.592663,302.050292 131.322801,308.546189 123.444801,308.691174 C115.565591,308.83495 109.061675,302.572235 108.917735,294.702008 C108.773795,286.832989 115.043657,280.336488 122.921657,280.192712 C130.800866,280.048331 137.304783,286.31165 137.448723,294.180669" id="Fill-116" fill="#FFFFFF"></path>
                    <path d="M161.092218,322.018849 C161.236158,329.888472 154.966296,336.384973 147.088296,336.529353 C139.209086,336.673129 132.705775,330.410415 132.56123,322.540792 C132.41729,314.671169 138.687152,308.174667 146.565757,308.030891 C154.444362,307.886511 160.948278,314.14983 161.092218,322.018849" id="Fill-118" fill="#FFFFFF"></path>
                    <path d="M107.284801,334.754565 C107.541837,348.76427 96.3792198,360.330387 82.3529204,360.58713 C68.326621,360.843269 56.7479084,349.693378 56.4914772,335.683068 C56.2344413,321.673363 67.3970581,310.107247 81.4227527,309.851108 C95.4496569,309.594969 107.027765,320.744256 107.284801,334.754565" id="Fill-120" fill="#FFFFFF"></path>
                    <path d="M302.746049,148.812113 C302.040258,178.637785 277.265019,202.242425 247.40833,201.535023 C217.552246,200.827621 193.92006,176.076397 194.625851,146.250725 C195.331037,116.425657 220.106276,92.8204125 249.962965,93.5278147 C279.819653,94.2352169 303.451234,118.987045 302.746049,148.812113" id="Fill-122" fill="#4BA4D6"></path>
                </g>
                <g id="Group-127" transform="translate(363.000000, 104.000000)">
                    <mask id="mask-16" fill="white">
                        <use xlink:href="#path-15"></use>
                    </mask>
                    <g id="Clip-126"></g>
                    <path d="M0.25492053,44.1723642 C-0.334470199,69.1099801 19.4016821,89.804947 44.3374901,90.3967483 L44.3374901,90.3967483 C69.2720927,90.987947 89.9640464,71.2511921 90.5522318,46.3141788 L90.5522318,46.3141788 C91.1410199,21.3765629 71.4048675,0.681596026 46.4702649,0.090397351 L46.4702649,0.090397351 C46.104457,0.0813576159 45.7422649,0.0771390728 45.3788675,0.0771390728 L45.3788675,0.0771390728 C20.9348212,0.0783443709 0.835271523,19.6005563 0.25492053,44.1723642" id="Fill-125" mask="url(#mask-16)"></path>
                </g>
                <g id="Group-174" transform="translate(23.000000, 85.000000)">
                    <path d="M344.263297,82.9924732 C351.17015,98.4727637 366.543195,109.433063 384.649926,109.861209 C386.453214,109.904084 388.231078,109.829204 389.984123,109.666158 C363.488078,104.069461 362.749571,82.0166141 344.263297,82.9924732" id="Fill-128" fill="#433BAD"></path>
                    <path d="M389.174369,49.7455678 C389.058145,54.6683424 384.963065,58.5645326 380.028993,58.447985 C375.09371,58.3314375 371.188705,54.2456312 371.304929,49.3228565 C371.421758,44.399478 375.516838,40.5032879 380.45091,40.6204393 C385.384982,40.7369868 389.290593,44.8227931 389.174369,49.7455678" id="Fill-130" fill="#EBF0FF"></path>
                    <path d="M400.362442,38.6838782 C400.297066,41.4641106 397.983482,43.6652285 395.197133,43.5994063 C392.409573,43.5329803 390.203738,41.2255806 390.26972,38.4447444 C390.335701,35.664512 392.648074,33.463394 395.435029,33.5298201 C398.222589,33.5956423 400.427818,35.9036458 400.362442,38.6838782" id="Fill-132" fill="#EBF0FF"></path>
                    <path d="M411.03913,55.9579741 C410.949541,59.7394283 407.803623,62.7322241 404.013631,62.6428509 C400.223034,62.5528738 397.223002,59.4151484 397.311986,55.6330903 C397.402181,51.8516361 400.547493,48.8588403 404.33809,48.9482136 C408.128082,49.0381907 411.128114,52.175916 411.03913,55.9579741" id="Fill-134" fill="#EBF0FF"></path>
                    <path d="M344.00258,47.0452278 C344.00258,47.0452278 342.844577,64.823256 354.119516,71.3776961 C365.394454,77.9321363 374.177841,74.474962 389.440716,89.9075465 C404.704801,105.340131 425.975004,85.6997577 425.975004,85.6997577 L429.880009,75.3868106 C429.880009,75.3868106 406.04622,92.9673722 398.888153,83.6985218 C379.932745,59.1522824 368.564585,62.7815606 358.141956,58.4596398 C347.719326,54.137719 353.078342,33.3167736 353.078342,33.3167736 L344.00258,47.0452278 Z" id="Fill-136" fill="#433BAD"></path>
                    <path d="M365.094088,24.381684 C365.094088,24.381684 331.257771,12.0542157 319.599051,25.8575502 C316.67408,29.3213671 317.499149,34.7598495 319.839368,40.4241805 C324.990755,52.8911435 340.523608,68.5827896 362.643093,82.948934 C362.720576,82.9990555 362.799269,83.0491769 362.876752,83.0992984 C364.246016,83.9863882 365.636467,84.868647 367.055368,85.7442632 C367.157064,85.8064621 367.260576,85.8686611 367.362272,85.9314639 C368.795096,86.812515 370.248501,87.688735 371.729147,88.5565009 C373.082067,89.3487826 374.436803,90.1169093 375.792144,90.8729586 C376.163213,91.080691 376.534283,91.2841963 376.905957,91.4883055 C378.004032,92.0933864 379.101501,92.6857861 380.198971,93.2655044 C380.482267,93.415265 380.764957,93.5686488 381.047648,93.7165977 C382.418728,94.4333952 383.787992,95.1308688 385.154229,95.8084146 C385.36428,95.9122808 385.573725,96.0119199 385.783776,96.1151822 C386.975677,96.7009393 388.165157,97.2703917 389.351005,97.8247474 C389.637933,97.9588072 389.923651,98.0928671 390.209368,98.2245114 C392.993901,99.5101576 395.755432,100.707034 398.483669,101.809707 C398.676771,101.88821 398.868056,101.963695 399.060552,102.04099 C400.3372,102.551263 401.604768,103.042212 402.864467,103.510818 C402.966768,103.548862 403.070885,103.589321 403.173792,103.627365 C404.582403,104.148508 405.979512,104.643684 407.362093,105.109874 C412.281032,106.768714 417.026845,108.081534 421.50268,109.000629 C437.162653,112.218066 447.996304,110.233739 452.008453,103.414802 C457.432845,94.1960731 448.946677,78.8890942 431.216464,63.107471 L431.050603,70.0918688 C439.186283,77.899346 444.650627,85.2122509 447.070144,91.0674058 C448.746312,95.1260379 448.961205,98.4865924 447.584677,100.823582 C444.853413,105.466763 435.490117,106.649147 422.537195,103.989085 C419.254472,103.314559 415.813152,102.411768 412.262267,101.314531 C407.853019,99.9521928 403.266408,98.2758407 398.577496,96.3180836 C398.481248,96.278228 398.385,96.2365607 398.288752,96.1961012 C396.800843,95.5716963 395.303853,94.9213248 393.797784,94.2413636 C393.759043,94.2238512 393.720907,94.2075467 393.682771,94.1900343 C392.196072,93.5179234 390.702109,92.8138072 389.202699,92.0897632 C388.965408,91.9744234 388.726907,91.857272 388.489011,91.7407245 C387.073136,91.0492896 385.653629,90.3391347 384.230491,89.6024093 C384.156035,89.5643653 384.082184,89.527529 384.007728,89.4888812 C382.560981,88.7382667 381.112419,87.9586664 379.663251,87.1633653 C379.332739,86.9822033 379.003437,86.7992298 378.672925,86.6162562 C377.223152,85.8106893 375.773984,84.9912333 374.326027,84.1433952 C372.802403,83.2508706 371.319941,82.3498917 369.856851,81.4452896 C369.495467,81.2218565 369.135899,80.9984234 368.778147,80.7743864 C367.334427,79.8703882 365.910683,78.9633706 364.528707,78.051522 C364.520837,78.0460871 364.512968,78.0406523 364.505099,78.0358213 C363.123123,77.122765 361.782915,76.2060854 360.463893,75.2881981 C360.144277,75.0665766 359.827083,74.8443512 359.511704,74.6227298 C358.201763,73.6994076 356.911797,72.7754815 355.666627,71.8503477 L355.664811,71.84914 C354.415403,70.9221945 353.211395,69.9952491 352.029179,69.0689076 C351.753752,68.8539287 351.479536,68.638346 351.207741,68.4227632 C348.865707,66.565853 346.659267,64.7167931 344.590843,62.8852456 C344.360211,62.6805326 344.130789,62.4764234 343.903184,62.2729181 C342.880776,61.3550308 341.880765,60.4401629 340.929181,59.5337491 L340.929181,59.534353 C326.892107,46.1706382 320.633565,34.2079093 324.022221,28.4487702 C327.34308,22.8061787 340.385592,22.3273072 358.344621,27.6854745 C358.645472,27.7748477 358.947533,27.8666364 359.250805,27.9596329 C359.250805,27.9596329 363.955456,24.7355537 365.094088,24.381684" id="Fill-138" fill="#228FEE"></path>
                    <path d="M147.898248,133.893854 C147.898248,148.665198 135.894488,160.640608 121.086824,160.640608 C106.279766,160.640608 94.2760056,148.665198 94.2760056,133.893854 C94.2760056,119.122511 106.279766,107.147705 121.086824,107.147705 C135.894488,107.147705 147.898248,119.122511 147.898248,133.893854" id="Fill-140" fill="#5147D1"></path>
                    <path d="M403.586508,182.100814 C403.586508,182.614106 403.169434,183.030174 402.6549,183.030174 C402.139762,183.030174 401.723292,182.614106 401.723292,182.100814 C401.723292,181.586917 402.139762,181.171453 402.6549,181.171453 C403.169434,181.171453 403.586508,181.586917 403.586508,182.100814" id="Fill-142" fill="#FFFFFF"></path>
                    <path d="M380.094369,236.720121 C380.094369,237.233414 379.677294,237.649482 379.162761,237.649482 C378.647622,237.649482 378.230548,237.233414 378.230548,236.720121 C378.230548,236.206225 378.647622,235.790761 379.162761,235.790761 C379.677294,235.790761 380.094369,236.206225 380.094369,236.720121" id="Fill-144" fill="#FFFFFF"></path>
                    <path d="M120.168776,88.9583785 C120.168776,89.4716708 119.751701,89.8877394 119.237168,89.8877394 C118.722634,89.8877394 118.30556,89.4716708 118.30556,88.9583785 C118.30556,88.4450863 118.722634,88.0290176 119.237168,88.0290176 C119.751701,88.0290176 120.168776,88.4450863 120.168776,88.9583785" id="Fill-146" fill="#FFFFFF"></path>
                    <path d="M120.168776,2.22799032 C120.168776,2.74128257 119.751701,3.15795511 119.237168,3.15795511 C118.722634,3.15795511 118.30556,2.74128257 118.30556,2.22799032 C118.30556,1.71469806 118.722634,1.2986294 119.237168,1.2986294 C119.751701,1.2986294 120.168776,1.71469806 120.168776,2.22799032" id="Fill-148" fill="#FFFFFF"></path>
                    <path d="M316.469962,1.2986294 C316.469962,1.81192165 316.053492,2.22799032 315.538354,2.22799032 C315.02382,2.22799032 314.606746,1.81192165 314.606746,1.2986294 C314.606746,0.785337148 315.02382,0.369268486 315.538354,0.369268486 C316.053492,0.369268486 316.469962,0.785337148 316.469962,1.2986294" id="Fill-150" fill="#FFFFFF"></path>
                    <path d="M325.324112,148.192546 C325.324112,148.705838 324.907037,149.121907 324.392504,149.121907 C323.877365,149.121907 323.460896,148.705838 323.460896,148.192546 C323.460896,147.679254 323.877365,147.263185 324.392504,147.263185 C324.907037,147.263185 325.324112,147.679254 325.324112,148.192546" id="Fill-152" fill="#FFFFFF"></path>
                    <path d="M152.604352,110.504395 C152.604352,111.017687 152.187882,111.433755 151.672744,111.433755 C151.15821,111.433755 150.741136,111.017687 150.741136,110.504395 C150.741136,109.991102 151.15821,109.575034 151.672744,109.575034 C152.187882,109.575034 152.604352,109.991102 152.604352,110.504395" id="Fill-154" fill="#FFFFFF"></path>
                    <path d="M2.31909253,313.265765 C2.31909253,313.779057 1.90201787,314.195126 1.38748453,314.195126 C0.8729512,314.195126 0.4552712,313.779057 0.4552712,313.265765 C0.4552712,312.751869 0.8729512,312.3358 1.38748453,312.3358 C1.90201787,312.3358 2.31909253,312.751869 2.31909253,313.265765" id="Fill-156" fill="#FFFFFF"></path>
                    <path d="M318.656607,197.506103 C318.656607,198.019999 318.239533,198.435464 317.724999,198.435464 C317.209861,198.435464 316.792786,198.019999 316.792786,197.506103 C316.792786,196.992811 317.209861,196.576742 317.724999,196.576742 C318.239533,196.576742 318.656607,196.992811 318.656607,197.506103" id="Fill-158" fill="#FFFFFF"></path>
                    <path d="M414.419856,317.248732 C414.419856,317.762628 414.003387,318.178696 413.488248,318.178696 C412.973715,318.178696 412.55664,317.762628 412.55664,317.248732 C412.55664,316.735439 412.973715,316.319371 413.488248,316.319371 C414.003387,316.319371 414.419856,316.735439 414.419856,317.248732" id="Fill-160" fill="#FFFFFF"></path>
                    <path d="M385.741584,342.029334 C385.741584,342.54323 385.325115,342.959299 384.809976,342.959299 C384.295443,342.959299 383.878368,342.54323 383.878368,342.029334 C383.878368,341.516042 384.295443,341.099973 384.809976,341.099973 C385.325115,341.099973 385.741584,341.516042 385.741584,342.029334" id="Fill-162" fill="#FFFFFF"></path>
                    <path d="M66.7666928,289.669297 C66.7666928,290.182589 66.3496181,290.598658 65.8350848,290.598658 C65.3205515,290.598658 64.9034768,290.182589 64.9034768,289.669297 C64.9034768,289.155401 65.3205515,288.739332 65.8350848,288.739332 C66.3496181,288.739332 66.7666928,289.155401 66.7666928,289.669297" id="Fill-164" fill="#FFFFFF"></path>
                    <path d="M81.8048677,327.795257 C81.8048677,328.309153 81.3877931,328.725222 80.8732597,328.725222 C80.3587264,328.725222 79.9416517,328.309153 79.9416517,327.795257 C79.9416517,327.281965 80.3587264,326.865896 80.8732597,326.865896 C81.3877931,326.865896 81.8048677,327.281965 81.8048677,327.795257" id="Fill-166" fill="#FFFFFF"></path>
                    <path d="M81.8048677,150.928213 C81.8048677,151.441505 81.3877931,151.857574 80.8732597,151.857574 C80.3587264,151.857574 79.9416517,151.441505 79.9416517,150.928213 C79.9416517,150.414317 80.3587264,149.998248 80.8732597,149.998248 C81.3877931,149.998248 81.8048677,150.414317 81.8048677,150.928213" id="Fill-168" fill="#FFFFFF"></path>
                    <path d="M388.615162,179.89408 L376.960679,194.458898 L350.681949,196.49999 L352.58209,201.843664 L376.046021,201.937264 C378.781522,201.948134 381.344503,200.607536 382.890525,198.356296 L396.035338,179.214722 L388.615162,179.89408 Z" id="Fill-170" fill="#F5A791"></path>
                    <path d="M383.169523,196.625052 C381.623502,198.876291 379.06052,200.21689 376.325624,200.206624 L358.860547,201.873918 L352.811451,201.849763 L376.275382,201.944571 C379.010883,201.954837 381.573259,200.613635 383.11928,198.362999 L396.264094,179.221425 L395.043742,179.333142 L383.169523,196.625052 Z" id="Fill-172" fill="#EA8A6C"></path>
                </g>
                <g id="Group-177" transform="translate(400.000000, 251.000000)">
                    <mask id="mask-18" fill="white">
                        <use xlink:href="#path-17"></use>
                    </mask>
                    <g id="Clip-176"></g>
                    <path d="M13.846,5.47743396 C9.16817391,13.3681509 6.54165217,17.2522264 0.826608696,24.4286792 L0.826608696,24.4286792 C-2.09756522,28.0996226 5.49347826,33.9803774 8.414,30.3130566 L8.414,30.3130566 C14.5283478,22.6342642 22.9837391,14.1554717 27.4436522,5.4170566 L27.4436522,5.4170566 L27.7212174,3.63954717 C28.7127826,1.69720755 26.6073043,0.583245283 23.6892174,0.583245283 L23.6892174,0.583245283 C20.320087,0.583849057 15.8668696,2.0685283 13.846,5.47743396" id="Fill-175" mask="url(#mask-18)"></path>
                </g>
                <g id="Group-226" transform="translate(372.000000, 224.000000)">
                    <path d="M55.7238359,32.0752128 C51.2900615,40.8386807 42.8842256,49.3417817 36.8051077,57.0419835 C33.9017026,60.7204239 32.3580205,54.8343138 35.2638462,51.1528459 C40.946,43.9552128 42.7976923,43.1286991 47.4481026,35.2153596 C51.1980821,28.8345523 58.1231692,26.0952495 55.9997744,30.2926073 L55.7238359,32.0752128 Z" id="Fill-178" fill="#CF7C2C"></path>
                    <path d="M36.8614451,56.8204899 L36.8493426,56.8204899 C29.6180605,56.2912789 29.8086759,50.2870954 29.8117015,50.2259394 C29.8153323,50.1375358 29.8885528,50.0691138 29.9762964,50.0691138 L29.9841631,50.0691138 C30.0749323,50.0727468 30.1451272,50.1496459 30.1414964,50.2416826 C30.1312092,50.4754073 29.9684297,55.9854991 36.8735477,56.4904899 C36.9643169,56.497756 37.0326964,56.5764716 37.02604,56.6672972 C37.0199887,56.7544899 36.9473733,56.8204899 36.8614451,56.8204899" id="Fill-180" fill="#FFFFFF"></path>
                    <path d="M46.3024133,166.823659 L45.6997056,167.145787 C45.3565979,167.329861 44.9257467,167.199072 44.7417877,166.856356 C44.5584338,166.512429 44.6885364,166.080705 45.0316441,165.897842 L45.6343518,165.574503 C45.9774595,165.391035 46.4089159,165.521824 46.5922697,165.865145 C46.7756236,166.208466 46.645521,166.639585 46.3024133,166.823659" id="Fill-182" fill="#4A148C"></path>
                    <path d="M44.9437795,167.098013 L42.2915026,165.291187 C41.9701795,165.071994 41.8854615,164.629371 42.1051231,164.307848 C42.3241795,163.985114 42.7659231,163.901554 43.0884564,164.120747 L45.7401282,165.926967 C46.0626615,166.146765 46.1461692,166.588783 45.9271128,166.910912 C45.7086615,167.23304 45.2657077,167.317206 44.9437795,167.098013" id="Fill-184" fill="#4A148C"></path>
                    <path d="M36.5878667,157.92262 C34.8953231,157.719171 32.374359,158.499666 32.0149128,159.594418 L34.2520718,164.663097 L34.120759,165.100272 C34.9189231,167.580418 37.5330769,179.267262 38.8813026,182.870015 C39.5669128,184.701666 41.8428,183.084969 41.8428,183.084969 C45.8233333,179.068051 46.8587077,173.085666 46.8587077,173.085666 C46.8514462,170.204675 44.1447077,170.237978 42.5871077,166.241648 C42.3238769,165.567116 42.3613949,164.422106 42.9169026,164.607996 L45.9274154,166.911336 L46.4599282,165.678528 C46.4599282,165.678528 42.4340103,161.979501 39.8283282,159.33829 C38.7469641,158.241116 37.5397333,157.77851 36.5878667,157.92262" id="Fill-186" fill="#4A148C"></path>
                    <path d="M31.258079,159.991629 L31.5582226,163.175372 C32.74972,167.961281 34.2673815,170.28218 37.0152687,175.779556 C37.0152687,175.779556 45.8695046,173.626382 38.0984482,161.578051 C34.6268277,154.288987 31.258079,159.991629 31.258079,159.991629" id="Fill-188" fill="#F5A791"></path>
                    <path d="M23.5344646,110.847606 C23.5344646,110.847606 36.1320236,135.557642 49.0484851,129.538321 C61.9655518,123.519606 53.8380749,97.5979541 53.8380749,97.5979541 L23.5344646,110.847606 Z" id="Fill-190" fill="#211A8A"></path>
                    <path d="M49.38064,91.7156587 L18.2086708,106.6032 C13.9128656,108.655255 11.95104,113.696081 13.7295118,118.114448 L33.3713682,166.918723 L38.7176759,165.104026 C36.3310503,145.080594 36.7727938,129.42164 24.6399733,121.071732 L57.966199,100.372558 L49.38064,91.7156587 Z" id="Fill-192" fill="#F5A791"></path>
                    <path d="M20.4379026,117.706822 C22.3234821,113.561538 38.0525795,104.735097 38.0525795,104.735097 L35.6701897,98.169611 L18.2116359,106.508015 C13.9158308,108.56007 11.9540051,113.60029 13.7324769,118.019262 L29.105759,156.219336 C31.735041,156.933831 34.6342103,156.03284 32.6124769,146.985996 C29.2546205,131.958583 18.5529282,121.852106 20.4379026,117.706822" id="Fill-194" fill="#FFC2B0"></path>
                    <path d="M73.3552749,106.740286 L42.2952544,148.050837 C38.7461774,158.604176 28.2556749,171.050928 13.7005262,184.60636 L9.26009538,181.393552 L37.7797877,132.988305 L63.9412954,88.4679743 L73.3552749,106.740286 Z" id="Fill-196" fill="#FFC2B0"></path>
                    <path d="M42.5563672,124.858739 C42.5563672,124.858739 49.7501313,132.925272 49.2018851,138.864666 L53.8057005,132.742409 L56.11608,122.884794 L46.8182851,117.455235 L42.5563672,124.858739 Z" id="Fill-198" fill="#F5A791"></path>
                    <path d="M16.0300277,107.972609 C16.0300277,107.972609 28.3468072,112.182077 30.0139354,113.485123 C31.6816687,114.788774 33.9176174,113.059453 33.9176174,113.059453 L35.6827764,111.629251 C35.6827764,111.629251 25.3417405,106.178499 18.4015251,106.417673 L16.0300277,107.972609 Z" id="Fill-200" fill="#F5A791"></path>
                    <path d="M73.3552749,106.740286 L42.2952544,148.050837 C38.7461774,158.604176 28.2556749,171.050928 13.7005262,184.60636 L14.4182082,183.005406 C23.8660749,175.380286 31.2673979,161.337424 38.6517774,147.117149 C42.3243005,136.124818 57.3932031,121.19247 69.7360031,101.968305 L73.3552749,106.740286 Z" id="Fill-202" fill="#F5A791"></path>
                    <path d="M45.7947713,72.7309101 C45.8086892,72.6679376 50.8264123,68.159956 50.8161251,68.1060661 C50.8161251,68.1060661 43.6713764,67.5290202 53.1815713,70.868378 C55.6656226,71.7396991 63.5806995,72.8241578 65.4112123,74.9512954 C69.3288123,79.5028734 76.0427097,78.1065798 77.3673354,89.6674789 C77.9712533,94.9396073 76.2666072,103.674011 74.3840533,105.975534 L55.4036021,132.788488 C55.4036021,132.788488 45.5079405,108.472029 17.5667508,106.419974 L28.6829559,95.1775706 C34.4286482,87.1988367 39.6521149,84.8040661 42.9325149,80.0744697 C43.8619918,78.7344881 43.589079,75.2540477 44.1476123,73.7118275 C44.4834585,72.7848 45.6561969,73.3491303 45.7947713,72.7309101" id="Fill-204" fill="#9581E7"></path>
                    <path d="M51.0092821,68.0856 C51.0092821,68.0856 46.2777846,67.7035266 49.6422974,69.3607927 C50.4204923,68.6505358 51.0129128,68.1037651 51.0092821,68.0856" id="Fill-206" fill="#665FDE"></path>
                    <path d="M31.4986174,100.143617 C38.6869354,90.1612679 45.2217149,87.1652312 49.3256944,81.2482404 C50.4887508,79.5709927 50.1474585,75.2168092 50.8469867,73.2870661 C51.2669456,72.1275248 52.7343815,72.8329376 52.9074482,72.0603138 C52.9122892,72.0397266 53.3534277,71.6304055 53.9984944,71.0412495 C53.7661251,70.9752495 53.5543303,70.9110661 53.3746072,70.8474881 C51.6046072,70.2262404 50.4118995,69.7400202 49.6421764,69.3609743 C48.1584021,70.7154881 45.9974892,72.6688459 45.9878072,72.7100202 C45.8498379,73.3282404 44.6764944,72.7639101 44.3412533,73.6909376 C43.78272,75.2331578 44.0550277,78.7135982 43.1255508,80.0535798 C39.8451508,84.7837817 34.6216841,87.1779468 28.8759918,95.1578917 L17.7597867,106.399084 C20.08832,106.569837 22.287961,106.898626 24.3708123,107.351543 L31.4986174,100.143617 Z" id="Fill-208" fill="#C5BAF2"></path>
                    <path d="M77.2035272,92.5121394 C75.8516708,105.891369 67.2419067,106.996415 58.7356195,101.750323 C50.2299374,96.5042312 45.7465426,84.9929835 46.0339785,74.9991303 C46.0339785,74.9991303 51.2713631,60.3138275 59.7770451,65.5599193 C68.2833323,70.8066165 78.77444,76.9773138 77.2035272,92.5121394" id="Fill-210" fill="#9581E7"></path>
                    <path d="M63.1449467,77.6341046 C63.1449467,77.6341046 68.0549569,79.0485633 68.5874697,87.1120679 C69.032239,93.8416459 67.3197262,94.4023431 59.9268749,104.457352 C55.6861364,110.223572 49.4805467,110.501499 48.9201979,114.029774 C48.3598492,117.558655 47.7964749,121.283719 47.7964749,121.283719 C47.7964749,121.283719 53.4526082,128.394765 55.4035415,132.788306 L75.0460031,104.893316 C75.0460031,104.893316 83.3610697,86.4938477 72.7797979,75.8048752 L63.1449467,77.6341046 Z" id="Fill-212" fill="#8667BF"></path>
                    <path d="M18.5344718,191.506206 L17.8906154,191.188921 C17.5233026,191.008481 17.3708103,190.560407 17.5517436,190.192866 C17.7320718,189.82593 18.1798667,189.673343 18.5471795,189.853783 L19.1910359,190.171068 C19.5577436,190.351508 19.7102359,190.799582 19.5299077,191.166517 C19.3495795,191.534059 18.9011795,191.686646 18.5344718,191.506206" id="Fill-214" fill="#4A148C"></path>
                    <path d="M17.4689621,190.514026 L17.3860595,187.141971 C17.3763774,186.73265 17.7025415,186.389328 18.1116082,186.37964 C18.5200697,186.369347 18.8631774,186.696319 18.8722544,187.105035 L18.9551569,190.47709 C18.9654441,190.886411 18.63928,191.229732 18.2302133,191.23942 C17.8211467,191.249714 17.4786441,190.922741 17.4689621,190.514026" id="Fill-216" fill="#4A148C"></path>
                    <path d="M20.1813887,177.757618 C19.3178708,176.186939 17.1085477,174.511508 15.9557785,174.874811 L12.9997272,179.888994 L12.5464862,180.044609 C10.9186913,182.245013 2.54855795,191.633967 0.300506667,194.99149 C-0.843185641,196.697802 1.93011692,197.652077 1.93011692,197.652077 C7.79380923,198.593637 13.53224,195.814976 13.53224,195.814976 C15.9854297,194.045086 14.3001477,191.753251 16.7563631,187.976114 C17.1708759,187.338517 18.1705477,186.669435 18.3520862,187.25738 L18.2298503,191.239783 L19.6083323,190.940059 C19.6083323,190.940059 20.2987836,185.236206 20.9571631,181.392462 C21.230681,179.797563 20.8869682,178.482407 20.1813887,177.757618" id="Fill-218" fill="#4A148C"></path>
                    <path d="M15.1524708,174.471061 L12.6194041,176.676914 C9.26578359,180.624804 8.2146759,183.342308 5.20658359,189.05585 C5.20658359,189.05585 14.3119477,193.158143 19.8331374,179.143739 C23.9274349,171.715409 15.1524708,174.471061 15.1524708,174.471061" id="Fill-220" fill="#FFC2B0"></path>
                    <path d="M71.8436646,0.516555963 C71.8436646,0.516555963 76.7863518,4.75993211 83.0645569,5.34969358 C89.3427621,5.94006055 94.2303826,10.2803174 95.9386595,19.7776569 C97.6475415,29.2756018 120.46269,19.6256752 117.546577,37.2349596 C114.63107,54.844244 108.535613,41.9851431 101.850762,47.2070147 C95.1659108,52.4294917 93.0782185,63.8244826 85.3089774,59.6749596 C77.5403415,55.5254367 56.5248441,59.8717486 56.2622185,45.0822991 C55.9995928,30.292244 71.8436646,0.516555963 71.8436646,0.516555963" id="Fill-222" fill="#4A148C"></path>
                    <path d="M71.0470738,18.0190899 C71.0470738,18.0190899 78.3116379,20.1861908 79.3458021,28.0105211 C80.3805713,35.8354569 87.3631456,30.1649064 90.0511251,33.9656587 C92.7403149,37.7658055 102.781207,43.0137138 99.1292585,49.8910349 C95.4773097,56.767145 90.1521815,61.0565394 90.1521815,61.0565394 C90.1521815,61.0565394 86.3979662,60.9487596 83.6960687,58.9863193 C80.9941713,57.0244844 67.1276585,58.8512917 67.1276585,58.8512917 L67.6746944,39.8541908 L71.0470738,18.0190899 Z" id="Fill-224" fill="#390F6B"></path>
                </g>
                <g id="Group-229" transform="translate(413.000000, 252.000000)">
                    <mask id="mask-20" fill="white">
                        <use xlink:href="#path-19"></use>
                    </mask>
                    <g id="Clip-228"></g>
                    <path d="M10.7615789,2.93432143 C9.92328947,4.73267857 6.99502632,10.3044286 5.97334211,12.24425 L5.97334211,12.24425 C4.90565789,13.2454286 0.107131579,18.1766429 0.521736842,25.5734643 L0.521736842,25.5734643 C0.7705,30.0098571 2.95368421,33.3363929 4.93773684,35.4765714 L4.93773684,35.4765714 C5.01884211,41.0319286 5.1175,46.01475 5.21918421,47.0396071 L5.21918421,47.0396071 C5.21918421,47.0396071 15.9238684,55.4594643 30.1856842,47.4870714 L30.1856842,47.4870714 L36.5355,30.3996429 L39.7488421,25.5916786 C40.5447632,25.1326786 43.3041579,25.9401786 43.3041579,25.9401786 L43.3041579,25.9401786 C43.9796316,21.2651786 48.6867632,20.0539286 42.2407105,12.2903929 L42.2407105,12.2903929 C41.2650263,11.1155714 25.8622895,3.08428571 17.5405263,1.326 L17.5405263,1.326 C15.5964211,0.915571429 14.3568421,0.40375 13.3987105,0.40375 L13.3987105,0.40375 C12.3691579,0.40375 11.6652368,0.9945 10.7615789,2.93432143" id="Fill-227" mask="url(#mask-20)"></path>
                </g>
                <g id="Group-250" transform="translate(420.000000, 223.000000)">
                    <path d="M8.77794,15.5280631 C8.08014,18.5356694 5.62854,20.5259881 3.30294,19.9755131 C0.97674,19.4244319 -0.34266,16.5392881 0.35514,13.5322881 C1.05294,10.5246819 3.50454,8.53375688 5.83074,9.08483813 C8.15634,9.63591937 9.47574,12.5210631 8.77794,15.5280631" id="Fill-230" fill="#6F81C2"></path>
                    <path d="M37.37232,55.0438625 L46.78032,71.1585938 L39.52872,94.9714875 L45.03012,96.6132125 L53.40072,74.6881813 C54.37632,72.1322313 54.03552,69.2543625 52.49172,67.0033563 L39.36012,47.857375 L37.37232,55.0438625 Z" id="Fill-232" fill="#FFC2B0"></path>
                    <path d="M52.34772,67.2031763 L39.21672,48.0578013 L38.53152,50.5343325 L48.80292,65.50992 C50.34672,67.7615325 51.07212,71.6918512 50.52492,74.7061262 L46.04292,93.9612325 L44.88612,96.8136387 L53.25672,74.8886075 C54.23292,72.3326575 53.89212,69.4547888 52.34772,67.2031763" id="Fill-234" fill="#F5A791"></path>
                    <path d="M12.11838,30.3409331 C12.11838,30.3409331 4.71558,37.6323019 10.79838,43.1309894 C16.88118,48.6290706 27.83838,37.0551519 27.83838,37.0551519 C22.36458,33.3667269 17.07438,30.8174456 12.11838,30.3409331" id="Fill-236" fill="#FFC2B0"></path>
                    <path d="M15.24672,34.7629206 L12.19872,21.2878019 L20.41752,24.1838581 L22.89612,35.1866894 C23.44032,36.9842206 17.53392,41.6662894 15.24672,34.7629206" id="Fill-238" fill="#FFC2B0"></path>
                    <path d="M12.22506,29.950205 L9.68586,29.4876363 C6.75966,29.2942425 5.23746,25.9992738 5.07666,21.5269675 L5.33166,8.1846175 C6.03666,4.23247375 10.66566,1.3533925 14.57706,2.06573625 L17.11626,2.528305 C21.02826,3.24064875 23.65206,7.0569925 22.94646,11.0097425 L20.61906,24.0592738 C19.91346,28.0120238 16.13706,30.6625488 12.22506,29.950205" id="Fill-240" fill="#FFC2B0"></path>
                    <path d="M12.22506,29.950205 L9.68586,29.4876363 C14.56926,29.1529863 17.22426,26.0332238 16.75386,21.4208738 C10.51086,17.4293238 7.25466,12.7939363 5.33166,8.1846175 C6.03666,4.23247375 10.66566,1.3533925 14.57706,2.06573625 L17.11626,2.528305 C21.02826,3.24064875 23.65206,7.0569925 22.94646,11.0097425 L20.61906,24.0592738 C19.91346,28.0120238 16.13706,30.6625488 12.22506,29.950205" id="Fill-242" fill="#EA8A6C"></path>
                    <path d="M13.10922,31.0436981 C14.20362,31.3201481 17.02242,31.1237231 18.24342,30.5938606 C15.57642,34.3083544 16.39962,37.0304169 11.72142,38.0422481 L13.10922,31.0436981 Z" id="Fill-244" fill="#EA8A6C"></path>
                    <path d="M7.36116,8.18322312 C14.46216,20.6525731 14.74536,17.7128669 21.31776,20.1875794 L20.57136,22.2142731 C19.81956,24.2549106 20.51376,22.4555606 21.62316,24.3228106 L22.86696,24.7647669 C22.86696,24.7647669 39.72456,15.9905106 25.83096,3.83580437 C16.42956,-4.38979563 3.59436,1.98977312 4.75656,11.8334544 L7.36116,8.18322312 Z" id="Fill-246" fill="#4A148C"></path>
                    <path d="M21.95922,25.4613481 C20.62542,26.1658106 19.40082,25.5565294 19.22382,24.1009231 C19.04682,22.6447106 19.98402,20.8926481 21.31782,20.1875794 C22.65102,19.4831169 23.87562,20.0923981 24.05322,21.5486106 C24.23022,23.0048231 23.29302,24.7568856 21.95922,25.4613481" id="Fill-248" fill="#FFC2B0"></path>
                </g>
                <g id="Group-253" transform="translate(450.000000, 261.000000)">
                    <mask id="mask-22" fill="white">
                        <use xlink:href="#path-21"></use>
                    </mask>
                    <g id="Clip-252"></g>
                    <path d="M2.2542,13.5275556 C10.236,19.7272778 10.8996,22.2273333 15.8778,31.2742222 L15.8778,31.2742222 C18.2628,35.6094444 25.6248,29.5588333 23.247,25.2370556 L23.247,25.2370556 C17.9712,15.6487222 12.2166,6.33905556 3.1962,0.602555556 L3.1962,0.602555556 C3.111,0.571388889 3.0252,0.556111111 2.9388,0.556111111 L2.9388,0.556111111 C0.7398,0.556722222 -1.9896,10.2318333 2.2542,13.5275556" id="Fill-251" mask="url(#mask-22)"></path>
                </g>
                <g id="Group-330" transform="translate(9.000000, 223.000000)">
                    <polygon id="Fill-254" fill="#CF7C2C" points="409.464427 63.6507167 414.345415 63.7907786 409.517034 66.9554536"></polygon>
                    <path d="M428.77644,75.937226 L428.77644,75.937226 C430.043852,72.3433096 428.344092,68.3793158 424.864756,66.8144861 L421.056472,65.1023498 C421.056472,65.1023498 435.321511,70.8008173 438.679307,55.7006935 C438.679307,55.7006935 440.541121,52.4104458 444.242376,53.8213282 L435.297324,73.96187 L428.77644,75.937226 Z" id="Fill-256" fill="#CF7C2C"></path>
                    <path d="M426.16343,44.4196718 C425.17538,44.4196718 424.193982,44.2427833 423.2404,43.8370867 C421.373748,43.0432012 420.14685,41.7850588 419.593566,40.0970712 C418.329782,36.2405387 421.078059,31.5484644 421.195367,31.3504458 C421.365888,31.0642848 421.735953,30.9695015 422.023781,31.1391455 C422.311005,31.3087895 422.40594,31.6788669 422.236024,31.9662353 C422.210023,32.0097028 419.649197,36.3914675 420.74367,39.7245789 C421.184483,41.0654303 422.184021,42.0754458 423.713865,42.7262508 C427.35949,44.2753839 432.33118,42.0700124 438.496512,36.1693003 L438.823644,35.8577833 C439.067331,35.6283715 439.450094,35.6398421 439.678664,35.8819319 C439.907838,36.1246254 439.896954,36.5067771 439.654477,36.7349814 L439.333995,37.0404613 C437.267194,39.0188359 431.624308,44.4196718 426.16343,44.4196718" id="Fill-258" fill="#FFFFFF"></path>
                    <path d="M442.880754,38.2363003 C442.880754,38.2363003 448.322887,41.4299536 451.860878,45.9801548 C455.398869,50.530356 455.722373,53.1571207 459.549402,58.9364861 C463.377035,64.7164551 463.507042,68.0749226 463.844454,67.4730186 C463.844454,67.4730186 465.042328,65.6564396 464.646261,64.0759133 C464.646261,64.0759133 464.882692,62.9379102 458.50935,53.4819195 C452.136008,44.0259288 447.124408,40.0317492 442.880754,38.2363003" id="Fill-260" fill="#CF7C2C"></path>
                    <path d="M456.222142,67.4180201 C456.136278,67.4180201 456.063716,67.3522152 456.057669,67.2652802 C456.051018,67.1753266 456.119347,67.0962399 456.210049,67.0889954 C456.461596,67.0708839 462.362682,66.5698003 462.417103,60.8055279 C462.417708,60.7149706 462.491479,60.6425248 462.582181,60.6425248 L462.583995,60.6425248 C462.674698,60.6431285 462.747864,60.7173854 462.746655,60.8091502 C462.689815,66.8782988 456.298937,67.4131904 456.234236,67.4180201 L456.222142,67.4180201 Z" id="Fill-262" fill="#FFFFFF"></path>
                    <path d="M421.053146,81.3989768 C412.721846,81.1599056 408.3113,76.6356641 408.037984,76.3458808 C407.162405,75.419178 407.205942,73.9599985 408.134128,73.0864226 C409.058686,72.216469 410.511735,72.2551068 411.387919,73.1709427 C411.742262,73.5331718 419.569258,81.2251068 435.106547,72.9868096 C436.233673,72.3891316 437.631092,72.8171656 438.229726,73.9412833 C438.828361,75.0666084 438.399642,76.4623978 437.27312,77.0600759 C430.819356,80.4813297 425.40141,81.5239458 421.053146,81.3989768" id="Fill-264" fill="#1F1796"></path>
                    <path d="M418.095287,81.6389536 L414.977549,80.6518793 C413.556548,80.2027152 412.431236,78.5660433 412.475378,77.0163065 C412.520124,75.4665697 413.719207,74.5664303 415.140209,75.0161981 L418.258551,76.0032724 C419.678947,76.4524365 420.804259,78.0891084 420.760118,79.6388452 C420.715371,81.188582 419.516288,82.0887214 418.095287,81.6389536" id="Fill-266" fill="#D9E9FF"></path>
                    <path d="M437.355962,22.4943065 C436.652717,25.4893375 434.181989,27.4719381 431.838244,26.923161 C429.493894,26.3743839 428.1642,23.5013034 428.867444,20.5068762 C429.570689,17.5118452 432.041417,15.5298483 434.385767,16.0780217 C436.729512,16.6267988 438.059811,19.4998793 437.355962,22.4943065" id="Fill-268" fill="#FDFDFD"></path>
                    <path d="M436.246371,23.1422136 C435.811001,24.9950155 434.282366,26.2217647 432.83234,25.8818731 C431.382314,25.5425851 430.559343,23.7652477 430.994109,21.9130495 C431.429479,20.0602477 432.958718,18.8334985 434.40814,19.1733901 C435.858166,19.512678 436.681742,21.2900155 436.246371,23.1422136" id="Fill-270" fill="#9C91FF"></path>
                    <path d="M418.760799,2.03989319 C418.760799,2.03989319 433.513211,0.509475232 432.794245,16.7264721 L434.761878,17.1255279 C434.761878,17.1255279 436.722256,5.54325232 428.786417,1.88473839 C420.850578,-1.77377554 418.760799,2.03989319 418.760799,2.03989319" id="Fill-272" fill="#FDFDFD"></path>
                    <path d="M421.562772,30.0118282 C421.155821,30.6928189 419.954924,30.7254195 418.8798,30.0848777 C417.805282,29.4443359 417.264696,28.3733452 417.671042,27.6923545 C418.077993,27.0119675 419.279495,26.9799706 420.354014,27.6199087 C421.428533,28.2604505 421.969722,29.3314412 421.562772,30.0118282" id="Fill-274" fill="#FDFDFD"></path>
                    <path d="M425.129425,31.1390851 C422.191882,31.1390851 419.854184,29.5054319 419.736876,29.4215155 C419.430302,29.2035743 419.35895,28.7785588 419.57724,28.4724752 C419.796135,28.1663916 420.220016,28.0951533 420.527799,28.3124907 C420.581616,28.3511285 423.552415,30.3983266 426.672572,29.5839149 C428.743001,29.0429861 430.460901,27.3652616 431.781525,24.5948127 C431.942975,24.2561285 432.349925,24.1100294 432.689756,24.2730325 C433.029587,24.4342245 433.174106,24.8399211 433.012051,25.1798127 C431.509418,28.3348282 429.487968,30.2606796 427.005146,30.9036362 C426.364184,31.0702616 425.733501,31.1390851 425.129425,31.1390851" id="Fill-276" fill="#FDFDFD"></path>
                    <path d="M405.543431,56.8111672 C405.543431,56.8111672 403.922885,51.3010588 406.529666,46.1513684 C409.135843,41.001678 410.710434,40.3587214 410.710434,40.3587214 L414.967995,31.9453467 L413.762865,35.3243406 C412.59583,38.5970805 411.036962,41.7116471 409.184218,44.6523437 C407.466318,47.3811362 405.461799,51.6807957 405.543431,56.8111672" id="Fill-278" fill="#FFE18C"></path>
                    <path d="M418.8281,22.0202693 L422.040168,23.5494799 C422.172593,23.61287 422.259062,23.7704396 422.242736,23.937065 C422.186501,24.5323282 421.863601,25.7953003 420.113653,25.1058576 C418.887964,24.6228854 418.510038,23.2421889 418.393939,22.4229474 C418.352821,22.1337678 418.597112,21.9097895 418.8281,22.0202693" id="Fill-280" fill="#FFFFFF"></path>
                    <path d="M400.8843,69.0894659 L398.003598,68.0758282 L397.665581,67.737144 L397.448501,67.3519737 L375.750718,56.0872523 C375.488891,55.9514164 375.055939,55.9689241 374.78867,56.1252864 L366.504534,60.9755341 L366.489417,60.8403019 L364.926921,61.4639396 L364.997064,62.1081037 L365.008553,62.1081037 C365.036368,62.1702864 365.093813,62.228243 365.182096,62.2741254 L387.761505,73.9970666 C387.791739,74.0121594 387.80867,74.0417415 387.820763,74.0840015 C388.292415,75.8106269 389.080315,77.3555341 390.555133,76.4584133 L399.729359,71.060596 C400.458,70.6615402 400.890347,69.9225929 400.8843,69.0894659" id="Fill-282" fill="#A8C4E5"></path>
                    <path d="M388.685579,75.7886517 L362.683674,62.2889768 C362.382542,62.1326146 362.388589,61.8573204 362.696977,61.6768096 L373.74632,55.2080015 C374.054707,55.0274907 374.552965,55.0081718 374.854096,55.1645341 L400.856001,68.6636053 C401.157133,68.8199675 401.151086,69.0952616 400.842698,69.2757724 L389.793355,75.7445805 C389.484967,75.9250913 388.98671,75.9450139 388.685579,75.7886517" id="Fill-284" fill="#E1EAF4"></path>
                    <path d="M389.41428,67.0937647 L383.121361,63.8264582 C383.048799,63.7884241 383.050008,63.7220155 383.124384,63.678548 L385.79889,62.1131146 C385.873266,62.0696471 385.994202,62.0648173 386.066764,62.1022477 L392.359683,65.3695542 C392.432245,65.4069845 392.431036,65.4733932 392.356055,65.5174644 L389.682154,67.0828978 C389.607174,67.126969 389.486842,67.131195 389.41428,67.0937647" id="Fill-286" fill="#A8C4E5"></path>
                    <path d="M386.404418,60.5967632 C386.237526,59.9809737 385.652194,59.2516858 385.097097,58.9685433 L359.305016,45.7755557 C359.075237,45.6578313 358.887181,45.6367012 358.75657,45.6934505 L358.755361,45.6928467 L358.752942,45.6952616 C358.705777,45.7169954 358.667077,45.7471811 358.636843,45.7882337 L357.918482,46.5954009 L358.644704,46.5332183 L362.51406,60.798404 C362.680953,61.4141935 363.266284,62.1428777 363.821382,62.4266238 L388.209997,74.9011904 L389.040224,75.6980944 L389.153904,75.8943019 C389.630393,75.9896889 390.663189,75.2350449 390.663189,75.2350449 L386.404418,60.5967632 Z" id="Fill-288" fill="#FFFFFF"></path>
                    <path d="M388.843824,76.4802074 L363.051743,63.2878235 C362.496646,63.0040774 361.910709,62.2747895 361.744422,61.659 L357.832133,47.2368483 C357.664637,46.6216625 357.979676,46.3530093 358.534773,46.6361517 L384.326854,59.8291393 C384.881951,60.1134892 385.467283,60.8421734 385.634175,61.4573591 L389.546464,75.8801146 C389.713356,76.4953003 389.398921,76.7645573 388.843824,76.4802074" id="Fill-290" fill="#4A148C"></path>
                    <path d="M374.379905,62.5169396 C374.587915,63.2830542 373.87681,63.4545093 372.792616,62.899695 C371.708423,62.3454845 370.661719,61.2744938 370.453709,60.5083793 C370.245698,59.7422647 370.956199,59.5708096 372.040393,60.1250201 C373.124586,60.6798344 374.171895,61.7502214 374.379905,62.5169396" id="Fill-292" fill="#FFFFFF"></path>
                    <path d="M116.763798,54.1616424 L104.88846,48.9545991 C104.182796,48.6545526 103.774637,47.716983 103.9766,46.8609149 L109.254259,24.458856 C109.455618,23.6027879 110.190911,23.1524164 110.896574,23.4530666 L122.670326,28.4657136 C123.375989,28.7663638 123.783544,29.7033297 123.582185,30.5593978 L118.329318,52.8558065 C118.196288,53.4196765 117.955625,53.5422307 117.470066,53.7849241 L116.763798,54.1616424 Z" id="Fill-294" fill="#EBCAE3"></path>
                    <path d="M113.227802,33.5545495 C113.227802,33.5545495 103.774818,47.7171037 103.976177,46.8610356 L109.101456,23.7628932 L110.029642,23.4477539 C110.295098,23.3324443 110.598648,23.3264071 110.896756,23.4531873 L122.669902,28.4658344 C123.015176,28.6125372 123.288492,28.9113762 123.454174,29.2778313 L113.227802,33.5545495 Z" id="Fill-296" fill="#EBCAE3"></path>
                    <path d="M115.702038,54.2777972 L103.960334,49.2609241 C103.255276,48.9608777 102.879164,48.0208932 103.081127,47.1654288 L108.358787,24.7627663 C108.560146,23.9066981 109.279112,23.4575341 109.98417,23.7581842 L121.718013,28.7750573 C122.423676,29.0757074 122.792532,30.015692 122.590568,30.8717601 L117.312304,53.2744226 C117.110945,54.1304907 116.407096,54.5778437 115.702038,54.2777972" id="Fill-298" fill="#4A148C"></path>
                    <path d="M115.961265,50.4172802 L104.954249,45.6769087 L109.551037,25.928178 L121.039984,30.820082 L116.248488,50.1214598 C116.208579,50.2880851 116.119691,50.4842926 115.961265,50.4172802" id="Fill-300" fill="#E9E8F7"></path>
                    <path d="M95.0268316,59.7660511 L114.492131,48.3039149 L117.111611,52.8553235 L99.5498485,64.9157415 C97.5023973,66.3211904 94.8907783,66.6236517 92.5760579,65.7229087 L95.0268316,59.7660511 Z" id="Fill-302" fill="#FFBABA"></path>
                    <path d="M121.864044,43.3779009 L121.862834,43.3772972 C120.290663,42.1535666 118.001339,42.4361053 116.77565,44.005161 L113.175376,48.6115077 C111.948478,50.1817709 112.231469,52.4680402 113.804245,53.6923746 L113.805454,53.6929783 C115.377021,54.916709 117.66695,54.634774 118.892639,53.0657183 L122.492912,48.4587678 C123.719811,46.8885046 123.43682,44.6022353 121.864044,43.3779009" id="Fill-304" fill="#FFBABA"></path>
                    <path d="M25.6662464,73.442192 L25.6656417,73.4415882 C24.1339837,72.1677492 21.8367991,72.3748235 20.559712,73.9034303 L16.8112919,78.3902415 C15.5336001,79.919452 15.7416105,82.2135697 17.2738732,83.4892198 L17.2744779,83.4898235 C18.8055312,84.7636625 21.1033205,84.5559845 22.379803,83.0279814 L26.1288277,78.5405666 C27.4059148,77.0119598 27.1979044,74.7172384 25.6662464,73.442192" id="Fill-306" fill="#FFBABA"></path>
                    <path d="M53.3342302,175.250786 L55.7172796,166.437752 C59.2177802,164.923635 61.8535865,164.457567 62.6493472,168.340663 L60.1834564,177.05348 L53.3342302,175.250786 Z" id="Fill-308" fill="#FF0099"></path>
                    <path d="M62.6778882,186.905266 L60.9998973,174.081752 C59.7554629,171.717604 57.6735449,170.496892 54.5727386,170.670158 C53.0767568,170.992542 51.9314902,171.338471 50.1210741,173.305978 C48.5996957,174.960158 49.4220624,178.614446 50.1603784,180.544523 L54.4699428,189.011025 C57.3609246,195.266118 59.8534213,194.987201 61.9298973,194.482495 C64.2730377,193.681365 63.9453004,190.860808 62.6778882,186.905266" id="Fill-310" fill="#4A148C"></path>
                    <path d="M66.3372386,87.4998204 C67.9856001,100.582328 67.9178758,123.537994 63.16508,135.574263 C59.7945858,144.110192 54.8035455,156.506879 51.6477133,165.504046 C51.3913283,166.235146 63.0937276,169.949805 63.3265299,169.274248 C66.4968745,160.051291 71.6445273,148.501616 75.1014909,139.659604 C80.0127133,127.09931 84.2388316,113.696229 84.461959,100.102978 C84.5653596,93.8050217 74.7344493,92.9984582 74.6298394,99.3567864 L66.3372386,87.4998204 Z" id="Fill-312" fill="#5F2AA1"></path>
                    <path d="M80.124156,95.0468638 C78.0271209,109.576477 73.299117,123.823551 67.9996892,137.37756 C64.5106775,146.300471 59.8098843,157.167344 55.7681938,167.405749 C59.075801,168.547375 63.1894486,169.672096 63.3261066,169.274248 C66.4964512,160.051291 71.6447087,148.501616 75.1016723,139.659604 C80.01229,127.09931 84.239013,113.696229 84.4621404,100.102978 C84.5099103,97.1689226 82.4007815,95.427808 80.124156,95.0468638" id="Fill-314" fill="#4A148C"></path>
                    <path d="M15.898344,128.18811 L24.9782399,127.117723 C27.6890267,129.797615 29.1021671,132.067584 25.788513,134.24941 L16.7702945,135.205695 L15.898344,128.18811 Z" id="Fill-316" fill="#FF0099"></path>
                    <path d="M58.3379083,123.337741 C64.3738381,106.74463 69.6702425,82.3883452 69.4362308,81.4574164 L49.0058602,80.9333916 C49.0627003,81.1579737 45.073617,116.925683 45.073617,116.925683 C45.073617,116.925683 23.2295013,126.117246 20.8107757,126.480683 C20.2048849,126.571844 22.3357822,136.615249 22.9102295,136.535559 C24.2925312,136.344181 41.666842,132.226844 50.7527848,130.063732 C54.2508667,129.231209 57.1104051,126.712509 58.3379083,123.337741" id="Fill-318" fill="#5F2AA1"></path>
                    <path d="M69.4017035,81.2981563 L61.3491612,81.0916858 C59.9487191,88.2372585 55.5690117,106.628234 50.7085826,119.989054 C49.4810793,123.363822 46.621541,125.882522 43.123459,126.715045 C37.1860923,128.128342 27.7107347,130.375974 21.4698179,131.818249 C21.9837971,134.186624 22.6035956,136.414937 22.8757022,136.376902 C24.2580039,136.185525 41.6323147,132.067584 50.7176528,129.905076 C54.2157347,129.071949 57.0752731,126.553853 58.303381,123.179085 C64.3387061,106.585974 69.6357152,82.2296889 69.4017035,81.2981563" id="Fill-320" fill="#4A148C"></path>
                    <path d="M8.70535631,144.873409 L17.6558505,135.612418 C18.6795761,132.969957 18.4951482,130.405978 17.049355,127.922898 C14.9480871,127.761706 14.9480871,127.761706 12.3908895,127.439926 C10.2406424,127.170065 7.82675423,129.853579 6.72079194,131.50957 L2.4686723,139.612635 C-0.836516255,145.369059 0.773750325,147.16813 2.32959558,148.514415 C4.26759948,149.904771 6.30235241,148.074307 8.70535631,144.873409" id="Fill-322" fill="#4A148C"></path>
                    <path d="M54.3454993,27.9878731 C44.3990949,33.280644 36.2570598,42.5023932 28.9144135,50.8608297 C27.332567,52.6617121 26.486013,53.789452 25.937567,56.0980588 C24.1114291,63.7803344 21.5602783,72.1037554 19.6906034,79.8765882 C18.7999077,83.5803808 25.9224499,79.7691269 26.8639389,75.803322 C28.9168322,67.1581207 29.6515202,67.9091424 31.6651092,60.3228576 C32.02429,58.9681207 32.7789324,56.0606285 33.2306294,55.5450557 C40.2854473,47.4824396 48.0580221,38.4997616 57.6283147,33.4080279 C61.2412861,31.4857988 57.9360975,26.0771146 54.3454993,27.9878731" id="Fill-324" fill="#FFBABA"></path>
                    <path d="M58.9187048,70.7019288 C59.0202913,73.0612477 57.4753303,76.0091889 55.4665787,77.284839 C53.4584317,78.5616966 51.7471834,77.6826873 51.6455969,75.3227647 C51.5434057,72.9628421 53.0889714,70.0155046 55.0971183,68.7392508 C57.10587,67.4636006 58.8165137,68.3420062 58.9187048,70.7019288" id="Fill-326" fill="#FFFFFF"></path>
                    <path d="M47.4365306,95.6057833 L61.2256853,100.864746 C62.1792679,101.843368 58.0571547,97.0607368 59.2574473,97.7157678 C61.7565956,99.0807678 75.8305553,107.766418 78.678,107.690954 C82.1174278,107.599793 79.9708088,104.369313 82.4300481,101.966526 C84.7635137,99.6875015 85.1819532,96.129808 85.2787022,92.872161 C85.3053082,91.971418 85.309541,91.0320372 84.914684,90.2224551 C84.4883836,89.3476718 83.6587607,88.7499938 82.8569532,88.196387 C76.584593,83.8683529 65.0575514,77.1333065 55.8162055,77.0210155 C45.4392679,76.8942353 46.9152952,82.4423777 47.4365306,95.6057833" id="Fill-328" fill="#4A148C"></path>
                </g>
                <g id="Group-333" transform="translate(38.000000, 248.000000)">
                    <mask id="mask-24" fill="white">
                        <use xlink:href="#path-23"></use>
                    </mask>
                    <g id="Clip-332"></g>
                    <path d="M22.5042857,2.93809917 C16.4176531,7.15158678 8.24555102,16.1124876 2.6122551,21.2840248 L2.6122551,21.2840248 C0.637561224,22.7476446 -0.095122449,25.074595 1.10113265,26.0772893 L1.10113265,26.0772893 L4.55082653,30.3360248 C5.53817347,31.1637603 8.32441837,29.2102562 9.84276531,27.8588512 L9.84276531,27.8588512 L18.0708571,20.6101322 C19.9702959,39.214876 16.7030204,45.2672397 17.3472041,52.7934793 L17.3472041,52.7934793 C17.6512347,56.3511736 19.0949286,59.6904711 22.3543776,61.1323719 L22.3543776,61.1323719 C29.8558061,64.451157 43.1723469,70.2682314 47.2529796,71.5623223 L47.2529796,71.5623223 C54.4810816,74.6940826 57.8904388,70.9747025 57.8904388,70.9747025 L57.8904388,70.9747025 C59.3552041,70.0407851 57.4912857,63.3042727 57.4912857,63.3042727 L57.4912857,63.3042727 C54.9079286,45.0796116 55.5569286,37.7084215 55.2342347,22.7874628 L55.2342347,22.7874628 C55.2842041,22.3253306 52.4130714,9.68185124 52.4130714,9.68185124 L52.4130714,9.68185124 C49.1331531,7.92381818 42.4444796,5.11180992 38.7949082,3.0967686 L38.7949082,3.0967686 C35.8912653,1.49318182 32.5523469,0.444033058 29.441602,0.444636364 L29.441602,0.444636364 C26.8389796,0.444636364 24.395898,1.17946281 22.5042857,2.93809917" id="Fill-331" mask="url(#mask-24)"></path>
                </g>
                <g id="Group-340" transform="translate(38.000000, 248.000000)">
                    <path d="M48.4213765,7.25227115 C40.5045494,6.42063654 35.020784,11.8796173 32.6536605,0.794136538 C33.7703765,0.044175 35.4738827,-0.340940385 36.2899444,0.720213462 C37.7236481,2.58498269 39.9921667,3.46132885 43.595784,3.82140577 C44.5485617,3.91679038 45.4916605,4.05807885 46.0439691,4.82890577 L48.4213765,7.25227115 Z" id="Fill-334" fill="#FFFFFF"></path>
                    <path d="M8.26357778,30.6082077 C8.15408395,30.9402654 1.67277531,31.6806885 0.0503308642,22.8909962 C0.00617037037,22.65015 0.0690839506,22.3973808 0.219108642,22.2030346 L3.39503457,18.0901692 C3.73863951,17.6448423 4.41314568,17.6305346 4.7755037,18.0609577 L12.5919111,27.33115 C12.9572938,27.7645538 12.8139235,28.4209192 12.2997259,28.6677269 L8.26357778,30.6082077 Z" id="Fill-336" fill="#FFFFFF"></path>
                    <polygon id="Fill-338" fill="#2180C2" points="18.7628864 20.3658673 19.1385531 16.8282904 10.1340469 24.4161365 11.8611457 26.4645212"></polygon>
                </g>
                <g id="Group-343" transform="translate(85.000000, 257.000000)">
                    <mask id="mask-26" fill="white">
                        <use xlink:href="#path-25"></use>
                    </mask>
                    <g id="Clip-342"></g>
                    <path d="M3.84388889,0.941283019 C1.35177778,2.2514717 -1.67872222,7.33464151 1.56077778,12.4486038 L1.56077778,12.4486038 L13.4554444,31.8732075 L21.747,26.0365283 L8.03916667,2.74898113 C6.8805,0.886943396 5.85627778,0.408754717 5.11011111,0.408754717 L5.11011111,0.408754717 C4.32238889,0.408754717 3.84388889,0.941283019 3.84388889,0.941283019" id="Fill-341" mask="url(#mask-26)"></path>
                </g>
                <g id="Group-360" transform="translate(7.000000, 230.000000)">
                    <path d="M102.421042,51.7814567 C102.771189,51.8341587 104.570299,58.114774 96.0379791,61.1763317 C95.805153,61.2593221 95.541485,61.2393317 95.322568,61.1236298 L90.687817,58.6684471 C90.1858802,58.4031202 90.0619079,57.7391971 90.4332202,57.309101 L98.4345759,48.0493125 C98.8089119,47.6161875 99.4892478,47.6495048 99.820647,48.1159471 L102.421042,51.7814567 Z" id="Fill-344" fill="#FFFFFF"></path>
                    <path d="M89.4187636,84.5444856 C89.4387202,84.6783606 90.8616806,88.0458317 87.6045344,89.3197644 C84.8898427,90.3816779 85.1613723,90.0472933 83.5231233,90.0666779 C84.6926964,89.969149 82.1757557,81.9669375 81.4942103,73.360774 C80.8549968,65.2913221 82.1382617,56.815399 80.5477874,50.1949471 C79.4525976,45.6389567 77.7139613,30.497149 81.4942103,38.9573221 L86.5293012,50.0780337 C86.5293012,50.0780337 86.6411787,65.8437837 89.4187636,84.5444856" id="Fill-346" fill="#2180C2"></path>
                    <path d="M455.059192,97.4596673 L455.059192,97.4596673 C453.152437,97.4596673 451.5922,95.8961769 451.5922,93.9861865 L451.5922,88.9601192 C451.5922,87.0495231 453.152437,85.4860327 455.059192,85.4860327 C456.966551,85.4860327 458.526789,87.0495231 458.526789,88.9601192 L458.526789,93.9861865 C458.526789,95.8961769 456.966551,97.4596673 455.059192,97.4596673" id="Fill-348" fill="#FFC2B0"></path>
                    <path d="M49.9182154,169.063468 C49.9182154,169.063468 50.5586383,165.642689 53.4402391,166.176372 C56.0920375,166.668863 59.1139387,180.718468 60.6524051,186.727093 C60.8828123,187.627872 60.2587174,188.536526 59.3340652,188.611641 C57.8693775,188.729766 55.7297964,188.076141 54.0800573,184.136218 C51.305496,177.507891 49.9182154,169.063468 49.9182154,169.063468" id="Fill-350" fill="#C2A9F2"></path>
                    <path d="M9.13143913,122.002771 C9.13143913,122.002771 11.8757632,119.906204 13.3501269,121.900396 C14.7077751,123.735271 7.04568024,135.504762 3.92641542,140.676213 C3.45894901,141.450387 2.43935217,141.754483 1.79771976,141.291069 C0.782356126,140.557483 -0.138062846,138.892829 1.49897668,135.143723 C4.25176719,128.83706 9.13143913,122.002771 9.13143913,122.002771" id="Fill-352" fill="#C2A9F2"></path>
                    <path d="M53.6848577,78.5151433 C53.6848577,78.5151433 49.4462134,77.3411625 48.5886877,72.0497683 C47.7305573,66.7595856 48.2155613,66.4379221 48.5886877,62.8572202 C48.9618142,59.2765183 49.6717826,51.5154029 49.5961897,48.2394029 C49.5205968,44.9627971 46.3202964,25.8653163 57.0865375,17.8643163 C57.0865375,17.8643163 52.5981344,26.4583644 52.5981344,44.5242202 C52.5981344,50.3595952 53.6848577,78.5151433 53.6848577,78.5151433" id="Fill-354" fill="#7DFAFF"></path>
                    <path d="M419.854134,0.301733654 C419.854134,0.301733654 423.575118,9.47065673 428.121576,10.574974 L430.890695,11.367926 L432.227177,10.0352337 C432.227177,10.0352337 427.984904,9.5342625 426.884272,7.53037788 C425.784244,5.52528173 421.607889,-0.0714201923 419.854134,0.301733654" id="Fill-356" fill="#8634EB"></path>
                    <polygon id="Fill-358" fill="#FFFFFF" points="165.982564 44.781975 127.421121 31.7009942 133.596153 7.1946 172.156991 20.2755808"></polygon>
                </g>
                <g id="Group-363" transform="translate(141.000000, 253.000000)">
                    <mask id="mask-28" fill="white">
                        <use xlink:href="#path-27"></use>
                    </mask>
                    <g id="Clip-362"></g>
                    <path d="M27.8430175,1.30375 C25.5721754,2.055 22.7567368,2.80625 19.2016491,1.796875 L19.2016491,1.796875 C16.8812982,1.13875 14.7810526,1.655 13.087614,2.17 L13.087614,2.17 C11.8039649,2.56125 10.7541404,2.951875 10.0198596,2.830625 L10.0198596,2.830625 C7.13224561,2.35375 8.45884211,2.329375 6.15459649,1.534375 L6.15459649,1.534375 C3.13992982,0.495 0.896526316,2.281875 0.896526316,2.281875 L0.896526316,2.281875 L0.363859649,4.3325 L29.9927719,14.7175 L33.5317544,1.07875 C32.9698596,0.529375 32.3477193,0.3225 31.6504211,0.3225 L31.6504211,0.3225 C30.5773333,0.3225 29.3264912,0.813125 27.8430175,1.30375" id="Fill-361" mask="url(#mask-28)"></path>
                </g>
                <g id="Group-398" transform="translate(40.000000, 73.000000)">
                    <path d="M100.846737,184.679306 C100.834024,184.679306 100.821916,184.678096 100.809202,184.674467 C100.734132,184.654504 100.689937,184.577072 100.710521,184.501454 L104.298759,171.313195 C104.319343,171.238183 104.396835,171.194022 104.471905,171.21459 C104.546975,171.234553 104.591775,171.311985 104.570586,171.387602 L100.982954,184.575862 C100.965397,184.638775 100.909094,184.679306 100.846737,184.679306" id="Fill-364" fill="#FFFFFF"></path>
                    <path d="M108.378283,187.031669 C108.36557,187.031669 108.353462,187.030459 108.340748,187.02683 C108.265678,187.006867 108.221483,186.929435 108.242067,186.853817 L111.829699,173.664953 C111.850283,173.589941 111.927775,173.54578 112.002845,173.566348 C112.077916,173.586311 112.122716,173.663743 112.101526,173.73936 L108.514499,186.928225 C108.496943,186.991138 108.44064,187.031669 108.378283,187.031669" id="Fill-366" fill="#FFFFFF"></path>
                    <path d="M115.864242,189.548938 C115.851529,189.548938 115.839421,189.547728 115.826707,189.544099 C115.751637,189.524136 115.707442,189.446704 115.728026,189.371086 L119.316264,176.182827 C119.336848,176.107815 119.414339,176.062444 119.48941,176.084222 C119.56448,176.104185 119.60928,176.181617 119.588091,176.257235 L116.000458,189.445494 C115.982902,189.508407 115.926599,189.548938 115.864242,189.548938" id="Fill-368" fill="#FFFFFF"></path>
                    <path d="M123.351412,192.063183 C123.338698,192.063183 123.32659,192.061973 123.313877,192.058343 C123.238806,192.03838 123.194612,191.960948 123.215196,191.885331 L126.803434,178.697072 C126.824017,178.622059 126.90272,178.577294 126.976579,178.598467 C127.05165,178.61843 127.09645,178.695862 127.075261,178.771479 L123.487628,191.959738 C123.470071,192.022652 123.413769,192.063183 123.351412,192.063183" id="Fill-370" fill="#FFFFFF"></path>
                    <path d="M130.783005,194.781896 C130.770292,194.781896 130.758184,194.780686 130.74547,194.777057 C130.6704,194.757094 130.626205,194.679662 130.646789,194.604044 L134.234422,181.415785 C134.255005,181.340773 134.332497,181.296007 134.407568,181.31718 C134.482638,181.337143 134.527438,181.414575 134.506249,181.490193 L130.919222,194.678452 C130.901665,194.741365 130.845362,194.781896 130.783005,194.781896" id="Fill-372" fill="#FFFFFF"></path>
                    <path d="M134.627693,180.159994 L133.652385,179.784932 C133.544017,179.743796 133.48045,179.617969 133.51072,179.506056 C133.541596,179.394142 133.654806,179.337278 133.762569,179.379019 L134.737877,179.75408 C134.845639,179.795216 134.909206,179.920438 134.878936,180.032352 C134.848061,180.144265 134.735455,180.201735 134.627693,180.159994" id="Fill-374" fill="#FFFFFF"></path>
                    <path d="M130.414071,195.317085 L129.438763,194.942023 C129.435736,194.940814 129.432104,194.940814 129.429077,194.939604 L128.705012,194.660727 C128.596644,194.619591 128.484039,194.676456 128.453769,194.788369 C128.422893,194.900283 128.486461,195.025505 128.594223,195.067246 L129.569531,195.442307 C129.572558,195.443517 129.575585,195.443517 129.579217,195.444727 L130.303282,195.723604 C130.411044,195.76474 130.524861,195.707875 130.554525,195.595962 C130.584796,195.484048 130.521834,195.358826 130.414071,195.317085" id="Fill-376" fill="#FFFFFF"></path>
                    <path d="M122.257081,192.368011 L121.281773,191.992344 C121.278746,191.991135 121.275719,191.991135 121.272692,191.989925 L120.548022,191.711048 C120.440259,191.669912 120.327049,191.726777 120.296778,191.83869 C120.266508,191.951209 120.32947,192.076431 120.437838,192.117567 L121.412541,192.492628 C121.416173,192.493838 121.4192,192.494443 121.422227,192.495653 L122.146292,192.773925 C122.254659,192.81506 122.36787,192.758196 122.397535,192.646283 C122.428411,192.534369 122.365449,192.409147 122.257081,192.368011" id="Fill-378" fill="#FFFFFF"></path>
                    <path d="M114.626794,189.655226 L113.651485,189.279559 C113.648458,189.278349 113.645431,189.278349 113.642404,189.27714 L112.917734,188.998263 C112.809972,188.957127 112.696761,189.013991 112.666491,189.125905 C112.636221,189.238423 112.699183,189.363646 112.806945,189.404781 L113.782253,189.779843 C113.785885,189.781053 113.788912,189.781658 113.791939,189.782868 L114.516004,190.06114 C114.624372,190.102275 114.737583,190.045411 114.767248,189.933498 C114.798123,189.821584 114.735161,189.696362 114.626794,189.655226" id="Fill-380" fill="#FFFFFF"></path>
                    <path d="M107.419321,187.121502 L106.444013,186.746441 C106.440986,186.745231 106.437959,186.745231 106.434326,186.744021 L105.710262,186.465144 C105.602499,186.424009 105.489289,186.480873 105.459018,186.592786 C105.428748,186.7047 105.49171,186.829922 105.599472,186.871663 L106.574781,187.246725 C106.577808,187.247935 106.58144,187.24854 106.584467,187.249144 L107.308532,187.528021 C107.416294,187.569157 107.53011,187.512293 107.559775,187.400379 C107.590651,187.288465 107.527083,187.163243 107.419321,187.121502" id="Fill-382" fill="#FFFFFF"></path>
                    <path d="M126.962534,177.853062 L125.987226,177.478 C125.878858,177.436259 125.815291,177.311037 125.845561,177.199123 C125.876437,177.08721 125.989648,177.030346 126.09741,177.071481 L127.073323,177.446543 C127.18048,177.487679 127.244048,177.613506 127.213777,177.72542 C127.183507,177.837333 127.070296,177.894198 126.962534,177.853062" id="Fill-384" fill="#FFFFFF"></path>
                    <path d="M119.474214,175.565064 L118.499511,175.190002 C118.391144,175.148867 118.327576,175.02304 118.357846,174.911731 C118.388722,174.799212 118.501933,174.742348 118.609695,174.784089 L119.585003,175.159151 C119.692765,175.200286 119.756333,175.325509 119.726063,175.437422 C119.695187,175.549941 119.582582,175.606805 119.474214,175.565064" id="Fill-386" fill="#FFFFFF"></path>
                    <path d="M111.886547,173.215 L110.911239,172.839938 C110.803477,172.798198 110.739304,172.672975 110.770179,172.561062 C110.80045,172.449148 110.914266,172.392284 111.021423,172.43342 L111.997336,172.808481 C112.105098,172.850222 112.168666,172.975444 112.13779,173.087358 C112.10752,173.199272 111.994915,173.256136 111.886547,173.215" id="Fill-388" fill="#FFFFFF"></path>
                    <path d="M104.433098,170.8189 L103.45779,170.443233 C103.349423,170.402098 103.285855,170.276875 103.316125,170.164962 C103.347001,170.053048 103.460212,169.995579 103.567974,170.03732 L104.543888,170.412381 C104.651044,170.453517 104.714612,170.579344 104.684342,170.691258 C104.654071,170.803172 104.540861,170.860036 104.433098,170.8189" id="Fill-390" fill="#FFFFFF"></path>
                    <path d="M99.6950746,184.601874 L98.7197665,184.226812 C98.7167395,184.225602 98.7137124,184.225602 98.71008,184.224393 L97.9860151,183.945516 C97.878253,183.90438 97.7650422,183.961244 97.7347719,184.073158 C97.7045016,184.185072 97.7674638,184.310294 97.8752259,184.352035 L98.8505341,184.727096 C98.8541665,184.728306 98.8571935,184.728306 98.8602205,184.729516 L99.5842854,185.008393 C99.692653,185.049528 99.8058638,184.992664 99.8355286,184.880751 C99.8664043,184.768837 99.8028368,184.643615 99.6950746,184.601874" id="Fill-392" fill="#FFFFFF"></path>
                    <path d="M4.4483373,107.996544 C4.4483373,109.146532 3.51480216,110.078742 2.36453189,110.078742 C1.21305081,110.078742 0.280121081,109.146532 0.280121081,107.996544 C0.280121081,106.846557 1.21305081,105.913742 2.36453189,105.913742 C3.51480216,105.913742 4.4483373,106.846557 4.4483373,107.996544" id="Fill-394" fill="#A58CE2"></path>
                    <path d="M447.855187,3.33756543 C447.855187,5.03260247 446.480311,6.40641728 444.783965,6.40641728 C443.087619,6.40641728 441.712744,5.03260247 441.712744,3.33756543 C441.712744,1.6425284 443.087619,0.268108642 444.783965,0.268108642 C446.480311,0.268108642 447.855187,1.6425284 447.855187,3.33756543" id="Fill-396" fill="#A58CE2"></path>
                </g>
            </g>
        </g>
    </g>
</svg>