<svg xmlns="http://www.w3.org/2000/svg" viewBox="0 0 524.95 201.25"><defs><style>.cls-1{fill:#fafafa;}</style></defs><title>nui-logoAsset 1</title><g id="Layer_2" data-name="Layer 2"><g id="Capa_1" data-name="Capa 1"><circle class="cls-1" cx="172.42" cy="21.87" r="18.78" transform="translate(-0.41 40.2) rotate(-13.28)"/><path class="cls-1" d="M156.71,69.49V148a21.92,21.92,0,0,1-21.89,21.89h-3.2A21.92,21.92,0,0,1,109.73,148V53.27C109.73,31.89,94,15.56,94,15.56A53.07,53.07,0,0,0,56.46,0H53.27A53.33,53.33,0,0,0,0,53.27v76.46a34.19,34.19,0,0,0,31.38,0V53.27A21.92,21.92,0,0,1,53.27,31.38h3.19A21.92,21.92,0,0,1,78.35,53.27V148S77.7,167.52,94,185.7a53.08,53.08,0,0,0,37.58,15.55h3.2A53.32,53.32,0,0,0,188.08,148V69.49C174.05,73.94,156.71,69.49,156.71,69.49Z"/><path class="cls-1" d="M247,49.24h-7.74V9.7h10.34L262.9,36V9.7h7.74V49.24H261.1L247,21.79Z"/><path class="cls-1" d="M300.41,35.4V9.7h7.68V36.13c0,7.68-5,13.78-14.8,13.78s-14.74-6.1-14.74-13.78V9.7h7.85V35.4c0,4.29,2.37,7.28,7,7.28S300.41,39.69,300.41,35.4Z"/><path class="cls-1" d="M316,9.7h7.86V49.24H316Z"/><path class="cls-1" d="M267.31,77.48v7h-11.8V117h-7.8V84.48h-11.8v-7Z"/><path class="cls-1" d="M290.75,106.22H271.49a6.14,6.14,0,0,0,11.13,2.54l7.62.79c-2.31,5.54-7.17,8.14-12.93,8.14a13.2,13.2,0,0,1-13.56-13.61c0-7.91,5.71-13.61,13.45-13.61,7.11,0,13.55,4.63,13.55,15.47Zm-19.43-4.91H282.9a5.62,5.62,0,0,0-5.7-4.75A5.78,5.78,0,0,0,271.32,101.31Z"/><path class="cls-1" d="M300.8,104.08c0,4.06,2.66,7,6.5,7a5.92,5.92,0,0,0,5.7-3.95l6.89,2.15c-1.69,5.14-6.78,8.36-12.65,8.36a13.61,13.61,0,1,1,0-27.22c5.87,0,11,3.27,12.65,8.41L313,101a6,6,0,0,0-5.7-4C303.46,97,300.8,100,300.8,104.08Z"/><path class="cls-1" d="M339.21,90.47c5.59,0,9.6,3.55,9.6,9.6V117h-7.35V101.93c0-3.28-2.09-4.63-4.4-4.63a7.14,7.14,0,0,0-5.48,2.94V117h-7.34V91.14h7.17v1c0,.9-.11,2-.11,2A10.17,10.17,0,0,1,339.21,90.47Z"/><path class="cls-1" d="M353.21,104.08a13.84,13.84,0,1,1,13.84,13.61A13.46,13.46,0,0,1,353.21,104.08Zm7.34,0c0,4,2.66,7,6.5,7s6.44-3,6.44-7S370.83,97,367.05,97,360.55,100,360.55,104.08Z"/><path class="cls-1" d="M392.86,117h-7.29V77.48h7.29Z"/><path class="cls-1" d="M397.55,104.08a13.84,13.84,0,1,1,13.83,13.61A13.45,13.45,0,0,1,397.55,104.08Zm7.34,0c0,4,2.65,7,6.49,7s6.44-3,6.44-7S415.17,97,411.38,97,404.89,100,404.89,104.08Z"/><path class="cls-1" d="M456.11,91.14v27.79c0,4.06-2,8-8.3,8H436.57v-6.21H446c1.3,0,2.77-.34,2.77-2.32v-5c-1.24,2.09-4.35,3.9-8,3.9-7,0-12.43-5.31-12.43-13.38s5.37-13.44,12.37-13.44c3.9,0,6.89,1.8,8.19,4,0-.28-.11-.79-.11-2.14V91.14ZM442.39,111c3.89,0,6.55-2.89,6.55-7.06s-2.66-7.12-6.55-7.12-6.5,2.88-6.5,7.12S438.55,111,442.39,111Z"/><path class="cls-1" d="M471.3,117H464V97.36h-3.61V91.14H471.3Zm-4.57-39.53h9.37l-5.19,9.77h-7Z"/><path class="cls-1" d="M492,99.78c0-1.86-1.47-3-4.29-3a17.55,17.55,0,0,0-7.79,2.43L477,93.63a22.15,22.15,0,0,1,11.07-3.16c5.87,0,11.23,2.71,11.23,9.54v17H492v-2.43c-1.35,2-4.29,3.11-7.23,3.11-5.47,0-9-3.9-9-8.14,0-4.91,3.61-8,9.37-8h5.08c1.25,0,1.81-.56,1.81-1.52Zm0,8v-1.87a3.19,3.19,0,0,1-2.26.57H487c-2.32,0-3.67,1-3.67,2.82s1.41,3,3.67,3C489.6,112.32,492,111,492,107.75Z"/><path class="cls-1" d="M520.61,99.05a9.45,9.45,0,0,0-6.39-2.66c-1.92,0-2.59,1-2.59,1.76s.56,1.52,1.92,2l4.29,1.36c5.31,1.75,7.11,4.63,7.11,8,0,3.78-3.21,8.19-10.27,8.19a16.68,16.68,0,0,1-11.41-4.07l3.9-5.08a12.78,12.78,0,0,0,7.62,3.22c1.75,0,2.82-.91,2.82-1.92,0-1.3-.84-1.87-2.93-2.49l-4.41-1.3c-4.18-1.35-6-4.18-6-7.57,0-4.23,3.84-8,10.05-8a15.35,15.35,0,0,1,10.44,3.84Z"/><path class="cls-1" d="M268.67,152H247.09v9.26h12.6V168h-12.6v10.05h21.58v6.72H239.24V145.25h29.43Z"/><path class="cls-1" d="M292.1,181.5c-1.29,2.15-4.34,4-8.07,4-7.12,0-12.54-5.71-12.54-13.61s5.37-13.61,12.48-13.61c4,0,6.95,1.8,8.25,4,0-.85-.12-3-.12-4.92V145.25h7.35v39.53H292.1Zm-13-9.65c0,4,2.71,7.11,6.61,7.11s6.6-3.16,6.6-7.11-2.71-7.06-6.6-7.06S279.06,167.84,279.06,171.85Z"/><path class="cls-1" d="M305.38,175.29V158.91h7.34v15c0,3.55,2.37,5,5,5s5-1.42,5-5v-15h7.28v16.38c0,5.42-4.29,10.17-12.25,10.17S305.38,180.71,305.38,175.29Z"/><path class="cls-1" d="M341.58,171.85c0,4.06,2.65,7.06,6.49,7.06a5.94,5.94,0,0,0,5.71-4l6.89,2.15c-1.7,5.14-6.78,8.36-12.65,8.36a13.61,13.61,0,1,1,0-27.22c5.87,0,11,3.27,12.65,8.41l-6.89,2.09a6,6,0,0,0-5.71-4C344.23,164.79,341.58,167.78,341.58,171.85Z"/><path class="cls-1" d="M379.36,167.56c0-1.87-1.47-3.05-4.29-3.05a17.54,17.54,0,0,0-7.79,2.42l-2.88-5.53a22.13,22.13,0,0,1,11.06-3.16c5.88,0,11.24,2.71,11.24,9.54v17h-7.34v-2.43c-1.35,2-4.29,3.11-7.23,3.11-5.48,0-9-3.9-9-8.14,0-4.91,3.61-8,9.37-8h5.08c1.25,0,1.81-.56,1.81-1.52Zm0,8v-1.87a3.15,3.15,0,0,1-2.26.57h-2.77c-2.31,0-3.67,1-3.67,2.82s1.42,3.05,3.67,3.05C377,180.09,379.36,178.74,379.36,175.52Z"/><path class="cls-1" d="M402,149.09v9.82h5.59v6.22H402v11.69c0,1.63,1.3,1.86,2.43,1.86,1.86,0,3.38-.17,3.38-.17v6.27s-3.55.34-5.7.34c-3.67,0-7.45-.62-7.45-5.82V165.13H390.6v-6.22h4.07v-9.82Z"/><path class="cls-1" d="M421.55,184.78h-7.34V165.13h-3.62v-6.22h11Zm-4-39.53a4.73,4.73,0,0,1,4.74,4.74,4.72,4.72,0,0,1-9.43,0A4.72,4.72,0,0,1,417.54,145.25Z"/><path class="cls-1" d="M438.89,176.87l5.87-18h7.74l-9.21,25.87H434.2l-8.81-25.87h8Z"/><path class="cls-1" d="M470,167.56c0-1.87-1.47-3.05-4.29-3.05a17.58,17.58,0,0,0-7.8,2.42L455,161.4a22.15,22.15,0,0,1,11.07-3.16c5.88,0,11.24,2.71,11.24,9.54v17H470v-2.43c-1.36,2-4.29,3.11-7.23,3.11-5.48,0-9-3.9-9-8.14,0-4.91,3.62-8,9.38-8h5.08c1.24,0,1.81-.56,1.81-1.52Zm0,8v-1.87a3.15,3.15,0,0,1-2.26.57h-2.77c-2.31,0-3.67,1-3.67,2.82s1.41,3.05,3.67,3.05C467.58,180.09,470,178.74,470,175.52Z"/><path class="cls-1" d="M498.58,166.82a9.43,9.43,0,0,0-6.38-2.65c-1.92,0-2.6,1-2.6,1.75s.57,1.52,1.92,2l4.29,1.36c5.31,1.75,7.12,4.63,7.12,8,0,3.78-3.22,8.19-10.28,8.19a16.73,16.73,0,0,1-11.41-4.07l3.9-5.08a12.81,12.81,0,0,0,7.63,3.22c1.75,0,2.82-.91,2.82-1.92,0-1.3-.85-1.87-2.94-2.49l-4.4-1.3c-4.18-1.35-6-4.18-6-7.56,0-4.24,3.84-8,10.05-8a15.39,15.39,0,0,1,10.45,3.84Z"/></g></g></svg>