<svg xmlns="http://www.w3.org/2000/svg" viewBox="0 0 338.73 151.92"><defs><style>.cls-1{fill:#fafafa;}</style></defs><title>nui-logoAsset 1</title><g id="Layer_2" data-name="Layer 2"><g id="Layer_1-2" data-name="Layer 1"><path class="cls-1" d="M166.4,99.31h-2.15V96.25h2.15V91.74h3.79v4.51h4.41v3.06h-4.41v10c0,1.35.52,1.91,2.1,1.91h2.31v3.13h-3c-3.22,0-5.23-1.35-5.23-5Z"/><path class="cls-1" d="M185.87,114.7c-5.21,0-9.06-3.69-9.06-9.39S180.5,96,185.87,96c5.17,0,8.83,3.59,8.83,8.93a11.51,11.51,0,0,1-.13,1.85H180.7a5,5,0,0,0,5.17,4.81,4.38,4.38,0,0,0,4.28-2.54h4.06A8.31,8.31,0,0,1,185.87,114.7Zm-5.14-11h10.05c-.07-2.81-2.27-4.58-5.08-4.58A4.94,4.94,0,0,0,180.73,103.7Z"/><path class="cls-1" d="M206,96c4.44,0,7.34,2.21,8.36,6h-4.05A4.23,4.23,0,0,0,206,99.12c-3,0-5,2.24-5,6.19s2,6.23,5,6.23a4.14,4.14,0,0,0,4.31-2.87h4.05c-1,3.56-3.92,6-8.36,6-5.21,0-8.9-3.69-8.9-9.39S200.83,96,206,96Z"/><path class="cls-1" d="M231.05,104.26c0-3.33-1.82-5.05-4.55-5.05s-4.58,1.72-4.58,5.05V114.4h-3.76V96.25h3.76v2.07a7,7,0,0,1,5.4-2.37c4.25,0,7.45,2.67,7.45,7.75v10.7h-3.72Z"/><path class="cls-1" d="M247.42,114.7c-5.17,0-9.09-3.69-9.09-9.39a9.26,9.26,0,1,1,18.52,0A9.1,9.1,0,0,1,247.42,114.7Zm0-3.26c2.8,0,5.57-2,5.57-6.13s-2.67-6.1-5.47-6.1-5.37,2-5.37,6.1S244.59,111.44,247.42,111.44Z"/><path class="cls-1" d="M260.57,90h3.76V114.4h-3.76Z"/><path class="cls-1" d="M277.14,114.7c-5.17,0-9.09-3.69-9.09-9.39a9.26,9.26,0,1,1,18.52,0A9.1,9.1,0,0,1,277.14,114.7Zm0-3.26c2.8,0,5.57-2,5.57-6.13s-2.67-6.1-5.47-6.1-5.37,2-5.37,6.1S274.31,111.44,277.14,111.44Z"/><path class="cls-1" d="M297.61,96a7.69,7.69,0,0,1,6.29,2.94V96.25h3.79V114.7c0,4.94-3.2,8.67-8.86,8.67-4.85,0-8.44-2.41-8.9-6.43h3.72c.56,1.88,2.57,3.16,5.18,3.16,2.9,0,5.07-1.78,5.07-5.4v-3a7.79,7.79,0,0,1-6.29,3c-4.78,0-8.57-3.85-8.57-9.46S292.83,96,297.61,96Zm.79,3.26c-2.8,0-5.5,2.11-5.5,6s2.7,6.2,5.5,6.2,5.5-2.21,5.5-6.13S301.23,99.21,298.4,99.21Z"/><path class="cls-1" d="M317.91,88.18v3.19L310.62,95V92.2Zm-5.28,8.07h3.76V114.4h-3.76Z"/><path class="cls-1" d="M328.65,96a7.71,7.71,0,0,1,6.29,2.94V96.25h3.79V114.4h-3.79v-2.7a7.81,7.81,0,0,1-6.36,3c-4.71,0-8.5-3.85-8.5-9.46S323.87,96,328.65,96Zm.79,3.26c-2.8,0-5.5,2.11-5.5,6s2.7,6.2,5.5,6.2,5.5-2.21,5.5-6.13S332.27,99.21,329.44,99.21Z"/><path class="cls-1" d="M173.61,149.59c-5.2,0-9.06-3.69-9.06-9.39s3.69-9.36,9.06-9.36c5.17,0,8.83,3.59,8.83,8.93a11.51,11.51,0,0,1-.13,1.85H168.44a5,5,0,0,0,5.17,4.81,4.38,4.38,0,0,0,4.28-2.54H182A8.3,8.3,0,0,1,173.61,149.59Zm-5.14-11h10.05c-.07-2.81-2.27-4.58-5.07-4.58A5,5,0,0,0,168.47,138.59Z"/><path class="cls-1" d="M193.48,130.84a8.34,8.34,0,0,1,6.26,2.84v-8.77h3.79v24.38h-3.79v-2.73a7.52,7.52,0,0,1-6.29,3c-4.78,0-8.57-3.85-8.57-9.46S188.67,130.84,193.48,130.84Zm.76,3.26c-2.8,0-5.5,2.11-5.5,6s2.7,6.2,5.5,6.2,5.5-2.21,5.5-6.13S197.07,134.1,194.24,134.1Z"/><path class="cls-1" d="M224.92,149.29h-3.76v-2.17a6.76,6.76,0,0,1-5.37,2.44c-4.25,0-7.48-2.67-7.48-7.75V131.14H212v10.11c0,3.33,1.82,5.05,4.55,5.05s4.58-1.72,4.58-5.05V131.14h3.76Z"/><path class="cls-1" d="M237.5,130.84c4.45,0,7.35,2.21,8.37,6h-4.05A4.25,4.25,0,0,0,237.5,134c-3,0-5,2.24-5,6.19s2,6.23,5,6.23a4.15,4.15,0,0,0,4.32-2.87h4.05c-1,3.56-3.92,6-8.37,6-5.2,0-8.89-3.69-8.89-9.39S232.3,130.84,237.5,130.84Z"/><path class="cls-1" d="M257,130.84a7.71,7.71,0,0,1,6.29,2.94v-2.64H267v18.15h-3.79v-2.7a7.81,7.81,0,0,1-6.36,3c-4.71,0-8.5-3.85-8.5-9.46S252.17,130.84,257,130.84Zm.79,3.26c-2.8,0-5.51,2.11-5.51,6s2.71,6.2,5.51,6.2,5.5-2.21,5.5-6.13S260.57,134.1,257.74,134.1Z"/><path class="cls-1" d="M272.56,134.2h-2.14v-3.06h2.14v-4.51h3.79v4.51h4.42v3.06h-4.42v10.05c0,1.35.53,1.91,2.11,1.91h2.31v3.13h-3c-3.22,0-5.24-1.35-5.24-5Z"/><path class="cls-1" d="M283.74,126.33a2.39,2.39,0,1,1,2.4,2.4A2.38,2.38,0,0,1,283.74,126.33Zm.49,4.81H288v18.15h-3.76Z"/><path class="cls-1" d="M294.81,131.14,300,145.93l5.14-14.79h4l-6.92,18.15h-4.48l-6.88-18.15Z"/><path class="cls-1" d="M319.22,130.84a7.72,7.72,0,0,1,6.3,2.94v-2.64h3.79v18.15h-3.79v-2.7a7.83,7.83,0,0,1-6.36,3c-4.71,0-8.5-3.85-8.5-9.46S314.45,130.84,319.22,130.84Zm.79,3.26c-2.8,0-5.5,2.11-5.5,6s2.7,6.2,5.5,6.2,5.51-2.21,5.51-6.13S322.85,134.1,320,134.1Z"/><path class="cls-1" d="M134,32.16A16.08,16.08,0,0,0,134.11,0a17.19,17.19,0,0,0-4.9.74A16.08,16.08,0,0,0,134,32.16Z"/><path class="cls-1" d="M133.83,53.59a26.8,26.8,0,0,1-9.52-1.75,3.79,3.79,0,0,0-5.07,3.57v50c0,8.75-7.26,16-16,15.49-8.07-.51-14-7.25-14-15.48V44.28A44.48,44.48,0,0,0,42,.08C18.41,1.5.24,21.58.24,45.24V91.19l-.16,0c0,.05-.08.1-.08.15a14.28,14.28,0,0,0,14.34,14.3c7.93,0,14.23-7,14.26-14.42l-.36.12V47.54c0-7.65,6.17-15,13.77-15.82A15.51,15.51,0,0,1,59.24,47.13V91.36l.45-.43h.23s-.68.56-.68.58v16.13a44.49,44.49,0,0,0,47.22,44.2c23.61-1.42,41.78-21.51,41.78-45.16V91.51s.09-19.87.1-36.38a3.54,3.54,0,0,0-4.78-3.33A27,27,0,0,1,133.83,53.59Z"/><path class="cls-1" d="M28.68,91.2v0l.1,0Z"/></g></g></svg>