<svg xmlns="http://www.w3.org/2000/svg" viewBox="0 0 1362.57 882.15"><defs><style>.cls-1{isolation:isolate;}.cls-2{fill:#e2afdf;}.cls-3{fill:#cc9aca;}.cls-4{fill:#f89f26;}.cls-5{fill:#ffad29;}.cls-6{fill:#ffe44a;}.cls-7{fill:#dbc8d2;}.cls-8{fill:#f9e4f0;}.cls-30,.cls-9{fill:#d84021;}.cls-10{fill:#e8563d;}.cls-11{fill:#ff815a;}.cls-12,.cls-22,.cls-26,.cls-46,.cls-63{fill:#fff;}.cls-13{fill:#067791;}.cls-14{fill:#3dbfc9;}.cls-15{fill:#b8f4f4;}.cls-16,.cls-23,.cls-56{fill:#002b6a;}.cls-16{opacity:0.53;}.cls-17{fill:#2094af;}.cls-18{fill:#3dbcc9;}.cls-19{fill:#33b3c4;}.cls-20{fill:#1d99b3;}.cls-21{fill:#7dd2db;}.cls-22{opacity:0.33;}.cls-23,.cls-24,.cls-25,.cls-26,.cls-27,.cls-28,.cls-29{fill-rule:evenodd;}.cls-24{fill:#003d75;}.cls-25,.cls-54{fill:#f9a873;}.cls-27{fill:#3e3f78;}.cls-28{fill:#11487f;}.cls-29{fill:#4d5083;}.cls-30{opacity:0.34;}.cls-31{fill:#29a9ef;}.cls-32,.cls-33,.cls-45{fill:#168ca8;}.cls-33{opacity:0.57;}.cls-34{fill:#70e2e5;}.cls-35{opacity:0.64;}.cls-36{fill:#00234c;opacity:0.51;}.cls-37,.cls-38{fill:#47c7d1;}.cls-37{opacity:0.41;}.cls-39{fill:#01366c;}.cls-40{fill:#9fedeb;}.cls-41{fill:#006e98;}.cls-42{fill:#003768;}.cls-43{fill:#f19d7e;}.cls-44{fill:#ffbd91;}.cls-45{opacity:0.46;}.cls-46{opacity:0.4;mix-blend-mode:screen;}.cls-47{fill:#f9f2f7;}.cls-48{fill:#efe8ed;}.cls-49{fill:#e53c3c;}.cls-50{fill:#ff5252;}.cls-51{fill:#b33939;}.cls-52{fill:#99b204;}.cls-53{fill:#ffde9c;}.cls-55{fill:#fab585;}.cls-57{fill:#afd860;}.cls-58{fill:#c0fffc;}.cls-59{fill:#86e2de;}.cls-60{fill:#ffefab;}.cls-61{fill:#90ed48;}.cls-62{fill:#36bac1;}.cls-63{opacity:0.84;}.cls-64{fill:#0c2066;}.cls-65{fill:#29a3b7;}.cls-65,.cls-70{opacity:0.5;}.cls-66{fill:#00638e;opacity:0.37;}.cls-67,.cls-68{fill:#d9fffb;}.cls-67{opacity:0.63;}.cls-69{fill:#fcdea9;}.cls-70{fill:#f3f5f6;}.cls-71{fill:#893e29;}.cls-72{fill:#e9ecee;opacity:0.3;mix-blend-mode:lighten;}.cls-73{fill:#eef8ff;opacity:0.47;}.cls-74{fill:#85e1dd;}.cls-75{fill:#33b2c3;}.cls-76{fill:#bff5fa;}.cls-77{fill:#006859;}.cls-78{fill:#009580;}.cls-79{fill:#00af9c;}.cls-80{fill:#001d56;}.cls-81{fill:#0a5b89;}.cls-82{fill:#1e7b9b;}.cls-83{fill:#fdfdfd;}</style></defs><title>people-home-officeAsset 1</title><g class="cls-1"><g id="Layer_2" data-name="Layer 2"><g id="_ÎÓÈ_1" data-name="—ÎÓÈ_1"><path class="cls-2" d="M1362.57,168.18c-181.82-87.93-471.66-87.06-651.19,2.73C530,261.63,530,408.72,711.38,499.45c179.53,89.78,469.37,90.65,651.19,2.73Z"/><ellipse class="cls-2" cx="824.9" cy="655.44" rx="442.94" ry="221.52"/><ellipse class="cls-2" cx="312.28" cy="609.32" rx="312.28" ry="156.18"/><ellipse class="cls-2" cx="436.37" cy="390.47" rx="228.8" ry="114.42"/><path class="cls-2" d="M1362.57,630.94c-46.3,5.11-90.36,16.55-126.37,34.56-100.54,50.28-100.54,131.81,0,182.09,36,18,80.07,29.45,126.37,34.56Z"/><path class="cls-3" d="M1248.29,592.32l-61.16-1.46-16.53-16.17,45.06,3.92-15.23-15.83,53.27-3.28,25.13,9,8.22,3.48c1.44,0-3,16.88-3,16.88Z"/><polygon class="cls-3" points="1268.45 460.25 1319.95 483.53 1142.1 574.55 1077.58 580.58 1268.45 460.25"/><polygon class="cls-3" points="1078.29 592.49 1045.16 590.09 733.66 434.28 797.23 402.52 1078.29 592.49"/><g class="cls-1"><polygon class="cls-4" points="764.14 427.23 764.2 435.28 1078.35 592.56 1078.29 584.5 764.14 427.23"/><polygon class="cls-5" points="1078.29 584.5 1078.35 592.56 1292.17 485.84 1292.11 477.8 1078.29 584.5"/><polygon class="cls-6" points="764.14 427.23 1078.29 584.5 1292.11 477.8 977.96 320.53 764.14 427.23"/></g><g class="cls-1"><polygon class="cls-7" points="783.19 398.33 783.26 430.03 1078.39 577.74 1078.32 546.05 783.19 398.33"/><polygon class="cls-8" points="1275.28 447.86 1275.28 479.59 1078.39 577.74 1078.32 546.05 1275.28 447.86"/></g><g class="cls-1"><polygon class="cls-4" points="764.14 380.78 764.2 388.83 1078.35 546.11 1078.29 538.05 764.14 380.78"/><polygon class="cls-5" points="1078.29 538.05 1078.35 546.11 1292.17 439.39 1292.11 431.35 1078.29 538.05"/><polygon class="cls-6" points="764.14 380.78 1078.29 538.05 1292.11 431.35 977.96 274.08 764.14 380.78"/></g><polygon class="cls-5" points="1096.09 506.3 1062.97 503.9 801.17 369.52 849 344.19 1096.09 506.3"/><g class="cls-1"><polygon class="cls-9" points="822.43 362.31 822.48 369.32 1096.09 506.3 1096.04 499.29 822.43 362.31"/><polygon class="cls-10" points="1096.04 499.29 1096.09 506.3 1282.32 413.36 1282.27 406.35 1096.04 499.29"/><polygon class="cls-11" points="822.43 362.31 1096.04 499.29 1282.27 406.35 1008.66 269.37 822.43 362.31"/></g><polygon class="cls-12" points="839.01 337.14 839.08 364.74 1096.13 493.4 1096.06 465.8 839.01 337.14"/><polygon class="cls-8" points="1267.61 380.27 1267.61 407.91 1096.13 493.4 1096.06 465.8 1267.61 380.27"/><g class="cls-1"><polygon class="cls-9" points="822.43 321.86 822.48 328.86 1096.09 465.84 1096.04 458.83 822.43 321.86"/><polygon class="cls-10" points="1096.04 458.83 1096.09 465.84 1282.32 372.9 1282.27 365.89 1096.04 458.83"/><polygon class="cls-11" points="822.43 321.86 1096.04 458.83 1282.27 365.89 1008.66 228.92 822.43 321.86"/></g><polygon class="cls-10" points="1074.88 411.97 1114.79 414.88 1219.95 361.78 1159.89 352.45 1074.88 401.37 1074.88 411.97"/><path class="cls-13" d="M1073.07,405.22l79.09-39.55c8.69-4.35,15.79-15,15.79-23.69V118.85c0-2.66,5.06-4,5.06-4l-9.86-4.95c-2.85-1.34-6.73-1.1-11,1l-79.09,39.55c-8.69,4.35-15.79,15-15.79,23.69V397.33c0,4.34,1.77,7.4,4.64,8.83l9.85,4.93S1070.18,406.66,1073.07,405.22Z"/><path class="cls-14" d="M1082.59,410l79.1-39.56c8.68-4.34,15.79-15,15.79-23.69V123.62c0-8.68-7.11-12.23-15.79-7.89l-79.1,39.56c-8.68,4.34-15.79,15-15.79,23.68V402.1C1066.8,410.79,1073.91,414.34,1082.59,410Z"/><path class="cls-15" d="M1083.46,390.74l77.35-38.69c6.13-3.06,11.15-8.61,11.15-14.74V133c0-6.13-5-8.64-11.15-5.57l-77.35,38.68c-6.13,3.07-11.14,10.59-11.14,16.72V385.16C1072.32,391.29,1077.33,393.8,1083.46,390.74Z"/><path class="cls-16" d="M1106.5,148.08l31.27-15.64c.68-.33,1.23-.06,1.23.62h0a2.32,2.32,0,0,1-1.23,1.84l-31.27,15.64c-.67.33-1.22.06-1.22-.62h0A2.33,2.33,0,0,1,1106.5,148.08Z"/><path class="cls-17" d="M1116.89,377.09l18.65-9.33a2.3,2.3,0,0,1,3.54,2.18v4.77c0,2-1.59,5.09-3.54,6.06l-18.65,9.34c-2,1-3.54-.59-3.54-2.53v-4.77A7.34,7.34,0,0,1,1116.89,377.09Z"/><path class="cls-18" d="M1117.84,377.78l16.75-8.37c1.75-.88,3.17-.16,3.17,1.58v4.29a6,6,0,0,1-3.17,4.76l-16.75,8.37c-1.74.88-3.17.16-3.17-1.58v-4.29A6,6,0,0,1,1117.84,377.78Z"/><path class="cls-16" d="M1098.44,153.07a4.42,4.42,0,0,1,2.35-3.52c1.29-.65,2.34-.12,2.34,1.17a4.43,4.43,0,0,1-2.34,3.53C1099.49,154.9,1098.44,154.37,1098.44,153.07Z"/><path class="cls-16" d="M1093.58,156a3,3,0,0,1,1.6-2.4c.88-.44,1.6-.08,1.6.8a3,3,0,0,1-1.6,2.4C1094.29,157.22,1093.58,156.86,1093.58,156Z"/><path class="cls-16" d="M1141.15,131c.52-.77,1.36-1.19,1.88-.94s.52,1.1,0,1.88-1.36,1.2-1.88.94S1140.63,131.82,1141.15,131Z"/><path class="cls-13" d="M1060.38,249.13l.81.48a13.69,13.69,0,0,0,2.33-1.21,1.18,1.18,0,0,0,.59-1.13V219.75a3.79,3.79,0,0,0-2-3h0a1.52,1.52,0,0,0-1.54-.06s-2.27.88-2.27,1.37l1.79,27.22C1060.07,246.37,1059.27,248.57,1060.38,249.13Z"/><path class="cls-13" d="M1061,284.53l.21,1.34,2.29-1.18a1.16,1.16,0,0,0,.66-1.16V256a3.79,3.79,0,0,0-2-3h0a1.58,1.58,0,0,0-1.43-.12l-2.07,1.14,1.48,27.5A10,10,0,0,0,1061,284.53Z"/><path class="cls-19" d="M1060.07,249.39h0c1.11.56,2,.1,2-1V220.86a3.79,3.79,0,0,0-2-3h0c-1.11-.56-2-.11-2,1v27.52A3.81,3.81,0,0,0,1060.07,249.39Z"/><path class="cls-19" d="M1060.07,285.65h0c1.11.56,2,.1,2-1V257.12a3.82,3.82,0,0,0-2-3h0c-1.11-.55-2-.1-2,1v27.52A3.81,3.81,0,0,0,1060.07,285.65Z"/><path class="cls-20" d="M1172,327.26v10.05c0,6.13-5,11.68-11.15,14.74l-77.35,38.69c-6.13,3.06-11.14.55-11.14-5.58v-8.07Z"/><polygon class="cls-21" points="1105.4 375.46 1139.73 358.29 1139.73 348.01 1105.4 365.18 1105.4 375.46"/><path class="cls-21" d="M1092.5,378.6a1.69,1.69,0,0,1,1.16-.18l3.32-3.65a1.53,1.53,0,0,1,0-.3,1.84,1.84,0,0,1,0-.33l-3.32-.33a3.49,3.49,0,0,1-1.16,1c-1.06.52-1.91.1-1.91-1a3.57,3.57,0,0,1,1.91-2.86c1-.53,1.91-.1,1.91.95a1.84,1.84,0,0,1,0,.33l3.32.33a3.6,3.6,0,0,1,1.16-1c1.06-.52,1.91-.1,1.91,1a3.58,3.58,0,0,1-1.91,2.86,1.69,1.69,0,0,1-1.16.19l-3.32,3.65a1.39,1.39,0,0,1,0,.3,3.59,3.59,0,0,1-1.91,2.86c-1.06.53-1.91.1-1.91-.95A3.6,3.6,0,0,1,1092.5,378.6Z"/><path class="cls-21" d="M1077.85,383.82c0,1.9,1.53,2.67,3.43,1.72a6.47,6.47,0,0,0,3.43-5.15c0-1.89-1.54-2.66-3.43-1.72A6.46,6.46,0,0,0,1077.85,383.82Z"/><polygon class="cls-21" points="1161.44 337.37 1166.46 339.88 1155.91 345.15 1161.44 337.37"/><polygon class="cls-21" points="1161.44 348.25 1166.46 340.73 1155.91 346 1161.44 348.25"/><polygon class="cls-21" points="1144.02 357.24 1153.21 352.64 1153.21 343.45 1144.02 348.05 1144.02 357.24"/><polygon class="cls-12" points="1164.7 321.7 1080.44 363.83 1080.44 180.37 1164.7 138.23 1164.7 321.7"/><path class="cls-22" d="M1083.46,166.13l77.35-38.68c6.13-3.07,11.15-.56,11.15,5.57V337.31c0,6.13-5,11.68-11.15,14.74l-.43.22L1077.29,171.1A20.23,20.23,0,0,1,1083.46,166.13Z"/><polygon class="cls-15" points="1096.21 196.8 1148.92 170.9 1148.92 162.7 1096.21 188.6 1096.21 196.8"/><polygon class="cls-15" points="1084.43 219.14 1159.85 181.18 1159.85 173.34 1084.43 211.31 1084.43 219.14"/><polygon class="cls-15" points="1084.43 229.85 1159.85 191.88 1159.85 184.05 1084.43 222.01 1084.43 229.85"/><polygon class="cls-15" points="1084.41 240.46 1159.83 202.49 1159.83 194.66 1084.41 232.62 1084.41 240.46"/><polygon class="cls-15" points="1084.41 251.17 1159.83 213.2 1159.83 205.36 1084.41 243.33 1084.41 251.17"/><polygon class="cls-15" points="1084.44 261.48 1159.86 223.52 1159.86 215.68 1084.44 253.65 1084.44 261.48"/><polygon class="cls-15" points="1084.44 272.19 1159.86 234.22 1159.86 226.39 1084.44 264.35 1084.44 272.19"/><polygon class="cls-15" points="1084.42 282.8 1159.84 244.83 1159.84 237 1084.42 274.96 1084.42 282.8"/><polygon class="cls-15" points="1084.42 293.5 1159.84 255.54 1159.84 247.7 1084.42 285.67 1084.42 293.5"/><polygon class="cls-15" points="1084.45 304.56 1159.87 266.59 1159.87 258.76 1084.45 296.72 1084.45 304.56"/><polygon class="cls-15" points="1084.45 315.27 1159.87 277.3 1159.87 269.46 1084.45 307.43 1084.45 315.27"/><polygon class="cls-15" points="1084.43 325.88 1159.85 287.91 1159.85 280.07 1084.43 318.04 1084.43 325.88"/><polygon class="cls-15" points="1084.43 336.58 1159.85 298.62 1159.85 290.78 1084.43 328.75 1084.43 336.58"/><polygon class="cls-15" points="1084.45 346.85 1159.87 308.89 1159.87 301.05 1084.45 339.02 1084.45 346.85"/><polygon class="cls-23" points="1220.98 557.8 1220.98 563.73 1211.81 568.87 1187.45 557.8 1185.9 541.55 1205.5 545.16 1220.98 557.8"/><path class="cls-23" d="M1169.14,578.43c-.78,0-17.54,2.84-17.54,2.84l-6.71,8.82,2.58,3.3,39.15,3.85,4.33-4.15,3.2-3L1190,576.37Z"/><path class="cls-23" d="M1203.7,418.63c0,1.17,1.8,6.07,1.8,6.07l3.1,23.05,5.16,45.82,9,41.79v25l-9.54,3.35-13.67-9.29-15.22-78.67Z"/><path class="cls-24" d="M1151.6,436.05s1.29,63.71,1.8,64.49,13.93,81.76,13.93,81.76,10.06,8.51,10.83,7.74,16.51-6.71,16.51-6.71l-10.06-62.68s3.57-57.18,4.13-57.77c3.86-4.13,19.4-18.52,19.4-18.52l-2.64-19.66Z"/><path class="cls-25" d="M1091,315.9c0-.77-8.77-17.28-8.77-17.28l4.38-14.44,2.58,1.54.52,6.71,3.09,1.55,4,.33,1.38,17.21Z"/><polygon class="cls-26" points="1088.4 311.98 1087.67 316.64 1094.29 326.11 1102.41 310.68 1098.97 305.69 1088.4 311.98"/><polygon class="cls-25" points="1235.76 415.63 1235.64 425.12 1233.12 440.05 1227.86 442.17 1221.99 440.05 1221.66 428.97 1228.13 413.79 1235.76 415.63"/><polygon class="cls-26" points="1236.93 413.79 1237.76 417.52 1235.48 420.13 1222.77 422.09 1222.75 419.25 1236.93 413.79"/><polygon class="cls-27" points="1234.88 419.19 1222.04 421.03 1213.93 388.79 1194.47 342.72 1211.77 338.07 1230.25 379.55 1238.65 414.22 1234.88 419.19"/><polygon class="cls-27" points="1156.72 359.02 1182.24 342.29 1201.43 334.94 1211.77 338.07 1216.56 359.02 1202.8 403.73 1208.99 425.05 1169.1 447.75 1149.65 441.59 1150.23 433.14 1152.59 398.22 1149.84 372.77 1156.72 359.02"/><path class="cls-25" d="M1170.17,353.26v-15s15.73-5.42,16.5-4.64,7.48,9.28,7.48,9.28l-10.57,9.29Z"/><path class="cls-25" d="M1176.55,345.39c-.26-1-12.7-9.51-12.7-9.51l-1.33-24.76,8,9Z"/><polygon class="cls-28" points="1159.33 307.31 1159.33 301 1186.79 294.57 1198.76 312.52 1195.17 338.31 1178.54 345.39 1168.68 334.94 1166.73 319.09 1159.33 307.31"/><path class="cls-26" d="M1193.18,341.66s-11.8,7.49-11.8,7.49l-11.21-.23s-1.23,4.64-.89,4.64h13.65l13.62-9-.46-2.89-3.87-1.21Z"/><path class="cls-29" d="M1170.47,365l-43.85-18.83-25.28-39.72-12,7.44-1.68,4.16,25.8,44.63,46.68,28.63h11.61S1182.07,378.19,1170.47,365Z"/><path class="cls-30" d="M1116.91,464.05l.18,19.56,2.42,4.33-1.36,7.37,6.58,11.3,9.75-14.12s19.71,2.46,19.28,2-5.09-12.3-5.09-12.3Z"/><polygon class="cls-31" points="1116.91 464.05 1132.64 507.28 1144.52 489.94 1164.1 493.59 1148.37 448.32 1116.91 464.05"/><path class="cls-3" d="M953.94,576.78l-378.23-189c-10.8-5.39-52,7.16-62.65,12.55L284.75,515c-10.72,5.39-10.66,14.19.12,19.57l378.23,189c10.78,5.39,28.35,5.38,39.07,0L950.24,599.13C968.83,588.52,964.72,582.16,953.94,576.78Z"/><path class="cls-32" d="M924,585.78,695.65,700.44c-10.72,5.39-28.29,5.4-39.07,0L259.64,502.39c-5.42-2.71-8.14-6.28-8.12-9.84q0,9.78-.07,19.55c0,3.56,2.7,7.14,8.13,9.86l397,198c10.76,5.38,28.34,5.37,39.06,0l228.3-114.68c5.33-2.66,8-6.19,8-9.7q0-9.78.06-19.56C931.94,579.59,929.28,583.11,924,585.78Z"/><path class="cls-14" d="M923.74,566.16,526.8,368.1c-10.79-5.39-28.36-5.39-39.07,0L259.43,482.76c-10.72,5.39-10.66,14.19.12,19.57L656.48,700.39c10.79,5.39,28.35,5.38,39.07,0L923.87,585.72C934.59,580.33,934.53,571.54,923.74,566.16Z"/><polygon class="cls-33" points="434.32 491.23 434.13 494.4 488.23 521.29 621.62 587.57 624.27 586.24 624.32 588.92 672.61 612.89 675.17 611.6 674.99 614.09 737.73 646.3 762.61 633.73 762.58 627.01 768 630.99 821.55 603.9 821.61 595.39 830.08 599.61 853.84 587.57 853.92 581 858.99 585 883.93 571.97 883.93 563.26 853.32 548.04 847.49 551 847.49 545.16 816.86 529.93 811.03 532.87 811.03 527.03 780.42 511.82 774.58 515.08 774.56 508.92 743.95 493.7 738.12 497.23 738.12 490.81 707.51 475.6 701.18 479.68 701.67 472.68 671.03 457.48 664.95 461.77 665.2 454.56 634.57 439.35 628.76 443.15 628.76 436.46 598.11 421.23 592.19 424.22 592.28 418.33 561.63 403.11 556.37 408.95 555.91 400.43 511.36 378.12 486.53 390.68 486.53 396.24 480.99 393.48 456.16 406.04 456.16 411.62 450.58 408.84 425.77 421.4 425.76 426.99 420.19 424.21 395.4 436.78 395.4 442.52 389.65 439.66 364.87 452.21 365.15 460.11 431.06 492.88 434.32 491.23"/><polygon class="cls-34" points="732.19 518.32 707.37 530.87 676.74 515.66 701.57 503.11 732.19 518.32"/><polygon class="cls-34" points="762.25 624.82 737.45 637.37 674.31 605.99 699.11 593.42 762.25 624.82"/><polygon class="cls-34" points="847.49 545.16 822.67 557.71 792.04 542.48 816.86 529.93 847.49 545.16"/><polygon class="cls-34" points="782.49 573.78 757.66 586.32 727.01 571.11 751.84 558.55 782.49 573.78"/><polygon class="cls-34" points="748.01 556.65 723.21 569.21 692.57 553.98 717.4 541.43 748.01 556.65"/><polygon class="cls-34" points="801.89 552.95 777.07 565.51 746.46 550.3 771.26 537.73 801.89 552.95"/><polygon class="cls-34" points="883.93 563.23 859.1 575.78 828.47 560.54 853.3 547.99 883.93 563.23"/><polygon class="cls-34" points="713.55 539.53 688.75 552.1 658.12 536.87 682.95 524.31 713.55 539.53"/><polygon class="cls-34" points="702.71 564.6 677.88 577.15 647.27 561.93 672.07 549.39 702.71 564.6"/><polygon class="cls-34" points="737.15 581.72 712.33 594.27 681.71 579.05 706.53 566.5 737.15 581.72"/><polygon class="cls-34" points="668.64 547.67 643.82 560.22 613.19 545 638.01 532.45 668.64 547.67"/><polygon class="cls-34" points="853.57 578.62 828.75 591.19 781.31 567.61 806.12 555.07 853.57 578.62"/><polygon class="cls-34" points="821.55 594.82 792.79 609.37 776.29 617.72 767.96 621.92 716.31 596.25 741.14 583.69 757.01 591.59 785.77 577.04 821.55 594.82"/><polygon class="cls-34" points="696.09 591.94 671.28 604.47 623.41 580.71 648.24 568.15 696.09 591.94"/><polygon class="cls-34" points="555.91 400.46 531.1 412.99 486.53 390.68 511.36 378.12 555.91 400.46"/><polygon class="cls-34" points="592.78 449.03 567.95 461.58 537.34 446.37 562.15 433.82 592.78 449.03"/><polygon class="cls-34" points="738.12 490.81 713.31 503.36 682.68 488.15 707.51 475.6 738.12 490.81"/><polygon class="cls-34" points="697.32 500.99 672.52 513.56 641.88 498.32 666.7 485.79 697.32 500.99"/><polygon class="cls-34" points="645.13 566.6 620.29 579.15 485.77 512.3 510.56 499.75 645.13 566.6"/><polygon class="cls-34" points="592.28 418.33 567.45 430.89 536.84 415.67 561.63 403.11 592.28 418.33"/><polygon class="cls-34" points="495.6 461.69 470.79 474.24 395.4 436.78 420.19 424.21 495.6 461.69"/><polygon class="cls-34" points="701.67 472.68 676.84 485.24 646.21 470.02 671.03 457.48 701.67 472.68"/><polygon class="cls-34" points="575.77 471.04 550.94 483.6 520.32 468.4 545.15 455.85 575.77 471.04"/><polygon class="cls-34" points="454.55 471.9 429.74 484.45 364.87 452.21 389.65 439.66 454.55 471.9"/><polygon class="cls-34" points="663.1 483.43 638.26 495.99 607.65 480.77 632.48 468.22 663.1 483.43"/><polygon class="cls-34" points="530.45 479 505.62 491.56 475.01 476.34 499.82 463.78 530.45 479"/><polygon class="cls-34" points="610.2 488.18 585.38 500.73 554.77 485.5 579.6 472.95 610.2 488.18"/><polygon class="cls-34" points="564.52 495.93 539.69 508.48 509.07 493.26 533.9 480.73 564.52 495.93"/><polygon class="cls-34" points="774.56 508.92 749.77 521.47 719.11 506.25 743.95 493.7 774.56 508.92"/><polygon class="cls-34" points="506.25 497.58 481.42 510.14 433.57 486.36 458.37 473.8 506.25 497.58"/><polygon class="cls-34" points="644.66 505.29 619.83 517.84 589.22 502.62 614.05 490.07 644.66 505.29"/><polygon class="cls-34" points="598.97 513.05 574.16 525.61 543.5 510.39 568.33 497.84 598.97 513.05"/><polygon class="cls-34" points="811.03 527.03 786.2 539.59 755.6 524.38 780.42 511.82 811.03 527.03"/><polygon class="cls-34" points="679.12 522.4 654.29 534.96 623.66 519.75 648.49 507.2 679.12 522.4"/><polygon class="cls-34" points="767.02 535.63 742.24 548.19 711.59 532.98 736.41 520.42 767.02 535.63"/><polygon class="cls-34" points="633.03 529.98 608.2 542.53 577.6 527.32 602.43 514.77 633.03 529.98"/><polygon class="cls-34" points="628.76 436.46 603.93 449 573.31 433.79 598.11 421.23 628.76 436.46"/><polygon class="cls-34" points="556.37 430.95 531.57 443.51 456.16 406.04 480.99 393.48 556.37 430.95"/><polygon class="cls-34" points="506.74 436.75 481.92 449.31 425.76 421.4 450.58 408.84 506.74 436.75"/><polygon class="cls-34" points="665.2 454.56 640.37 467.11 609.76 451.9 634.57 439.35 665.2 454.56"/><polygon class="cls-34" points="541.32 453.93 516.49 466.48 485.86 451.28 510.68 438.72 541.32 453.93"/><polygon class="cls-34" points="627.6 466.35 602.82 478.91 572.16 463.7 597 451.14 627.6 466.35"/><g class="cls-35"><path class="cls-36" d="M710.06,703.49c0,2.61,2.12,3.68,4.74,2.37s4.75-4.5,4.75-7.12-2.13-3.68-4.75-2.37S710.06,700.87,710.06,703.49Z"/><polygon class="cls-36" points="772.48 676.39 796.21 664.53 796.21 655.39 772.48 667.26 772.48 676.39"/><polygon class="cls-36" points="883.13 620.95 913.31 605.92 913.31 598.24 883.13 613.27 883.13 620.95"/><polygon class="cls-36" points="737.19 693.94 760.92 682.07 760.92 672.94 737.19 684.81 737.19 693.94"/></g><path class="cls-32" d="M946.33,200.37,549.4,2.31C544-.4,539-.65,535.47,1.15L515.9,11c3.56-1.8,427.44,557.2,423.92,559l9.77-4.9c3.27-1.65,6.53-3.28,9.78-4.93,3.53-1.77,5.73-5.53,5.75-10.85l.75-319.67C965.9,218.9,957.12,205.75,946.33,200.37Z"/><path class="cls-37" d="M874.15,212l44.47-22.24L957.1,209c5.29,6.14,8.79,13.86,8.77,20.62v1.14l-27.1,13.55Z"/><path class="cls-38" d="M515.9,11l19.57-9.83C539-.65,544-.4,549.4,2.31L946.33,200.37A36.47,36.47,0,0,1,958.66,211c-13.71,7.64-28.12,15.88-28.12,15.88L525.71,22.39C519.7,14.92,516.2,10.83,515.9,11Z"/><path class="cls-19" d="M926.77,210.2l-396.93-198c-10.79-5.4-19.63-1-19.66,9.67l-.75,319.66c0,10.72,8.74,23.88,19.52,29.28L925.89,568.82c10.79,5.37,19.63,1,19.67-9.72l.74-319.66C946.34,228.72,937.56,215.58,926.77,210.2Z"/><path class="cls-39" d="M923.37,222.07,533.13,27.34c-6.64-3.31-12-.6-12.07,6l-.71,307.59c0,6.57,5.35,14.64,12,17.94L922.59,553.58c6.61,3.3,12.08.64,12.1-5.93l.7-307.6C935.41,233.49,930,225.36,923.37,222.07Z"/><path class="cls-40" d="M918.8,223.66,537.68,33.48c-6.49-3.23-11.77-.58-11.79,5.84l-.69,300.41c0,6.42,5.22,14.3,11.71,17.53L918,547.44c6.46,3.22,11.8.62,11.82-5.8l.68-300.42C930.56,234.82,925.27,226.88,918.8,223.66Z"/><polygon class="cls-12" points="783.79 425.17 911.19 489.3 911.19 502.54 783.79 438.41 783.79 425.17"/><polygon class="cls-12" points="783.79 407.08 911.19 471.22 911.19 484.45 783.79 420.32 783.79 407.08"/><polygon class="cls-12" points="783.75 389.16 911.16 453.29 911.16 466.53 783.75 402.4 783.75 389.16"/><polygon class="cls-12" points="783.75 371.07 911.16 435.21 911.16 448.45 783.75 384.31 783.75 371.07"/><polygon class="cls-12" points="783.81 353.64 911.21 417.78 911.21 431.02 783.81 366.88 783.81 353.64"/><polygon class="cls-12" points="783.81 335.56 911.21 399.69 911.21 412.93 783.81 348.8 783.81 335.56"/><polygon class="cls-12" points="783.77 317.64 911.17 381.77 911.17 395.01 783.77 330.88 783.77 317.64"/><polygon class="cls-12" points="783.77 299.55 911.17 363.69 911.17 376.92 783.77 312.79 783.77 299.55"/><polygon class="cls-12" points="783.83 280.88 911.23 345.01 911.23 358.25 783.83 294.11 783.83 280.88"/><polygon class="cls-12" points="783.83 262.79 911.23 326.93 911.23 340.16 783.83 276.03 783.83 262.79"/><polygon class="cls-12" points="783.79 244.87 911.19 309 911.19 322.24 783.79 258.11 783.79 244.87"/><polygon class="cls-12" points="783.79 226.78 911.19 290.92 911.19 304.15 783.79 240.02 783.79 226.78"/><polygon class="cls-12" points="783.83 209.43 911.23 273.57 911.23 286.81 783.83 222.67 783.83 209.43"/><path class="cls-41" d="M918.8,223.66,537.68,33.48c-6.49-3.22-11.77-.58-11.79,5.84V52.78L930.54,255.41V241.22C930.56,234.82,925.27,226.88,918.8,223.66Z"/><path class="cls-42" d="M583.33,291.36v-1c4.6-28.3,12.34-28.95,58.4-27.65l60.18,31.37c46.07,38.66,57.87,54.95,62,91.67l5.1,48.45-190-95.05Z"/><polygon class="cls-43" points="647.2 266.7 651.28 253.44 675.13 267.41 697.4 271.34 702.03 294.02 675.6 302.22 647.2 266.7"/><path class="cls-12" d="M701,284.91c-2.82,2.16-17.66,6.24-26.23,1s-22.78-19.95-25.6-27.48c-2.35,1.37-11.22,3.82-11.22,3.82l37.74,106.85,35.18-67.07Z"/><polygon class="cls-41" points="663.24 291.67 674.93 287.1 687.88 304.2 687.84 306.71 680.46 312.33 669.45 306.83 663.2 294.39 663.24 291.67"/><polygon class="cls-41" points="663.24 291.67 674.93 287.1 687.88 304.2 687.84 306.71 680.46 312.33 669.45 306.83 663.2 294.39 663.24 291.67"/><polygon class="cls-41" points="685 351.31 675.64 369.15 665.08 339.25 669.56 308.8 680.5 314.2 685 351.31"/><polygon class="cls-41" points="663.24 291.67 674.93 287.1 687.88 304.2 687.84 306.71 680.46 312.33 669.45 306.83 663.2 294.39 663.24 291.67"/><polygon class="cls-41" points="685 351.31 675.64 369.15 665.08 339.25 669.56 308.8 680.5 314.2 685 351.31"/><path class="cls-44" d="M636.48,214.4c0-4.32,1.24-5.43,3.37-5.08-.51-9.08-1.78-19,1.45-23.9,6.15-9.27,23.13-8.37,34.72-2.57,11.12,5.56,25.29,19.16,31.51,33.75,3.83,9,1.89,17.37,1.4,26.67,2.36,1.8,3.74,4.18,3.74,8.75,0,6.79-3,16-7.81,15.13a34.79,34.79,0,0,1-2,3.79l-.15.18c-1.65,2.5-7.44,7.73-8.48,8.3,0,0,0,.06,0,.08-5.77,3.39-12.61,3.62-20-.05-11.23-5.61-19.16-14.26-26-31.07-.52-1.26-2.87-9.12-3.53-10.25a3.3,3.3,0,0,0-1.46-1.76C639.1,231.67,636.48,220.7,636.48,214.4Z"/><path class="cls-42" d="M653.81,187.75c-.7,5.31,9.93,10.39,17,12.76s11.26,5.87,17.89,11.07S702,227,702.91,231c.57,2.37.08,12.1.08,12.1l5.94.21s2.73-13.25.6-23.64c-2-10-5.1-23.43-21.87-35.44-15.22-10.9-28-10.68-28.52-7.14-1.18-.35-2.13-1.77-3.55-2.48-3.54-1.77-13.36,2.42-13.36,2.42l-2.59,4.32-1.3,23.17,1.29,5.72,5,5.31s-2.2-20.48,5.84-22.14C653,192.86,653.81,187.75,653.81,187.75Z"/><polygon class="cls-14" points="567.82 104.98 538.59 90.64 538.59 322.31 567.82 336.65 567.82 104.98"/><polygon class="cls-45" points="544.31 310.08 561.83 319.23 562.1 264.96 544.58 255.81 544.31 310.08"/><path class="cls-41" d="M563.78,131.06c0,5.94-4.82,8.34-10.76,5.37s-10.76-10.19-10.76-16.13,4.82-8.35,10.76-5.38S563.78,125.11,563.78,131.06Z"/><path class="cls-41" d="M563.73,158.86c0,5.94-4.82,8.35-10.76,5.38S542.21,154,542.21,148.1s4.82-8.35,10.76-5.38S563.73,152.92,563.73,158.86Z"/><path class="cls-41" d="M563.78,186.67c0,5.94-4.82,8.35-10.76,5.38s-10.76-10.2-10.76-16.14,4.82-8.35,10.76-5.38S563.78,180.73,563.78,186.67Z"/><path class="cls-41" d="M563.73,214.47c0,5.95-4.82,8.35-10.76,5.38s-10.76-10.2-10.76-16.14,4.82-8.35,10.76-5.37S563.73,208.53,563.73,214.47Z"/><path class="cls-41" d="M563.78,242.28c0,5.94-4.82,8.35-10.76,5.38s-10.76-10.2-10.76-16.14,4.82-8.35,10.76-5.38S563.78,236.34,563.78,242.28Z"/><path class="cls-12" d="M553,155.84l-1.57-2.17-4.51,1.61a1.76,1.76,0,0,0,.63.56l10.91,5.46a.74.74,0,0,0,.62.06l-4.5-6.11Z"/><path class="cls-12" d="M559.1,152.76a1.75,1.75,0,0,0-.62-.56l-10.91-5.45a.71.71,0,0,0-.62-.07l6.07,8.25Z"/><polygon class="cls-12" points="546.66 147.09 546.66 154.64 551.05 153.11 546.66 147.09"/><polygon class="cls-12" points="555 155.08 559.39 161.01 559.39 153.45 555 155.08"/><path class="cls-12" d="M558.86,188.34a.35.35,0,0,1-.17.41l-1.67.82a.5.5,0,0,1-.29.07,1.36,1.36,0,0,1-.35-.07l-.08,0-.16-.08a6.44,6.44,0,0,1-.77-.46,10.65,10.65,0,0,1-1.3-1.05,23.07,23.07,0,0,1-1.74-1.83,27.53,27.53,0,0,1-2.07-2.78,25.47,25.47,0,0,1-1.45-2.38c-.39-.71-.69-1.35-.93-1.91a12.83,12.83,0,0,1-.52-1.48,8.18,8.18,0,0,1-.24-1,3.53,3.53,0,0,1,0-.65c0-.14,0-.22,0-.24a.79.79,0,0,1,.12-.3.43.43,0,0,1,.21-.19l1.66-.83a.44.44,0,0,1,.4,0,.81.81,0,0,1,.29.24,1.85,1.85,0,0,1,.21.33l1.33,3.21a.73.73,0,0,1,.07.47.44.44,0,0,1-.22.29l-.61.3a.15.15,0,0,0,0,.06.37.37,0,0,0,0,.09,3.18,3.18,0,0,0,.23.71,7.8,7.8,0,0,0,.46,1c.21.39.5.87.88,1.44s.71,1,1,1.39a10.77,10.77,0,0,0,.73.83,4.13,4.13,0,0,0,.45.41l.16.11,0,0a.48.48,0,0,0,.12,0l.71-.37a.64.64,0,0,1,.53.06,1.11,1.11,0,0,1,.34.25h0l2.41,2.63A1.25,1.25,0,0,1,558.86,188.34Z"/><path class="cls-12" d="M555.55,213.08a1.81,1.81,0,0,0-1.28-.2l-3.65-4a1.66,1.66,0,0,0,0-.32,2.19,2.19,0,0,0,0-.36l3.65-.37a4,4,0,0,0,1.28,1.08c1.16.58,2.1.11,2.1-1a4,4,0,0,0-2.1-3.16c-1.16-.58-2.1-.11-2.1,1.05a2.19,2.19,0,0,0,0,.36l-3.66.37a3.84,3.84,0,0,0-1.27-1.08c-1.16-.58-2.1-.11-2.1,1a4,4,0,0,0,2.1,3.16,1.84,1.84,0,0,0,1.27.2l3.66,4a1.69,1.69,0,0,0,0,.33,4,4,0,0,0,2.1,3.15c1.16.58,2.1.11,2.1-1.05A4,4,0,0,0,555.55,213.08Z"/><path class="cls-12" d="M557.56,239.2c0,2.54-2,3.56-4.59,2.3s-4.6-4.36-4.6-6.9,2.06-3.56,4.6-2.3A8.64,8.64,0,0,1,557.56,239.2Z"/><polygon class="cls-12" points="546.8 120.17 559.14 126.34 559.14 123.78 546.8 117.61 546.8 120.17"/><polygon class="cls-12" points="546.8 124.08 559.14 130.25 559.14 127.68 546.8 121.51 546.8 124.08"/><polygon class="cls-12" points="546.8 128.15 559.14 134.32 559.14 131.76 546.8 125.59 546.8 128.15"/><path class="cls-46" d="M870.7,195.73,533.29,27.36c-6.74-3.35-12.23-.6-12.25,6.07l-.69,188.84Z"/><path class="cls-32" d="M749.37,132.82,687.14,101.7a4.41,4.41,0,0,1-2.33-3.5h0c0-1.28,1.05-1.8,2.33-1.16l62.23,31.12a4.38,4.38,0,0,1,2.32,3.49h0C751.69,132.94,750.65,133.46,749.37,132.82Z"/><path class="cls-32" d="M766.56,138.61c0,2.25-1.82,3.16-4.07,2a7.67,7.67,0,0,1-4.07-6.11c0-2.26,1.82-3.17,4.07-2A7.65,7.65,0,0,1,766.56,138.61Z"/><path class="cls-45" d="M442.56,560.72l30.83,1.36L514,544.56l15.94,11.3a26.27,26.27,0,0,0,15.75,6.22c9.26.22,12.33-.69,12.33-.69L536.41,549l-2.48-12.54,18.48-8.23s15.21,15.07,25.71,12.55-11.91-18.2-11.91-18.2L610.76,500,515,437.45Z"/><path class="cls-47" d="M578.29,416.21a6.9,6.9,0,0,0-3.57-5.46L463.25,354c-2-1-3.58-.19-3.58,1.81v64.55a6.89,6.89,0,0,0,3.58,5.46l113.91,57a.42.42,0,0,0,.14-.06l.14-.08,0,0a2.13,2.13,0,0,0,.89-1.87Z"/><path class="cls-48" d="M564.38,423.24a6.92,6.92,0,0,0-3.58-5.47L449.32,361c-2-1-3.57-.19-3.57,1.81v64.55a6.88,6.88,0,0,0,3.58,5.46l111.47,56.79,3.59-1.81Z"/><path class="cls-47" d="M328.63,421.91l8,4,120.24-60.87-1.34-8.89L326.3,421.66A2.83,2.83,0,0,1,328.63,421.91Z"/><path class="cls-49" d="M460.44,499.36V521L554,473.45V458.38c.15-4-1.2-7-4-9Z"/><path class="cls-50" d="M456.86,469.52a6.85,6.85,0,0,1,3.58,5.41v24.43l92.13-47.2a8.68,8.68,0,0,0-3.28-3.11l-61.35-31.11a9.3,9.3,0,0,0-8.32,0l-62.28,31.63Z"/><path class="cls-50" d="M485.34,352.18l-18.4-9.2a2.69,2.69,0,0,0-2.61.13L357.8,396.72a6.82,6.82,0,0,0-3.59,5.41V417.4l62,31.35,48.09-24.19a6.82,6.82,0,0,0,3.59-5.41Z"/><path class="cls-49" d="M486,353.9c0-2-1.61-2.79-3.59-1.81L375.86,405.7a6.84,6.84,0,0,0-3.57,5.41v15.5l45.62,23L481.75,417a6.81,6.81,0,0,0,3.59-5.41Z"/><polygon class="cls-51" points="354.21 417.4 372.29 426.61 372.29 411.11 354.21 402.13 354.21 417.4"/><polygon class="cls-47" points="564.23 478.25 553.99 473.45 460.44 521.02 460.44 531.22 564.23 478.25"/><path class="cls-47" d="M460.44,474.93a6.85,6.85,0,0,0-3.58-5.41L345.39,413.17c-2-1-11.51,8.68-11.51,10.66L341.81,479a6.8,6.8,0,0,0,3.58,5.41L443,549.55,459.31,541l.12-.06.16-.07,0,0a2.12,2.12,0,0,0,.9-1.86Z"/><path class="cls-48" d="M443.87,483.7a6.84,6.84,0,0,0-3.58-5.41L328.82,421.94c-2-1-3.57-.19-3.57,1.79v73.86a6.84,6.84,0,0,0,3.58,5.42l111.47,56.35c2,1,3.57.19,3.57-1.79Z"/><path class="cls-7" d="M577.4,492.45a2.17,2.17,0,0,0,.89-1.88V416.2l-13.91,7-.07,55L460.55,530.6l-.11-55.67-16.57,8.77L443,559.36Z"/><path class="cls-52" d="M477.58,335.11h0l0,0Z"/><path class="cls-53" d="M456.36,293.85s8.17,6.59,16.52,12.16c6.84,4.57-.57,9.17-1.48,14.81-.51,3.22.22,5.79-2,7.86-4.76,4.28-4.56,8.21-4.56,8.21s5.16-.32,11.37-7c4.51-4.83,5.51-13.14,5.29-19.6-.17-5.16.57-6.89-1.78-10.61C475.28,292.7,466.41,290.58,456.36,293.85Z"/><path class="cls-54" d="M507.44,401.34c-5.17-15.6-22.49-40.59-22.49-40.59s-7.1-9.84-12.13-9.86c-7.4,0,5.7,20.7,5.7,20.7l18.79,32.3S508.27,403.85,507.44,401.34Z"/><path class="cls-55" d="M436.92,354.94c6-3.42,12.7-6.93,20.32-6.65,3.8.15,7.66.53,9.82.61,2.44,2.75,4.06,6.69,4.93,12.66,1.12,7.37-4.42,11.53-7.88,11.65C447.45,373.76,444.23,356.47,436.92,354.94Z"/><path class="cls-54" d="M442.6,355.52s12.34-21.86,12.24-27.38c-.06-4.34,15.66,3.63,14.18,6.42a31.88,31.88,0,0,0-3.6,16.33l-3.9,2.64-.34,1.7-3.27.46-1.63-1.81Z"/><path class="cls-55" d="M460,300.09c9.92-4.61,16.88,1.31,19.69,6.69,2,3.76,1.88,13.42,1.88,13.42,2.07,7.61-2.68,17.16-3.95,18.38-2.2,2.11-11.08-.82-17.44-2.48-7.79-2.06-9-8.88-9.56-9.68l1.55-11.18S454.72,302.53,460,300.09Z"/><path class="cls-54" d="M488.85,421.71c-7.76,4.12-11.56,6.67-13.27,18.26,0,0-5.67,4.54,3.11,7.79,9.6,3.56,21.52,16.28,23.21,24.81.78,3.9.31,4.86,2.33,12.63.93,3.55,6.39,15.36,6.39,15.36s12.15,26,16.26,33.36c2.46,4.42.3,9.33.3,9.33a5.68,5.68,0,0,0,1.17,2.91c1.37,2.12,2.85,4.7,14.21,12.27,5.71,3.79,12.41-2.19,12.41-2.19s-7.76-6.84-12.55-11.1a20.74,20.74,0,0,1-5.67-8.63c-4.32-25.8-8.92-48.38-12.6-70.27C521.38,449.77,493.86,419,488.85,421.71Z"/><path class="cls-56" d="M536.61,553.23c2.37,2.35,13,6.59,14.74,0l2.65,2.15s2.52,2.13,2.24,3.4c-.54,2.41-4.74,2.73-7.9,2.5-4.59-.34-10.46-5.43-10.46-5.43l-7.35-6.24-.21,4.93s-1.12,0-1.25-.17c-.27-.39-1.29-5.41-1.29-5.41s-1.47-3.15-.66-5.69C527.26,542.77,531.47,548.2,536.61,553.23Z"/><path class="cls-56" d="M587.28,518c4.71,5.92,13.18,4.58,13.9.62.78-4.25-10.88-6-7.44-5.48.14,0,8,1.14,10.92,2.81,2.57,1.51,3.23,3.42,3.24,4.91,0,2.51-3.24,4.58-7.73,5-5.85.53-13-1.59-13-1.59l-8.31-3.23s-5.63-2.66-6.49-6.31c0-.2-1.44-11.23,11.3,4C584.23,519.44,586.67,517.26,587.28,518Z"/><path class="cls-55" d="M521,439.18c-7.33.63-35-4.12-43.49-3.94L453.67,449.9c2.69,14.4,28.57,12.51,41.39,11.69,5.53-.35,13.28-2.24,19.11-1.8,1.75.14,8.17,3.4,9.75,7.56,3.27,8.65,16.24,21.56,25,27.75,10.7,7.58,23.45,16,23.45,16s1.22,5.88,3.48,7c6.85,3.41,24.49,8,26.24,1.17.48-1.9-1.78-4.39-8.55-6.12a88.24,88.24,0,0,1-10.75-3.93c-5.25-2.34-9.84-9.25-9.84-9.25l-32.15-47.49S534.3,438.07,521,439.18Z"/><path class="cls-57" d="M445,416.11c1.73-9.91-4.94-20.14-8.59-31.65-5-15.87-3-24.11-4.19-27.15,3.89-1.94,7.31-4,11-5.68.91-.41,4.6,17.44,16.39,12.72,7.11-2.85,5.64-15.73,5.94-15.7a60,60,0,0,1,6.24.73c1.95,1.14,2.63,8.19,5.92,15.22,2.88,6.14,8.35,5.26,8.35,14.94,0,6.45-8.11,22.27-4,30,2.8,5.27,2.79,9.43,20.39,16.8a144.28,144.28,0,0,1,25.08,13.43s-13.31-4.9-23.16,26.8c-8.91,26.21-26.68,33.57-33.86,31.1,2.48-2.22-2.75-25.17-9.92-33.33C441.89,443.11,441.62,435.13,445,416.11Z"/><path class="cls-55" d="M435.46,358.86s-8.45-.18-10,15.19c-.78,7.85-8,46.7-8,46.7a11.47,11.47,0,0,0,2.86,6l27.77,9.72s4.55,1,5.42-.24a13.86,13.86,0,0,0,2.06-4.66l-25.36-14.38,5.68-26.62s5.88-10.67,6.72-18.45C443.74,361.8,435.46,358.86,435.46,358.86Z"/><polygon class="cls-12" points="498.14 446.75 482.84 462.04 453.01 441.53 501.87 415.8 534.32 433.7 498.14 446.75"/><polygon class="cls-58" points="482.58 462.43 505.22 418.78 555.2 391.18 534.32 433.7 482.58 462.43"/><path class="cls-59" d="M481.68,461.25C481.55,461.15,504,418,504,418l1.22.78L482.84,462Z"/><polygon class="cls-12" points="555.2 391.18 553.5 390.16 504 418 505.22 418.78 555.2 391.18"/><path class="cls-59" d="M482.84,462s-.69,1.82-3.48.06L453,443.1v-1.57Z"/><path class="cls-54" d="M504,398.52s-4.11.89-10.48,8.38c-6.67,7.8-12.93,10.43-12.93,10.43l3.24,6.29s17.9-4.6,22.36-11.27C510.42,406,507.28,397.78,504,398.52Z"/><path class="cls-55" d="M449.77,429.42s16.46,1.36,18.29,6.57c2.06,5.9,3.12,8.23,2.78,9.14-.54,1.49-3,3-5.9,1s-3-3.65-6.31-4.87-5.21-.58-7.68-3C445.28,432.7,449.77,429.42,449.77,429.42Z"/><path class="cls-60" d="M464.44,308.29c0,20-.41,30.7-8.82,37.6-13.87,11.41-2.68,24-2.68,24s-36.87-4.76-21.86-34.58c10.06-20,2.28-31.75,21.11-40.4,9.95-4.58,27.05,1.31,21.68,7.73C473.87,302.63,464.44,299.33,464.44,308.29Z"/><path class="cls-54" d="M487.12,417.11s-.56-4.48-7.69,1.13c-7.53,5.91-9.84,17.05-3.92,20.1,1.5.78,9.92-3.06,11.35-7.8.62-2.1,4.34-11.51,4.34-11.51Z"/><path class="cls-12" d="M966.84,161.31c0-18.87-15.31-41.83-34.18-51.27s-34.18-1.79-34.18,17.09c0,9.35,3.78,19.69,9.86,28.91l.18-1.95v-.28a15.62,15.62,0,0,1,2.89-6.25,56.58,56.58,0,0,1,12.67-1.11l1.54.8.72-2.35a33,33,0,0,1-2.58-5.07,8.61,8.61,0,0,0-.56-1.14q-.19-.57-.36-1.14c-1.34-1.5-2.18-5-2.18-7,0-1.25.34-1.63.91-1.62a6.52,6.52,0,0,1-.31-1.55c-.68-5.25.26-7.68,1.24-8.78a4.13,4.13,0,0,1,4.2-1.07c.46.23.82,1,1.2,1.09.15-1.13,3.56-.06,8.42,3.42,5.35,3.84,7,7,7.67,10.18a22.41,22.41,0,0,1-.19,7.55,3.1,3.1,0,0,1,1.19,2.79c0,2.17-1,5.11-2.49,4.84a11.3,11.3,0,0,1-.65,1.2.16.16,0,0,1-.05.06,9,9,0,0,1-1.74,2,6.15,6.15,0,0,1-.62.42l.87,3.71-.18,0a114.51,114.51,0,0,1,13.29,13.74s2.72,6.39,3.2,10.67l.13,1.27C963,177.42,966.84,170.78,966.84,161.31Z"/><path class="cls-41" d="M953.42,168.56a114.51,114.51,0,0,0-13.29-13.74l.18,0-.87-3.71a6.15,6.15,0,0,0,.62-.42,9,9,0,0,0,1.74-2,.16.16,0,0,0,.05-.06,11.3,11.3,0,0,0,.65-1.2c1.52.27,2.49-2.67,2.49-4.84a3.1,3.1,0,0,0-1.19-2.79,22.41,22.41,0,0,0,.19-7.55c-.65-3.2-2.32-6.34-7.67-10.18-4.86-3.48-8.27-4.55-8.42-3.42-.38-.11-.74-.86-1.2-1.09a4.13,4.13,0,0,0-4.2,1.07c-1,1.1-1.92,3.53-1.24,8.78a6.52,6.52,0,0,0,.31,1.55c-.57,0-.91.37-.91,1.62,0,2,.84,5.52,2.18,7q.17.57.36,1.14a8.61,8.61,0,0,1,.56,1.14,33,33,0,0,0,2.58,5.07l-.72,2.35-1.54-.8a56.58,56.58,0,0,0-12.67,1.11,15.62,15.62,0,0,0-2.89,6.25v.28l-.18,1.95c6.2,9.38,14.79,17.59,24.32,22.35s17.91,5.16,24.09,2.11l-.13-1.27C956.14,175,953.42,168.56,953.42,168.56Z"/><path class="cls-41" d="M920.38,127.81c-.38,11.66,2.33,7.88-5.53,23s18.83,7.91,18.83,7.91l18.24,10.63s-10.75-12-6.26-30.56c1.42-5.85-.88-17.55-11-20.86C922.94,111.56,920.7,117.74,920.38,127.81Z"/><path class="cls-12" d="M932.55,158.15s6.44-5.26,7.19-5.84l2.63,4.58L933,173.25l-10.06-27a23,23,0,0,0,3-1C926.68,147.28,932.55,158.15,932.55,158.15Z"/><path class="cls-12" d="M797.81,74.76c0-19.94-16.17-44.19-36.11-54.16s-36.1-1.89-36.1,18c0,9.42,3.69,19.76,9.59,29.14a18.13,18.13,0,0,1,2.35-4.14,62.67,62.67,0,0,1,12.22-1.15l0-.19a23.22,23.22,0,0,0,3.15-1.08c.08.21.18.48.26.71l.69-1.63c-1-1.61-3.65-6.73-3.75-7.13-2.23-1.88-2.76-5.4-2.76-7.52,0-1.32.35-1.72.95-1.71a7.5,7.5,0,0,1-.33-1.64c-.72-5.54.28-8.11,1.32-9.27a4.33,4.33,0,0,1,4.44-1.13c.48.24.86,1,1.26,1.15.16-1.19,3.76-.06,8.9,3.61,5.65,4,7.41,7.38,8.1,10.75a23.66,23.66,0,0,1-.2,8,3.3,3.3,0,0,1,1.26,3c0,2.29-1.16,5.72-3.34,4.82-.2.45-2.45,3.19-3.08,3.22l.58,2.65a2,2,0,0,1,.3-.37l2.67,4.65a128.15,128.15,0,0,1,11.77,12.52,60,60,0,0,1,3.1,9.88C792.78,93,797.81,85.77,797.81,74.76Z"/><path class="cls-41" d="M754.73,88.63l-5-26.13a62.67,62.67,0,0,0-12.22,1.15,18.13,18.13,0,0,0-2.35,4.14A72.86,72.86,0,0,0,754.73,88.63Z"/><path class="cls-41" d="M760,69.91c5.12,2.81,6.41.16,7.19-.87l-.58-2.65c.63,0,2.88-2.77,3.08-3.22,2.18.9,3.34-2.53,3.34-4.82a3.3,3.3,0,0,0-1.26-3,23.66,23.66,0,0,0,.2-8c-.69-3.37-2.45-6.7-8.1-10.75-5.14-3.67-8.74-4.8-8.9-3.61-.4-.12-.78-.91-1.26-1.15A4.33,4.33,0,0,0,749.26,33c-1,1.16-2,3.73-1.32,9.27a7.5,7.5,0,0,0,.33,1.64c-.6,0-.95.39-.95,1.71,0,2.12.53,5.64,2.76,7.52.1.4,2.74,5.52,3.75,7.13l-.69,1.63C753.86,64.07,754.84,67.09,760,69.91Z"/><path class="cls-41" d="M770.15,73.32l.1.18-5,20.74c7.52,3,14.31,3.41,19.75,1.48a60,60,0,0,0-3.1-9.88A128.15,128.15,0,0,0,770.15,73.32Z"/><path class="cls-12" d="M767.88,71.32c.77.65,1.52,1.32,2.27,2l-2.67-4.65a2,2,0,0,0-.3.37l.48,2.12Z"/><path class="cls-12" d="M752.55,63.32l.59-1.38c-.08-.23-.18-.5-.26-.71a23.22,23.22,0,0,1-3.15,1.08l0,.19c.4,0,.76,0,1.16,0Z"/><path class="cls-12" d="M761.7,92.81c1.23.62,2.38,1,3.57,1.43l5-20.74-.1-.18c-.75-.68-1.5-1.35-2.27-2l-.22-.16L767.18,69c-.78,1-2.07,3.68-7.19.87s-6.13-5.84-6.85-8l-.59,1.38-1.63-.85c-.4,0-.76,0-1.16,0l5,26.13A56.87,56.87,0,0,0,761.7,92.81Z"/><path class="cls-41" d="M767.46,37c0,4.09-3.64,5.58-8.12,3.34s-8.12-7.38-8.12-11.46,3.63-5.58,8.12-3.34S767.46,32.9,767.46,37Z"/><ellipse class="cls-12" cx="847.68" cy="101.9" rx="26.68" ry="43.77" transform="translate(116.81 543.23) rotate(-37.98)"/><path class="cls-61" d="M795.63,49.59c0,5-4.09,7.07-9.12,4.56s-9.12-8.65-9.12-13.69,4.08-7.07,9.12-4.55S795.63,44.55,795.63,49.59Z"/><path class="cls-61" d="M881.85,98.61c0,5-4.08,7.07-9.11,4.55s-9.12-8.64-9.12-13.68,4.08-7.07,9.12-4.56S881.85,93.57,881.85,98.61Z"/><path class="cls-61" d="M968.38,142.27c0,5-4.08,7.07-9.12,4.56s-9.12-8.65-9.12-13.68,4.08-7.08,9.12-4.56S968.38,137.23,968.38,142.27Z"/><path class="cls-41" d="M869.46,137.84c-1.08-9.78-4.22-14.12-16.48-24.41l.18-.05-.87-3.71a7.4,7.4,0,0,0,.61-.42,9.07,9.07,0,0,0,1.75-2l.05-.06a11.3,11.3,0,0,0,.65-1.2c1.52.27,2.49-2.67,2.49-4.84a3.1,3.1,0,0,0-1.19-2.79,22.41,22.41,0,0,0,.19-7.55c-.66-3.2-2.32-6.34-7.67-10.18-4.86-3.48-8.27-4.55-8.42-3.42-.38-.11-.69-.56-1.14-.79a4.07,4.07,0,0,0-4.26.77c-1,1.1-1.93,3.53-1.25,8.78a7.09,7.09,0,0,0,.31,1.55c-.56,0-.9.37-.9,1.62,0,2,.84,5.52,2.18,7,.1.38.23.76.35,1.14a7.58,7.58,0,0,1,.57,1.14,33,33,0,0,0,2.58,5.07l-.73,2.35-1.54-.8c-11.42-.33-14-.12-15.27,6,6.27,10.52,15.5,19.92,26,25.14,8.42,4.22,16,4.86,22,2.79Z"/><path class="cls-12" d="M845.71,111.25c2.29,1.39,6.24.3,7-.27l2.63,4.57L846,131.92,835.9,105a21.58,21.58,0,0,0,3-1C839.64,105.94,843.43,109.87,845.71,111.25Z"/><polygon class="cls-41" points="845.77 111.56 849.22 116.12 849.21 116.78 847.25 118.28 845.97 117.65 845.85 117.59 844.31 116.81 842.65 113.5 842.65 112.78 845.77 111.56"/><polygon class="cls-41" points="847.25 119.17 848.45 128.67 845.96 133.42 843.15 125.45 844.25 117.72 847.25 119.17"/><path class="cls-45" d="M552.05,582c-26.64,13.27-26.79,34.76-.32,48s69.53,13.27,96.16,0l78.49-39.28c26.64-13.26,26.78-34.75.31-48s-69.51-13.25-96.16,0Z"/><g class="cls-1"><path class="cls-12" d="M576.62,541.77l.07,71.47c0,1.3,1,2.6,3,3.59a18.15,18.15,0,0,0,14.45,0c2-1,3-2.32,3-3.63l-.08-71.49c0,1.32-1,2.64-3,3.63a18.09,18.09,0,0,1-14.46,0c-2-1-3-2.29-3-3.57Z"/><path class="cls-62" d="M579.63,538.13c-4,2-4,5.23,0,7.21a18.09,18.09,0,0,0,14.46,0c4-2,4-5.22,0-7.21A18.17,18.17,0,0,0,579.63,538.13Z"/></g><path class="cls-12" d="M660.32,508.24l.07,72.86c0,1.29,1,2.59,3,3.58a18.32,18.32,0,0,0,14.47,0c2-1,3-2.33,3-3.65l-.08-72.85c0,1.32-1,2.63-3,3.63a18.17,18.17,0,0,1-14.46,0c-2-1-3-2.29-3-3.58Z"/><path class="cls-62" d="M663.32,504.6c-4,2-4,5.23,0,7.22a18.17,18.17,0,0,0,14.46,0c4-2,4-5.22,0-7.22A18.2,18.2,0,0,0,663.32,504.6Z"/><path class="cls-7" d="M534.4,575.1c26.48,13.27,69.54,13.27,96.17,0L709.07,536c13.4-6.67,20.1-15.42,20.07-24.16v3.36c0,8.75-6.67,17.5-20.07,24.17l-78.5,39.07c-26.63,13.26-69.7,12.57-96.17-.69-13.14-6.58-19.72-14.51-19.75-23.14v-3.38C514.68,559.91,521.26,568.52,534.4,575.1Z"/><path class="cls-63" d="M534.73,527.32c-26.64,13.26-26.78,34.75-.32,48s69.54,13.27,96.17,0L709.07,536c26.64-13.26,26.77-34.75.31-48s-69.52-13.26-96.17,0Z"/><polygon class="cls-56" points="623.05 526.03 642.14 503.68 694.99 511.06 680.8 533.41 623.05 526.03"/><polygon class="cls-64" points="623.05 526.03 623.13 528 680.96 535.52 680.8 533.41 623.05 526.03"/><polygon class="cls-12" points="680.96 535.52 695.16 512.68 694.66 511.41 680.8 533.41 680.96 535.52"/><path class="cls-32" d="M641.22,523.05s-2-4.22,2.69-5.48,6-1,5.47-4.15-2.71-5.41,5.78-4,14.28,6.05,19.83,3.52-.08,7.31-6,5.27-2,2.15-4.9,5.67S643,528,641.22,523.05Z"/><path class="cls-62" d="M683.1,517.8c0,1.74-2.26,3.17-5.05,3.17S673,519.54,673,517.8s2.26-3.16,5.06-3.16S683.1,516.05,683.1,517.8Z"/><polygon class="cls-56" points="623.57 547.48 598.35 530.23 549.59 549.3 570.09 567.67 623.57 547.48"/><polygon class="cls-64" points="623.57 547.48 624.1 549.4 570.58 569.74 570.09 567.67 623.57 547.48"/><polygon class="cls-12" points="570.58 569.74 549.93 550.9 550.01 549.56 570.09 567.67 570.58 569.74"/><polygon class="cls-65" points="577.35 539.51 589.21 535.11 609.58 551.11 595.81 556.25 577.35 539.51"/><polygon class="cls-62" points="692.2 492.45 666.99 475.19 618.24 494.27 638.72 512.63 692.2 492.45"/><polygon class="cls-32" points="692.2 492.45 692.72 494.37 639.21 514.7 638.72 512.63 692.2 492.45"/><polygon class="cls-12" points="639.21 514.7 618.57 495.87 618.65 494.54 638.72 512.63 639.21 514.7"/><path class="cls-59" d="M637.15,499.86,664.67,482l12,10s-7.83,9-14.92,3-.37,13.18-9.06,7.27S637.15,499.86,637.15,499.86Z"/><path class="cls-59" d="M638.48,496c.29-1,9.06-8.12,8.09-7.79s-9.58,3.89-9.58,3.89Z"/><path class="cls-66" d="M599.75,500.49c-5.6,3.05-5.6,8,0,11.07s14.67,3.06,20.27,0,5.6-8,0-11.07S605.35,497.43,599.75,500.49Z"/><path class="cls-40" d="M601,498.12c-6,3.29-6,8.62,0,11.91s15.78,3.28,21.8,0,6-8.62,0-11.91S607,494.84,601,498.12Z"/><path class="cls-12" d="M601,497.3c-6,3.29-6,8.62,0,11.91s15.78,3.28,21.8,0,6-8.62,0-11.91S607,494,601,497.3Z"/><path class="cls-67" d="M605,499.13c-3.91,2.14-3.91,5.6,0,7.73a16.47,16.47,0,0,0,14.15,0c3.91-2.13,3.91-5.59,0-7.73A16.47,16.47,0,0,0,605,499.13Z"/><path class="cls-40" d="M604.8,499.93c-3.1,1.69-3.1,4.44,0,6.13a13,13,0,0,0,11.24,0c3.11-1.69,3.11-4.44,0-6.13A13,13,0,0,0,604.8,499.93Z"/><path class="cls-68" d="M606.12,496.07a1,1,0,0,0,.88-.52.89.89,0,0,0-.46-1.23,13.79,13.79,0,0,1-3.24-2.15c-1.29-1.25-1.75-2.38-1.44-3.56.16-.6.46-.66.55-.69.51-.11,1.46.25,2.46,1.32a1,1,0,0,0,1.38.08.89.89,0,0,0,.08-1.3c-1.39-1.5-3-2.2-4.38-1.89a2.65,2.65,0,0,0-2,2c-.48,1.82.17,3.6,1.94,5.3A15.09,15.09,0,0,0,605.7,496,.91.91,0,0,0,606.12,496.07Z"/><path class="cls-40" d="M604.39,488.58c-4.2,2.29-4.2,6,0,8.29a17.63,17.63,0,0,0,15.18,0c4.19-2.29,4.19-6,0-8.29A17.63,17.63,0,0,0,604.39,488.58Z"/><path class="cls-69" d="M604.39,488.58c-4.2,2.29-4.2,6,0,8.29a17.63,17.63,0,0,0,15.18,0c4.19-2.29,4.19-6,0-8.29A17.63,17.63,0,0,0,604.39,488.58Zm1,.52a15.47,15.47,0,0,1,13.26,0c3.65,2,3.65,5.24,0,7.24a15.4,15.4,0,0,1-13.26,0C601.69,494.34,601.69,491.1,605.35,489.1Z"/><path class="cls-12" d="M604.39,488.58c-4.2,2.29-4.2,6,0,8.29a17.63,17.63,0,0,0,15.18,0c4.19-2.29,4.19-6,0-8.29A17.63,17.63,0,0,0,604.39,488.58Zm1,.52a15.47,15.47,0,0,1,13.26,0c3.65,2,3.65,5.24,0,7.24a15.4,15.4,0,0,1-13.26,0C601.69,494.34,601.69,491.1,605.35,489.1Z"/><path class="cls-70" d="M604.54,496.43c-1.92-1.06-3-2.44-3-3.89s1.06-2.84,3-3.89a17.31,17.31,0,0,1,14.88,0c1.92,1.05,3,2.43,3,3.89s-1.06,2.83-3,3.89a17.41,17.41,0,0,1-14.88,0Zm.46-7.8c-1.87,1-3,2.51-3,4s1.22,2.78,3.09,3.81A14.79,14.79,0,0,0,612,498a14.44,14.44,0,0,0,6.78-1.54c1.87-1,3.14-2.5,3.14-4s-1.1-2.82-3-3.84a15,15,0,0,0-6.95-1.48A15.26,15.26,0,0,0,605,488.63Z"/><path class="cls-68" d="M604.39,496.87a17.63,17.63,0,0,0,15.18,0,6,6,0,0,0,2.93-3c-.5,3.79-4.77,10.5-6.81,11.25a11.46,11.46,0,0,1-7.83.11c-2.4-1-6.44-8.23-6.56-11.95A5.51,5.51,0,0,0,604.39,496.87Z"/><path class="cls-71" d="M618.5,492.62a11.15,11.15,0,0,1,2.28,1.86,8.9,8.9,0,0,1-2.17,1.86c-3.66,2-10.07,1.94-13.26,0a6.5,6.5,0,0,1-2.37-2.18,12.42,12.42,0,0,1,2.17-1.54A15.53,15.53,0,0,1,618.5,492.62Z"/><path class="cls-72" d="M603.26,494.5c1.88-1.56,6.55-3.3,8.26-2.55a1.28,1.28,0,0,1,.11,2.14c-.51.39-1.33,1-.76,1.74s2,.91,3,1c.35,0,2.44-.07,2.78.34a15.57,15.57,0,0,1-11.3-.8,7.58,7.58,0,0,1-1.16-.79A5.68,5.68,0,0,1,603.26,494.5Z"/><path class="cls-12" d="M603.34,486.6s.42-.16,1.22.47,0,.78,0,.78a2.15,2.15,0,0,1-1.36-.43C602.43,486.9,603.34,486.6,603.34,486.6Z"/><path class="cls-73" d="M609,487.3s.86-4.74-5-8.66c-5.63-3.72-2-14.52-2-14.52s5,5.22,5.36,6.69c.59,2.45-2.23,4.22,2.37,9.69a6.21,6.21,0,0,1,.9,6.54,15.61,15.61,0,0,0,2.29-3.66c.69-1.82.76-6-1.2-10.31C609,467,602.53,464.5,598.91,454c-3.35-9.69,2-15.18,6.41-17.11,10.51-4.64,2.24-27.6,2.24-27.6s10.18,12.2,12.5,17.77,7.39,15.9-5.7,24.47c-7.39,4.84-2.57,10,1.55,19.47s-3.61,16.38-3.61,16.38A4.59,4.59,0,0,1,609,487.3Z"/><path class="cls-3" d="M375.81,661.56c-6.82,7.16-20.27,9.53-34.65,9.53s-27-4.63-34-11.57a13.31,13.31,0,0,1-.75-4.38c0-11.69,15.57-21.18,34.78-21.18s37.54,7.77,37.54,19.47A11.18,11.18,0,0,1,375.81,661.56Z"/><path class="cls-12" d="M343.87,577.49l-44.16,14.84V647.9c0,11.25,15,20.37,33.43,20.37s33.44-9.12,33.44-20.37V592.33Z"/><ellipse class="cls-74" cx="333.14" cy="592.33" rx="33.44" ry="20.37"/><path class="cls-75" d="M304.68,603c5.89,5.81,16.43,9.69,28.46,9.69s22.58-3.88,28.47-9.69a11.34,11.34,0,0,0,.62-3.66c0-9.78-13-17.72-29.09-17.72s-29.09,7.94-29.09,17.72A11.09,11.09,0,0,0,304.68,603Z"/><path class="cls-76" d="M364.24,592.33c0,9.77-14.24,18-31.1,18s-31.09-8.25-31.09-18,14.24-18,31.09-18C345.16,575.21,365.8,582.67,364.24,592.33ZM333.14,572c-18.46,0-33.43,9.12-33.43,20.37s15,20.37,33.43,20.37,33.44-9.12,33.44-20.37S351.61,572,333.14,572Z"/><path class="cls-77" d="M318,492.64l-6.37,21.47-.07,22.15s0,17,3.42,25,10.89,15.82,22.27,19.56c5.63,1.86,12.71,2.58,18,.36,2.36-1-4.54-3.6-3-5.16,12.81-13.3,5.18-27.07-4-39.84C337.54,521.42,318,492.64,318,492.64Z"/><path class="cls-78" d="M298.08,559.21c-1.38-18.21.16-40.83.16-40.83l5.81-30.95,6.6,26.74,7.72,31.8,8.37-45.6,8-41.48,4.9,40.45c2.18,7.17,2.62,14.73,3,22.21.62,10.91,1.87,32.74,1.87,32.74l5.48-26,11.55-79,5.13,56L372,512s-3,49.18-7.75,65.68c-5.38,18.71-22.9,31.43-43,27C303.06,600.61,299.24,574.37,298.08,559.21Z"/><path class="cls-79" d="M356.75,581.32l1.18-33.63-2.35-19.77-5.7-45.34-22.44,91.28-.28,17.07s12.38,13.29,18.45,11.17C350.38,600.44,356.75,581.32,356.75,581.32Z"/><path class="cls-79" d="M322.91,581.08l2.78-17.43L327,553.07l-.36-24.84,12,48.86.15,9.14s-6.63,7.11-9.88,6C326.32,591.31,322.91,581.08,322.91,581.08Z"/><polygon class="cls-3" points="804.31 711.78 1019.36 819.8 1235.81 711.78 1020.76 603.76 804.31 711.78"/><path class="cls-80" d="M1122.13,616.75V693S1105.25,759.1,998.3,759.1s-112.91-63.05-112.91-63.05V619Z"/><polygon class="cls-39" points="789.59 597.49 789.63 603.76 1004.68 711.78 1004.64 705.51 789.59 597.49"/><polygon class="cls-81" points="1004.64 705.51 1004.68 711.78 1221.13 603.76 1221.09 597.5 1004.64 705.51"/><polygon class="cls-82" points="789.59 597.49 1004.64 705.51 1221.09 597.5 1006.05 489.48 789.59 597.49"/><path class="cls-83" d="M897.4,747.49V660.66c0-5.54,3.4-10.76,8.88-13.63l87.32-45.78c-3.44-2.7-2.8-6.33,1.93-8.68,5.46-2.73,14.27-2.73,19.69,0s5.4,7.13-.06,9.86c-4.53,2.25-11.34,2.61-16.63,1.12l-89.74,47.06a11.58,11.58,0,0,0-6.54,10v87c6,2.65,10.86,14.3,12.16,29.25.38,4.38-3.67,8.11-8.74,8.11H893.58c-5.08,0-9.13-3.73-8.75-8.11C886.16,761.6,891.17,749.79,897.4,747.49Z"/></g></g></g></svg>