<svg xmlns="http://www.w3.org/2000/svg" xmlns:xlink="http://www.w3.org/1999/xlink" viewBox="0 0 809.68 767.26"><defs><style>.cls-1{isolation:isolate;}.cls-2{fill:#8667bf;}.cls-3{fill:url(#linear-gradient);}.cls-4{fill:#f09a82;}.cls-5{fill:#ffc2b0;}.cls-6{fill:#4a148c;}.cls-7{fill:#813fd1;}.cls-8{fill:url(#linear-gradient-2);}.cls-9{fill:url(#linear-gradient-3);}.cls-10{fill:#a58ce2;opacity:0.31;}.cls-10,.cls-12,.cls-30{mix-blend-mode:multiply;}.cls-11{fill:#9581e7;}.cls-12{fill:#5147d1;opacity:0.23;}.cls-13{fill:#c2a9f2;}.cls-14{fill:url(#linear-gradient-4);}.cls-15,.cls-59{fill:#fff;}.cls-16{fill:#d9e9ff;}.cls-17{fill:#9875d9;}.cls-18{fill:url(#linear-gradient-5);}.cls-19{fill:#ffe18c;}.cls-20{fill:url(#linear-gradient-6);}.cls-21{fill:#f4eeff;}.cls-22{fill:#cabfe0;}.cls-23{fill:url(#linear-gradient-7);}.cls-24{fill:#f09;}.cls-25{fill:url(#linear-gradient-8);}.cls-26{fill:#cec0eb;}.cls-27{fill:#c40076;}.cls-28{fill:#4ba4d6;opacity:0.49;}.cls-29{fill:url(#linear-gradient-9);}.cls-30{fill:#433bad;opacity:0.26;}.cls-31,.cls-59{opacity:0.4;}.cls-31{mix-blend-mode:screen;}.cls-32{fill:#ebf0ff;}.cls-33{fill:#228fee;}.cls-34{fill:#f5a791;}.cls-35{fill:#ea8a6c;}.cls-36{fill:url(#linear-gradient-10);}.cls-37{fill:#cf7c2c;}.cls-38{fill:#211a8a;}.cls-39{fill:#665fde;}.cls-40{fill:#c5baf2;}.cls-41{fill:#390f6b;}.cls-42{fill:url(#linear-gradient-11);}.cls-43{fill:#6f81c2;}.cls-44{fill:url(#linear-gradient-12);}.cls-45{fill:#1f1796;}.cls-46{fill:#fdfdfd;}.cls-47{fill:#9c91ff;}.cls-48{fill:#a8c4e5;}.cls-49{fill:#e1eaf4;}.cls-50{fill:#ebcae3;opacity:0.57;}.cls-51{fill:#e9e8f7;}.cls-52{fill:#ffbaba;}.cls-53{fill:#5f2aa1;}.cls-54{fill:url(#linear-gradient-13);}.cls-55{fill:#2180c2;}.cls-56{fill:url(#linear-gradient-14);}.cls-57{fill:#7dfaff;}.cls-58{fill:#8634eb;}.cls-60{fill:url(#linear-gradient-15);}</style><linearGradient id="linear-gradient" x1="137.66" y1="332.47" x2="784.55" y2="332.47" gradientUnits="userSpaceOnUse"><stop offset="0.01" stop-color="#a950c7"/><stop offset="0.96" stop-color="#433bad"/></linearGradient><linearGradient id="linear-gradient-2" x1="0" y1="631.75" x2="235.88" y2="631.75" xlink:href="#linear-gradient"/><linearGradient id="linear-gradient-3" x1="560.29" y1="699.05" x2="707.15" y2="699.05" gradientTransform="translate(-273.45 618.92) rotate(-43.79)" xlink:href="#linear-gradient"/><linearGradient id="linear-gradient-4" x1="297.96" y1="566.42" x2="533.45" y2="566.42" gradientTransform="translate(979.87 147.65) rotate(89.69)" gradientUnits="userSpaceOnUse"><stop offset="0.25" stop-color="#b594eb"/><stop offset="0.59" stop-color="#6267d1"/></linearGradient><linearGradient id="linear-gradient-5" x1="410.25" y1="408.91" x2="411.06" y2="498.88" gradientUnits="userSpaceOnUse"><stop offset="0" stop-color="#f77e05"/><stop offset="0" stop-color="#f77f05"/><stop offset="0.68" stop-color="#ffce43"/></linearGradient><linearGradient id="linear-gradient-6" x1="343.7" y1="374.89" x2="472.27" y2="374.89" gradientUnits="userSpaceOnUse"><stop offset="0" stop-color="#ff3690"/><stop offset="0.26" stop-color="#e92f82"/><stop offset="0.65" stop-color="#c22369"/></linearGradient><linearGradient id="linear-gradient-7" x1="335.75" y1="214.65" x2="382.82" y2="214.65" gradientTransform="matrix(0.86, 0.5, -0.5, 0.86, 155.14, -151.47)" gradientUnits="userSpaceOnUse"><stop offset="0" stop-color="#4432db"/><stop offset="0.17" stop-color="#693dda"/><stop offset="0.57" stop-color="#b955d8"/><stop offset="0.85" stop-color="#ec63d7"/><stop offset="0.98" stop-color="#ff69d7"/></linearGradient><linearGradient id="linear-gradient-8" x1="447.09" y1="375.63" x2="473.74" y2="375.63" gradientUnits="userSpaceOnUse"><stop offset="0.03" stop-color="#c20055"/><stop offset="0.41" stop-color="#bf0155"/><stop offset="0.65" stop-color="#b70653"/><stop offset="0.86" stop-color="#a80e51"/><stop offset="0.93" stop-color="#a11250"/></linearGradient><linearGradient id="linear-gradient-9" x1="603.69" y1="240.09" x2="753.58" y2="240.09" gradientTransform="translate(95.78 -180.63) rotate(16.9)" gradientUnits="userSpaceOnUse"><stop offset="0.14" stop-color="#43ffd9"/><stop offset="1" stop-color="#059af7"/></linearGradient><linearGradient id="linear-gradient-10" x1="662.28" y1="440.81" x2="707.95" y2="440.81" gradientUnits="userSpaceOnUse"><stop offset="0.32" stop-color="#ffce43"/><stop offset="1" stop-color="#f77f05"/><stop offset="1" stop-color="#f77e05"/></linearGradient><linearGradient id="linear-gradient-11" x1="683.82" y1="457.53" x2="758.33" y2="457.53" xlink:href="#linear-gradient-10"/><linearGradient id="linear-gradient-12" x1="743.04" y1="458.53" x2="782.52" y2="458.53" xlink:href="#linear-gradient-10"/><linearGradient id="linear-gradient-13" x1="63.87" y1="468.98" x2="160.09" y2="468.98" gradientTransform="matrix(1, 0, 0, 1, 0, 0)" xlink:href="#linear-gradient-9"/><linearGradient id="linear-gradient-14" x1="141.25" y1="449.99" x2="176.59" y2="449.99" gradientUnits="userSpaceOnUse"><stop offset="0.35" stop-color="#2ddbe4"/><stop offset="1" stop-color="#059af7"/></linearGradient><linearGradient id="linear-gradient-15" x1="48.06" y1="402.45" x2="67.12" y2="369.44" gradientTransform="matrix(0.81, -0.04, -0.15, 0.54, 278.9, 217.32)" gradientUnits="userSpaceOnUse"><stop offset="0" stop-color="#4432db"/><stop offset="0.22" stop-color="#4d64e4"/><stop offset="0.59" stop-color="#5cb4f2"/><stop offset="0.85" stop-color="#65e7fc"/><stop offset="0.98" stop-color="#69faff"/></linearGradient></defs><title>people-rocket-informalAsset 1</title><g class="cls-1"><g id="Layer_2" data-name="Layer 2"><g id="image"><path class="cls-2" d="M415.66,767.26c-69.69,0-135.22-15.83-184.51-44.56s-76.57-67.09-76.57-107.86,27.2-79.06,76.57-107.85S346,462.43,415.66,462.43,550.87,478.25,600.16,507s76.57,67.09,76.57,107.85-27.19,79.07-76.57,107.86S485.35,767.26,415.66,767.26Zm0-303.83c-143.41,0-260.08,67.92-260.08,151.41S272.25,766.26,415.66,766.26s260.07-67.92,260.07-151.42S559.06,463.43,415.66,463.43Z"/><path class="cls-2" d="M408,722c-97.4,0-176.64-38.94-176.64-86.81S310.58,548.37,408,548.37s176.64,39,176.64,86.82S505.38,722,408,722Zm0-172.71c-96.89,0-175.72,38.53-175.72,85.9S311.09,721.08,408,721.08s175.73-38.53,175.73-85.89S504.88,549.29,408,549.29Z"/><path class="cls-3" d="M776.05,440.87a124.13,124.13,0,0,0-10.39-20.44l-7-36.71h0a190.91,190.91,0,0,0-11-103.56A204,204,0,0,0,660.1,179C619.2,103,549.26,38.87,432.08,79a1068.38,1068.38,0,0,0-108.74,44.36c-24.26-15.49-54.89-20.26-83.31-10.32-45.79,16-69.33,64.47-55.07,110.59h0c.73,2.36,1.55,4.71,2.48,7.05q.92,2.3,1.93,4.53c15,42.7,9.58,71.26-23.3,104.65-1.61,1.48-3.15,3-4.64,4.58l0,0h0c-22.79,24.3-30.63,60.62-17.13,94.68,19.09,48.13,105,79.23,153.16,62.39,0,0,21.29,23.09,109-35.6,1.44-1-12.68-34.58-11.19-35.51,34.07,61.69,97.88,100.8,165.58,105.31,29.5,50.61,92,75.39,147.83,55.86C770.34,570,800.51,502.54,776.05,440.87Z"/><path class="cls-4" d="M123.62,427.88l-1.1-.37a7.1,7.1,0,0,1-4.48-8.94L125,397.76a7.08,7.08,0,0,1,8.94-4.47l1.09.36a7.09,7.09,0,0,1,4.48,8.94l-3.71,21C134.54,427.25,127.31,429.1,123.62,427.88Z"/><path class="cls-4" d="M140,398.92c-.73,10.89-7.72,15.42-15.63,10.13s-9.8-18.88-9.08-29.76,3.8-15,11.7-9.66S140.75,388,140,398.92Z"/><path class="cls-5" d="M152.81,395.61c-1.89,10.74-12.67,15.7-20,9.59s-11.67-19.78-9.78-30.52,9.33-14.5,16.62-8.39S154.7,384.86,152.81,395.61Z"/><path class="cls-4" d="M145.19,406.56a11,11,0,0,1-12.34-1.36c-7.29-6.12-11.67-19.78-9.78-30.52s-.66-11.95,6.2-5.35C131.07,371.06,126.38,398.94,145.19,406.56Z"/><path class="cls-6" d="M116.81,399.91s3.4,8.62,12.18,7.82c10.13-.91,5.51-17.85,15.29-20.76,13.22-3.92,10.12-16.75,5.23-21.51s-12.18-3.5-21.16-1.89C118.85,365.27,106.65,368.09,116.81,399.91Z"/><circle class="cls-5" cx="141.4" cy="390.81" r="4.8" transform="translate(-64.74 29.93) rotate(-9.85)"/><path class="cls-6" d="M143.14,394.64h0a1.6,1.6,0,0,1-1.58-1.62l-1.32-10.5c0-.88,2.18,0,3.06,0h0c.88,0,3.47-.41,3.46.47l-2,10.09A1.61,1.61,0,0,1,143.14,394.64Z"/><path class="cls-7" d="M131.52,407.05a9.52,9.52,0,0,1-9.3.47,11.16,11.16,0,0,1-4.57-4.34c-3.79-6.4-10.92-27.9.23-35.78,0,0,2-2.89,8.9-3.59,0,0,3-.59,6.82-1.23a29.15,29.15,0,0,1,6.66-.35l3.29.21c-21.91,7.9-22.06,44.8-12,44.61Z"/><path class="cls-4" d="M140.92,390.61s-1.17.38-1,1.28.64,1,.64,1a.9.9,0,0,1-1.43.14,2.5,2.5,0,0,1-.33-3.5C139.66,388.35,140.92,390.61,140.92,390.61Z"/><path class="cls-8" d="M17.17,561.14C14.46,565-49.85,692,89.33,720.21s155.19-32.91,143.43-71.58-115.23-50.86-132-88.19S37.1,533.06,17.17,561.14Z"/><path class="cls-9" d="M576.17,694.9c.58,3.09,49.13,55.88,134.46,25.25,93.92-33.71,30.21-62.48,6.35-76.57s-54.81-3.76-102.75,14.17C588.1,667.52,571.92,672.13,576.17,694.9Z"/><ellipse class="cls-10" cx="458.71" cy="569.84" rx="106.88" ry="185.13" transform="translate(-113.61 1025.45) rotate(-89.69)"/><ellipse class="cls-11" cx="411.8" cy="587.36" rx="106.88" ry="185.13" transform="matrix(0.01, -1, 1, 0.01, -177.79, 995.97)"/><path class="cls-12" d="M230.6,498.33s14.19-9.1,36.89-46.85c39.85-66.27,78.3-87,178.19-102.58,109-17,202.1-38.15,234.32-121.19,0,0,29.32,29,36.67,65.2,0,0,24.16,81.51-97.76,124.32-55.69,19.55-155.77-4.47-210.37,11.24-116.13,33.39-98.61,85.67-98.61,85.67Z"/><ellipse class="cls-13" cx="411.8" cy="572.15" rx="106.88" ry="185.13" transform="translate(-162.58 980.83) rotate(-89.69)"/><ellipse class="cls-14" cx="415.7" cy="566.42" rx="67.98" ry="117.74" transform="translate(-152.97 979.05) rotate(-89.69)"/><circle class="cls-15" cx="389.2" cy="444.3" r="23.59" transform="translate(-188.02 318.99) rotate(-36.53)"/><circle class="cls-15" cx="398.51" cy="474.41" r="28.24" transform="translate(-219.84 435.45) rotate(-46.36)"/><circle class="cls-15" cx="386.3" cy="447.84" r="32.84" transform="translate(-138.26 721.01) rotate(-76.73)"/><circle class="cls-15" cx="351.5" cy="492.33" r="42" transform="translate(-203.64 732.67) rotate(-77.88)"/><circle class="cls-15" cx="470.16" cy="537.98" r="32.84" transform="matrix(0.31, -0.95, 0.95, 0.31, -187.83, 816.38)"/><circle class="cls-15" cx="296.68" cy="511.71" r="32.84" transform="translate(-282.87 629.99) rotate(-71.43)"/><circle class="cls-15" cx="515.86" cy="566.59" r="49.85" transform="translate(-204.75 827.09) rotate(-67.56)"/><circle class="cls-15" cx="444.22" cy="599.8" r="42" transform="translate(-84.76 73.23) rotate(-8.61)"/><path class="cls-16" d="M550.26,529.84a49.83,49.83,0,0,1-74.47,54.07,42,42,0,0,1-70.19,28.84,42,42,0,0,0,81.32-6,49.84,49.84,0,0,0,63.34-76.93Z"/><path class="cls-16" d="M345,516.68a41.94,41.94,0,0,1-15.76-4.31A27.43,27.43,0,0,1,300.47,534c-11.51-.82-24.83-9.65-28.16-20-1.49,3.06-.57,8-.82,11.6-1.08,15.11,12.41,27.71,27.52,28.79a27.43,27.43,0,0,0,28.78-21.6,42,42,0,0,0,60.12-44.88A42,42,0,0,1,345,516.68Z"/><circle class="cls-15" cx="278.93" cy="538.15" r="27.44" transform="matrix(0.56, -0.83, 0.83, 0.56, -323.09, 467.56)"/><polygon class="cls-17" points="269.61 275.64 305.11 254.4 309.42 199.12 275.01 207.71 269.61 275.64"/><polygon class="cls-18" points="369.68 375.08 366.33 547.66 456.3 505.5 453.39 346.51 369.68 375.08"/><path class="cls-19" d="M390.36,395.23a54.35,54.35,0,0,0,25.75,52s31.74-24.73,13.48-68.8S390.36,395.23,390.36,395.23Z"/><path class="cls-17" d="M329.14,223.6c-18.2-8.65-33-1.37-41.6,5.46-4,3.14-10.11-3.48-10.81-11.46-9.09-104,63.08-79.27,63.08-79.27Z"/><path class="cls-20" d="M343.7,350.59S355.91,398,415,399.17s57.3-39.05,57.3-39.05Z"/><path class="cls-13" d="M315.63,243.9c-18.21-8.65-33-1.36-41.61,5.46-4,3.14-10.11-3.48-10.81-11.46-9.08-104,63.09-79.27,63.09-79.27Z"/><path class="cls-21" d="M511.52,192.49C505.21,132.4,462.34,64.13,437.3,25.66c-7.82-12-18.44-22.31-30.3-25.59-11.73,3.71-22,14.38-29.34,26.68C354,66.11,313.7,135.91,309.6,196.19c-3.54,52.05,5.41,104,21.21,144.81l.67,1.7c4,9.72,13,17.54,26.39,24.93,15.85,8.77,35.72,13.62,56.13,14.65,20.35-1.78,40-7.35,55.55-16.69,13.09-7.88,22-16.25,25.64-26.11l.43-1.49C509.92,296.6,517,244.38,511.52,192.49Z"/><ellipse class="cls-22" cx="369.75" cy="210.01" rx="32.19" ry="55.75" transform="translate(-55.28 223.1) rotate(-31.36)"/><ellipse class="cls-15" cx="358.14" cy="217.09" rx="32.19" ry="55.75" transform="translate(-60.66 218.1) rotate(-31.36)"/><ellipse class="cls-23" cx="356.97" cy="215.16" rx="19.16" ry="33.18" transform="translate(-59.82 217.2) rotate(-31.36)"/><path class="cls-24" d="M487.4,113.15c-15.77-34.16-35.77-65.68-50-87.56C429.57,13.57,419,3.28,407.09,0c-24.81,3.55-54.71,65.53-69.24,100.41C354.36,133.42,445,149.6,487.4,113.15Z"/><path class="cls-25" d="M473.73,358.91l-17.2-1.28c-2.64,11.92-5.76,23.92-9.44,36C474.8,383.46,473.73,358.91,473.73,358.91Z"/><path class="cls-26" d="M451.58,374.69a106.06,106.06,0,0,0,18.16-8.57c13.09-7.88,22-16.25,25.64-26.11l.43-1.49c14.3-41.39,21.34-93.6,15.9-145.5-3.13-29.79-15.25-61.59-29.72-90.78C467.27,72.56,438.33,73,450.35,122.16,467.9,193.94,475.41,281.71,451.58,374.69Z"/><path class="cls-27" d="M452.42,130.37c13.26-3.26,25.47-8.83,35.17-17.16C472.51,80.16,440.53,9.07,407.28.06l-.28.1A637.19,637.19,0,0,1,452.42,130.37Z"/><path class="cls-17" d="M493.35,214.61l-22,12.48,21.32,55.54-.1,10.42c1.88,1.11,3.7,2.33,5.48,3.59l23.44,61L543.55,345h0a5,5,0,0,0,3.31-3.45C570.41,268.33,493.35,214.61,493.35,214.61Z"/><path class="cls-17" d="M518.27,237.42l-39.33,25.05c33.83,26.68,51.75,46.31,34.93,122.82l30.36-18.35,1.2-.73c1.78-1.74,1.69-3,2.3-4.87C571.29,288.13,518.27,237.42,518.27,237.42Z"/><path class="cls-13" d="M470.51,305.53c19.77,11.64,33.85,32.43,41.72,46.61,3.62,6.51,10.79,7.5,12.6,1.88,23.56-73.21-53.51-126.93-53.51-126.93Z"/><path class="cls-13" d="M507.56,344.22,510,382.35a3.15,3.15,0,0,0,6.17.7l8.65-29Z"/><path class="cls-13" d="M263.36,234.57l2.45,38.13a3.16,3.16,0,0,0,6.18.7l8.64-29Z"/><circle class="cls-15" cx="462.09" cy="528.24" r="42" transform="matrix(0.85, -0.53, 0.53, 0.85, -210.36, 327.31)"/><circle class="cls-15" cx="382.34" cy="605.48" r="27.44" transform="translate(-285.73 347.66) rotate(-36.63)"/><circle class="cls-15" cx="343.7" cy="604.25" r="27.44" transform="translate(-326.6 420.01) rotate(-45)"/><circle class="cls-15" cx="466.68" cy="486.66" r="23.59" transform="translate(-207.58 484.87) rotate(-46.05)"/><circle class="cls-15" cx="505.77" cy="532.75" r="23.59"/><circle class="cls-15" cx="398.4" cy="554.17" r="42" transform="translate(-113.65 102.92) rotate(-12.9)"/><ellipse class="cls-28" cx="674.19" cy="243.48" rx="89.41" ry="89.42" transform="translate(-42.24 266.72) rotate(-21.71)"/><ellipse class="cls-29" cx="675.34" cy="246.33" rx="74.94" ry="74.95" transform="translate(-42.95 275.14) rotate(-22.34)"/><path class="cls-30" d="M606.72,276.69a74.94,74.94,0,0,0,66.72,44.5,75.73,75.73,0,0,0,8.81-.33C638.48,311.6,637.26,275.08,606.72,276.69Z"/><g class="cls-31"><circle class="cls-32" cx="666.15" cy="221.29" r="14.76" transform="matrix(0.93, -0.36, 0.36, 0.93, -34.82, 258.31)"/></g><g class="cls-31"><path class="cls-32" d="M699.39,203.32a8.34,8.34,0,1,1-8.14-8.54A8.34,8.34,0,0,1,699.39,203.32Z"/></g><g class="cls-31"><circle class="cls-32" cx="705.69" cy="231.66" r="11.34" transform="translate(-34.14 297.39) rotate(-23.25)"/></g><path class="cls-30" d="M606.29,217.17s-1.92,29.44,16.71,40.29,33.13,5.13,58.35,30.68,60.35-7,60.35-7l6.45-17.08S708.78,293.21,697,277.86c-31.32-40.65-50.1-34.64-67.32-41.79s-8.36-41.64-8.36-41.64Z"/><path class="cls-33" d="M641.13,179.64s-55.9-20.42-75.16,2.44c-4.83,5.74-3.47,14.74.4,24.12,8.51,20.65,34.17,46.63,70.71,70.42l.39.25q3.39,2.2,6.9,4.38l.51.31q3.54,2.19,7.21,4.35c2.23,1.31,4.47,2.58,6.71,3.83l1.84,1c1.82,1,3.63,2,5.44,2.95l1.4.74q3.4,1.79,6.79,3.47l1,.5q3,1.45,5.89,2.84l1.42.66q6.9,3.19,13.67,5.93l1,.39c2.11.84,4.2,1.66,6.28,2.43l.52.19c2.32.87,4.63,1.69,6.91,2.46h0a197.2,197.2,0,0,0,23.35,6.44c25.87,5.33,43.77,2.05,50.4-9.25,9-15.26-5.06-40.61-34.35-66.75l-.27,11.57c13.44,12.93,22.47,25,26.46,34.74,2.77,6.72,3.13,12.28.85,16.15-4.51,7.69-20,9.65-41.38,5.24-5.42-1.11-11.1-2.61-17-4.43-7.28-2.25-14.86-5-22.61-8.27l-.47-.2c-2.46-1-4.94-2.11-7.42-3.24l-.19-.08q-3.69-1.68-7.4-3.48l-1.18-.58q-3.51-1.71-7-3.54l-.37-.19c-2.39-1.24-4.78-2.53-7.17-3.85l-1.64-.91c-2.39-1.33-4.79-2.69-7.18-4.09s-5-3-7.38-4.47L647.21,273c-2.38-1.5-4.73-3-7-4.51l0,0c-2.29-1.52-4.5-3-6.68-4.55l-1.57-1.11c-2.17-1.53-4.3-3.06-6.36-4.59h0c-2.06-1.53-4-3.07-6-4.6l-1.36-1.07q-5.81-4.62-10.93-9.17l-1.14-1c-1.69-1.52-3.34-3-4.91-4.53h0c-23.19-22.13-33.53-41.94-27.93-51.48,5.49-9.34,27-10.14,56.7-1.26.5.14,1,.3,1.5.45C631.48,185.56,639.25,180.22,641.13,179.64Z"/><circle class="cls-12" cx="238.03" cy="360.99" r="44.29"/><circle class="cls-15" cx="703.18" cy="440.81" r="1.54"/><path class="cls-15" d="M665.91,531.26a1.54,1.54,0,1,1-1.54-1.54A1.54,1.54,0,0,1,665.91,531.26Z"/><path class="cls-15" d="M236.52,286.57A1.54,1.54,0,1,1,235,285,1.54,1.54,0,0,1,236.52,286.57Z"/><path class="cls-15" d="M236.52,143a1.54,1.54,0,1,1-1.54-1.54A1.54,1.54,0,0,1,236.52,143Z"/><path class="cls-15" d="M560.8,141.41a1.54,1.54,0,1,1-1.54-1.54A1.54,1.54,0,0,1,560.8,141.41Z"/><path class="cls-15" d="M575.43,384.66a1.54,1.54,0,1,1-1.54-1.54A1.54,1.54,0,0,1,575.43,384.66Z"/><circle class="cls-15" cx="288.56" cy="322.25" r="1.54"/><path class="cls-15" d="M41.83,658a1.54,1.54,0,1,1-1.54-1.54A1.54,1.54,0,0,1,41.83,658Z"/><path class="cls-15" d="M564.41,466.33a1.54,1.54,0,0,1-3.07,0,1.54,1.54,0,1,1,3.07,0Z"/><path class="cls-15" d="M722.61,664.62a1.54,1.54,0,1,1-1.53-1.54A1.53,1.53,0,0,1,722.61,664.62Z"/><path class="cls-15" d="M675.24,705.65a1.54,1.54,0,1,1-1.54-1.54A1.54,1.54,0,0,1,675.24,705.65Z"/><path class="cls-15" d="M148.3,619a1.54,1.54,0,1,1-1.54-1.54A1.53,1.53,0,0,1,148.3,619Z"/><path class="cls-15" d="M173.14,682.08a1.54,1.54,0,1,1-1.54-1.54A1.54,1.54,0,0,1,173.14,682.08Z"/><path class="cls-15" d="M173.14,389.19a1.54,1.54,0,1,1-1.54-1.54A1.54,1.54,0,0,1,173.14,389.19Z"/><path class="cls-34" d="M680,437.16l-19.26,24.12-43.41,3.38,3.14,8.85,38.76.15a13.64,13.64,0,0,0,11.31-5.93L692.24,436Z"/><path class="cls-35" d="M671,464.87a13.65,13.65,0,0,1-11.31,5.93l-28.85,2.76-10,0,38.76.15a13.64,13.64,0,0,0,11.31-5.93l21.71-31.69-2,.18Z"/><path class="cls-36" d="M707.09,423.23c-7.33,14.48-21.22,28.52-31.27,41.24-4.8,6.07-17.27-3.67-12.46-9.75a232.81,232.81,0,0,0,21.39-31.39c6.19-10.54,26.3-10,22.79-3Z"/><path class="cls-37" d="M707.09,423.23c-7.33,14.48-21.22,28.52-31.27,41.24-4.8,6.07-7.35-3.65-2.54-9.73,9.38-11.89,12.44-13.25,20.13-26.32,6.2-10.54,17.64-15.06,14.13-8.13Z"/><path class="cls-15" d="M675.92,464.1h0c-11.95-.87-11.64-10.79-11.64-10.89a.28.28,0,0,1,.28-.26h0a.27.27,0,0,1,.26.28c0,.39-.29,9.49,11.12,10.33a.28.28,0,0,1,.26.29A.27.27,0,0,1,675.92,464.1Z"/><path class="cls-6" d="M691.52,645.77l-1,.53a1.17,1.17,0,0,1-1.58-.47h0a1.17,1.17,0,0,1,.48-1.59l1-.53a1.18,1.18,0,0,1,1.59.48h0A1.18,1.18,0,0,1,691.52,645.77Z"/><path class="cls-6" d="M689.27,646.22l-4.38-3a1.17,1.17,0,0,1-.31-1.62h0a1.16,1.16,0,0,1,1.62-.31l4.39,3a1.18,1.18,0,0,1,.31,1.63h0A1.17,1.17,0,0,1,689.27,646.22Z"/><path class="cls-6" d="M675.46,631.07c-2.79-.33-7,.95-7.55,2.76l3.69,8.37-.21.73c1.32,4.09,5.64,23.39,7.86,29.34,1.14,3,4.9.36,4.9.36,6.57-6.64,8.29-16.52,8.29-16.52,0-4.75-4.49-4.7-7.06-11.3-.44-1.11-.38-3,.54-2.7l5,3.81.88-2s-6.66-6.11-11-10.47C679,631.6,677,630.83,675.46,631.07Z"/><path class="cls-34" d="M666.65,634.49l.5,5.26c2,7.9,4.48,11.73,9,20.81,0,0,14.63-3.55,1.79-23.45C672.22,625.07,666.65,634.49,666.65,634.49Z"/><path class="cls-38" d="M653.89,553.33s20.82,40.8,42.16,30.86S704,531.45,704,531.45Z"/><path class="cls-34" d="M696.6,521.73l-51.51,24.59a14.89,14.89,0,0,0-7.4,19l32.46,80.6,8.83-3c-3.94-33.07-3.21-58.93-23.26-72.72L710.79,536Z"/><path class="cls-5" d="M648.77,564.65c3.12-6.84,29.11-21.42,29.11-21.42L674,532.39,645.1,546.16a14.9,14.9,0,0,0-7.41,19l25.41,63.09c4.34,1.18,9.13-.31,5.79-15.25C663.34,588.19,645.66,571.5,648.77,564.65Z"/><path class="cls-5" d="M736.22,546.54l-51.33,68.23c-5.86,17.43-23.2,38-47.25,60.37l-7.34-5.31,47.13-79.94,43.24-73.52Z"/><path class="cls-34" d="M685.33,576.47s11.88,13.32,11,23.13l7.61-10.11,3.81-16.28-15.36-9Z"/><path class="cls-34" d="M641.49,548.58s20.35,6.95,23.11,9.1,6.45-.7,6.45-.7l2.92-2.36s-17.09-9-28.56-8.61Z"/><path class="cls-34" d="M736.22,546.54l-51.33,68.23c-5.86,17.43-23.2,38-47.25,60.37l1.19-2.64c15.61-12.6,27.84-35.79,40-59.27,6.07-18.16,31-42.82,51.37-74.57Z"/><path class="cls-11" d="M690.68,490.38c0-.11,8.31-7.55,8.3-7.64s-11.81-.95,3.9,4.56c4.11,1.44,17.19,3.23,20.21,6.74,6.48,7.52,17.57,5.21,19.76,24.31,1,8.7-1.82,23.13-4.93,26.93l-31.36,44.28S690.2,549.4,644,546l18.37-18.56c9.49-13.18,18.13-17.13,23.55-25,1.53-2.21,1.08-8,2-10.5C688.51,490.47,690.45,491.4,690.68,490.38Z"/><path class="cls-39" d="M699.3,482.7s-7.82-.63-2.26,2.11C698.32,483.64,699.3,482.73,699.3,482.7Z"/><path class="cls-40" d="M667.05,535.65c11.88-16.49,22.68-21.43,29.46-31.21,1.92-2.77,1.36-10,2.52-13.14.69-1.92,3.12-.75,3.4-2,0,0,.74-.71,1.8-1.68l-1-.32a58.84,58.84,0,0,1-6.16-2.46c-2.46,2.24-6,5.46-6,5.53-.23,1-2.17.09-2.72,1.62-.93,2.55-.48,8.3-2,10.51-5.42,7.81-14.06,11.77-23.55,24.94L644.35,546a77.55,77.55,0,0,1,10.92,1.57Z"/><path class="cls-11" d="M742.58,523.05c-2.23,22.09-16.46,23.92-30.52,15.25s-21.46-27.67-21-44.18c0,0,8.66-24.25,22.71-15.59S745.18,497.39,742.58,523.05Z"/><path class="cls-2" d="M719.35,498.47s8.11,2.34,9,15.66c.74,11.11-2.09,12-14.31,28.64-7,9.53-17.26,10-18.19,15.81s-1.85,12-1.85,12,9.34,11.75,12.57,19L739,543.49s13.74-30.38-3.75-48Z"/><path class="cls-6" d="M645.63,686.54l-1.07-.53a1.24,1.24,0,0,1-.56-1.64h0a1.23,1.23,0,0,1,1.65-.56l1.06.52a1.23,1.23,0,0,1,.56,1.65h0A1.24,1.24,0,0,1,645.63,686.54Z"/><path class="cls-6" d="M643.87,684.9l-.14-5.57a1.24,1.24,0,0,1,1.2-1.26h0a1.23,1.23,0,0,1,1.26,1.2l.13,5.57a1.22,1.22,0,0,1-1.19,1.25h0A1.22,1.22,0,0,1,643.87,684.9Z"/><path class="cls-6" d="M648.35,663.83c-1.43-2.59-5.08-5.36-7-4.76l-4.89,8.28-.75.26c-2.69,3.63-16.52,19.14-20.23,24.68-1.89,2.82,2.69,4.4,2.69,4.4,9.69,1.55,19.17-3,19.17-3,4.06-2.92,1.27-6.71,5.33-12.94.69-1.06,2.34-2.16,2.64-1.19l-.2,6.57,2.27-.49s1.14-9.42,2.23-15.77C650.08,667.2,649.52,665,648.35,663.83Z"/><path class="cls-5" d="M640,658.4,635.85,662c-5.54,6.52-7.27,11-12.25,20.45,0,0,15,6.77,24.18-16.37C654.54,653.85,640,658.4,640,658.4Z"/><path class="cls-6" d="M733.72,371.11s8.17,7,18.55,8,18.45,8.14,21.27,23.82,40.53-.25,35.71,28.83-14.89,7.85-25.94,16.47S768.82,475.67,756,468.81s-47.57.33-48-24.1S733.72,371.11,733.72,371.11Z"/><path class="cls-41" d="M732.41,400s12,3.58,13.71,16.5,13.25,3.56,17.69,9.83,21,14.95,15,26.31A65.69,65.69,0,0,1,764,471.1s-6.2-.18-10.67-3.42-27.38-.23-27.38-.23l.9-31.37Z"/><path class="cls-42" d="M752.79,435.5c-1.61-1.93-27.06-15.16-40.81-18.06-6.66-1.4-8.32-3.52-11.2,2.65-1.38,3-6.22,12.14-7.91,15.34-1.77,1.65-9.69,9.77-9,21.95a26.1,26.1,0,0,0,7.3,16.31c.13,9.15.3,17.36.46,19.05,0,0,17.69,13.86,41.25.73l10.49-28.14,5.31-7.92c1.32-.76,5.88.58,5.88.58C755.66,450.28,763.44,448.29,752.79,435.5Z"/><path class="cls-43" d="M708.63,392.87c-1.16,5-5.25,8.25-9.13,7.34s-6.07-5.67-4.91-10.63,5.25-8.24,9.13-7.33S709.79,387.91,708.63,392.87Z"/><path class="cls-5" d="M756.29,458.05,772,484.64l-12.09,39.27,9.17,2.71,14-36.16a13.64,13.64,0,0,0-1.51-12.68L759.6,446.2Z"/><path class="cls-34" d="M781.25,478.11l-21.89-31.58-1.14,4.09,17.12,24.7c2.57,3.71,3.78,10.19,2.87,15.17l-7.47,31.76-1.93,4.7,14-36.16A13.64,13.64,0,0,0,781.25,478.11Z"/><path class="cls-5" d="M714.2,417.31s-12.34,12-2.2,21.09,28.4-10,28.4-10C731.27,422.3,722.46,418.09,714.2,417.31Z"/><path class="cls-5" d="M719.41,424.6l-5.08-22.23,13.7,4.78,4.13,18.15C733.07,428.27,723.22,436,719.41,424.6Z"/><path class="cls-5" d="M714.38,416.66l-4.24-.76c-4.87-.32-7.41-5.75-7.68-13.13l.43-22c1.17-6.52,8.89-11.27,15.41-10.09l4.23.76a12.07,12.07,0,0,1,9.71,14L728.36,407A12.07,12.07,0,0,1,714.38,416.66Z"/><path class="cls-35" d="M714.38,416.66l-4.24-.76c8.14-.55,12.57-5.7,11.78-13.31-10.4-6.58-15.83-14.23-19-21.83,1.17-6.52,8.89-11.27,15.41-10.09l4.23.76a12.07,12.07,0,0,1,9.71,14L728.36,407A12.07,12.07,0,0,1,714.38,416.66Z"/><path class="cls-35" d="M715.85,418.47a19.08,19.08,0,0,0,8.56-.75c-4.45,6.13-3.08,10.62-10.87,12.29Z"/><path class="cls-6" d="M706.27,380.76c11.83,20.57,12.3,15.72,23.26,19.8l-1.24,3.34c-1.26,3.37-.1.4,1.75,3.48l2.07.73s28.1-14.47,4.94-34.52c-15.67-13.57-37.06-3-35.12,13.19Z"/><path class="cls-5" d="M730.6,409.26c-2.22,1.16-4.26.16-4.56-2.25a6.91,6.91,0,0,1,3.49-6.45c2.22-1.16,4.26-.16,4.56,2.24A6.94,6.94,0,0,1,730.6,409.26Z"/><path class="cls-44" d="M748.33,432.25c15,9.38,24.62,24.62,33.42,40.31,4,7.07-8.31,17-12.29,9.88-8.29-14.81-9.4-18.9-22.7-29-7.36-5.61-2.15-22.5,1.57-21.15Z"/><polygon class="cls-37" points="691.16 473.69 699.23 473.92 691.24 479.17 691.16 473.69"/><path class="cls-37" d="M723.09,494h0a12.14,12.14,0,0,0-6.46-15.11l-6.3-2.83s23.59,9.44,29.14-15.58a7.41,7.41,0,0,1,9.2-3.11l-14.79,33.36Z"/><path class="cls-15" d="M718.77,441.84a12.26,12.26,0,0,1-4.83-1,10.07,10.07,0,0,1-6-6.19c-2.09-6.39,2.45-14.16,2.65-14.49a1,1,0,0,1,1.72,1c0,.07-4.28,7.33-2.47,12.85a8.19,8.19,0,0,0,4.91,5c6,2.57,14.25-1.08,24.45-10.86l.54-.51a1,1,0,0,1,1.37,1.45l-.53.5C737.14,432.89,727.8,441.84,718.77,441.84Z"/><path class="cls-37" d="M746.42,431.6s9,5.29,14.85,12.82,6.39,11.89,12.72,21.46,6.54,15.14,7.1,14.14c0,0,2-3,1.32-5.62,0,0,.4-1.89-10.14-17.55S753.44,434.57,746.42,431.6Z"/><path class="cls-15" d="M768.48,479.93a.27.27,0,0,1,0-.54c.42,0,10.18-.86,10.27-10.41a.27.27,0,0,1,.27-.27h0a.26.26,0,0,1,.27.27c-.09,10.06-10.66,10.94-10.77,10.95Z"/><path class="cls-45" d="M710.32,503.09c-13.78-.4-21.07-7.89-21.52-8.37a3.82,3.82,0,0,1,5.54-5.26c.58.6,13.53,13.34,39.22-.3a3.82,3.82,0,1,1,3.59,6.74C726.47,501.57,717.51,503.3,710.32,503.09Z"/><path class="cls-16" d="M705.43,503.49l-5.16-1.64a6.43,6.43,0,0,1-4.13-6h0c.07-2.57,2.05-4.06,4.4-3.31l5.16,1.63a6.46,6.46,0,0,1,4.14,6h0C709.76,502.74,707.78,504.23,705.43,503.49Z"/><path class="cls-46" d="M737.28,405.52c-1.16,5-5.25,8.24-9.12,7.34s-6.08-5.67-4.91-10.63,5.24-8.25,9.12-7.34S738.45,400.56,737.28,405.52Z"/><path class="cls-47" d="M735.45,406.59c-.72,3.07-3.25,5.1-5.65,4.54s-3.76-3.5-3-6.57,3.25-5.1,5.65-4.54S736.17,403.52,735.45,406.59Z"/><path class="cls-46" d="M706.53,371.64s24.4-2.54,23.21,24.33l3.25.66s3.25-19.19-9.88-25.25S706.53,371.64,706.53,371.64Z"/><path class="cls-46" d="M711.16,418c-.67,1.13-2.65,1.18-4.43.12s-2.67-2.83-2-4,2.66-1.18,4.44-.12S711.84,416.85,711.16,418Z"/><path class="cls-46" d="M717.06,419.84a16.82,16.82,0,0,1-8.91-2.85,1.12,1.12,0,1,1,1.3-1.83c.09.06,5,3.45,10.17,2.1,3.42-.89,6.26-3.67,8.44-8.26a1.13,1.13,0,0,1,1.51-.53,1.12,1.12,0,0,1,.53,1.5c-2.49,5.22-5.83,8.41-9.93,9.48A12.62,12.62,0,0,1,717.06,419.84Z"/><path class="cls-19" d="M684.67,462.36s-2.68-9.12,1.63-17.65,6.92-9.6,6.92-9.6l7-13.94-2,5.6a78.23,78.23,0,0,1-7.58,15.45A37.31,37.31,0,0,0,684.67,462.36Z"/><path class="cls-15" d="M706.64,404.73l5.32,2.54a.64.64,0,0,1,.33.64c-.09,1-.63,3.08-3.52,1.94-2-.8-2.65-3.09-2.85-4.45C705.86,404.92,706.26,404.55,706.64,404.73Z"/><path class="cls-48" d="M677,482.7,672.2,481l-.56-.56-.35-.64L635.4,461.16a1.85,1.85,0,0,0-1.59.07l-13.7,8,0-.22-2.59,1,.12,1.07h0a.57.57,0,0,0,.28.27l37.35,19.42a.2.2,0,0,1,.09.14c.78,2.86,2.09,5.42,4.53,3.94l15.17-9A3.64,3.64,0,0,0,677,482.7Z"/><path class="cls-49" d="M656.79,493.8l-43-22.36c-.49-.26-.48-.72,0-1l18.28-10.71a2.14,2.14,0,0,1,1.83-.08l43,22.37c.5.25.49.71,0,1l-18.27,10.71A2.13,2.13,0,0,1,656.79,493.8Z"/><path class="cls-48" d="M658,479.39,647.59,474c-.12-.06-.12-.17,0-.24l4.42-2.6a.49.49,0,0,1,.44,0l10.41,5.41c.12.06.12.17,0,.24l-4.42,2.6A.49.49,0,0,1,658,479.39Z"/><path class="cls-15" d="M653,468.63a4.82,4.82,0,0,0-2.16-2.69l-42.65-21.86a1.09,1.09,0,0,0-.91-.13h0a.7.7,0,0,0-.19.15l-1.19,1.34,1.2-.1,6.4,23.63a4.9,4.9,0,0,0,2.16,2.69L656,492.33l1.37,1.32.19.32c.79.16,2.49-1.09,2.49-1.09Z"/><path class="cls-6" d="M657.06,494.94,614.4,473.09a4.84,4.84,0,0,1-2.16-2.7l-6.47-23.89c-.28-1,.24-1.46,1.16-1l42.66,21.85a4.93,4.93,0,0,1,2.16,2.7L658.22,494C658.49,495,658,495.41,657.06,494.94Z"/><path class="cls-15" d="M633.14,471.81c.34,1.27-.84,1.56-2.63.64s-3.52-2.69-3.87-4,.83-1.56,2.63-.64S632.79,470.54,633.14,471.81Z"/><path class="cls-50" d="M207.1,458l-19.64-8.62a3.06,3.06,0,0,1-1.51-3.47l8.73-37.11a2,2,0,0,1,2.72-1.66l19.47,8.3a3.07,3.07,0,0,1,1.51,3.47l-8.69,36.93c-.22.93-.62,1.14-1.42,1.54Z"/><path class="cls-50" d="M201.25,423.84s-15.63,23.46-15.3,22l8.48-38.26,1.53-.52a1.8,1.8,0,0,1,1.44,0l19.47,8.3a2.55,2.55,0,0,1,1.29,1.35Z"/><path class="cls-6" d="M205.34,458.17l-19.41-8.31a3,3,0,0,1-1.46-3.48l8.73-37.1a2,2,0,0,1,2.69-1.67l19.4,8.31a3,3,0,0,1,1.45,3.48L208,456.5C207.67,457.92,206.51,458.66,205.34,458.17Z"/><path class="cls-51" d="M205.77,451.77l-18.2-7.85,7.6-32.71,19,8.1-7.92,32C206.18,451.56,206,451.88,205.77,451.77Z"/><path class="cls-52" d="M171.15,467.26l32.19-19,4.33,7.54-29,20a12.37,12.37,0,0,1-11.53,1.33Z"/><path class="cls-52" d="M215.53,440.11h0a6,6,0,0,0-8.41,1l-6,7.63a6,6,0,0,0,1,8.42h0a6,6,0,0,0,8.41-1l5.95-7.63A6,6,0,0,0,215.53,440.11Z"/><path class="cls-52" d="M56.45,489.91h0a6,6,0,0,0-8.44.76l-6.2,7.44a6,6,0,0,0,.77,8.44h0a6,6,0,0,0,8.44-.76l6.2-7.43A6,6,0,0,0,56.45,489.91Z"/><path class="cls-24" d="M102.2,658.55l3.94-14.6c5.79-2.51,10.15-3.28,11.47,3.15l-4.08,14.43Z"/><path class="cls-6" d="M117.65,677.85l-2.77-21.24c-2.06-3.92-5.5-5.94-10.63-5.65-2.47.53-4.37,1.11-7.36,4.37-2.52,2.74-1.16,8.79.06,12l7.13,14c4.78,10.36,8.9,9.9,12.34,9.06h0C120.29,689.08,119.75,684.4,117.65,677.85Z"/><path class="cls-53" d="M123.71,513.2c2.72,21.67,2.61,59.69-5.25,79.63-5.57,14.14-13.83,34.67-19,49.57-.42,1.21,18.93,7.37,19.32,6.25,5.24-15.28,13.75-34.41,19.47-49.06,8.12-20.8,15.11-43,15.48-65.52.17-10.43-16.09-11.77-16.26-1.23Z"/><path class="cls-6" d="M146.51,525.7c-3.47,24.06-11.29,47.66-20,70.11-5.77,14.78-13.55,32.78-20.23,49.74,5.47,1.89,12.27,3.76,12.5,3.1,5.24-15.28,13.75-34.41,19.47-49.06,8.12-20.8,15.11-43,15.48-65.52A8.19,8.19,0,0,0,146.51,525.7Z"/><path class="cls-24" d="M40.29,580.59l15-1.77c4.48,4.44,6.82,8.2,1.34,11.81l-14.92,1.59Z"/><path class="cls-53" d="M110.48,572.56c10-27.49,18.74-67.83,18.35-69.37L95,502.32c.1.37-6.5,59.62-6.5,59.62s-36.12,15.22-40.12,15.82c-1,.15,2.52,16.79,3.47,16.66,2.28-.32,31-7.14,46-10.72A17.69,17.69,0,0,0,110.48,572.56Z"/><path class="cls-6" d="M128.77,502.92l-13.31-.34c-2.32,11.84-9.56,42.3-17.6,64.43a17.69,17.69,0,0,1-12.54,11.14c-9.82,2.34-25.49,6.07-35.81,8.45.85,3.93,1.87,7.62,2.32,7.56,2.29-.32,31-7.14,46.05-10.72a17.71,17.71,0,0,0,12.54-11.14C120.4,544.81,129.16,504.47,128.77,502.92Z"/><path class="cls-6" d="M28.4,608.23l14.8-15.34a14.08,14.08,0,0,0-1-12.74c-3.48-.26-3.48-.26-7.71-.8-3.55-.44-7.55,4-9.38,6.74l-7,13.43c-5.46,9.53-2.8,12.51-.23,14.74h0C21.06,616.56,24.42,613.53,28.4,608.23Z"/><path class="cls-52" d="M103.87,414.62c-16.44,8.77-29.91,24-42.05,37.89-2.62,3-4,4.85-4.93,8.67-3,12.73-7.23,26.51-10.33,39.39-1.47,6.13,10.31-.18,11.87-6.75,3.39-14.32,4.61-13.07,7.94-25.64.59-2.24,1.84-7.06,2.59-7.91C80.62,446.91,93.48,432,109.3,423.6c6-3.19.51-12.15-5.43-9Z"/><path class="cls-15" d="M111.44,485.37a13.62,13.62,0,0,1-5.71,10.91c-3.32,2.11-6.15.65-6.32-3.25a13.61,13.61,0,0,1,5.71-10.91C108.44,480,111.27,481.46,111.44,485.37Z"/><path class="cls-6" d="M92.45,526.62l22.8,8.71c1.58,1.62-5.24-6.3-3.25-5.21,4.13,2.26,27.41,16.65,32.11,16.52,5.69-.15,2.14-5.5,6.21-9.48,3.86-3.78,4.55-9.67,4.71-15.07a9.39,9.39,0,0,0-.6-4.38,9.6,9.6,0,0,0-3.4-3.36c-10.38-7.17-29.44-18.33-44.72-18.51C89.15,495.63,91.59,504.82,92.45,526.62Z"/><path class="cls-54" d="M67.34,443.54c9.36-8.57,22.93-23.43,33-30.41,6.9-6.4,18.2-4.62,27.06.26,6.06,3.34,17.17,8,22.62,10.92,0,0,4.77,21,4.69,21.72.53,24.73-.55,37,3.74,67.16,0,0,3.1,11.17.67,12.71,0,0-5.67,6.17-17.67,1-6.78-2.15-28.9-11.79-41.36-17.29-5.41-2.39-7.81-7.93-8.32-13.82-1.07-12.48,4.36-22.51,1.21-53.35l-13.67,12c-2.52,2.24-7.15,5.48-8.79,4.1l-5.73-7.06C62.84,449.82,64.06,446,67.34,443.54Z"/><path class="cls-15" d="M142,420.43C129,419,119.89,428.19,116,409.59h0c1.84-1.26,4.66-1.9,6-.12,2.37,3.13,6.12,4.6,12.08,5.2,1.57.16,3.13.4,4,1.69Z"/><path class="cls-15" d="M75.66,459.6c-.18.56-10.89,1.8-13.58-12.94a1.5,1.5,0,0,1,.28-1.16l5.25-6.9a1.45,1.45,0,0,1,2.28,0l12.92,15.55a1.45,1.45,0,0,1-.48,2.24Z"/><polygon class="cls-55" points="93.02 442.42 93.64 436.49 78.75 449.22 81.61 452.65 93.02 442.42"/><path class="cls-56" d="M154.15,427.81l22.44,38.57L163,476.05l-19.47-32.17c-5.3-8.47-.34-16.89,3.74-19.06C147.29,424.82,150.26,421.47,154.15,427.81Z"/><path class="cls-15" d="M181.36,465.74c.58.09,3.56,10.46-10.55,15.51a1.5,1.5,0,0,1-1.19-.09L162,477.11a1.46,1.46,0,0,1-.42-2.24l13.23-15.29a1.46,1.46,0,0,1,2.29.11Z"/><path class="cls-55" d="M159.86,519.83c0,.22,2.39,5.78-3,7.88-4.49,1.75-4,1.2-6.75,1.23,1.94-.16-2.22-13.37-3.35-27.58-1.06-13.32,1.06-27.31-1.57-38.24-1.81-7.52-4.68-32.52,1.57-18.55l8.32,18.36A455.47,455.47,0,0,0,159.86,519.83Z"/><path class="cls-5" d="M764.48,541.15h0a5.76,5.76,0,0,1-5.73-5.74v-8.3a5.75,5.75,0,0,1,5.73-5.73h0a5.75,5.75,0,0,1,5.74,5.73v8.3A5.76,5.76,0,0,1,764.48,541.15Z"/><path class="cls-13" d="M94.54,659.35s1.06-5.65,5.83-4.77c4.38.82,9.38,24,11.92,33.93a2.48,2.48,0,0,1-2.18,3.11c-2.42.19-6-.88-8.68-7.39C96.84,673.29,94.54,659.35,94.54,659.35Z"/><path class="cls-13" d="M27.1,581.66s4.54-3.46,7-.17c2.24,3-10.43,22.46-15.59,31a2.56,2.56,0,0,1-3.52,1c-1.68-1.21-3.2-4-.49-10.15C19,592.94,27.1,581.66,27.1,581.66Z"/><path class="cls-57" d="M100.77,509.87s-7-1.94-8.42-10.67-.62-9.26,0-15.17S94.14,465.3,94,459.89,88.59,423,106.4,409.75c0,0-7.42,14.19-7.42,44C99,463.39,100.77,509.87,100.77,509.87Z"/><path class="cls-58" d="M706.27,380.76s6.15,15.13,13.67,17l4.58,1.31,2.21-2.2s-7-.83-8.84-4.14S709.17,380.14,706.27,380.76Z"/><polygon class="cls-59" points="286.47 454.19 222.7 432.59 232.91 392.14 296.68 413.73 286.47 454.19"/><path class="cls-60" d="M233.5,421.91a10.1,10.1,0,0,1,8.82-1.2c3.86,1.28,1.64,1.32,6.48,2.08,2.85.45,8.55-3.51,15.39-1.65,12.39,3.35,19.41-5.45,24-1.15l-5.93,21.82-49.67-16.62Z"/><path class="cls-15" d="M232.58,425.55h-.06a.24.24,0,0,1-.17-.29l5.93-21.8a.23.23,0,0,1,.45.12l-5.93,21.81A.23.23,0,0,1,232.58,425.55Z"/><path class="cls-15" d="M245,429.44H245a.24.24,0,0,1-.17-.29l5.93-21.8a.22.22,0,0,1,.28-.16.23.23,0,0,1,.17.28l-5.93,21.8A.23.23,0,0,1,245,429.44Z"/><path class="cls-15" d="M257.38,433.6h-.06a.23.23,0,0,1-.16-.29l5.92-21.8a.24.24,0,0,1,.29-.16.22.22,0,0,1,.16.28l-5.92,21.81A.24.24,0,0,1,257.38,433.6Z"/><path class="cls-15" d="M269.75,437.75h-.06a.22.22,0,0,1-.16-.28l5.92-21.8a.24.24,0,0,1,.29-.17.24.24,0,0,1,.16.29L270,437.58A.21.21,0,0,1,269.75,437.75Z"/><path class="cls-15" d="M282,442.25H282a.24.24,0,0,1-.16-.29l5.93-21.8A.22.22,0,0,1,288,420a.23.23,0,0,1,.17.28l-5.93,21.81A.23.23,0,0,1,282,442.25Z"/><path class="cls-15" d="M288.38,418.08l-1.62-.62a.41.41,0,0,1-.23-.47h0a.32.32,0,0,1,.42-.21l1.61.62a.39.39,0,0,1,.23.46h0A.31.31,0,0,1,288.38,418.08Z"/><path class="cls-15" d="M281.42,443.13l-1.62-.62h0l-1.2-.46a.3.3,0,0,0-.41.21.39.39,0,0,0,.23.46l1.61.62h0l1.19.46a.31.31,0,0,0,.42-.21A.4.4,0,0,0,281.42,443.13Z"/><path class="cls-15" d="M267.94,438.26l-1.61-.62h0l-1.2-.46a.31.31,0,0,0-.42.21.39.39,0,0,0,.24.46l1.61.62h0l1.2.46a.31.31,0,0,0,.42-.21A.39.39,0,0,0,267.94,438.26Z"/><path class="cls-15" d="M255.34,433.77l-1.61-.62h0l-1.19-.46a.31.31,0,0,0-.42.21.4.4,0,0,0,.23.46l1.61.62h0l1.2.46a.3.3,0,0,0,.41-.21A.39.39,0,0,0,255.34,433.77Z"/><path class="cls-15" d="M243.43,429.58l-1.61-.62h0l-1.2-.46a.3.3,0,0,0-.41.21.39.39,0,0,0,.23.46l1.61.62h0l1.2.47a.32.32,0,0,0,.42-.22A.4.4,0,0,0,243.43,429.58Z"/><path class="cls-15" d="M275.71,414.26l-1.61-.62a.4.4,0,0,1-.23-.46h0a.31.31,0,0,1,.42-.21l1.61.62a.39.39,0,0,1,.23.46h0A.31.31,0,0,1,275.71,414.26Z"/><path class="cls-15" d="M263.35,410.48l-1.62-.62a.4.4,0,0,1-.23-.46h0a.31.31,0,0,1,.42-.21l1.61.62a.39.39,0,0,1,.23.46h0A.31.31,0,0,1,263.35,410.48Z"/><path class="cls-15" d="M250.81,406.6,249.2,406a.38.38,0,0,1-.23-.46h0a.31.31,0,0,1,.41-.21l1.62.62a.4.4,0,0,1,.23.46h0A.32.32,0,0,1,250.81,406.6Z"/><path class="cls-15" d="M238.5,402.63l-1.61-.62a.39.39,0,0,1-.23-.46h0a.3.3,0,0,1,.41-.21l1.61.62a.4.4,0,0,1,.24.46h0A.31.31,0,0,1,238.5,402.63Z"/><path class="cls-15" d="M230.67,425.42l-1.61-.62h0l-1.2-.46a.3.3,0,0,0-.41.21.38.38,0,0,0,.23.46l1.61.63h0l1.19.46a.31.31,0,0,0,.42-.21A.39.39,0,0,0,230.67,425.42Z"/></g></g></g></svg>