
<svg width="204px" height="204px" viewBox="0 0 204 204" version="1.1" xmlns="http://www.w3.org/2000/svg" xmlns:xlink="http://www.w3.org/1999/xlink">
    <g id="Welcome" stroke="none" stroke-width="1" fill="none" fill-rule="evenodd">
        <g id="CODE-AVENGERS" transform="translate(-229.000000, -2932.000000)" fill-rule="nonzero">
            <g id="Group-18" transform="translate(231.000000, 2934.000000)">
                <circle id="Oval" stroke="#32CAF0" stroke-width="4" cx="100" cy="100" r="100"></circle>
                <path d="M116.509155,51 L67.0165214,51 C61.4934115,51 57,55.475711 57,60.9770642 L57,128.022936 C57,133.524289 61.4934115,138 67.0165214,138 L116.509355,138 C122.032465,138 126.525877,133.524289 126.525877,128.022936 L126.525877,97.4679771 L135.125862,88.9018693 L135.182155,88.9579404 L138.015428,86.1360275 L137.958935,86.0797569 L139.066161,84.9768922 C140.957881,83.0924243 142,80.5869839 142,77.9221101 C142,75.2572362 140.958081,72.7515963 139.066161,70.867328 L138.188113,69.9929381 C135.039319,66.8565482 130.29289,66.2511399 126.525676,68.1759151 L126.525676,60.9770642 C126.525676,55.475711 122.032465,51 116.509155,51 Z M122.999798,128.015152 C122.999798,131.315197 120.282391,134 116.942271,134 L67.057527,134 C63.7174066,134 61,131.315197 61,128.015152 L61,60.9848485 C61,57.684803 63.7174066,55 67.057527,55 L116.942473,55 C120.282593,55 123,57.684803 123,60.9848485 L123,71.4034722 L120.49703,73.8762121 L120.538019,73.9167096 L91.8346295,102.194919 C91.5808191,102.444886 91.3990933,102.756896 91.3078266,103.09923 L86.8674574,119.74828 C86.6843182,120.435141 86.8846204,121.16649 87.3932507,121.668419 C87.7766922,122.046662 88.2917839,122.251543 88.8197983,122.251543 C88.9922359,122.251543 89.1664908,122.229798 89.337515,122.184912 L106.074866,117.797619 C106.419135,117.707447 106.733117,117.528899 106.984908,117.280129 L122.999798,101.457386 L122.999798,128.015152 Z M93.6528431,108 L101,115.364868 L91,118 L93.6528431,108 Z M105.262106,113 L96,103.653258 L122.733145,77 L132,86.2656325 L105.262106,113 Z M135.416927,72.7218556 L136.27751,73.5826227 C138.574163,75.8797691 138.574163,79.617419 136.27751,81.9145654 L135.192308,83 L126,73.8059154 L127.094234,72.7145892 C129.390887,70.4256911 133.12479,70.4288333 135.416927,72.7218556 Z" id="Shape" fill="#32CAF0"></path>
            </g>
        </g>
    </g>
</svg>