
<svg width="72px" height="76px" viewBox="0 0 72 76" version="1.1" xmlns="http://www.w3.org/2000/svg" xmlns:xlink="http://www.w3.org/1999/xlink">
    <g id="Welcome" stroke="none" stroke-width="1" fill="none" fill-rule="evenodd">
        <g id="CODE-AVENGERS" transform="translate(-182.000000, -3223.000000)">
            <g id="noun_Ok_1673314-Copy-2" transform="translate(228.000000, 3223.000000)" fill="#78CB24" fill-rule="nonzero">
                <path d="M13,0 C5.82029825,0 1.44328993e-15,5.82029825 0,13 C-1.44328993e-15,20.1797017 5.82029825,26 13,26 C20.1797017,26 26,20.1797017 26,13 C26,9.55218563 24.6303611,6.24558476 22.1923882,3.80761184 C19.7544152,1.36963892 16.4478144,0 13,0 Z M11.375,18.841875 C11.1151726,19.0988955 10.7654551,19.2446111 10.4,19.248125 C10.022232,19.2524722 9.65826462,19.1063005 9.3884375,18.841875 L5.598125,15.0028125 L7.629375,13.008125 L10.440625,15.851875 L19.175,7.5928125 L21.125,9.628125 L11.375,18.841875 Z" id="Shape"></path>
            </g>
            <g id="Group" transform="translate(182.000000, 3235.000000)" fill="#000000">
                <path d="M11.9469526,21 L25.0811102,21 C25.8144896,21 26.2145147,20.1864407 25.8811604,19.5762712 L22.6809596,14.220339 C22.3476053,13.6101695 21.4808843,13.6101695 21.14753,14.220339 L19.6141004,16.8644068 L17.0139373,12.4576271 C16.680583,11.8474576 15.813862,11.8474576 15.4805077,12.4576271 L11.1469024,19.6440678 C10.7468773,20.2542373 11.2135733,21 11.9469526,21 Z" id="Path"></path>
                <circle id="Oval" cx="21" cy="10" r="2"></circle>
                <path d="M49.5236842,16.2357895 L34.8276316,1.48210526 C33.8881579,0.538947368 32.6131579,0 31.3381579,0 L4.96578947,0 C4.96578947,0 4.96578947,0 4.96578947,0 C3.62368421,0 2.41578947,0.538947368 1.47631579,1.48210526 C0.536842105,2.42526316 0,3.63789474 0,4.98526316 L0,59.0147368 C0,61.7768421 2.21447368,64 4.96578947,64 L46.0342105,64 C48.7855263,64 51,61.7768421 51,59.0147368 L51,19.7389474 C51,18.4589474 50.4631579,17.1789474 49.5236842,16.2357895 Z M46.7052632,17.4484211 L35.8342105,17.4484211 C34.6263158,17.4484211 33.6197368,16.4378947 33.6197368,15.2252632 L33.6197368,4.37894737 L46.7052632,17.4484211 Z M46.0342105,61.1031579 L4.96578947,61.1031579 C3.825,61.1031579 2.88552632,60.16 2.88552632,59.0147368 L2.88552632,4.98526316 C2.88552632,4.44631579 3.08684211,3.90736842 3.48947368,3.50315789 C3.89210526,3.09894737 4.42894737,2.89684211 4.96578947,2.89684211 C4.96578947,2.89684211 4.96578947,2.89684211 4.96578947,2.89684211 L30.7342105,2.89684211 L30.7342105,15.2252632 C30.7342105,18.0547368 33.0157895,20.3452632 35.8342105,20.3452632 L48.1144737,20.3452632 L48.1144737,59.0147368 C48.1144737,60.16 47.175,61.1031579 46.0342105,61.1031579 Z" id="Shape" fill-rule="nonzero"></path>
                <path d="M38.4806378,50 L12.453303,50 C11.6605923,50 11,50.6818182 11,51.5 C11,52.3181818 11.6605923,53 12.453303,53 L38.546697,53 C39.3394077,53 40,52.3181818 40,51.5 C39.9339408,50.6818182 39.2733485,50 38.4806378,50 Z" id="Path"></path>
                <path d="M38.4806378,39 L12.453303,39 C11.6605923,39 11,39.6818182 11,40.5 C11,41.3181818 11.6605923,42 12.453303,42 L38.546697,42 C39.3394077,42 40,41.3181818 40,40.5 C40,39.6818182 39.2733485,39 38.4806378,39 Z" id="Path"></path>
                <path d="M38.4806378,28 L12.453303,28 C11.6605923,28 11,28.6818182 11,29.5 C11,30.3181818 11.6605923,31 12.453303,31 L38.546697,31 C39.3394077,31 40,30.3181818 40,29.5 C40,28.6818182 39.2733485,28 38.4806378,28 Z" id="Path"></path>
            </g>
        </g>
    </g>
</svg>