
<svg width="79px" height="72px" viewBox="0 0 79 72" version="1.1" xmlns="http://www.w3.org/2000/svg" xmlns:xlink="http://www.w3.org/1999/xlink">
    <g id="Welcome" stroke="none" stroke-width="1" fill="none" fill-rule="evenodd">
        <g id="CODE-AVENGERS" transform="translate(-303.000000, -3223.000000)">
            <g id="noun_Ok_1673314-Copy" transform="translate(356.000000, 3223.000000)" fill="#78CB24" fill-rule="nonzero">
                <path d="M13,0 C5.82029825,0 1.44328993e-15,5.82029825 0,13 C-1.44328993e-15,20.1797017 5.82029825,26 13,26 C20.1797017,26 26,20.1797017 26,13 C26,9.55218563 24.6303611,6.24558476 22.1923882,3.80761184 C19.7544152,1.36963892 16.4478144,0 13,0 Z M11.375,18.841875 C11.1151726,19.0988955 10.7654551,19.2446111 10.4,19.248125 C10.022232,19.2524722 9.65826462,19.1063005 9.3884375,18.841875 L5.598125,15.0028125 L7.629375,13.008125 L10.440625,15.851875 L19.175,7.5928125 L21.125,9.628125 L11.375,18.841875 Z" id="Shape"></path>
            </g>
            <g id="Group" transform="translate(303.000000, 3239.000000)" fill="#000000">
                <path d="M6.89189189,22 L38.1081081,22 C38.6013243,22 39,21.5968 39,21.1 L39,4.9 C39,4.4032 38.6013243,4 38.1081081,4 L6.89189189,4 C6.39867568,4 6,4.4032 6,4.9 L6,21.1 C6,21.5968 6.39867568,22 6.89189189,22 Z M7.78378378,5.8 L37.2162162,5.8 L37.2162162,20.2 L7.78378378,20.2 L7.78378378,5.8 Z" id="Shape" fill-rule="nonzero"></path>
                <rect id="Rectangle" x="16" y="25" width="14" height="2"></rect>
                <rect id="Rectangle" x="12" y="29" width="22" height="2"></rect>
                <rect id="Rectangle" x="12" y="32" width="22" height="2"></rect>
                <rect id="Rectangle" x="12" y="36" width="22" height="2"></rect>
                <path d="M32.1129032,7 L27.6774194,7 L27.6774194,8.83333333 L29.818871,8.83333333 L22.4799194,15.7275833 L17.7419355,9.2 C17.4075,8.738 16.6570161,8.738 16.3225806,9.2 L11,16.5333333 L12.4193548,17.6333333 L17.0322581,11.2771667 L21.6451613,17.6333333 C21.7950806,17.8395833 22.0221774,17.9715833 22.2705645,17.9963333 C22.2989516,17.9990833 22.3273387,18 22.3548387,18 C22.5748387,18 22.7877419,17.9156667 22.9518548,17.7616667 L31.2258065,9.98833333 L31.2258065,12.5 L33,12.5 L33,7.91666667 C33,7.41066667 32.6034677,7 32.1129032,7 Z" id="Path"></path>
                <path d="M55.0967742,24.3870968 L51.483871,24.3870968 L51.483871,7.22580645 L52.3870968,7.22580645 L52.3870968,12.6451613 L54.1935484,12.6451613 L54.1935484,6.32258065 L54.1935484,3.61290323 L52.3870968,3.61290323 L52.3870968,5.41935484 L51.483871,5.41935484 C51.483871,5.32270968 51.4676129,5.22606452 51.4369032,5.13393548 L50.5336774,2.42425806 C50.4108387,2.05483871 50.0667097,1.80645161 49.6774194,1.80645161 L49.6774194,0 L47.8709677,0 L47.8709677,1.80645161 C47.4816774,1.80645161 47.1375484,2.05483871 47.0147097,2.42425806 L46.1114839,5.13393548 C46.0807742,5.22606452 46.0645161,5.32270968 46.0645161,5.41935484 L46.0645161,24.3870968 L44.2580645,24.3870968 L44.2580645,0.903225806 C44.2580645,0.404645161 43.8543226,0 43.3548387,0 L0.903225806,0 C0.403741935,0 0,0.404645161 0,0.903225806 L0,55.0967742 C0,55.5962581 0.403741935,56 0.903225806,56 L43.3548387,56 C43.8543226,56 44.2580645,55.5962581 44.2580645,55.0967742 L44.2580645,52.3870968 L55.0967742,52.3870968 C55.5962581,52.3870968 56,51.9833548 56,51.483871 L56,25.2903226 C56,24.7917419 55.5962581,24.3870968 55.0967742,24.3870968 Z M47.8709677,12.6451613 L49.6774194,12.6451613 L49.6774194,25.9803871 L48.7741935,27.7868387 L47.8709677,25.9803871 L47.8709677,12.6451613 Z M48.5221935,3.61290323 L49.0270968,3.61290323 L49.6774194,5.56567742 L49.6774194,10.8387097 L47.8709677,10.8387097 L47.8709677,5.56567742 L48.5221935,3.61290323 Z M42.4516129,54.1935484 L1.80645161,54.1935484 L1.80645161,1.80645161 L42.4516129,1.80645161 L42.4516129,24.3870968 L38.8387097,24.3870968 C38.3392258,24.3870968 37.9354839,24.7917419 37.9354839,25.2903226 L37.9354839,45.1612903 L5.41935484,45.1612903 C4.91987097,45.1612903 4.51612903,45.5650323 4.51612903,46.0645161 L4.51612903,51.483871 C4.51612903,51.9833548 4.91987097,52.3870968 5.41935484,52.3870968 L38.8387097,52.3870968 L42.4516129,52.3870968 L42.4516129,54.1935484 Z M37.9354839,50.5806452 L6.32258065,50.5806452 L6.32258065,46.9677419 L37.9354839,46.9677419 L37.9354839,50.5806452 Z M54.1935484,50.5806452 L39.7419355,50.5806452 L39.7419355,26.1935484 L46.0645161,26.1935484 C46.0645161,26.3335484 46.0970323,26.4726452 46.1593548,26.5972903 L47.9658065,30.2101935 C48.1193548,30.5163871 48.431871,30.7096774 48.7741935,30.7096774 C49.1165161,30.7096774 49.4290323,30.5163871 49.5825806,30.2101935 L51.3890323,26.5972903 C51.4513548,26.4726452 51.483871,26.3335484 51.483871,26.1935484 L54.1935484,26.1935484 L54.1935484,50.5806452 Z" id="Shape" fill-rule="nonzero"></path>
                <rect id="Rectangle" x="41" y="32" width="11" height="2"></rect>
                <rect id="Rectangle" x="43" y="36" width="7" height="2"></rect>
                <rect id="Rectangle" x="41" y="40" width="11" height="2"></rect>
                <rect id="Rectangle" x="41" y="47" width="11" height="2"></rect>
                <rect id="Rectangle" x="43" y="43" width="7" height="2"></rect>
            </g>
        </g>
    </g>
</svg>