
<svg width="77px" height="74px" viewBox="0 0 77 74" version="1.1" xmlns="http://www.w3.org/2000/svg" xmlns:xlink="http://www.w3.org/1999/xlink">
    <g id="Welcome" stroke="none" stroke-width="1" fill="none" fill-rule="evenodd">
        <g id="CODE-AVENGERS" transform="translate(-413.000000, -3223.000000)" fill-rule="nonzero">
            <g id="Group" transform="translate(413.000000, 3236.000000)" fill="#000000">
                <path d="M41.5732976,0 C34.6729668,0 29.045572,5.62069641 29.045572,12.5128205 C29.045572,15.7554319 30.3141898,18.6709426 32.3487809,20.8954327 C31.105675,21.4786381 29.904844,22.1434176 28.8008898,22.9238782 C26.6917822,21.3120901 24.0662982,20.3333333 21.2157434,20.3333333 C14.3154126,20.3333333 8.68801776,25.954061 8.68801776,32.8461538 C8.68801776,34.5083687 9.01905665,36.0969166 9.6178099,37.5384615 L1.64117207,37.5384615 C1.59227151,37.5361701 1.54326336,37.5361701 1.49436279,37.5384615 C0.674312979,37.5766913 -0.0369502897,38.3568297 0.0014891573,39.1758963 C0.0399286826,39.9949628 0.821137611,40.7052241 1.64117207,40.6666667 L11.5263306,40.6666667 C11.6747348,40.8485249 11.8087964,41.0306654 11.9667585,41.2043269 C4.95707001,44.5011423 0.0752063666,51.4021192 0.0752063666,59.4358974 C0.0752883449,60.2548373 0.821256781,60.9999179 1.64117207,61 L40.7903148,61 C41.6102301,60.9999179 42.3561983,60.2548373 42.3562805,59.4358974 C42.3562805,51.4021192 37.4744168,44.5011423 30.4647284,41.2043269 C32.4854732,38.9827538 33.7434691,36.0763385 33.7434691,32.8461538 C33.7434691,29.939008 32.7276491,27.2761563 31.0519655,25.1478365 C32.4484499,24.1865673 33.9932813,23.4019759 35.6519898,22.8505609 C36.1911581,22.6706046 36.6117044,22.1757625 36.7019087,21.6151584 C36.7921138,21.0545535 36.5479813,20.4530146 36.0924176,20.1133814 C33.7297489,18.4059679 32.1775034,15.6525062 32.1775034,12.5128205 C32.1775034,7.31130359 36.3655816,3.12820513 41.5732976,3.12820513 C46.7810137,3.12820513 50.9690919,7.31130359 50.9690919,12.5128205 C50.9690919,15.6525062 49.4168464,18.4059679 47.0541776,20.1133814 C46.5986139,20.4530146 46.3544814,21.0545535 46.4446865,21.6151584 C46.5348908,22.1757625 46.9554372,22.6706046 47.4946055,22.8505609 C54.0589857,25.0327749 58.8631861,30.7194295 59.5084986,37.5384615 L37.6583834,37.5384615 C37.6094861,37.5361936 37.5604745,37.5361936 37.5115741,37.5384615 C36.691524,37.5766882 35.9802608,38.3568297 36.0187006,39.1758963 C36.0571396,39.9949628 36.838349,40.7052241 37.6583834,40.6666667 L67.4117318,40.6666667 C68.2390511,40.6783505 69,39.9289819 69,39.1025641 C69,38.2761463 68.2390511,37.5267753 67.4117318,37.5384615 L62.6648983,37.5384615 C62.0805566,30.1769057 57.373237,23.9527019 50.8222826,20.8709936 C52.8430274,18.6494127 54.1010233,15.7429817 54.1010233,12.5128205 C54.1010233,5.62069641 48.4736284,0 41.5732976,0 Z M21.2157434,23.4615385 C26.4234595,23.4615385 30.6115377,27.6446682 30.6115377,32.8461538 C30.6115377,35.9858551 29.0592937,38.7392622 26.6966234,40.4467147 C26.2410597,40.7863479 25.9969272,41.3878869 26.0871323,41.9484917 C26.1773366,42.5090958 26.597883,43.003938 27.1370513,43.1838942 C33.699384,45.3654263 38.4542244,51.0534808 39.102008,57.8717949 L3.32947885,57.8717949 C3.97726249,51.0534808 8.73210283,45.3654263 15.2944356,43.1838942 C15.8336038,43.003938 16.2541502,42.5090958 16.3443545,41.9484917 C16.4345596,41.3878869 16.1904271,40.7863479 15.7348634,40.4467147 C13.3721931,38.7392622 11.8199492,35.9858551 11.8199492,32.8461538 C11.8199492,27.6446682 16.0080274,23.4615385 21.2157434,23.4615385 Z" id="Shape"></path>
            </g>
            <g id="noun_Ok_1673314" transform="translate(464.000000, 3223.000000)" fill="#78CB24">
                <path d="M13,0 C5.82029825,0 1.44328993e-15,5.82029825 0,13 C-1.44328993e-15,20.1797017 5.82029825,26 13,26 C20.1797017,26 26,20.1797017 26,13 C26,9.55218563 24.6303611,6.24558476 22.1923882,3.80761184 C19.7544152,1.36963892 16.4478144,0 13,0 Z M11.375,18.841875 C11.1151726,19.0988955 10.7654551,19.2446111 10.4,19.248125 C10.022232,19.2524722 9.65826462,19.1063005 9.3884375,18.841875 L5.598125,15.0028125 L7.629375,13.008125 L10.440625,15.851875 L19.175,7.5928125 L21.125,9.628125 L11.375,18.841875 Z" id="Shape"></path>
            </g>
        </g>
    </g>
</svg>