
<svg width="73px" height="75px" viewBox="0 0 73 75" version="1.1" xmlns="http://www.w3.org/2000/svg" xmlns:xlink="http://www.w3.org/1999/xlink">
    <g id="Welcome" stroke="none" stroke-width="1" fill="none" fill-rule="evenodd">
        <g id="CODE-AVENGERS" transform="translate(-595.000000, -3225.000000)" fill-rule="nonzero">
            <path d="M662.775879,3267.51753 L647.545455,3242.38654 L647.545455,3233.54545 C647.545455,3232.69198 646.853471,3232 646,3232 L610.454545,3232 C610.044789,3232 609.651633,3232.163 609.361861,3232.45277 L595.45277,3246.36186 C595.162997,3246.65163 595,3247.04479 595,3247.45455 L595,3298.45455 C595,3299.30802 595.691983,3300 596.545455,3300 L630.545455,3300 C631.398926,3300 632.090909,3299.30802 632.090909,3298.45455 L632.090909,3271.00886 L638.272727,3274.61498 L638.272727,3298.45455 L641.363636,3298.45455 L641.363636,3275.27273 L650.636364,3275.27273 L650.636364,3298.45455 L653.727273,3298.45455 L653.727273,3274.61498 L659.909091,3271.00886 L659.909091,3298.45455 L663,3298.45455 L663,3268.31818 C663,3268.03596 662.922274,3267.75901 662.775879,3267.51753 Z M641.930393,3253 C643.179449,3253.67855 644.356505,3253.93273 646,3253.93273 C647.643495,3253.93273 648.820551,3253.67855 650.069607,3253 L659,3267.70686 L651.626001,3272 L640.373999,3272 L633,3267.70686 L641.930393,3253 Z M649,3249.4596 C648.298451,3249.84351 647.599582,3250 646.48651,3250 C645.388129,3250 644.692586,3249.85257 644,3249.47962 L646.49307,3245 L649,3249.4596 Z M609,3237 L609,3246 L600,3246 L609,3237 Z M628.666667,3268.8625 L628.666667,3298 L598,3298 L598,3249.175 L610.266667,3249.175 C611.113444,3249.175 611.8,3248.46979 611.8,3247.6 L611.8,3235 L644,3235 L644,3242.43511 L628.88903,3268.04655 C628.743783,3268.29264 628.666667,3268.57488 628.666667,3268.8625 Z M620,3242 L637,3242 L637,3245 L620,3245 L620,3242 Z M620,3250 L631,3250 L631,3253 L620,3253 L620,3250 Z M606,3260 L624,3260 L624,3263 L606,3263 L606,3260 Z M606,3269 L621,3269 L621,3272 L606,3272 L606,3269 Z M606,3279 L621,3279 L621,3282 L606,3282 L606,3279 Z" id="Shape" fill="#000000"></path>
            <g id="noun_Ok_1673314-Copy-4" transform="translate(642.000000, 3225.000000)" fill="#78CB24">
                <path d="M13,0 C5.82029825,0 1.44328993e-15,5.82029825 0,13 C-1.44328993e-15,20.1797017 5.82029825,26 13,26 C20.1797017,26 26,20.1797017 26,13 C26,9.55218563 24.6303611,6.24558476 22.1923882,3.80761184 C19.7544152,1.36963892 16.4478144,0 13,0 Z M11.375,18.841875 C11.1151726,19.0988955 10.7654551,19.2446111 10.4,19.248125 C10.022232,19.2524722 9.65826462,19.1063005 9.3884375,18.841875 L5.598125,15.0028125 L7.629375,13.008125 L10.440625,15.851875 L19.175,7.5928125 L21.125,9.628125 L11.375,18.841875 Z" id="Shape"></path>
            </g>
        </g>
    </g>
</svg>