
<svg width="83px" height="77px" viewBox="0 0 83 77" version="1.1" xmlns="http://www.w3.org/2000/svg" xmlns:xlink="http://www.w3.org/1999/xlink">
    <g id="Welcome" stroke="none" stroke-width="1" fill="none" fill-rule="evenodd">
        <g id="CODE-AVENGERS" transform="translate(-713.000000, -3225.000000)">
            <g id="Group" transform="translate(713.000000, 3232.000000)" fill="#000000">
                <rect id="Rectangle" x="16.3333333" y="30.3333333" width="2.33333333" height="4.66666667"></rect>
                <rect id="Rectangle" x="33.8333333" y="63" width="2.33333333" height="2.33333333"></rect>
                <rect id="Rectangle" x="35" y="53.6666667" width="2.33333333" height="2.33333333"></rect>
                <path d="M21,32.6666667 L30.3333333,32.6666667 L30.3333333,37.3333333 L32.6666667,37.3333333 L32.6666667,31.5 C32.6666667,30.8556678 32.1443322,30.3333333 31.5,30.3333333 L22.1666667,30.3333333 C21.5223345,30.3333333 21,30.8556678 21,31.5 L21,32.6666667 Z" id="Path"></path>
                <rect id="Rectangle" x="35" y="35" width="5.83333333" height="2.33333333"></rect>
                <path d="M22.1666667,28 L31.5,28 C32.1443322,28 32.6666667,27.4776655 32.6666667,26.8333333 L32.6666667,24.5 L30.3333333,24.5 L30.3333333,25.6666667 L21,25.6666667 L21,26.8333333 C21,27.4776655 21.5223345,28 22.1666667,28 Z" id="Path"></path>
                <path d="M61.8333413,70 L61.8333333,46.718 C61.8367895,43.6209297 60.717692,40.627551 58.6833333,38.2923333 L56.8983333,36.1445 L55.1016667,37.6331667 L56.9018333,39.8043333 C58.5765736,41.7181982 59.4997855,44.1748458 59.5,46.718 L59.5,70 L61.8333413,70 Z" id="Path"></path>
                <path d="M46.6666667,70 L47.8333333,70 L47.8333333,67.6666667 C47.8334576,67.4016463 47.7433468,67.1444809 47.5778333,66.9375 C45.0457398,63.7964574 44.7046161,59.4221018 46.7191667,55.9265 L47.6793333,54.2453333 C47.9384447,53.7894809 47.8616055,53.2167659 47.4915,52.8453333 L40.4915,45.8453333 C39.3670793,44.6848919 39.3816447,42.8369574 40.5242178,41.6943844 C41.6667908,40.5518114 43.5147252,40.537246 44.6751667,41.6616667 L54.0085,50.995 L55.6581667,49.3453333 L53.6666667,47.3503333 L53.6666667,38.5 L51.3333333,38.5 L51.3333333,45.017 L48.3163333,42 L49,42 L49,39.6666667 L45.906,39.6666667 C43.9699611,38.0892533 41.1920389,38.0892533 39.256,39.6666667 L35,39.6666667 L35,42 L37.6098333,42 C37.3496153,42.7485137 37.2607083,43.5458864 37.3496667,44.3333333 L35,44.3333333 L35,46.6666667 L38.1686667,46.6666667 C38.3646485,46.9636213 38.590187,47.2399745 38.8418333,47.4915 L40.3503333,49 L35,49 L35,51.3333333 L42.6836667,51.3333333 L45.017,53.6666667 L39.6666667,53.6666667 L39.6666667,56 L44.1,56 C43.7717711,56.7506573 43.5196755,57.5323489 43.3475,58.3333333 L35,58.3333333 L35,60.6666667 L43.1106667,60.6666667 C43.0799325,63.1648401 43.8259728,65.6108738 45.2456667,67.6666667 L22.1666667,67.6666667 C20.23367,67.6666667 18.6666667,66.0996633 18.6666667,64.1666667 L18.6666667,63 L16.3333333,63 L16.3333333,64.1666667 C16.3371905,67.3867287 18.9466047,69.9961429 22.1666667,70 L46.6666667,70 Z" id="Path"></path>
                <path d="M4.66666667,23.3333333 L10.15,23.3333333 L16.856,27.804 C17.2138833,28.0409178 17.6729501,28.0622033 18.0512211,27.8594189 C18.4294921,27.6566344 18.6658757,27.2625301 18.6666667,26.8333333 L18.6666667,23.3333333 L28,23.3333333 C30.5773288,23.3333333 32.6666667,21.2439955 32.6666667,18.6666667 L32.6666667,4.66666667 C32.6666667,2.08933783 30.5773288,0 28,0 L4.66666667,0 C2.08933783,-2.59052039e-16 5.18104078e-16,2.08933783 0,4.66666667 L0,18.6666667 C5.18104078e-16,21.2439955 2.08933783,23.3333333 4.66666667,23.3333333 Z M28,21 L17.5,21 C16.8556678,21 16.3333333,21.5223345 16.3333333,22.1666667 L16.3333333,24.6528333 L11.1475,21.196 C10.9555826,21.0685301 10.7303926,21.0003645 10.5,21 L4.66666667,21 C3.54817826,20.9986923 2.58794187,20.2038789 2.37766667,19.1053333 L11.6095,9.8735 L18.9595,18.2735 C19.3707165,18.7430308 20.0786377,18.8057515 20.566,18.4158333 L25.5826667,14.4013333 L30.2913333,19.11 C30.0789293,20.2075524 29.1179162,21.0002414 28,21 Z M2.33333333,4.66666667 C2.33333333,3.37800225 3.37800225,2.33333333 4.66666667,2.33333333 L28,2.33333333 C29.2886644,2.33333333 30.3333333,3.37800225 30.3333333,4.66666667 L30.3333333,15.8503333 L26.4915,12.0085 C26.0711851,11.5879231 25.4018154,11.5507359 24.9375,11.9221667 L19.9768333,15.8888333 L12.544,7.39783333 C12.3314644,7.15488954 12.0277735,7.01085813 11.7051667,7 C11.3828044,6.99138705 11.0709223,7.11487551 10.8418333,7.34183333 L2.33333333,15.8503333 L2.33333333,4.66666667 Z" id="Shape" fill-rule="nonzero"></path>
                <path d="M21,11.6666667 C22.9329966,11.6666667 24.5,10.0996633 24.5,8.16666667 C24.5,6.23367004 22.9329966,4.66666667 21,4.66666667 C19.0670034,4.66666667 17.5,6.23367004 17.5,8.16666667 C17.5,10.0996633 19.0670034,11.6666667 21,11.6666667 Z M21,7 C21.6443322,7 22.1666667,7.52233446 22.1666667,8.16666667 C22.1666667,8.81099887 21.6443322,9.33333333 21,9.33333333 C20.3556678,9.33333333 19.8333333,8.81099887 19.8333333,8.16666667 C19.8333333,7.52233446 20.3556678,7 21,7 Z" id="Shape" fill-rule="nonzero"></path>
                <path d="M70,19.8333333 C70,17.9003367 68.4329966,16.3333333 66.5,16.3333333 L53.6666667,16.3333333 L53.6666667,10.5 C53.6628095,7.27993799 51.0533953,4.6705238 47.8333333,4.66666667 L35,4.66666667 L35,7 L47.8333333,7 C49.76633,7 51.3333333,8.56700338 51.3333333,10.5 L51.3333333,11.6666667 L35,11.6666667 L35,14 L51.3333333,14 L51.3333333,16.3333333 L40.8333333,16.3333333 C38.9003367,16.3333333 37.3333333,17.9003367 37.3333333,19.8333333 L37.3333333,29.1666667 C37.3333333,31.0996633 38.9003367,32.6666667 40.8333333,32.6666667 L47.8333333,32.6666667 L47.8333333,36.1666667 C47.8334341,36.6384619 48.1176821,37.0637564 48.5535697,37.244291 C48.9894573,37.4248256 49.4911734,37.3250592 49.8248333,36.9915 L54.1496667,32.6666667 L66.5,32.6666667 C68.4329966,32.6666667 70,31.0996633 70,29.1666667 L70,19.8333333 Z M67.6666667,29.1666667 C67.6666667,29.8109989 67.1443322,30.3333333 66.5,30.3333333 L53.6666667,30.3333333 C53.3572727,30.3333994 53.0605749,30.4563591 52.8418333,30.6751667 L50.1666667,33.3503333 L50.1666667,31.5 C50.1666667,30.8556678 49.6443322,30.3333333 49,30.3333333 L40.8333333,30.3333333 C40.1890011,30.3333333 39.6666667,29.8109989 39.6666667,29.1666667 L39.6666667,19.8333333 C39.6666667,19.1890011 40.1890011,18.6666667 40.8333333,18.6666667 L66.5,18.6666667 C67.1443322,18.6666667 67.6666667,19.1890011 67.6666667,19.8333333 L67.6666667,29.1666667 Z" id="Shape" fill-rule="nonzero"></path>
                <rect id="Rectangle" x="42" y="21" width="4.66666667" height="2.33333333"></rect>
                <rect id="Rectangle" x="49" y="21" width="16.3333333" height="2.33333333"></rect>
                <rect id="Rectangle" x="42" y="25.6666667" width="11.6666667" height="2.33333333"></rect>
                <rect id="Rectangle" x="56" y="25.6666667" width="2.33333333" height="2.33333333"></rect>
                <rect id="Rectangle" x="60.6666667" y="25.6666667" width="4.66666667" height="2.33333333"></rect>
                <path d="M9.33333333,39.6666667 C6.7560045,39.6666667 4.66666667,41.7560045 4.66666667,44.3333333 L4.66666667,56 C4.66666667,58.5773288 6.7560045,60.6666667 9.33333333,60.6666667 L28,60.6666667 C30.5773288,60.6666667 32.6666667,58.5773288 32.6666667,56 L32.6666667,44.3333333 C32.6666667,41.7560045 30.5773288,39.6666667 28,39.6666667 L23.3333333,39.6666667 L23.3333333,36.1666667 C23.3333977,35.7362987 23.0965251,35.3408463 22.7170592,35.1378137 C22.3375933,34.9347811 21.8771684,34.9571458 21.5191667,35.196 L14.8166667,39.6666667 L9.33333333,39.6666667 Z M15.8141667,41.804 L21,38.3471667 L21,40.8333333 C21,41.4776655 21.5223345,42 22.1666667,42 L28,42 C29.2886644,42 30.3333333,43.0446689 30.3333333,44.3333333 L30.3333333,56 C30.3333333,57.2886644 29.2886644,58.3333333 28,58.3333333 L9.33333333,58.3333333 C8.04466892,58.3333333 7,57.2886644 7,56 L7,44.3333333 C7,43.0446689 8.04466892,42 9.33333333,42 L15.1666667,42 C15.3970593,41.9996355 15.6222492,41.9314699 15.8141667,41.804 L15.8141667,41.804 Z" id="Shape" fill-rule="nonzero"></path>
                <path d="M14.5833333,55.8425 C14.9443013,56.0509049 15.3890321,56.0509049 15.75,55.8425 L23.9166667,51.1758333 C24.2798917,50.9680401 24.5040084,50.5816287 24.5040084,50.1631667 C24.5040084,49.7447046 24.2798917,49.3582933 23.9166667,49.1505 L15.75,44.4838333 C15.3881332,44.2749025 14.942161,44.2754532 14.5808112,44.4852769 C14.2194614,44.6951007 13.9979184,45.0821539 14,45.5 L14,54.8333333 C14.0004271,55.2497157 14.2227353,55.6343089 14.5833333,55.8425 L14.5833333,55.8425 Z M16.3333333,47.5101667 L20.9813333,50.1666667 L16.3333333,52.8231667 L16.3333333,47.5101667 Z" id="Shape" fill-rule="nonzero"></path>
                <rect id="Rectangle" x="43.1666667" y="35" width="2.33333333" height="2.33333333"></rect>
            </g>
            <g id="noun_Ok_1673314-Copy-3" transform="translate(770.000000, 3225.000000)" fill="#78CB24" fill-rule="nonzero">
                <path d="M13,0 C5.82029825,0 1.44328993e-15,5.82029825 0,13 C-1.44328993e-15,20.1797017 5.82029825,26 13,26 C20.1797017,26 26,20.1797017 26,13 C26,9.55218563 24.6303611,6.24558476 22.1923882,3.80761184 C19.7544152,1.36963892 16.4478144,0 13,0 Z M11.375,18.841875 C11.1151726,19.0988955 10.7654551,19.2446111 10.4,19.248125 C10.022232,19.2524722 9.65826462,19.1063005 9.3884375,18.841875 L5.598125,15.0028125 L7.629375,13.008125 L10.440625,15.851875 L19.175,7.5928125 L21.125,9.628125 L11.375,18.841875 Z" id="Shape"></path>
            </g>
        </g>
    </g>
</svg>