
<svg width="80px" height="76px" viewBox="0 0 80 76" version="1.1" xmlns="http://www.w3.org/2000/svg" xmlns:xlink="http://www.w3.org/1999/xlink">
    <defs>
        <polygon id="path-1" points="0 0 68 0 68 69 0 69"></polygon>
    </defs>
    <g id="Welcome" stroke="none" stroke-width="1" fill="none" fill-rule="evenodd">
        <g id="CODE-AVENGERS" transform="translate(-825.000000, -3225.000000)">
            <g id="Group-3" transform="translate(825.000000, 3232.000000)">
                <mask id="mask-2" fill="white">
                    <use xlink:href="#path-1"></use>
                </mask>
                <g id="Clip-2"></g>
                <path d="M64.5332691,42.2630274 L15.0630196,42.2630274 C14.3454063,42.2630274 13.7629955,41.6842827 13.7629955,40.9692613 C13.7629955,40.2542398 14.3454063,39.6754951 15.0630196,39.6754951 L64.5332691,39.6754951 L64.5332691,42.2630274 Z M66.2666346,45.7130705 L14.1963369,45.7130705 C11.5633548,45.7130705 9.42958192,43.589569 9.42958192,40.9692613 C9.42958192,38.3489536 11.5633548,36.2254521 14.1963369,36.2254521 L66.2666346,36.2254521 L66.2666346,37.9504736 L15.0630196,37.9504736 C13.3877219,37.9504736 12.0296301,39.302028 12.0296301,40.9692613 C12.0296301,42.6364946 13.3877219,43.9880489 15.0630196,43.9880489 L66.2666346,43.9880489 L66.2666346,45.7130705 Z M54.9997592,49.1631135 L8.26822708,49.1631135 C5.63524498,49.1441383 3.48587184,51.2521146 3.46680482,53.8724223 C3.4477378,56.49273 5.56591037,58.6317567 8.19889246,58.6507319 L8.19889246,60.3757534 C4.60909265,60.3567782 1.71437237,57.4449419 1.73343939,53.8724223 C1.75250641,50.2999027 4.67842726,47.4191167 8.26822708,47.438092 L54.9997592,47.4379988 L54.9997592,49.1631135 Z M52.3997111,56.9257104 L15.9990369,56.9257104 L15.9990369,55.2006889 C15.9990369,54.7245829 15.6107631,54.3381781 15.1323542,54.3381781 L9.06557518,54.3381781 C8.58716632,54.3381781 8.19889246,54.7245829 8.19889246,55.2006889 L8.19889246,56.9257104 C6.52359477,56.9067351 5.18110324,55.5396556 5.20017026,53.8724223 C5.21923728,52.205189 6.59292939,50.8691598 8.26822708,50.888135 L52.3997111,50.888135 L52.3997111,56.9257104 Z M15.9990369,60.3757534 L54.9997592,60.3757534 L54.9997592,58.6507319 L15.9990369,58.6507319 L15.9990369,60.3757534 Z M14.2656715,65.8440717 L12.7489767,64.1190501 C12.4326375,63.7619707 11.8848941,63.7274703 11.5252207,64.0422867 C11.4983536,64.066437 11.4732198,64.0923123 11.4489527,64.1190501 L9.9322579,65.8440717 L9.9322579,56.0631996 L14.2656715,56.0631996 L14.2656715,65.8440717 Z M20.3324505,1.72502153 L27.2659123,1.72502153 L27.2659123,14.3090536 L24.0505194,17.5089685 C23.8901831,17.6693955 23.8000481,17.8867482 23.7991814,18.112726 L23.7991814,25.0128121 C23.7991814,25.4889181 24.1874552,25.8753229 24.6658641,25.8753229 L31.5993258,25.8753229 C32.0777347,25.8753229 32.4660086,25.4889181 32.4660086,25.0128121 L32.4660086,18.112726 C32.4668752,17.8832982 32.3767402,17.6633579 32.2146706,17.5003434 L28.9992777,14.3090536 L28.9992777,1.72502153 L45.4662493,1.72502153 L45.4662493,34.5004305 L20.3324505,34.5004305 L20.3324505,1.72502153 Z M28.132595,15.8788232 L30.7326431,18.4663554 L30.7326431,24.1503014 L25.5325468,24.1503014 L25.5325468,18.4663554 L28.132595,15.8788232 Z M47.4856201,3.9502993 C54.0264745,4.12625149 59.1849701,9.54626913 59.0081668,16.0556379 C58.838297,22.317466 53.7777366,27.3528038 47.4856201,27.5227185 C47.3868182,27.5322061 47.2897498,27.5580814 47.1996148,27.6003444 L47.1996148,25.6510701 L47.4856201,25.6510701 C52.9907887,25.6510701 57.4524713,21.2100022 57.4524713,15.7321963 C57.4524713,10.2543905 52.9907887,5.81332255 47.4856201,5.81332255 L47.1996148,5.81332255 L47.1996148,3.89854865 C47.2906165,3.93218657 47.3885516,3.94943679 47.4856201,3.9502993 L47.4856201,3.9502993 Z M47.1996148,7.55559429 L47.4856201,7.55559429 C52.0331043,7.55559429 55.7191059,11.2238526 55.7191059,15.7494465 C55.7191059,20.2750405 52.0331043,23.9432988 47.4856201,23.9432988 L47.1996148,23.9432988 L47.1996148,7.55559429 Z M67.1333173,39.6754951 C67.6125928,39.6754951 68,39.2890903 68,38.8129844 L68,35.3629413 C68,34.8868354 67.6125928,34.5004305 67.1333173,34.5004305 L47.1996148,34.5004305 L47.1996148,29.1959893 C47.2906165,29.2322148 47.3876849,29.2529151 47.4856201,29.2563651 C54.9832923,29.0674752 60.9079353,22.8660228 60.7198652,15.4035797 C60.5369951,8.20678991 54.7172207,2.41589265 47.4856201,2.23390288 C47.3876849,2.23735292 47.2906165,2.25805318 47.1996148,2.29427863 L47.1996148,0.862510763 C47.1996148,0.386404822 46.8122076,0 46.3329321,0 L19.4657678,0 C18.9873589,0 18.5990851,0.386404822 18.5990851,0.862510763 L18.5990851,34.5004305 L14.1963369,34.5004305 C10.6108705,34.497843 7.70228327,37.3872541 7.69881654,40.9545986 C7.69708317,42.7632836 8.45716391,44.4883052 9.79358866,45.7130705 L8.26822708,45.7130705 C3.72074286,45.6940952 0.0191409716,49.3468283 7.39517717e-05,53.8724223 C-0.018993068,58.3980163 3.65140824,62.0817997 8.19889246,62.100775 L8.19889246,68.1383503 C8.19975915,68.6144562 8.588033,69.0008611 9.06644186,68.9999986 C9.3151798,68.9999986 9.55178419,68.8930472 9.71558722,68.7076074 L12.0989647,65.9993236 L14.4823422,68.7076074 C14.7986814,69.0655494 15.3464248,69.0991873 15.7060982,68.7843709 C15.8915683,68.6204938 15.9990369,68.3858909 15.9990369,68.1383503 L15.9990369,62.100775 L55.8664419,62.100775 C56.3457175,62.100775 56.7331247,61.7143701 56.7331247,61.2382642 L56.7331247,57.7882211 C56.7331247,57.3121152 56.3457175,56.9257104 55.8664419,56.9257104 L54.1330765,56.9257104 L54.1330765,50.888135 L55.8664419,50.888135 C56.3457175,50.888135 56.7331247,50.5017302 56.7331247,50.0256243 L56.7331247,47.438092 L67.1333173,47.438092 C67.6125928,47.438092 68,47.0516872 68,46.5755812 L68,43.1255382 C68,42.6494322 67.6125928,42.2630274 67.1333173,42.2630274 L66.2666346,42.2630274 L66.2666346,39.6754951 L67.1333173,39.6754951 Z" id="Fill-1" fill="#000000" mask="url(#mask-2)"></path>
            </g>
            <g id="noun_Ok_1673314-Copy-5" transform="translate(879.000000, 3225.000000)" fill="#78CB24" fill-rule="nonzero">
                <path d="M13,0 C5.82029825,0 1.44328993e-15,5.82029825 0,13 C-1.44328993e-15,20.1797017 5.82029825,26 13,26 C20.1797017,26 26,20.1797017 26,13 C26,9.55218563 24.6303611,6.24558476 22.1923882,3.80761184 C19.7544152,1.36963892 16.4478144,0 13,0 Z M11.375,18.841875 C11.1151726,19.0988955 10.7654551,19.2446111 10.4,19.248125 C10.022232,19.2524722 9.65826462,19.1063005 9.3884375,18.841875 L5.598125,15.0028125 L7.629375,13.008125 L10.440625,15.851875 L19.175,7.5928125 L21.125,9.628125 L11.375,18.841875 Z" id="Shape"></path>
            </g>
        </g>
    </g>
</svg>