
<svg width="204px" height="204px" viewBox="0 0 204 204" version="1.1" xmlns="http://www.w3.org/2000/svg" xmlns:xlink="http://www.w3.org/1999/xlink">
    <defs>
        <polygon id="path-1" points="0.762618182 0.000125 13.6181818 0.000125 13.6181818 3.750125 0.762618182 3.750125"></polygon>
        <polygon id="path-3" points="0.000253333333 0.254308108 75.6202533 0.254308108 75.6202533 94 0.000253333333 94"></polygon>
    </defs>
    <g id="Welcome" stroke="none" stroke-width="1" fill="none" fill-rule="evenodd">
        <g id="CODE-AVENGERS" transform="translate(-1038.000000, -2932.000000)">
            <g id="Group-12" transform="translate(1040.000000, 2934.000000)">
                <circle id="Oval-Copy-2" stroke="#32CAF0" stroke-width="4" fill-rule="nonzero" cx="100" cy="100" r="100"></circle>
                <g id="Group-27" transform="translate(58.000000, 49.000000)">
                    <g id="Group-3" transform="translate(71.000000, 23.000000)">
                        <mask id="mask-2" fill="white">
                            <use xlink:href="#path-1"></use>
                        </mask>
                        <g id="Clip-2"></g>
                        <path d="M13.6184364,1.875125 C13.6184364,0.875125 12.7275273,0.000125 11.7093455,0.000125 L2.67170909,0.000125 C1.6548,0.000125 0.762618182,0.875125 0.762618182,1.875125 C0.762618182,2.875125 1.6548,3.750125 2.67170909,3.750125 L11.7093455,3.750125 C12.8535273,3.750125 13.6184364,2.875125 13.6184364,1.875125" id="Fill-1" fill="#32CAF0" mask="url(#mask-2)"></path>
                    </g>
                    <path d="M71.1865625,16.4968553 L77.4365625,10.2075472 C78.1878125,9.45283019 78.1878125,8.32075472 77.4365625,7.56603774 C76.6865625,6.81132075 75.5615625,6.81132075 74.8115625,7.56603774 L68.5615625,13.8553459 C67.8128125,14.6100629 67.8128125,15.7421384 68.5615625,16.4968553 C68.9365625,16.8742138 69.4378125,17 69.9365625,17 C70.4365625,17 70.8115625,16.7484277 71.1865625,16.4968553" id="Fill-4" fill="#32CAF0"></path>
                    <path d="M62,11.0693069 L62,1.93069307 C62,0.900990099 61.0666667,0 60,0 C58.9333333,0 58,0.900990099 58,1.93069307 L58,11.0693069 C58,12.0990099 58.9333333,13 60,13 C61.0666667,13 62,12.0990099 62,11.0693069" id="Fill-6" fill="#32CAF0"></path>
                    <g id="Group-10" transform="translate(0.000000, 9.000000)">
                        <mask id="mask-4" fill="white">
                            <use xlink:href="#path-3"></use>
                        </mask>
                        <g id="Clip-9"></g>
                        <path d="M75.6202533,24.6434973 C75.6202533,23.6272811 74.7335867,22.7380919 73.7202533,22.7380919 C72.70692,22.7380919 71.8202533,23.6272811 71.8202533,24.6434973 L71.8202533,80.9164703 C71.8202533,85.9975514 67.5135867,90.1894432 62.3202533,90.1894432 L13.3002533,90.1894432 C8.10692,90.1894432 3.80025333,85.9975514 3.80025333,80.9164703 L3.80025333,13.3380919 C3.80025333,8.25701081 8.10692,4.06511892 13.3002533,4.06511892 L51.3002533,4.06511892 C52.3135867,4.06511892 53.2002533,3.17592973 53.2002533,2.15971351 C53.2002533,1.1434973 52.3135867,0.254308108 51.3002533,0.254308108 L13.3002533,0.254308108 C5.95358667,0.254308108 0.000253333333,6.09755135 0.000253333333,13.3380919 L0.000253333333,80.9164703 C0.000253333333,88.1570108 5.95358667,94.0002541 13.3002533,94.0002541 L62.3202533,94.0002541 C69.66692,94.0002541 75.6202533,88.1570108 75.6202533,80.9164703 L75.6202533,24.6434973 Z" id="Fill-8" fill="#32CAF0" mask="url(#mask-4)"></path>
                    </g>
                    <path d="M22.5,63.25 C19.875,63.25 17.75,61.125 17.75,58.5 C17.75,55.875 19.875,53.75 22.5,53.75 C25.125,53.75 27.25,55.875 27.25,58.5 C27.25,61.125 25.125,63.25 22.5,63.25 M22.5,50 C17.75,50 14,53.875 14,58.5 C14,63.125 17.875,67 22.5,67 C27.125,67 31,63.125 31,58.5 C31,53.875 27.25,50 22.5,50" id="Fill-11" fill="#32CAF0"></path>
                    <path d="M22.5,85.25 C19.875,85.25 17.75,83.12625 17.75,80.5 C17.75,77.87625 19.875,75.75 22.5,75.75 C25.125,75.75 27.25,77.87625 27.25,80.5 C27.25,83.12625 25.125,85.25 22.5,85.25 M22.5,72 C17.75,72 14,75.875 14,80.5 C14,85.125 17.875,89 22.5,89 C27.125,89 31,85.125 31,80.5 C31,75.875 27.25,72 22.5,72" id="Fill-13" fill="#32CAF0"></path>
                    <path d="M19.1820903,44 L19.1820903,44 C20.1815618,44 21.0560994,43.4871467 21.5558351,42.7178668 L29.8014752,24.7680023 C30.3012109,23.870509 29.8014752,22.7165892 28.9269376,22.2037359 C28.0524,21.6908826 26.9279945,22.2037359 26.4282588,23.1012291 L19.0571563,39.1278939 L16.5584775,34.7686411 C16.0587417,33.8711479 14.9343363,33.4865079 13.9348648,34.1275745 C13.0603272,34.6404278 12.6855254,35.7943476 13.3101951,36.8200542 L16.6834114,42.7178668 C17.3080812,43.61536 18.1826187,44 19.1820903,44" id="Fill-15" fill="#32CAF0"></path>
                    <path d="M36,33 C36,34.0666667 36.8792271,35 37.884058,35 L60.115942,35 C61.1207729,35 62,34.0666667 62,33 C62,31.9333333 61.1207729,31 60.115942,31 L37.884058,31 C36.8792271,31 36,31.9333333 36,33" id="Fill-17" fill="#32CAF0"></path>
                    <path d="M60.2415459,45 L37.884058,45 C36.8792271,45 36,45.9333333 36,47 C36,48.0666667 36.8792271,49 37.884058,49 L60.115942,49 C61.1207729,49 62,48.0666667 62,47 C62,45.9333333 61.2476329,45 60.2415459,45" id="Fill-19" fill="#32CAF0"></path>
                    <path d="M60.2415459,59 L37.884058,59 C36.8792271,59 36,59.9333333 36,61 C36,62.0666667 36.8792271,63 37.884058,63 L60.115942,63 C61.1207729,63 62,62.0666667 62,61 C62,59.9333333 61.2476329,59 60.2415459,59" id="Fill-21" fill="#32CAF0"></path>
                    <path d="M60.2415459,72 L37.884058,72 C36.8792271,72 36,72.9333333 36,74 C36,75.0666667 36.8792271,76 37.884058,76 L60.115942,76 C61.1207729,76 62,75.0666667 62,74 C62,72.9333333 61.2476329,72 60.2415459,72" id="Fill-23" fill="#32CAF0"></path>
                    <path d="M60.25,85 L41.875,85 C40.875,85 40,85.9333333 40,87 C40,88.068 40.875,89 41.875,89 L60.125,89 C61.125,89 62,88.068 62,87 C62,85.9333333 61.25125,85 60.25,85" id="Fill-25" fill="#32CAF0"></path>
                </g>
            </g>
        </g>
    </g>
</svg>