
<svg width="88px" height="77px" viewBox="0 0 88 77" version="1.1" xmlns="http://www.w3.org/2000/svg" xmlns:xlink="http://www.w3.org/1999/xlink">
    <g id="Welcome" stroke="none" stroke-width="1" fill="none" fill-rule="evenodd">
        <g id="CODE-AVENGERS" transform="translate(-975.000000, -3225.000000)">
            <g id="Group" transform="translate(975.000000, 3232.000000)" fill="#000000">
                <path d="M16,0 C7.163444,-7.10542736e-16 7.10542736e-16,7.163444 0,16 C-7.10542736e-16,24.836556 7.163444,32 16,32 C24.836556,32 32,24.836556 32,16 C32,11.7565362 30.3142906,7.68687356 27.3137085,4.6862915 C24.3131264,1.68570945 20.2434638,0 16,0 Z M9.68,27.2 C10.1757443,24.0941089 12.8547938,21.8087616 16,21.8087616 C19.1452062,21.8087616 21.8242557,24.0941089 22.32,27.2 C18.4047993,29.441546 13.5952007,29.441546 9.68,27.2 L9.68,27.2 Z M16,18.48 C14.5762929,18.48 13.2927732,17.6223795 12.747944,16.3070457 C12.2031149,14.9917118 12.5042712,13.4776971 13.5109841,12.4709841 C14.5176971,11.4642712 16.0317118,11.1631149 17.3470457,11.707944 C18.6623795,12.2527732 19.52,13.5362929 19.52,14.96 C19.4765177,16.87273 17.9132241,18.4004942 16,18.4 L16,18.48 Z M25.12,25.12 C24.3724161,22.8475079 22.803285,20.936021 20.72,19.76 C22.6604665,17.8452144 23.2518536,14.9478365 22.2170011,12.4257552 C21.1821485,9.90367382 18.7261354,8.2566957 16,8.2566957 C13.2738646,8.2566957 10.8178515,9.90367382 9.78299892,12.4257552 C8.74814635,14.9478365 9.33953346,17.8452144 11.28,19.76 C9.19671496,20.936021 7.6275839,22.8475079 6.88,25.12 C1.93760198,20.1013331 1.97878856,12.0325106 6.97216238,7.06455997 C11.9655362,2.09660933 20.0344638,2.09660933 25.0278376,7.06455997 C30.0212114,12.0325106 30.062398,20.1013331 25.12,25.12 L25.12,25.12 Z" id="Shape" fill-rule="nonzero"></path>
                <path d="M54,38 C45.163444,38 38,45.163444 38,54 C38,62.836556 45.163444,70 54,70 C62.836556,70 70,62.836556 70,54 C70,49.7565362 68.3142906,45.6868736 65.3137085,42.6862915 C62.3131264,39.6857094 58.2434638,38 54,38 Z M47.68,65.12 C48.1757443,62.0141089 50.8547938,59.7287616 54,59.7287616 C57.1452062,59.7287616 59.8242557,62.0141089 60.32,65.12 C56.4047993,67.361546 51.5952007,67.361546 47.68,65.12 L47.68,65.12 Z M54,56.4 C52.0559577,56.4 50.48,54.8240423 50.48,52.88 C50.48,50.9359577 52.0559577,49.36 54,49.36 C55.9440423,49.36 57.52,50.9359577 57.52,52.88 C57.52,54.8240423 55.9440423,56.4 54,56.4 L54,56.4 Z M63.12,63.04 C62.3724161,60.7675079 60.803285,58.856021 58.72,57.68 C60.6604665,55.7652144 61.2518536,52.8678365 60.2170011,50.3457552 C59.1821485,47.8236738 56.7261354,46.1766957 54,46.1766957 C51.2738646,46.1766957 48.8178515,47.8236738 47.7829989,50.3457552 C46.7481464,52.8678365 47.3395335,55.7652144 49.28,57.68 C47.196715,58.856021 45.6275839,60.7675079 44.88,63.04 C39.937602,58.0213331 39.9787886,49.9525106 44.9721624,44.98456 C49.9655362,40.0166093 58.0344638,40.0166093 63.0278376,44.98456 C68.0212114,49.9525106 68.062398,58.0213331 63.12,63.04 L63.12,63.04 Z" id="Shape" fill-rule="nonzero"></path>
                <polygon id="Path" points="39 0 39 3.28267477 58.383378 3.28267477 58.383378 20.6808511 53.2359249 15.4285714 50.9839142 17.8085106 59.9919571 27 69 17.8085106 66.7479893 15.4285714 61.6005362 20.6808511 61.6005362 0"></polygon>
                <polygon id="Path" points="16.7640751 54.5714286 19.0160858 52.1914894 10.0080429 43 1 52.1914894 3.25201072 54.5714286 8.39946381 49.3191489 8.39946381 70 31 70 31 66.7173252 11.616622 66.7173252 11.616622 49.3191489"></polygon>
            </g>
            <g id="noun_Ok_1673314-Copy-4" transform="translate(1037.000000, 3225.000000)" fill="#78CB24" fill-rule="nonzero">
                <path d="M13,0 C5.82029825,0 1.44328993e-15,5.82029825 0,13 C-1.44328993e-15,20.1797017 5.82029825,26 13,26 C20.1797017,26 26,20.1797017 26,13 C26,9.55218563 24.6303611,6.24558476 22.1923882,3.80761184 C19.7544152,1.36963892 16.4478144,0 13,0 Z M11.375,18.841875 C11.1151726,19.0988955 10.7654551,19.2446111 10.4,19.248125 C10.022232,19.2524722 9.65826462,19.1063005 9.3884375,18.841875 L5.598125,15.0028125 L7.629375,13.008125 L10.440625,15.851875 L19.175,7.5928125 L21.125,9.628125 L11.375,18.841875 Z" id="Shape"></path>
            </g>
        </g>
    </g>
</svg>