
<svg width="69px" height="79px" viewBox="0 0 69 79" version="1.1" xmlns="http://www.w3.org/2000/svg" xmlns:xlink="http://www.w3.org/1999/xlink">
    <g id="Welcome" stroke="none" stroke-width="1" fill="none" fill-rule="evenodd">
        <g id="CODE-AVENGERS" transform="translate(-1106.000000, -3225.000000)" fill-rule="nonzero">
            <g id="noun_Ok_1673314-Copy-3" transform="translate(1149.000000, 3225.000000)" fill="#78CB24">
                <path d="M13,0 C5.82029825,0 1.44328993e-15,5.82029825 0,13 C-1.44328993e-15,20.1797017 5.82029825,26 13,26 C20.1797017,26 26,20.1797017 26,13 C26,9.55218563 24.6303611,6.24558476 22.1923882,3.80761184 C19.7544152,1.36963892 16.4478144,0 13,0 Z M11.375,18.841875 C11.1151726,19.0988955 10.7654551,19.2446111 10.4,19.248125 C10.022232,19.2524722 9.65826462,19.1063005 9.3884375,18.841875 L5.598125,15.0028125 L7.629375,13.008125 L10.440625,15.851875 L19.175,7.5928125 L21.125,9.628125 L11.375,18.841875 Z" id="Shape"></path>
            </g>
            <g id="noun_student_1880593" transform="translate(1106.000000, 3232.000000)" fill="#000000">
                <path d="M0,53.4410047 L0,71.0992743 C0,71.5966966 0.406717283,72 0.909341749,72 L55.0906583,72 C55.5932827,72 56,71.5966966 56,71.0992743 L56,53.4410047 C56,44.716709 49.6999889,37.6023285 41.8545852,37.2925941 L41.9425001,37.1355828 C42.152963,36.7591076 42.0650481,36.2871943 41.7320372,36.0096757 L37.9943229,32.8932001 C37.8051727,32.7348694 37.5565246,32.6596624 37.3114285,32.6869304 C37.0645564,32.7133189 36.8398851,32.8382242 36.6880321,33.0330588 L36.0895006,33.8035465 L36.0895006,29.9911855 C40.8746451,27.2092934 44.1092909,22.0207198 44.1092909,16.076722 C44.1092909,7.21196273 36.9331281,0 28.1123355,0 C19.291543,0 12.1153802,7.21196273 12.1153802,16.076722 C12.1153802,21.8588157 15.1786364,26.9225389 19.7497659,29.7556686 L19.7497659,33.7464265 L19.1956358,33.0330588 C19.0437828,32.8382241 18.8191115,32.7133188 18.5722394,32.6869304 C18.3262553,32.6587827 18.0784952,32.7348694 17.889345,32.8932001 L14.1516307,36.0096757 C13.8186198,36.2871943 13.7307049,36.7591076 13.9411678,37.1355828 L14.0326348,37.2989163 C6.23995809,37.6724229 0,44.7587106 0,53.4410047 Z M37.5503084,34.8776114 L39.9888362,36.9104014 L33.5435213,48.4236812 L29.5820238,45.134801 L37.5503084,34.8776114 Z M41.819397,12.4899822 C40.4235264,12.6898197 30.2986632,13.7435984 20.0354894,4.35959147 C22.3297124,2.75149043 25.1111304,1.80145136 28.1123356,1.80145136 C34.6981811,1.80145136 40.2330442,6.3523041 41.819397,12.4899822 Z M18.6190831,5.5044103 C18.6317375,5.51765953 18.6366217,5.53508686 18.6503861,5.54773134 C20.2785873,7.05214778 21.9010164,8.30158572 23.4913655,9.34854746 C22.5075403,10.6459245 19.6128986,13.7700418 13.9895656,14.9739048 C14.276288,11.2255357 16.0048366,7.88640756 18.6190831,5.5044103 Z M13.9711391,16.8149938 C20.6164825,15.5252584 23.933493,11.834944 25.0424192,10.311396 C31.0117505,13.7984095 36.3592395,14.4450364 39.4782195,14.4450364 C40.8595487,14.4450364 41.7941993,14.3206809 42.1629534,14.2613618 C42.2385468,14.8573009 42.2906076,15.4604418 42.2906076,16.076722 C42.2906076,23.9479562 35.9305435,30.3519926 28.1123357,30.3519926 C20.541666,30.3519926 14.3563216,24.3422985 13.9711391,16.8149938 Z M21.5684496,30.7314365 C23.568735,31.6372749 25.7797054,32.153444 28.1123357,32.153444 C30.2942231,32.153444 32.3739871,31.7094033 34.2708172,30.9110429 L34.2708172,36.1448067 L27.9418341,44.2922399 L21.5684496,36.0876317 L21.5684496,30.7314365 Z M18.3333598,34.8776114 L26.3016444,45.134801 L22.3401468,48.4236812 L15.894832,36.9104014 L18.3333598,34.8776114 Z M14.672904,39.0645784 L15.0210114,39.0645784 L21.2833923,50.2519608 C21.4157086,50.4872579 21.6465962,50.6517459 21.9130049,50.7010043 C21.9680627,50.7111199 22.0240085,50.7159578 22.0790664,50.7159578 C22.2913053,50.7159578 22.4982161,50.6425099 22.6633895,50.5057299 L27.9418341,46.1237082 L33.2202788,50.5057299 C33.3854522,50.64251 33.592363,50.7159578 33.8046019,50.7159578 C33.8596597,50.7159578 33.9156055,50.7111199 33.9706634,50.7010043 C34.2370721,50.6517459 34.4679596,50.4872579 34.6002759,50.2519608 L40.8626569,39.0645784 L41.3270961,39.0645784 C48.415344,39.0645784 54.1813166,45.513915 54.1813166,53.4410047 L54.1813166,70.1985486 L44.2194066,70.1985486 L44.2194066,64.5637354 C44.2194066,64.0663132 43.8126893,63.6630097 43.3100649,63.6630097 C42.8074404,63.6630097 42.4007231,64.0663132 42.4007231,64.5637354 L42.4007231,70.1985486 L13.8248363,70.1985486 L13.8248363,64.5637354 C13.8248363,64.0663132 13.418119,63.6630097 12.9154945,63.6630097 C12.4128701,63.6630097 12.0061528,64.0663132 12.0061528,64.5637354 L12.0061528,70.1985486 L1.8186835,70.1985486 L1.8186835,53.4410047 C1.8186835,45.5139151 7.58465612,39.0645784 14.672904,39.0645784 Z" id="Shape"></path>
                <path d="M16,59 C18.2052042,59 20,57.2056272 20,55 C20,52.7943728 18.2052041,51 16,51 C13.7947959,51 12,52.7943728 12,55 C12,57.2056272 13.7947959,59 16,59 Z M16,52.7330231 C17.2498413,52.7330231 18.2669769,53.7501587 18.2669769,55 C18.2669769,56.2498413 17.2498413,57.2669769 16,57.2669769 C14.7501587,57.2669769 13.7330231,56.2498413 13.7330231,55 C13.7330231,53.7501587 14.7501587,52.7330231 16,52.7330231 Z" id="Shape"></path>
            </g>
        </g>
    </g>
</svg>