
<svg width="100px" height="76px" viewBox="0 0 100 76" version="1.1" xmlns="http://www.w3.org/2000/svg" xmlns:xlink="http://www.w3.org/1999/xlink">
    <g id="Welcome" stroke="none" stroke-width="1" fill="none" fill-rule="evenodd">
        <g id="CODE-AVENGERS" transform="translate(-1201.000000, -3225.000000)">
            <g id="noun_Ok_1673314-Copy-5" transform="translate(1267.000000, 3225.000000)" fill="#78CB24" fill-rule="nonzero">
                <path d="M13,0 C5.82029825,0 1.44328993e-15,5.82029825 0,13 C-1.44328993e-15,20.1797017 5.82029825,26 13,26 C20.1797017,26 26,20.1797017 26,13 C26,9.55218563 24.6303611,6.24558476 22.1923882,3.80761184 C19.7544152,1.36963892 16.4478144,0 13,0 Z M11.375,18.841875 C11.1151726,19.0988955 10.7654551,19.2446111 10.4,19.248125 C10.022232,19.2524722 9.65826462,19.1063005 9.3884375,18.841875 L5.598125,15.0028125 L7.629375,13.008125 L10.440625,15.851875 L19.175,7.5928125 L21.125,9.628125 L11.375,18.841875 Z" id="Shape"></path>
            </g>
            <g id="Group-23" transform="translate(1201.000000, 3231.000000)" fill="#000000">
                <path d="M19.2630602,50.3268197 L19.9757675,46.2229907 L16.9593597,43.3224449 L21.1292175,42.7247615 L23.0001742,38.985084 L24.8719308,42.7255531 L29.0409886,43.3224449 L26.0245809,46.2229907 L26.7380881,50.3268197 L23.0001742,48.3896921 L19.2630602,50.3268197 Z M26.1293673,53.5859756 C26.6572986,53.8606725 27.1804306,54 27.684365,54 C28.41547,54 29.0673852,53.7078872 29.5193264,53.176701 C29.8824792,52.7492188 30.2728284,51.9829174 30.0592562,50.7614266 L29.4633337,47.3312779 L31.9902051,44.9009625 C32.8692908,44.0578726 33.1948485,43.032707 32.8860886,42.0890796 C32.5773288,41.1454523 31.7046422,40.504229 30.4912,40.3308612 L26.9932549,39.8297571 L25.4294583,36.705179 C24.8871288,35.6214324 24.0024438,35 23.0001742,35 C21.9971046,35 21.1116198,35.6222241 20.5708901,36.705179 L19.0078933,39.8297571 L15.5107481,40.3308612 C14.296506,40.504229 13.4230196,41.1454523 13.1142597,42.0898713 C12.8047,43.0342902 13.1310576,44.0586642 14.0093433,44.9009625 L16.5370146,47.3312779 L15.941892,50.7590517 C15.7275199,51.9821257 16.1154695,52.7484271 16.480222,53.176701 C17.2425229,54.0736219 18.5751496,54.2580726 19.8693813,53.5859756 L23.0001742,51.9631265 L26.1293673,53.5859756 Z" id="Fill-1"></path>
                <path d="M10.9152783,27.9775318 L11.4623217,31.2724409 L8.61049565,29.7231227 L5.75945217,31.26935 L6.30571304,27.9775318 L3.91327826,25.5681682 L7.21275652,25.07285 L8.61127826,22.1449864 L10.0098,25.07285 L13.3069304,25.5704864 L10.9152783,27.9775318 Z M14.7531913,31.9856682 L14.2609304,29.0238045 L16.3348435,26.9358955 C17.1213652,26.1430773 17.4015391,25.1856682 17.1049304,24.30785 C16.8106696,23.4393045 16.0194522,22.8481682 14.9355391,22.6866682 L12.129887,22.2647591 L10.8620609,19.6104409 C10.1671043,18.1569409 9.05658261,18.0000773 8.61127826,18.0000773 C8.1644087,18.0000773 7.05310435,18.1569409 6.36127826,19.6104409 L5.09266957,22.2647591 L2.28701739,22.6858955 C1.20075652,22.8489409 0.408756522,23.4400773 0.115278261,24.3093955 C-0.181330435,25.1872136 0.100408696,26.1446227 0.887713043,26.9366682 L2.96006087,29.0238045 L2.4678,31.9848955 C2.27684348,33.1277591 2.64466957,33.8417591 2.98666957,34.2397136 C3.70275652,35.0742591 4.9431913,35.2419409 6.11788696,34.6052136 L8.61049565,33.2513955 L11.1031043,34.6052136 C11.5859739,34.8671682 12.0696261,35.0000773 12.5391913,35.0000773 C13.209887,35.0000773 13.8109304,34.7303955 14.2319739,34.2412591 C14.5739739,33.8440773 14.9425826,33.13085 14.7531913,31.9856682 L14.7531913,31.9856682 Z" id="Fill-3"></path>
                <path d="M80.0243637,46.2229907 L80.7370589,50.3268197 L77.0000086,48.3896921 L73.2621585,50.3268197 L73.9756535,46.2229907 L70.9592972,43.3224449 L75.128284,42.7255531 L77.0000086,38.985084 L78.8709334,42.7255531 L83.04072,43.3224449 L80.0243637,46.2229907 Z M84.4901067,40.3308612 L80.9922213,39.8297571 L79.4300511,36.7067622 C78.8885308,35.6222241 78.003061,35 77,35 C75.997756,35 75.1122863,35.6214324 74.570766,36.705179 L73.006996,39.8297571 L69.5091106,40.3308612 C68.2956891,40.504229 67.4230175,41.1454523 67.113463,42.0890796 C66.8055083,43.032707 67.1310604,44.0578726 68.0093312,44.9009625 L70.5369594,47.3312779 L69.941047,50.7614266 C69.7274785,51.9829174 70.1170212,52.7492188 70.4801677,53.176701 C71.2440554,54.0728303 72.5750596,54.2580726 73.8716688,53.5859756 L77.0000086,51.9631265 L80.130748,53.5859756 C80.6586704,53.8606725 81.1817934,54 81.6857193,54 C82.4168117,54 83.0687158,53.7078872 83.5198495,53.176701 C83.8837959,52.7484271 84.2725388,51.9821257 84.0581703,50.7614266 L83.4630578,47.3312779 L85.9898861,44.9017541 C86.8689568,44.0586642 87.1953088,43.0342902 86.8857543,42.0898713 C86.5761999,41.1454523 85.7035282,40.504229 84.4901067,40.3308612 L84.4901067,40.3308612 Z" id="Fill-6"></path>
                <path d="M93.7748792,27.9774545 L94.3149151,31.2723636 L91.5003932,29.7230455 L88.6843261,31.2692727 L89.224362,27.9774545 L86.862574,25.5680909 L90.1190137,25.0727727 L91.4996206,22.1449091 L92.8802274,25.0727727 L96.1358945,25.5704091 L93.7748792,27.9774545 Z M99.8860151,24.3093182 C99.5962963,23.44 98.8144417,22.8488636 97.7436409,22.6865909 L94.9731563,22.2646818 L93.7215709,19.6119091 C93.0370619,18.1568636 91.9399932,18 91.4996206,18 C91.0592479,18 89.9629519,18.1568636 89.2776703,19.6103636 L88.0260849,22.2646818 L85.2571454,22.6858182 C84.185572,22.8480909 83.40449,23.4392273 83.1139986,24.3077727 C82.8211894,25.1855909 83.0985469,26.143 83.875766,26.9365909 L85.9215673,29.0237273 L85.4356122,31.9879091 C85.2494196,33.1307727 85.6133064,33.844 85.9501529,34.2411818 C86.658612,35.0734091 87.8816118,35.2403182 89.0389419,34.6051364 L91.5003932,33.2513182 L93.9610718,34.6051364 C94.4377559,34.8670909 94.9152125,35 95.3787626,35 C96.0424119,35 96.6357561,34.7303182 97.051406,34.2396364 C97.3897976,33.8416818 97.7521393,33.1276818 97.5636289,31.9855909 L97.0776739,29.0237273 L99.1234751,26.9373636 C99.9014668,26.1445455 100.178824,25.1871364 99.8860151,24.3093182 L99.8860151,24.3093182 Z" id="Fill-8"></path>
                <path d="M50.5,3.17647059 C56.1922353,3.17647059 60.8235294,7.80697059 60.8235294,13.4984118 C60.8235294,19.1914412 56.1922353,23.8235294 50.5,23.8235294 C44.8077647,23.8235294 40.1764706,19.1914412 40.1764706,13.4984118 C40.1764706,7.80697059 44.8077647,3.17647059 50.5,3.17647059 M50.5,27 C57.9575588,27 64,20.9559706 64,13.4984118 C64,6.04244118 57.9575588,0 50.5,0 C43.0456176,0 37,6.04244118 37,13.4984118 C37,20.9559706 43.0456176,27 50.5,27" id="Fill-10"></path>
                <path d="M56.7495784,66.5178111 C56.7660378,66.6197 56.7754432,66.7083667 56.7801459,66.7845889 C56.7393892,66.7659222 56.6962811,66.7433667 56.6476865,66.7177 L50.1101459,63.1500333 L43.5726054,66.7169222 C43.5240108,66.7433667 43.4801189,66.7643667 43.4409297,66.7838111 C43.4440649,66.7075889 43.4542541,66.6189222 43.4714973,66.5170333 L44.7028216,59.0542556 L39.4671459,53.7552556 C39.3715243,53.6580333 39.3002,53.5709222 39.2500378,53.5009222 C39.318227,53.4807 39.4020919,53.4620333 39.5039838,53.4472556 L46.7955243,52.3474778 L50.0427405,45.5139222 C50.0670378,45.4641444 50.0889838,45.4198111 50.1109297,45.3801444 C50.1336595,45.4205889 50.1563892,45.4649222 50.1799027,45.5154778 L53.4255514,52.3467 L60.7163081,53.4472556 C60.8174162,53.4620333 60.9020649,53.4807 60.9694703,53.5009222 C60.9177405,53.5717 60.8472,53.6588111 60.7500108,53.7568111 L55.5174703,59.0542556 L56.7495784,66.5178111 Z M58.8681459,60.1065889 L62.9877135,55.9361444 C64.0583622,54.8534778 64.4557405,53.5872556 64.0787405,52.4625889 C63.7056595,51.3542556 62.6514703,50.5920333 61.1873622,50.3711444 L55.5488216,49.5202556 L53.0148486,44.1878111 C52.0758757,42.2130333 50.6705514,41.9999222 50.1101459,41.9999222 C49.548173,41.9999222 48.1428486,42.2130333 47.2070108,44.1885889 L44.6722541,49.5202556 L39.0329297,50.3711444 C37.5672541,50.5920333 36.5130649,51.3550333 36.1407676,52.4641444 C35.7629838,53.5895889 36.1603622,54.8542556 37.230227,55.9345889 L41.3513622,60.1073667 L40.3771189,66.0122556 C40.1129838,67.6004778 40.5848216,68.5493667 41.0260919,69.0665889 C41.9297946,70.1235889 43.5083351,70.3017 45.082173,69.4438111 L50.1101459,66.6990333 L55.1365514,69.4438111 C55.8137405,69.8124778 56.4760378,70.0007 57.1054162,70.0007 C57.9370108,70.0007 58.6776865,69.6685889 59.1918486,69.0665889 C59.6346865,68.5493667 60.1065243,67.6004778 59.843173,66.0145889 L58.8681459,60.1065889 Z" id="Fill-12"></path>
                <path d="M28.9416203,37 C29.8036708,35.4382567 30.8085938,34.0556901 31.9684289,32.8587571 C34.5088292,30.2348668 37.8687393,28.4382567 42,27.4753834 C40.8618365,26.7699758 39.802333,25.9483454 38.8640304,25 C33.3473887,26.803067 29.5684932,30.0330912 27,34.0096852 C27.5626605,34.54318 28.0514769,35.1912833 28.4263164,35.9548023 L28.9416203,37 Z" id="Fill-15"></path>
                <path d="M26.0580388,58.0993474 C25.5493232,58.0993474 25.1434414,57.724438 25.1348719,57.4010152 C25.1309767,57.2436548 25.1325348,57.0942712 25.1286396,56.9383611 C25.0047716,56.8861494 24.8816827,56.8419144 24.7593729,56.7824511 L23.1568799,56 L22,56.5656273 C22.0054533,56.870921 22.0116857,57.1762146 22.0194761,57.4786077 C22.0747882,59.4256708 23.9203428,61 26.0580388,61 L37.9742916,61 L38,60.8513416 L35.1011783,58.0993474 L26.0580388,58.0993474 Z" id="Fill-17"></path>
                <path d="M58,27.391267 C62.0445364,28.3836586 65.3662297,30.1675819 67.9199527,32.7335098 C69.1391963,33.9593119 70.2037176,35.3843864 71.1151284,37 L71.8081552,35.6225604 C72.1296873,34.9818723 72.5382508,34.4277208 73,33.949785 C70.3955088,30.0397618 66.6120662,26.8394972 61.1645536,25 C60.2128505,25.9169699 59.1483292,26.7140589 58,27.391267" id="Fill-19"></path>
                <path d="M75.2348275,56.7818393 C75.1180221,56.8391355 74.9949871,56.8739484 74.8766243,56.9239919 C74.8742882,57.0908036 74.877403,57.2518132 74.8735095,57.4208007 C74.8665012,57.7283145 74.4607972,58.0989266 73.9663211,58.0989266 L64.8959945,58.0989266 L62,60.8505947 L62.0256972,61 L73.9663211,61 C76.0999659,61 77.9462695,59.4261677 77.9875408,57.4780969 C77.9937704,57.1771105 77.9976639,56.8732231 78,56.5686104 L76.8358398,56 L75.2348275,56.7818393 Z" id="Fill-21"></path>
            </g>
        </g>
    </g>
</svg>