
<svg width="42px" height="35px" viewBox="0 0 42 35" version="1.1" xmlns="http://www.w3.org/2000/svg" xmlns:xlink="http://www.w3.org/1999/xlink">
    <defs>
        <polygon id="path-1" points="0 0 42 0 42 35 0 35"></polygon>
    </defs>
    <g id="Welcome" stroke="none" stroke-width="1" fill="none" fill-rule="evenodd">
        <g id="CODE-AVENGERS" transform="translate(-513.000000, -3018.000000)">
            <g id="Group-3" transform="translate(513.000000, 3018.000000)">
                <mask id="mask-2" fill="white">
                    <use xlink:href="#path-1"></use>
                </mask>
                <g id="Clip-2"></g>
                <path d="M26.1138758,0.77503996 C25.0634732,-0.258346653 23.3598277,-0.258346653 22.3094251,0.77503996 C21.2585115,1.80842657 21.2585115,3.48447406 22.3094251,4.51786067 L32.8149838,14.8532354 L2.69015499,14.8532354 C1.20425711,14.8532354 0,16.0379842 0,17.4998114 C0,18.9616386 1.20476825,20.1463875 2.69015499,20.1463875 L32.8149838,20.1463875 L22.3094251,30.4817622 C21.2585115,31.5146459 21.2585115,33.1906934 22.3094251,34.2245829 C22.834882,34.7410248 23.523394,35 24.2113949,35 C24.8993958,35 25.5884189,34.7410248 26.1133646,34.2245829 L41.2105369,19.3724789 C41.2739188,19.3101237 41.3342339,19.2447514 41.390971,19.1763618 C41.4149948,19.1482014 41.4349294,19.1185324 41.4574198,19.0898691 C41.4875774,19.0496399 41.5192683,19.0104165 41.5473813,18.9686787 C41.5724274,18.9324725 41.5933843,18.8942548 41.6163858,18.8570428 C41.6388762,18.8203337 41.6618777,18.7846303 41.6828347,18.7469155 C41.7037916,18.7081949 41.7216817,18.6684686 41.740594,18.6287423 C41.7589952,18.5900217 41.7789299,18.5523069 41.7952865,18.5125806 C41.8116431,18.47386 41.8249329,18.4336309 41.839245,18.3944074 C41.8545793,18.3526697 41.8709359,18.3114348 41.8847369,18.2681884 C41.8964932,18.2279593 41.9062049,18.1877301 41.9159167,18.1469981 C41.9271619,18.1037517 41.9394293,18.0610082 41.9486299,18.017259 C41.9578306,17.9699898 41.9634531,17.9222176 41.970098,17.8744455 C41.9757206,17.8367307 41.9828766,17.7995187 41.9869658,17.761301 C42.0043447,17.5873099 42.0043447,17.412313 41.9869658,17.2383219 C41.9833878,17.2001042 41.9757206,17.1628922 41.970098,17.1251773 C41.9634531,17.0774052 41.9573194,17.0296331 41.9486299,16.9823638 C41.9394293,16.9381117 41.9271619,16.8958711 41.9159167,16.8526248 C41.9062049,16.8123956 41.8964932,16.7716636 41.8847369,16.7314344 C41.8709359,16.6886909 41.8545793,16.6469532 41.839245,16.6052154 C41.8249329,16.565992 41.8116431,16.5262657 41.7952865,16.4870423 C41.7784187,16.447316 41.7589952,16.4090983 41.7400829,16.3703777 C41.7211705,16.3311543 41.7032805,16.2909251 41.6823235,16.2527074 C41.6618777,16.2149925 41.6383651,16.1792892 41.6158747,16.1425801 C41.5928732,16.1053681 41.5719162,16.0671504 41.5468702,16.0309441 C41.518246,15.9892064 41.4870662,15.9499829 41.4569087,15.9097538 C41.4344183,15.8810905 41.4144837,15.8514215 41.3904598,15.8232611" id="Fill-1" fill="#5C3A8D" mask="url(#mask-2)"></path>
            </g>
        </g>
    </g>
</svg>