
<svg width="30px" height="30px" viewBox="0 0 30 30" version="1.1" xmlns="http://www.w3.org/2000/svg" xmlns:xlink="http://www.w3.org/1999/xlink">
    <defs>
        <polygon id="path-1" points="0 6.66666667e-05 30 6.66666667e-05 30 30 0 30"></polygon>
    </defs>
    <g id="Welcome" stroke="none" stroke-width="1" fill="none" fill-rule="evenodd">
        <g id="CODE-AVENGERS" transform="translate(-135.000000, -3710.000000)">
            <g id="Group-6" transform="translate(135.000000, 3710.000000)">
                <g id="Group-3">
                    <mask id="mask-2" fill="white">
                        <use xlink:href="#path-1"></use>
                    </mask>
                    <g id="Clip-2"></g>
                    <path d="M15,2.06673333 C22.1333333,2.06673333 27.9333333,7.86673333 27.9333333,15.0000667 C27.9333333,22.1334 22.1333333,27.9334 15,27.9334 C7.86666667,27.9334 2.06666667,22.1334 2.06666667,15.0000667 C2.06666667,7.86673333 7.86666667,2.06673333 15,2.06673333 M15,30.0000667 C23.2666667,30.0000667 30,23.2667333 30,15.0000667 C30,6.7334 23.2666667,6.66666667e-05 15,6.66666667e-05 C6.73333333,6.66666667e-05 0,6.7334 0,15.0000667 C0,23.2667333 6.73333333,30.0000667 15,30.0000667" id="Fill-1" fill="#7ED321" mask="url(#mask-2)"></path>
                </g>
                <path d="M12.5597851,20.7652439 C12.7592797,20.9329268 12.9920233,21 13.224767,21 C13.4907597,21 13.7567524,20.8993902 13.956247,20.6981707 L22.7007582,11.777439 C23.0997473,11.375 23.0997473,10.7042683 22.7007582,10.3018293 C22.3017691,9.89939024 21.6367872,9.89939024 21.2377981,10.3018293 L13.1582688,18.5518293 L9.70036323,15.6006098 C9.26812504,15.2317073 8.6031432,15.2987805 8.23740319,15.7347561 C7.87166318,16.1707317 7.93816136,16.8414634 8.37039956,17.2103659 L12.5597851,20.7652439 Z" id="Fill-4" fill="#78CB24"></path>
            </g>
        </g>
    </g>
</svg>